G04 #@! TF.FileFunction,Copper,L2,Bot,Signal*
%FSLAX46Y46*%
G04 Gerber Fmt 4.6, Leading zero omitted, Abs format (unit mm)*
G04 Created by KiCad (PCBNEW 4.0.6) date 01/26/19 15:00:27*
%MOMM*%
%LPD*%
G01*
G04 APERTURE LIST*
%ADD10C,0.100000*%
%ADD11R,1.700000X1.700000*%
%ADD12O,1.700000X1.700000*%
%ADD13R,1.268000X1.268000*%
%ADD14C,1.268000*%
%ADD15C,5.715000*%
%ADD16C,0.254000*%
G04 APERTURE END LIST*
D10*
D11*
X144526000Y-66040000D03*
D12*
X147066000Y-66040000D03*
D11*
X111506000Y-73660000D03*
D12*
X111506000Y-76200000D03*
D11*
X119126000Y-73660000D03*
D12*
X119126000Y-76200000D03*
D11*
X126746000Y-73660000D03*
D12*
X126746000Y-76200000D03*
D11*
X134366000Y-73660000D03*
D12*
X134366000Y-76200000D03*
D11*
X141986000Y-73660000D03*
D12*
X141986000Y-76200000D03*
D11*
X149606000Y-73660000D03*
D12*
X149606000Y-76200000D03*
D13*
X162814000Y-77089000D03*
D14*
X160274000Y-75819000D03*
X162814000Y-74549000D03*
X160274000Y-73279000D03*
X162814000Y-72009000D03*
X160274000Y-70739000D03*
X162814000Y-69469000D03*
X160274000Y-68199000D03*
D15*
X146361150Y-87884000D03*
X139490450Y-87884000D03*
X146361150Y-113284000D03*
X139490450Y-113284000D03*
X165042850Y-113284000D03*
X171913550Y-113284000D03*
X114242850Y-125984000D03*
X121113550Y-125984000D03*
X139642850Y-125984000D03*
X146513550Y-125984000D03*
X165042850Y-125984000D03*
X171913550Y-125984000D03*
X119322850Y-100584000D03*
X126193550Y-100584000D03*
X114242850Y-113284000D03*
X121113550Y-113284000D03*
X159962850Y-100584000D03*
X166833550Y-100584000D03*
X139642850Y-100584000D03*
X146513550Y-100584000D03*
X119322850Y-87884000D03*
X126193550Y-87884000D03*
X159962850Y-87884000D03*
X166833550Y-87884000D03*
D16*
G36*
X176455000Y-106045000D02*
X109549000Y-106045000D01*
X109549000Y-100908306D01*
X122331490Y-100908306D01*
X122468034Y-101652274D01*
X122746482Y-102355552D01*
X123156227Y-102991353D01*
X123681663Y-103535457D01*
X124302776Y-103967142D01*
X124995908Y-104269964D01*
X125734657Y-104432389D01*
X126490886Y-104448229D01*
X127235790Y-104316883D01*
X127940994Y-104043352D01*
X128579640Y-103638055D01*
X129127399Y-103116431D01*
X129563410Y-102498347D01*
X129871063Y-101807346D01*
X130038641Y-101069748D01*
X130040895Y-100908306D01*
X142651490Y-100908306D01*
X142788034Y-101652274D01*
X143066482Y-102355552D01*
X143476227Y-102991353D01*
X144001663Y-103535457D01*
X144622776Y-103967142D01*
X145315908Y-104269964D01*
X146054657Y-104432389D01*
X146810886Y-104448229D01*
X147555790Y-104316883D01*
X148260994Y-104043352D01*
X148899640Y-103638055D01*
X149447399Y-103116431D01*
X149883410Y-102498347D01*
X150191063Y-101807346D01*
X150358641Y-101069748D01*
X150360895Y-100908306D01*
X162971490Y-100908306D01*
X163108034Y-101652274D01*
X163386482Y-102355552D01*
X163796227Y-102991353D01*
X164321663Y-103535457D01*
X164942776Y-103967142D01*
X165635908Y-104269964D01*
X166374657Y-104432389D01*
X167130886Y-104448229D01*
X167875790Y-104316883D01*
X168580994Y-104043352D01*
X169219640Y-103638055D01*
X169767399Y-103116431D01*
X170203410Y-102498347D01*
X170511063Y-101807346D01*
X170678641Y-101069748D01*
X170690705Y-100205803D01*
X170543787Y-99463813D01*
X170255548Y-98764492D01*
X169836965Y-98134474D01*
X169303984Y-97597759D01*
X168676904Y-97174788D01*
X167979611Y-96881674D01*
X167238666Y-96729579D01*
X166482290Y-96724299D01*
X165739293Y-96866033D01*
X165037976Y-97149383D01*
X164405052Y-97563557D01*
X163864628Y-98092779D01*
X163437290Y-98716890D01*
X163139315Y-99412120D01*
X162982051Y-100151985D01*
X162971490Y-100908306D01*
X150360895Y-100908306D01*
X150370705Y-100205803D01*
X150223787Y-99463813D01*
X149935548Y-98764492D01*
X149516965Y-98134474D01*
X148983984Y-97597759D01*
X148356904Y-97174788D01*
X147659611Y-96881674D01*
X146918666Y-96729579D01*
X146162290Y-96724299D01*
X145419293Y-96866033D01*
X144717976Y-97149383D01*
X144085052Y-97563557D01*
X143544628Y-98092779D01*
X143117290Y-98716890D01*
X142819315Y-99412120D01*
X142662051Y-100151985D01*
X142651490Y-100908306D01*
X130040895Y-100908306D01*
X130050705Y-100205803D01*
X129903787Y-99463813D01*
X129615548Y-98764492D01*
X129196965Y-98134474D01*
X128663984Y-97597759D01*
X128036904Y-97174788D01*
X127339611Y-96881674D01*
X126598666Y-96729579D01*
X125842290Y-96724299D01*
X125099293Y-96866033D01*
X124397976Y-97149383D01*
X123765052Y-97563557D01*
X123224628Y-98092779D01*
X122797290Y-98716890D01*
X122499315Y-99412120D01*
X122342051Y-100151985D01*
X122331490Y-100908306D01*
X109549000Y-100908306D01*
X109549000Y-94269073D01*
X109756245Y-94269073D01*
X109810893Y-94756274D01*
X109959132Y-95223582D01*
X110195315Y-95653197D01*
X110510446Y-96028755D01*
X110892521Y-96335952D01*
X111326988Y-96563086D01*
X111797298Y-96701506D01*
X112285537Y-96745939D01*
X112773108Y-96694693D01*
X113241439Y-96549720D01*
X113672693Y-96316542D01*
X114050442Y-96004041D01*
X114360298Y-95624120D01*
X114590460Y-95191249D01*
X114732159Y-94721917D01*
X114776561Y-94269073D01*
X171224245Y-94269073D01*
X171278893Y-94756274D01*
X171427132Y-95223582D01*
X171663315Y-95653197D01*
X171978446Y-96028755D01*
X172360521Y-96335952D01*
X172794988Y-96563086D01*
X173265298Y-96701506D01*
X173753537Y-96745939D01*
X174241108Y-96694693D01*
X174709439Y-96549720D01*
X175140693Y-96316542D01*
X175518442Y-96004041D01*
X175828298Y-95624120D01*
X176058460Y-95191249D01*
X176200159Y-94721917D01*
X176248000Y-94234000D01*
X176247021Y-94163861D01*
X176185575Y-93677470D01*
X176030826Y-93212278D01*
X175788668Y-92786002D01*
X175468324Y-92414880D01*
X175081997Y-92113048D01*
X174644401Y-91892003D01*
X174172204Y-91760163D01*
X173683393Y-91722551D01*
X173196585Y-91780599D01*
X172730323Y-91932097D01*
X172302368Y-92171273D01*
X171929018Y-92489018D01*
X171624497Y-92873229D01*
X171400401Y-93309271D01*
X171265268Y-93780536D01*
X171224245Y-94269073D01*
X114776561Y-94269073D01*
X114780000Y-94234000D01*
X114779021Y-94163861D01*
X114717575Y-93677470D01*
X114562826Y-93212278D01*
X114320668Y-92786002D01*
X114000324Y-92414880D01*
X113613997Y-92113048D01*
X113176401Y-91892003D01*
X112704204Y-91760163D01*
X112215393Y-91722551D01*
X111728585Y-91780599D01*
X111262323Y-91932097D01*
X110834368Y-92171273D01*
X110461018Y-92489018D01*
X110156497Y-92873229D01*
X109932401Y-93309271D01*
X109797268Y-93780536D01*
X109756245Y-94269073D01*
X109549000Y-94269073D01*
X109549000Y-88208306D01*
X122331490Y-88208306D01*
X122468034Y-88952274D01*
X122746482Y-89655552D01*
X123156227Y-90291353D01*
X123681663Y-90835457D01*
X124302776Y-91267142D01*
X124995908Y-91569964D01*
X125734657Y-91732389D01*
X126490886Y-91748229D01*
X127235790Y-91616883D01*
X127940994Y-91343352D01*
X128579640Y-90938055D01*
X129127399Y-90416431D01*
X129563410Y-89798347D01*
X129871063Y-89107346D01*
X130038641Y-88369748D01*
X130040801Y-88215034D01*
X135548275Y-88215034D01*
X135687652Y-88974435D01*
X135971875Y-89692302D01*
X136390120Y-90341291D01*
X136926456Y-90896683D01*
X137560453Y-91337323D01*
X138267964Y-91646426D01*
X139022038Y-91812220D01*
X139793954Y-91828390D01*
X140554310Y-91694318D01*
X141274144Y-91415113D01*
X141926037Y-91001409D01*
X142485160Y-90468964D01*
X142930215Y-89838058D01*
X143244250Y-89132723D01*
X143415304Y-88379824D01*
X143417699Y-88208306D01*
X162971490Y-88208306D01*
X163108034Y-88952274D01*
X163386482Y-89655552D01*
X163796227Y-90291353D01*
X164321663Y-90835457D01*
X164942776Y-91267142D01*
X165635908Y-91569964D01*
X166374657Y-91732389D01*
X167130886Y-91748229D01*
X167875790Y-91616883D01*
X168580994Y-91343352D01*
X169219640Y-90938055D01*
X169767399Y-90416431D01*
X170203410Y-89798347D01*
X170511063Y-89107346D01*
X170678641Y-88369748D01*
X170690705Y-87505803D01*
X170543787Y-86763813D01*
X170255548Y-86064492D01*
X169836965Y-85434474D01*
X169303984Y-84897759D01*
X168676904Y-84474788D01*
X167979611Y-84181674D01*
X167238666Y-84029579D01*
X166482290Y-84024299D01*
X165739293Y-84166033D01*
X165037976Y-84449383D01*
X164405052Y-84863557D01*
X163864628Y-85392779D01*
X163437290Y-86016890D01*
X163139315Y-86712120D01*
X162982051Y-87451985D01*
X162971490Y-88208306D01*
X143417699Y-88208306D01*
X143427618Y-87497957D01*
X143277653Y-86740576D01*
X142983434Y-86026747D01*
X142556168Y-85383661D01*
X142012131Y-84835812D01*
X141372043Y-84404067D01*
X140660286Y-84104872D01*
X139903970Y-83949623D01*
X139131903Y-83944233D01*
X138373493Y-84088907D01*
X137657628Y-84378135D01*
X137011575Y-84800901D01*
X136459941Y-85341101D01*
X136023738Y-85978159D01*
X135719581Y-86687810D01*
X135559055Y-87443023D01*
X135548275Y-88215034D01*
X130040801Y-88215034D01*
X130050705Y-87505803D01*
X129903787Y-86763813D01*
X129615548Y-86064492D01*
X129196965Y-85434474D01*
X128663984Y-84897759D01*
X128036904Y-84474788D01*
X127339611Y-84181674D01*
X126598666Y-84029579D01*
X125842290Y-84024299D01*
X125099293Y-84166033D01*
X124397976Y-84449383D01*
X123765052Y-84863557D01*
X123224628Y-85392779D01*
X122797290Y-86016890D01*
X122499315Y-86712120D01*
X122342051Y-87451985D01*
X122331490Y-88208306D01*
X109549000Y-88208306D01*
X109549000Y-82169000D01*
X176455000Y-82169000D01*
X176455000Y-106045000D01*
X176455000Y-106045000D01*
G37*
X176455000Y-106045000D02*
X109549000Y-106045000D01*
X109549000Y-100908306D01*
X122331490Y-100908306D01*
X122468034Y-101652274D01*
X122746482Y-102355552D01*
X123156227Y-102991353D01*
X123681663Y-103535457D01*
X124302776Y-103967142D01*
X124995908Y-104269964D01*
X125734657Y-104432389D01*
X126490886Y-104448229D01*
X127235790Y-104316883D01*
X127940994Y-104043352D01*
X128579640Y-103638055D01*
X129127399Y-103116431D01*
X129563410Y-102498347D01*
X129871063Y-101807346D01*
X130038641Y-101069748D01*
X130040895Y-100908306D01*
X142651490Y-100908306D01*
X142788034Y-101652274D01*
X143066482Y-102355552D01*
X143476227Y-102991353D01*
X144001663Y-103535457D01*
X144622776Y-103967142D01*
X145315908Y-104269964D01*
X146054657Y-104432389D01*
X146810886Y-104448229D01*
X147555790Y-104316883D01*
X148260994Y-104043352D01*
X148899640Y-103638055D01*
X149447399Y-103116431D01*
X149883410Y-102498347D01*
X150191063Y-101807346D01*
X150358641Y-101069748D01*
X150360895Y-100908306D01*
X162971490Y-100908306D01*
X163108034Y-101652274D01*
X163386482Y-102355552D01*
X163796227Y-102991353D01*
X164321663Y-103535457D01*
X164942776Y-103967142D01*
X165635908Y-104269964D01*
X166374657Y-104432389D01*
X167130886Y-104448229D01*
X167875790Y-104316883D01*
X168580994Y-104043352D01*
X169219640Y-103638055D01*
X169767399Y-103116431D01*
X170203410Y-102498347D01*
X170511063Y-101807346D01*
X170678641Y-101069748D01*
X170690705Y-100205803D01*
X170543787Y-99463813D01*
X170255548Y-98764492D01*
X169836965Y-98134474D01*
X169303984Y-97597759D01*
X168676904Y-97174788D01*
X167979611Y-96881674D01*
X167238666Y-96729579D01*
X166482290Y-96724299D01*
X165739293Y-96866033D01*
X165037976Y-97149383D01*
X164405052Y-97563557D01*
X163864628Y-98092779D01*
X163437290Y-98716890D01*
X163139315Y-99412120D01*
X162982051Y-100151985D01*
X162971490Y-100908306D01*
X150360895Y-100908306D01*
X150370705Y-100205803D01*
X150223787Y-99463813D01*
X149935548Y-98764492D01*
X149516965Y-98134474D01*
X148983984Y-97597759D01*
X148356904Y-97174788D01*
X147659611Y-96881674D01*
X146918666Y-96729579D01*
X146162290Y-96724299D01*
X145419293Y-96866033D01*
X144717976Y-97149383D01*
X144085052Y-97563557D01*
X143544628Y-98092779D01*
X143117290Y-98716890D01*
X142819315Y-99412120D01*
X142662051Y-100151985D01*
X142651490Y-100908306D01*
X130040895Y-100908306D01*
X130050705Y-100205803D01*
X129903787Y-99463813D01*
X129615548Y-98764492D01*
X129196965Y-98134474D01*
X128663984Y-97597759D01*
X128036904Y-97174788D01*
X127339611Y-96881674D01*
X126598666Y-96729579D01*
X125842290Y-96724299D01*
X125099293Y-96866033D01*
X124397976Y-97149383D01*
X123765052Y-97563557D01*
X123224628Y-98092779D01*
X122797290Y-98716890D01*
X122499315Y-99412120D01*
X122342051Y-100151985D01*
X122331490Y-100908306D01*
X109549000Y-100908306D01*
X109549000Y-94269073D01*
X109756245Y-94269073D01*
X109810893Y-94756274D01*
X109959132Y-95223582D01*
X110195315Y-95653197D01*
X110510446Y-96028755D01*
X110892521Y-96335952D01*
X111326988Y-96563086D01*
X111797298Y-96701506D01*
X112285537Y-96745939D01*
X112773108Y-96694693D01*
X113241439Y-96549720D01*
X113672693Y-96316542D01*
X114050442Y-96004041D01*
X114360298Y-95624120D01*
X114590460Y-95191249D01*
X114732159Y-94721917D01*
X114776561Y-94269073D01*
X171224245Y-94269073D01*
X171278893Y-94756274D01*
X171427132Y-95223582D01*
X171663315Y-95653197D01*
X171978446Y-96028755D01*
X172360521Y-96335952D01*
X172794988Y-96563086D01*
X173265298Y-96701506D01*
X173753537Y-96745939D01*
X174241108Y-96694693D01*
X174709439Y-96549720D01*
X175140693Y-96316542D01*
X175518442Y-96004041D01*
X175828298Y-95624120D01*
X176058460Y-95191249D01*
X176200159Y-94721917D01*
X176248000Y-94234000D01*
X176247021Y-94163861D01*
X176185575Y-93677470D01*
X176030826Y-93212278D01*
X175788668Y-92786002D01*
X175468324Y-92414880D01*
X175081997Y-92113048D01*
X174644401Y-91892003D01*
X174172204Y-91760163D01*
X173683393Y-91722551D01*
X173196585Y-91780599D01*
X172730323Y-91932097D01*
X172302368Y-92171273D01*
X171929018Y-92489018D01*
X171624497Y-92873229D01*
X171400401Y-93309271D01*
X171265268Y-93780536D01*
X171224245Y-94269073D01*
X114776561Y-94269073D01*
X114780000Y-94234000D01*
X114779021Y-94163861D01*
X114717575Y-93677470D01*
X114562826Y-93212278D01*
X114320668Y-92786002D01*
X114000324Y-92414880D01*
X113613997Y-92113048D01*
X113176401Y-91892003D01*
X112704204Y-91760163D01*
X112215393Y-91722551D01*
X111728585Y-91780599D01*
X111262323Y-91932097D01*
X110834368Y-92171273D01*
X110461018Y-92489018D01*
X110156497Y-92873229D01*
X109932401Y-93309271D01*
X109797268Y-93780536D01*
X109756245Y-94269073D01*
X109549000Y-94269073D01*
X109549000Y-88208306D01*
X122331490Y-88208306D01*
X122468034Y-88952274D01*
X122746482Y-89655552D01*
X123156227Y-90291353D01*
X123681663Y-90835457D01*
X124302776Y-91267142D01*
X124995908Y-91569964D01*
X125734657Y-91732389D01*
X126490886Y-91748229D01*
X127235790Y-91616883D01*
X127940994Y-91343352D01*
X128579640Y-90938055D01*
X129127399Y-90416431D01*
X129563410Y-89798347D01*
X129871063Y-89107346D01*
X130038641Y-88369748D01*
X130040801Y-88215034D01*
X135548275Y-88215034D01*
X135687652Y-88974435D01*
X135971875Y-89692302D01*
X136390120Y-90341291D01*
X136926456Y-90896683D01*
X137560453Y-91337323D01*
X138267964Y-91646426D01*
X139022038Y-91812220D01*
X139793954Y-91828390D01*
X140554310Y-91694318D01*
X141274144Y-91415113D01*
X141926037Y-91001409D01*
X142485160Y-90468964D01*
X142930215Y-89838058D01*
X143244250Y-89132723D01*
X143415304Y-88379824D01*
X143417699Y-88208306D01*
X162971490Y-88208306D01*
X163108034Y-88952274D01*
X163386482Y-89655552D01*
X163796227Y-90291353D01*
X164321663Y-90835457D01*
X164942776Y-91267142D01*
X165635908Y-91569964D01*
X166374657Y-91732389D01*
X167130886Y-91748229D01*
X167875790Y-91616883D01*
X168580994Y-91343352D01*
X169219640Y-90938055D01*
X169767399Y-90416431D01*
X170203410Y-89798347D01*
X170511063Y-89107346D01*
X170678641Y-88369748D01*
X170690705Y-87505803D01*
X170543787Y-86763813D01*
X170255548Y-86064492D01*
X169836965Y-85434474D01*
X169303984Y-84897759D01*
X168676904Y-84474788D01*
X167979611Y-84181674D01*
X167238666Y-84029579D01*
X166482290Y-84024299D01*
X165739293Y-84166033D01*
X165037976Y-84449383D01*
X164405052Y-84863557D01*
X163864628Y-85392779D01*
X163437290Y-86016890D01*
X163139315Y-86712120D01*
X162982051Y-87451985D01*
X162971490Y-88208306D01*
X143417699Y-88208306D01*
X143427618Y-87497957D01*
X143277653Y-86740576D01*
X142983434Y-86026747D01*
X142556168Y-85383661D01*
X142012131Y-84835812D01*
X141372043Y-84404067D01*
X140660286Y-84104872D01*
X139903970Y-83949623D01*
X139131903Y-83944233D01*
X138373493Y-84088907D01*
X137657628Y-84378135D01*
X137011575Y-84800901D01*
X136459941Y-85341101D01*
X136023738Y-85978159D01*
X135719581Y-86687810D01*
X135559055Y-87443023D01*
X135548275Y-88215034D01*
X130040801Y-88215034D01*
X130050705Y-87505803D01*
X129903787Y-86763813D01*
X129615548Y-86064492D01*
X129196965Y-85434474D01*
X128663984Y-84897759D01*
X128036904Y-84474788D01*
X127339611Y-84181674D01*
X126598666Y-84029579D01*
X125842290Y-84024299D01*
X125099293Y-84166033D01*
X124397976Y-84449383D01*
X123765052Y-84863557D01*
X123224628Y-85392779D01*
X122797290Y-86016890D01*
X122499315Y-86712120D01*
X122342051Y-87451985D01*
X122331490Y-88208306D01*
X109549000Y-88208306D01*
X109549000Y-82169000D01*
X176455000Y-82169000D01*
X176455000Y-106045000D01*
G36*
X176455000Y-130227000D02*
X109549000Y-130227000D01*
X109549000Y-126308306D01*
X117251490Y-126308306D01*
X117388034Y-127052274D01*
X117666482Y-127755552D01*
X118076227Y-128391353D01*
X118601663Y-128935457D01*
X119222776Y-129367142D01*
X119915908Y-129669964D01*
X120654657Y-129832389D01*
X121410886Y-129848229D01*
X122155790Y-129716883D01*
X122860994Y-129443352D01*
X123499640Y-129038055D01*
X124047399Y-128516431D01*
X124483410Y-127898347D01*
X124641587Y-127543073D01*
X127282245Y-127543073D01*
X127336893Y-128030274D01*
X127485132Y-128497582D01*
X127721315Y-128927197D01*
X128036446Y-129302755D01*
X128418521Y-129609952D01*
X128852988Y-129837086D01*
X129323298Y-129975506D01*
X129811537Y-130019939D01*
X130299108Y-129968693D01*
X130767439Y-129823720D01*
X131198693Y-129590542D01*
X131576442Y-129278041D01*
X131886298Y-128898120D01*
X132116460Y-128465249D01*
X132258159Y-127995917D01*
X132306000Y-127508000D01*
X132305021Y-127437861D01*
X132243575Y-126951470D01*
X132088826Y-126486278D01*
X131987725Y-126308306D01*
X142651490Y-126308306D01*
X142788034Y-127052274D01*
X143066482Y-127755552D01*
X143476227Y-128391353D01*
X144001663Y-128935457D01*
X144622776Y-129367142D01*
X145315908Y-129669964D01*
X146054657Y-129832389D01*
X146810886Y-129848229D01*
X147555790Y-129716883D01*
X148260994Y-129443352D01*
X148899640Y-129038055D01*
X149447399Y-128516431D01*
X149883410Y-127898347D01*
X150041587Y-127543073D01*
X153444245Y-127543073D01*
X153498893Y-128030274D01*
X153647132Y-128497582D01*
X153883315Y-128927197D01*
X154198446Y-129302755D01*
X154580521Y-129609952D01*
X155014988Y-129837086D01*
X155485298Y-129975506D01*
X155973537Y-130019939D01*
X156461108Y-129968693D01*
X156929439Y-129823720D01*
X157360693Y-129590542D01*
X157738442Y-129278041D01*
X158048298Y-128898120D01*
X158278460Y-128465249D01*
X158420159Y-127995917D01*
X158468000Y-127508000D01*
X158467021Y-127437861D01*
X158405575Y-126951470D01*
X158250826Y-126486278D01*
X158149725Y-126308306D01*
X168051490Y-126308306D01*
X168188034Y-127052274D01*
X168466482Y-127755552D01*
X168876227Y-128391353D01*
X169401663Y-128935457D01*
X170022776Y-129367142D01*
X170715908Y-129669964D01*
X171454657Y-129832389D01*
X172210886Y-129848229D01*
X172955790Y-129716883D01*
X173660994Y-129443352D01*
X174299640Y-129038055D01*
X174847399Y-128516431D01*
X175283410Y-127898347D01*
X175591063Y-127207346D01*
X175758641Y-126469748D01*
X175770705Y-125605803D01*
X175623787Y-124863813D01*
X175335548Y-124164492D01*
X174916965Y-123534474D01*
X174383984Y-122997759D01*
X173756904Y-122574788D01*
X173059611Y-122281674D01*
X172318666Y-122129579D01*
X171562290Y-122124299D01*
X170819293Y-122266033D01*
X170117976Y-122549383D01*
X169485052Y-122963557D01*
X168944628Y-123492779D01*
X168517290Y-124116890D01*
X168219315Y-124812120D01*
X168062051Y-125551985D01*
X168051490Y-126308306D01*
X158149725Y-126308306D01*
X158008668Y-126060002D01*
X157688324Y-125688880D01*
X157301997Y-125387048D01*
X156864401Y-125166003D01*
X156392204Y-125034163D01*
X155903393Y-124996551D01*
X155416585Y-125054599D01*
X154950323Y-125206097D01*
X154522368Y-125445273D01*
X154149018Y-125763018D01*
X153844497Y-126147229D01*
X153620401Y-126583271D01*
X153485268Y-127054536D01*
X153444245Y-127543073D01*
X150041587Y-127543073D01*
X150191063Y-127207346D01*
X150358641Y-126469748D01*
X150370705Y-125605803D01*
X150223787Y-124863813D01*
X149935548Y-124164492D01*
X149516965Y-123534474D01*
X148983984Y-122997759D01*
X148356904Y-122574788D01*
X147659611Y-122281674D01*
X146918666Y-122129579D01*
X146162290Y-122124299D01*
X145419293Y-122266033D01*
X144717976Y-122549383D01*
X144085052Y-122963557D01*
X143544628Y-123492779D01*
X143117290Y-124116890D01*
X142819315Y-124812120D01*
X142662051Y-125551985D01*
X142651490Y-126308306D01*
X131987725Y-126308306D01*
X131846668Y-126060002D01*
X131526324Y-125688880D01*
X131139997Y-125387048D01*
X130702401Y-125166003D01*
X130230204Y-125034163D01*
X129741393Y-124996551D01*
X129254585Y-125054599D01*
X128788323Y-125206097D01*
X128360368Y-125445273D01*
X127987018Y-125763018D01*
X127682497Y-126147229D01*
X127458401Y-126583271D01*
X127323268Y-127054536D01*
X127282245Y-127543073D01*
X124641587Y-127543073D01*
X124791063Y-127207346D01*
X124958641Y-126469748D01*
X124970705Y-125605803D01*
X124823787Y-124863813D01*
X124535548Y-124164492D01*
X124116965Y-123534474D01*
X123583984Y-122997759D01*
X122956904Y-122574788D01*
X122259611Y-122281674D01*
X121518666Y-122129579D01*
X120762290Y-122124299D01*
X120019293Y-122266033D01*
X119317976Y-122549383D01*
X118685052Y-122963557D01*
X118144628Y-123492779D01*
X117717290Y-124116890D01*
X117419315Y-124812120D01*
X117262051Y-125551985D01*
X117251490Y-126308306D01*
X109549000Y-126308306D01*
X109549000Y-113608306D01*
X117251490Y-113608306D01*
X117388034Y-114352274D01*
X117666482Y-115055552D01*
X118076227Y-115691353D01*
X118601663Y-116235457D01*
X119222776Y-116667142D01*
X119915908Y-116969964D01*
X120654657Y-117132389D01*
X121410886Y-117148229D01*
X122155790Y-117016883D01*
X122860994Y-116743352D01*
X123499640Y-116338055D01*
X124047399Y-115816431D01*
X124483410Y-115198347D01*
X124791063Y-114507346D01*
X124958641Y-113769748D01*
X124960801Y-113615034D01*
X135548275Y-113615034D01*
X135687652Y-114374435D01*
X135971875Y-115092302D01*
X136390120Y-115741291D01*
X136926456Y-116296683D01*
X137560453Y-116737323D01*
X138267964Y-117046426D01*
X139022038Y-117212220D01*
X139793954Y-117228390D01*
X140554310Y-117094318D01*
X141274144Y-116815113D01*
X141926037Y-116401409D01*
X142485160Y-115868964D01*
X142930215Y-115238058D01*
X143244250Y-114532723D01*
X143415304Y-113779824D01*
X143417699Y-113608306D01*
X168051490Y-113608306D01*
X168188034Y-114352274D01*
X168466482Y-115055552D01*
X168876227Y-115691353D01*
X169401663Y-116235457D01*
X170022776Y-116667142D01*
X170715908Y-116969964D01*
X171454657Y-117132389D01*
X172210886Y-117148229D01*
X172955790Y-117016883D01*
X173660994Y-116743352D01*
X174299640Y-116338055D01*
X174847399Y-115816431D01*
X175283410Y-115198347D01*
X175591063Y-114507346D01*
X175758641Y-113769748D01*
X175770705Y-112905803D01*
X175623787Y-112163813D01*
X175335548Y-111464492D01*
X174916965Y-110834474D01*
X174383984Y-110297759D01*
X173756904Y-109874788D01*
X173059611Y-109581674D01*
X172318666Y-109429579D01*
X171562290Y-109424299D01*
X170819293Y-109566033D01*
X170117976Y-109849383D01*
X169485052Y-110263557D01*
X168944628Y-110792779D01*
X168517290Y-111416890D01*
X168219315Y-112112120D01*
X168062051Y-112851985D01*
X168051490Y-113608306D01*
X143417699Y-113608306D01*
X143427618Y-112897957D01*
X143277653Y-112140576D01*
X142983434Y-111426747D01*
X142556168Y-110783661D01*
X142012131Y-110235812D01*
X141372043Y-109804067D01*
X140660286Y-109504872D01*
X139903970Y-109349623D01*
X139131903Y-109344233D01*
X138373493Y-109488907D01*
X137657628Y-109778135D01*
X137011575Y-110200901D01*
X136459941Y-110741101D01*
X136023738Y-111378159D01*
X135719581Y-112087810D01*
X135559055Y-112843023D01*
X135548275Y-113615034D01*
X124960801Y-113615034D01*
X124970705Y-112905803D01*
X124823787Y-112163813D01*
X124535548Y-111464492D01*
X124116965Y-110834474D01*
X123583984Y-110297759D01*
X122956904Y-109874788D01*
X122259611Y-109581674D01*
X121518666Y-109429579D01*
X120762290Y-109424299D01*
X120019293Y-109566033D01*
X119317976Y-109849383D01*
X118685052Y-110263557D01*
X118144628Y-110792779D01*
X117717290Y-111416890D01*
X117419315Y-112112120D01*
X117262051Y-112851985D01*
X117251490Y-113608306D01*
X109549000Y-113608306D01*
X109549000Y-107823000D01*
X176455000Y-107823000D01*
X176455000Y-130227000D01*
X176455000Y-130227000D01*
G37*
X176455000Y-130227000D02*
X109549000Y-130227000D01*
X109549000Y-126308306D01*
X117251490Y-126308306D01*
X117388034Y-127052274D01*
X117666482Y-127755552D01*
X118076227Y-128391353D01*
X118601663Y-128935457D01*
X119222776Y-129367142D01*
X119915908Y-129669964D01*
X120654657Y-129832389D01*
X121410886Y-129848229D01*
X122155790Y-129716883D01*
X122860994Y-129443352D01*
X123499640Y-129038055D01*
X124047399Y-128516431D01*
X124483410Y-127898347D01*
X124641587Y-127543073D01*
X127282245Y-127543073D01*
X127336893Y-128030274D01*
X127485132Y-128497582D01*
X127721315Y-128927197D01*
X128036446Y-129302755D01*
X128418521Y-129609952D01*
X128852988Y-129837086D01*
X129323298Y-129975506D01*
X129811537Y-130019939D01*
X130299108Y-129968693D01*
X130767439Y-129823720D01*
X131198693Y-129590542D01*
X131576442Y-129278041D01*
X131886298Y-128898120D01*
X132116460Y-128465249D01*
X132258159Y-127995917D01*
X132306000Y-127508000D01*
X132305021Y-127437861D01*
X132243575Y-126951470D01*
X132088826Y-126486278D01*
X131987725Y-126308306D01*
X142651490Y-126308306D01*
X142788034Y-127052274D01*
X143066482Y-127755552D01*
X143476227Y-128391353D01*
X144001663Y-128935457D01*
X144622776Y-129367142D01*
X145315908Y-129669964D01*
X146054657Y-129832389D01*
X146810886Y-129848229D01*
X147555790Y-129716883D01*
X148260994Y-129443352D01*
X148899640Y-129038055D01*
X149447399Y-128516431D01*
X149883410Y-127898347D01*
X150041587Y-127543073D01*
X153444245Y-127543073D01*
X153498893Y-128030274D01*
X153647132Y-128497582D01*
X153883315Y-128927197D01*
X154198446Y-129302755D01*
X154580521Y-129609952D01*
X155014988Y-129837086D01*
X155485298Y-129975506D01*
X155973537Y-130019939D01*
X156461108Y-129968693D01*
X156929439Y-129823720D01*
X157360693Y-129590542D01*
X157738442Y-129278041D01*
X158048298Y-128898120D01*
X158278460Y-128465249D01*
X158420159Y-127995917D01*
X158468000Y-127508000D01*
X158467021Y-127437861D01*
X158405575Y-126951470D01*
X158250826Y-126486278D01*
X158149725Y-126308306D01*
X168051490Y-126308306D01*
X168188034Y-127052274D01*
X168466482Y-127755552D01*
X168876227Y-128391353D01*
X169401663Y-128935457D01*
X170022776Y-129367142D01*
X170715908Y-129669964D01*
X171454657Y-129832389D01*
X172210886Y-129848229D01*
X172955790Y-129716883D01*
X173660994Y-129443352D01*
X174299640Y-129038055D01*
X174847399Y-128516431D01*
X175283410Y-127898347D01*
X175591063Y-127207346D01*
X175758641Y-126469748D01*
X175770705Y-125605803D01*
X175623787Y-124863813D01*
X175335548Y-124164492D01*
X174916965Y-123534474D01*
X174383984Y-122997759D01*
X173756904Y-122574788D01*
X173059611Y-122281674D01*
X172318666Y-122129579D01*
X171562290Y-122124299D01*
X170819293Y-122266033D01*
X170117976Y-122549383D01*
X169485052Y-122963557D01*
X168944628Y-123492779D01*
X168517290Y-124116890D01*
X168219315Y-124812120D01*
X168062051Y-125551985D01*
X168051490Y-126308306D01*
X158149725Y-126308306D01*
X158008668Y-126060002D01*
X157688324Y-125688880D01*
X157301997Y-125387048D01*
X156864401Y-125166003D01*
X156392204Y-125034163D01*
X155903393Y-124996551D01*
X155416585Y-125054599D01*
X154950323Y-125206097D01*
X154522368Y-125445273D01*
X154149018Y-125763018D01*
X153844497Y-126147229D01*
X153620401Y-126583271D01*
X153485268Y-127054536D01*
X153444245Y-127543073D01*
X150041587Y-127543073D01*
X150191063Y-127207346D01*
X150358641Y-126469748D01*
X150370705Y-125605803D01*
X150223787Y-124863813D01*
X149935548Y-124164492D01*
X149516965Y-123534474D01*
X148983984Y-122997759D01*
X148356904Y-122574788D01*
X147659611Y-122281674D01*
X146918666Y-122129579D01*
X146162290Y-122124299D01*
X145419293Y-122266033D01*
X144717976Y-122549383D01*
X144085052Y-122963557D01*
X143544628Y-123492779D01*
X143117290Y-124116890D01*
X142819315Y-124812120D01*
X142662051Y-125551985D01*
X142651490Y-126308306D01*
X131987725Y-126308306D01*
X131846668Y-126060002D01*
X131526324Y-125688880D01*
X131139997Y-125387048D01*
X130702401Y-125166003D01*
X130230204Y-125034163D01*
X129741393Y-124996551D01*
X129254585Y-125054599D01*
X128788323Y-125206097D01*
X128360368Y-125445273D01*
X127987018Y-125763018D01*
X127682497Y-126147229D01*
X127458401Y-126583271D01*
X127323268Y-127054536D01*
X127282245Y-127543073D01*
X124641587Y-127543073D01*
X124791063Y-127207346D01*
X124958641Y-126469748D01*
X124970705Y-125605803D01*
X124823787Y-124863813D01*
X124535548Y-124164492D01*
X124116965Y-123534474D01*
X123583984Y-122997759D01*
X122956904Y-122574788D01*
X122259611Y-122281674D01*
X121518666Y-122129579D01*
X120762290Y-122124299D01*
X120019293Y-122266033D01*
X119317976Y-122549383D01*
X118685052Y-122963557D01*
X118144628Y-123492779D01*
X117717290Y-124116890D01*
X117419315Y-124812120D01*
X117262051Y-125551985D01*
X117251490Y-126308306D01*
X109549000Y-126308306D01*
X109549000Y-113608306D01*
X117251490Y-113608306D01*
X117388034Y-114352274D01*
X117666482Y-115055552D01*
X118076227Y-115691353D01*
X118601663Y-116235457D01*
X119222776Y-116667142D01*
X119915908Y-116969964D01*
X120654657Y-117132389D01*
X121410886Y-117148229D01*
X122155790Y-117016883D01*
X122860994Y-116743352D01*
X123499640Y-116338055D01*
X124047399Y-115816431D01*
X124483410Y-115198347D01*
X124791063Y-114507346D01*
X124958641Y-113769748D01*
X124960801Y-113615034D01*
X135548275Y-113615034D01*
X135687652Y-114374435D01*
X135971875Y-115092302D01*
X136390120Y-115741291D01*
X136926456Y-116296683D01*
X137560453Y-116737323D01*
X138267964Y-117046426D01*
X139022038Y-117212220D01*
X139793954Y-117228390D01*
X140554310Y-117094318D01*
X141274144Y-116815113D01*
X141926037Y-116401409D01*
X142485160Y-115868964D01*
X142930215Y-115238058D01*
X143244250Y-114532723D01*
X143415304Y-113779824D01*
X143417699Y-113608306D01*
X168051490Y-113608306D01*
X168188034Y-114352274D01*
X168466482Y-115055552D01*
X168876227Y-115691353D01*
X169401663Y-116235457D01*
X170022776Y-116667142D01*
X170715908Y-116969964D01*
X171454657Y-117132389D01*
X172210886Y-117148229D01*
X172955790Y-117016883D01*
X173660994Y-116743352D01*
X174299640Y-116338055D01*
X174847399Y-115816431D01*
X175283410Y-115198347D01*
X175591063Y-114507346D01*
X175758641Y-113769748D01*
X175770705Y-112905803D01*
X175623787Y-112163813D01*
X175335548Y-111464492D01*
X174916965Y-110834474D01*
X174383984Y-110297759D01*
X173756904Y-109874788D01*
X173059611Y-109581674D01*
X172318666Y-109429579D01*
X171562290Y-109424299D01*
X170819293Y-109566033D01*
X170117976Y-109849383D01*
X169485052Y-110263557D01*
X168944628Y-110792779D01*
X168517290Y-111416890D01*
X168219315Y-112112120D01*
X168062051Y-112851985D01*
X168051490Y-113608306D01*
X143417699Y-113608306D01*
X143427618Y-112897957D01*
X143277653Y-112140576D01*
X142983434Y-111426747D01*
X142556168Y-110783661D01*
X142012131Y-110235812D01*
X141372043Y-109804067D01*
X140660286Y-109504872D01*
X139903970Y-109349623D01*
X139131903Y-109344233D01*
X138373493Y-109488907D01*
X137657628Y-109778135D01*
X137011575Y-110200901D01*
X136459941Y-110741101D01*
X136023738Y-111378159D01*
X135719581Y-112087810D01*
X135559055Y-112843023D01*
X135548275Y-113615034D01*
X124960801Y-113615034D01*
X124970705Y-112905803D01*
X124823787Y-112163813D01*
X124535548Y-111464492D01*
X124116965Y-110834474D01*
X123583984Y-110297759D01*
X122956904Y-109874788D01*
X122259611Y-109581674D01*
X121518666Y-109429579D01*
X120762290Y-109424299D01*
X120019293Y-109566033D01*
X119317976Y-109849383D01*
X118685052Y-110263557D01*
X118144628Y-110792779D01*
X117717290Y-111416890D01*
X117419315Y-112112120D01*
X117262051Y-112851985D01*
X117251490Y-113608306D01*
X109549000Y-113608306D01*
X109549000Y-107823000D01*
X176455000Y-107823000D01*
X176455000Y-130227000D01*
G36*
X176582000Y-80391000D02*
X170098852Y-80391000D01*
X170428372Y-80254845D01*
X171057636Y-79626679D01*
X171398611Y-78805519D01*
X171399387Y-77916381D01*
X171059845Y-77094628D01*
X170431679Y-76465364D01*
X169610519Y-76124389D01*
X168721381Y-76123613D01*
X167899628Y-76463155D01*
X167270364Y-77091321D01*
X166929389Y-77912481D01*
X166928613Y-78801619D01*
X167268155Y-79623372D01*
X167896321Y-80252636D01*
X168229539Y-80391000D01*
X109422000Y-80391000D01*
X109422000Y-76200000D01*
X109991907Y-76200000D01*
X110104946Y-76768285D01*
X110426853Y-77250054D01*
X110908622Y-77571961D01*
X111476907Y-77685000D01*
X111535093Y-77685000D01*
X112103378Y-77571961D01*
X112585147Y-77250054D01*
X112907054Y-76768285D01*
X113020093Y-76200000D01*
X117611907Y-76200000D01*
X117724946Y-76768285D01*
X118046853Y-77250054D01*
X118528622Y-77571961D01*
X119096907Y-77685000D01*
X119155093Y-77685000D01*
X119723378Y-77571961D01*
X120205147Y-77250054D01*
X120527054Y-76768285D01*
X120640093Y-76200000D01*
X125231907Y-76200000D01*
X125344946Y-76768285D01*
X125666853Y-77250054D01*
X126148622Y-77571961D01*
X126716907Y-77685000D01*
X126775093Y-77685000D01*
X127343378Y-77571961D01*
X127825147Y-77250054D01*
X128147054Y-76768285D01*
X128260093Y-76200000D01*
X132851907Y-76200000D01*
X132964946Y-76768285D01*
X133286853Y-77250054D01*
X133768622Y-77571961D01*
X134336907Y-77685000D01*
X134395093Y-77685000D01*
X134963378Y-77571961D01*
X135445147Y-77250054D01*
X135767054Y-76768285D01*
X135880093Y-76200000D01*
X140471907Y-76200000D01*
X140584946Y-76768285D01*
X140906853Y-77250054D01*
X141388622Y-77571961D01*
X141956907Y-77685000D01*
X142015093Y-77685000D01*
X142583378Y-77571961D01*
X143065147Y-77250054D01*
X143387054Y-76768285D01*
X143500093Y-76200000D01*
X148091907Y-76200000D01*
X148204946Y-76768285D01*
X148526853Y-77250054D01*
X149008622Y-77571961D01*
X149576907Y-77685000D01*
X149635093Y-77685000D01*
X150203378Y-77571961D01*
X150685147Y-77250054D01*
X151007054Y-76768285D01*
X151120093Y-76200000D01*
X151094297Y-76070312D01*
X159004780Y-76070312D01*
X159197567Y-76536892D01*
X159554231Y-76894178D01*
X160020473Y-77087779D01*
X160525312Y-77088220D01*
X160991892Y-76895433D01*
X161349178Y-76538769D01*
X161383962Y-76455000D01*
X161532560Y-76455000D01*
X161532560Y-77723000D01*
X161576838Y-77958317D01*
X161715910Y-78174441D01*
X161928110Y-78319431D01*
X162180000Y-78370440D01*
X163448000Y-78370440D01*
X163683317Y-78326162D01*
X163899441Y-78187090D01*
X164044431Y-77974890D01*
X164095440Y-77723000D01*
X164095440Y-76455000D01*
X164051162Y-76219683D01*
X163912090Y-76003559D01*
X163699890Y-75858569D01*
X163448000Y-75807560D01*
X163091111Y-75807560D01*
X163531892Y-75625433D01*
X163889178Y-75268769D01*
X164082779Y-74802527D01*
X164083220Y-74297688D01*
X163890433Y-73831108D01*
X163533769Y-73473822D01*
X163067527Y-73280221D01*
X162562688Y-73279780D01*
X162096108Y-73472567D01*
X161738822Y-73829231D01*
X161545221Y-74295473D01*
X161544780Y-74800312D01*
X161737567Y-75266892D01*
X162094231Y-75624178D01*
X162535863Y-75807560D01*
X162180000Y-75807560D01*
X161944683Y-75851838D01*
X161728559Y-75990910D01*
X161583569Y-76203110D01*
X161532560Y-76455000D01*
X161383962Y-76455000D01*
X161542779Y-76072527D01*
X161543220Y-75567688D01*
X161350433Y-75101108D01*
X160993769Y-74743822D01*
X160527527Y-74550221D01*
X160022688Y-74549780D01*
X159556108Y-74742567D01*
X159198822Y-75099231D01*
X159005221Y-75565473D01*
X159004780Y-76070312D01*
X151094297Y-76070312D01*
X151007054Y-75631715D01*
X150685147Y-75149946D01*
X150203378Y-74828039D01*
X149635093Y-74715000D01*
X149576907Y-74715000D01*
X149008622Y-74828039D01*
X148526853Y-75149946D01*
X148204946Y-75631715D01*
X148091907Y-76200000D01*
X143500093Y-76200000D01*
X143387054Y-75631715D01*
X143065147Y-75149946D01*
X142583378Y-74828039D01*
X142015093Y-74715000D01*
X141956907Y-74715000D01*
X141388622Y-74828039D01*
X140906853Y-75149946D01*
X140584946Y-75631715D01*
X140471907Y-76200000D01*
X135880093Y-76200000D01*
X135767054Y-75631715D01*
X135445147Y-75149946D01*
X134963378Y-74828039D01*
X134395093Y-74715000D01*
X134336907Y-74715000D01*
X133768622Y-74828039D01*
X133286853Y-75149946D01*
X132964946Y-75631715D01*
X132851907Y-76200000D01*
X128260093Y-76200000D01*
X128147054Y-75631715D01*
X127825147Y-75149946D01*
X127343378Y-74828039D01*
X126775093Y-74715000D01*
X126716907Y-74715000D01*
X126148622Y-74828039D01*
X125666853Y-75149946D01*
X125344946Y-75631715D01*
X125231907Y-76200000D01*
X120640093Y-76200000D01*
X120527054Y-75631715D01*
X120205147Y-75149946D01*
X119723378Y-74828039D01*
X119155093Y-74715000D01*
X119096907Y-74715000D01*
X118528622Y-74828039D01*
X118046853Y-75149946D01*
X117724946Y-75631715D01*
X117611907Y-76200000D01*
X113020093Y-76200000D01*
X112907054Y-75631715D01*
X112585147Y-75149946D01*
X112103378Y-74828039D01*
X111535093Y-74715000D01*
X111476907Y-74715000D01*
X110908622Y-74828039D01*
X110426853Y-75149946D01*
X110104946Y-75631715D01*
X109991907Y-76200000D01*
X109422000Y-76200000D01*
X109422000Y-73530312D01*
X159004780Y-73530312D01*
X159197567Y-73996892D01*
X159554231Y-74354178D01*
X160020473Y-74547779D01*
X160525312Y-74548220D01*
X160991892Y-74355433D01*
X161349178Y-73998769D01*
X161542779Y-73532527D01*
X161543220Y-73027688D01*
X161350433Y-72561108D01*
X161050161Y-72260312D01*
X161544780Y-72260312D01*
X161737567Y-72726892D01*
X162094231Y-73084178D01*
X162560473Y-73277779D01*
X163065312Y-73278220D01*
X163531892Y-73085433D01*
X163889178Y-72728769D01*
X164082779Y-72262527D01*
X164083220Y-71757688D01*
X163890433Y-71291108D01*
X163533769Y-70933822D01*
X163067527Y-70740221D01*
X162562688Y-70739780D01*
X162096108Y-70932567D01*
X161738822Y-71289231D01*
X161545221Y-71755473D01*
X161544780Y-72260312D01*
X161050161Y-72260312D01*
X160993769Y-72203822D01*
X160527527Y-72010221D01*
X160022688Y-72009780D01*
X159556108Y-72202567D01*
X159198822Y-72559231D01*
X159005221Y-73025473D01*
X159004780Y-73530312D01*
X109422000Y-73530312D01*
X109422000Y-70990312D01*
X159004780Y-70990312D01*
X159197567Y-71456892D01*
X159554231Y-71814178D01*
X160020473Y-72007779D01*
X160525312Y-72008220D01*
X160991892Y-71815433D01*
X161349178Y-71458769D01*
X161542779Y-70992527D01*
X161543220Y-70487688D01*
X161350433Y-70021108D01*
X160993769Y-69663822D01*
X160527527Y-69470221D01*
X160022688Y-69469780D01*
X159556108Y-69662567D01*
X159198822Y-70019231D01*
X159005221Y-70485473D01*
X159004780Y-70990312D01*
X109422000Y-70990312D01*
X109422000Y-68450312D01*
X159004780Y-68450312D01*
X159197567Y-68916892D01*
X159554231Y-69274178D01*
X160020473Y-69467779D01*
X160525312Y-69468220D01*
X160991892Y-69275433D01*
X161349178Y-68918769D01*
X161542779Y-68452527D01*
X161543220Y-67947688D01*
X161350433Y-67481108D01*
X161241135Y-67371619D01*
X166928613Y-67371619D01*
X167268155Y-68193372D01*
X167896321Y-68822636D01*
X168717481Y-69163611D01*
X169606619Y-69164387D01*
X170428372Y-68824845D01*
X171057636Y-68196679D01*
X171398611Y-67375519D01*
X171399387Y-66486381D01*
X171059845Y-65664628D01*
X170431679Y-65035364D01*
X169610519Y-64694389D01*
X168721381Y-64693613D01*
X167899628Y-65033155D01*
X167270364Y-65661321D01*
X166929389Y-66482481D01*
X166928613Y-67371619D01*
X161241135Y-67371619D01*
X160993769Y-67123822D01*
X160527527Y-66930221D01*
X160022688Y-66929780D01*
X159556108Y-67122567D01*
X159198822Y-67479231D01*
X159005221Y-67945473D01*
X159004780Y-68450312D01*
X109422000Y-68450312D01*
X109422000Y-66010907D01*
X145581000Y-66010907D01*
X145581000Y-66069093D01*
X145694039Y-66637378D01*
X146015946Y-67119147D01*
X146497715Y-67441054D01*
X147066000Y-67554093D01*
X147634285Y-67441054D01*
X148116054Y-67119147D01*
X148437961Y-66637378D01*
X148551000Y-66069093D01*
X148551000Y-66010907D01*
X148437961Y-65442622D01*
X148116054Y-64960853D01*
X147634285Y-64638946D01*
X147066000Y-64525907D01*
X146497715Y-64638946D01*
X146015946Y-64960853D01*
X145694039Y-65442622D01*
X145581000Y-66010907D01*
X109422000Y-66010907D01*
X109422000Y-64210000D01*
X176582000Y-64210000D01*
X176582000Y-80391000D01*
X176582000Y-80391000D01*
G37*
X176582000Y-80391000D02*
X170098852Y-80391000D01*
X170428372Y-80254845D01*
X171057636Y-79626679D01*
X171398611Y-78805519D01*
X171399387Y-77916381D01*
X171059845Y-77094628D01*
X170431679Y-76465364D01*
X169610519Y-76124389D01*
X168721381Y-76123613D01*
X167899628Y-76463155D01*
X167270364Y-77091321D01*
X166929389Y-77912481D01*
X166928613Y-78801619D01*
X167268155Y-79623372D01*
X167896321Y-80252636D01*
X168229539Y-80391000D01*
X109422000Y-80391000D01*
X109422000Y-76200000D01*
X109991907Y-76200000D01*
X110104946Y-76768285D01*
X110426853Y-77250054D01*
X110908622Y-77571961D01*
X111476907Y-77685000D01*
X111535093Y-77685000D01*
X112103378Y-77571961D01*
X112585147Y-77250054D01*
X112907054Y-76768285D01*
X113020093Y-76200000D01*
X117611907Y-76200000D01*
X117724946Y-76768285D01*
X118046853Y-77250054D01*
X118528622Y-77571961D01*
X119096907Y-77685000D01*
X119155093Y-77685000D01*
X119723378Y-77571961D01*
X120205147Y-77250054D01*
X120527054Y-76768285D01*
X120640093Y-76200000D01*
X125231907Y-76200000D01*
X125344946Y-76768285D01*
X125666853Y-77250054D01*
X126148622Y-77571961D01*
X126716907Y-77685000D01*
X126775093Y-77685000D01*
X127343378Y-77571961D01*
X127825147Y-77250054D01*
X128147054Y-76768285D01*
X128260093Y-76200000D01*
X132851907Y-76200000D01*
X132964946Y-76768285D01*
X133286853Y-77250054D01*
X133768622Y-77571961D01*
X134336907Y-77685000D01*
X134395093Y-77685000D01*
X134963378Y-77571961D01*
X135445147Y-77250054D01*
X135767054Y-76768285D01*
X135880093Y-76200000D01*
X140471907Y-76200000D01*
X140584946Y-76768285D01*
X140906853Y-77250054D01*
X141388622Y-77571961D01*
X141956907Y-77685000D01*
X142015093Y-77685000D01*
X142583378Y-77571961D01*
X143065147Y-77250054D01*
X143387054Y-76768285D01*
X143500093Y-76200000D01*
X148091907Y-76200000D01*
X148204946Y-76768285D01*
X148526853Y-77250054D01*
X149008622Y-77571961D01*
X149576907Y-77685000D01*
X149635093Y-77685000D01*
X150203378Y-77571961D01*
X150685147Y-77250054D01*
X151007054Y-76768285D01*
X151120093Y-76200000D01*
X151094297Y-76070312D01*
X159004780Y-76070312D01*
X159197567Y-76536892D01*
X159554231Y-76894178D01*
X160020473Y-77087779D01*
X160525312Y-77088220D01*
X160991892Y-76895433D01*
X161349178Y-76538769D01*
X161383962Y-76455000D01*
X161532560Y-76455000D01*
X161532560Y-77723000D01*
X161576838Y-77958317D01*
X161715910Y-78174441D01*
X161928110Y-78319431D01*
X162180000Y-78370440D01*
X163448000Y-78370440D01*
X163683317Y-78326162D01*
X163899441Y-78187090D01*
X164044431Y-77974890D01*
X164095440Y-77723000D01*
X164095440Y-76455000D01*
X164051162Y-76219683D01*
X163912090Y-76003559D01*
X163699890Y-75858569D01*
X163448000Y-75807560D01*
X163091111Y-75807560D01*
X163531892Y-75625433D01*
X163889178Y-75268769D01*
X164082779Y-74802527D01*
X164083220Y-74297688D01*
X163890433Y-73831108D01*
X163533769Y-73473822D01*
X163067527Y-73280221D01*
X162562688Y-73279780D01*
X162096108Y-73472567D01*
X161738822Y-73829231D01*
X161545221Y-74295473D01*
X161544780Y-74800312D01*
X161737567Y-75266892D01*
X162094231Y-75624178D01*
X162535863Y-75807560D01*
X162180000Y-75807560D01*
X161944683Y-75851838D01*
X161728559Y-75990910D01*
X161583569Y-76203110D01*
X161532560Y-76455000D01*
X161383962Y-76455000D01*
X161542779Y-76072527D01*
X161543220Y-75567688D01*
X161350433Y-75101108D01*
X160993769Y-74743822D01*
X160527527Y-74550221D01*
X160022688Y-74549780D01*
X159556108Y-74742567D01*
X159198822Y-75099231D01*
X159005221Y-75565473D01*
X159004780Y-76070312D01*
X151094297Y-76070312D01*
X151007054Y-75631715D01*
X150685147Y-75149946D01*
X150203378Y-74828039D01*
X149635093Y-74715000D01*
X149576907Y-74715000D01*
X149008622Y-74828039D01*
X148526853Y-75149946D01*
X148204946Y-75631715D01*
X148091907Y-76200000D01*
X143500093Y-76200000D01*
X143387054Y-75631715D01*
X143065147Y-75149946D01*
X142583378Y-74828039D01*
X142015093Y-74715000D01*
X141956907Y-74715000D01*
X141388622Y-74828039D01*
X140906853Y-75149946D01*
X140584946Y-75631715D01*
X140471907Y-76200000D01*
X135880093Y-76200000D01*
X135767054Y-75631715D01*
X135445147Y-75149946D01*
X134963378Y-74828039D01*
X134395093Y-74715000D01*
X134336907Y-74715000D01*
X133768622Y-74828039D01*
X133286853Y-75149946D01*
X132964946Y-75631715D01*
X132851907Y-76200000D01*
X128260093Y-76200000D01*
X128147054Y-75631715D01*
X127825147Y-75149946D01*
X127343378Y-74828039D01*
X126775093Y-74715000D01*
X126716907Y-74715000D01*
X126148622Y-74828039D01*
X125666853Y-75149946D01*
X125344946Y-75631715D01*
X125231907Y-76200000D01*
X120640093Y-76200000D01*
X120527054Y-75631715D01*
X120205147Y-75149946D01*
X119723378Y-74828039D01*
X119155093Y-74715000D01*
X119096907Y-74715000D01*
X118528622Y-74828039D01*
X118046853Y-75149946D01*
X117724946Y-75631715D01*
X117611907Y-76200000D01*
X113020093Y-76200000D01*
X112907054Y-75631715D01*
X112585147Y-75149946D01*
X112103378Y-74828039D01*
X111535093Y-74715000D01*
X111476907Y-74715000D01*
X110908622Y-74828039D01*
X110426853Y-75149946D01*
X110104946Y-75631715D01*
X109991907Y-76200000D01*
X109422000Y-76200000D01*
X109422000Y-73530312D01*
X159004780Y-73530312D01*
X159197567Y-73996892D01*
X159554231Y-74354178D01*
X160020473Y-74547779D01*
X160525312Y-74548220D01*
X160991892Y-74355433D01*
X161349178Y-73998769D01*
X161542779Y-73532527D01*
X161543220Y-73027688D01*
X161350433Y-72561108D01*
X161050161Y-72260312D01*
X161544780Y-72260312D01*
X161737567Y-72726892D01*
X162094231Y-73084178D01*
X162560473Y-73277779D01*
X163065312Y-73278220D01*
X163531892Y-73085433D01*
X163889178Y-72728769D01*
X164082779Y-72262527D01*
X164083220Y-71757688D01*
X163890433Y-71291108D01*
X163533769Y-70933822D01*
X163067527Y-70740221D01*
X162562688Y-70739780D01*
X162096108Y-70932567D01*
X161738822Y-71289231D01*
X161545221Y-71755473D01*
X161544780Y-72260312D01*
X161050161Y-72260312D01*
X160993769Y-72203822D01*
X160527527Y-72010221D01*
X160022688Y-72009780D01*
X159556108Y-72202567D01*
X159198822Y-72559231D01*
X159005221Y-73025473D01*
X159004780Y-73530312D01*
X109422000Y-73530312D01*
X109422000Y-70990312D01*
X159004780Y-70990312D01*
X159197567Y-71456892D01*
X159554231Y-71814178D01*
X160020473Y-72007779D01*
X160525312Y-72008220D01*
X160991892Y-71815433D01*
X161349178Y-71458769D01*
X161542779Y-70992527D01*
X161543220Y-70487688D01*
X161350433Y-70021108D01*
X160993769Y-69663822D01*
X160527527Y-69470221D01*
X160022688Y-69469780D01*
X159556108Y-69662567D01*
X159198822Y-70019231D01*
X159005221Y-70485473D01*
X159004780Y-70990312D01*
X109422000Y-70990312D01*
X109422000Y-68450312D01*
X159004780Y-68450312D01*
X159197567Y-68916892D01*
X159554231Y-69274178D01*
X160020473Y-69467779D01*
X160525312Y-69468220D01*
X160991892Y-69275433D01*
X161349178Y-68918769D01*
X161542779Y-68452527D01*
X161543220Y-67947688D01*
X161350433Y-67481108D01*
X161241135Y-67371619D01*
X166928613Y-67371619D01*
X167268155Y-68193372D01*
X167896321Y-68822636D01*
X168717481Y-69163611D01*
X169606619Y-69164387D01*
X170428372Y-68824845D01*
X171057636Y-68196679D01*
X171398611Y-67375519D01*
X171399387Y-66486381D01*
X171059845Y-65664628D01*
X170431679Y-65035364D01*
X169610519Y-64694389D01*
X168721381Y-64693613D01*
X167899628Y-65033155D01*
X167270364Y-65661321D01*
X166929389Y-66482481D01*
X166928613Y-67371619D01*
X161241135Y-67371619D01*
X160993769Y-67123822D01*
X160527527Y-66930221D01*
X160022688Y-66929780D01*
X159556108Y-67122567D01*
X159198822Y-67479231D01*
X159005221Y-67945473D01*
X159004780Y-68450312D01*
X109422000Y-68450312D01*
X109422000Y-66010907D01*
X145581000Y-66010907D01*
X145581000Y-66069093D01*
X145694039Y-66637378D01*
X146015946Y-67119147D01*
X146497715Y-67441054D01*
X147066000Y-67554093D01*
X147634285Y-67441054D01*
X148116054Y-67119147D01*
X148437961Y-66637378D01*
X148551000Y-66069093D01*
X148551000Y-66010907D01*
X148437961Y-65442622D01*
X148116054Y-64960853D01*
X147634285Y-64638946D01*
X147066000Y-64525907D01*
X146497715Y-64638946D01*
X146015946Y-64960853D01*
X145694039Y-65442622D01*
X145581000Y-66010907D01*
X109422000Y-66010907D01*
X109422000Y-64210000D01*
X176582000Y-64210000D01*
X176582000Y-80391000D01*
M02*
