G04 #@! TF.FileFunction,Soldermask,Top*
%FSLAX46Y46*%
G04 Gerber Fmt 4.6, Leading zero omitted, Abs format (unit mm)*
G04 Created by KiCad (PCBNEW 4.0.6) date 01/26/19 15:00:27*
%MOMM*%
%LPD*%
G01*
G04 APERTURE LIST*
%ADD10C,0.100000*%
%ADD11C,0.200000*%
%ADD12R,2.100000X2.100000*%
%ADD13O,2.100000X2.100000*%
%ADD14R,1.668000X1.668000*%
%ADD15C,1.668000*%
%ADD16C,3.600000*%
%ADD17C,6.115000*%
G04 APERTURE END LIST*
D10*
D11*
X177292000Y-81280000D02*
X108712000Y-81280000D01*
D12*
X144526000Y-66040000D03*
D13*
X147066000Y-66040000D03*
D12*
X111506000Y-73660000D03*
D13*
X111506000Y-76200000D03*
D12*
X119126000Y-73660000D03*
D13*
X119126000Y-76200000D03*
D12*
X126746000Y-73660000D03*
D13*
X126746000Y-76200000D03*
D12*
X134366000Y-73660000D03*
D13*
X134366000Y-76200000D03*
D12*
X141986000Y-73660000D03*
D13*
X141986000Y-76200000D03*
D12*
X149606000Y-73660000D03*
D13*
X149606000Y-76200000D03*
D14*
X162814000Y-77089000D03*
D15*
X160274000Y-75819000D03*
X162814000Y-74549000D03*
X160274000Y-73279000D03*
X162814000Y-72009000D03*
X160274000Y-70739000D03*
X162814000Y-69469000D03*
X160274000Y-68199000D03*
D16*
X169164000Y-78359000D03*
X169164000Y-66929000D03*
D17*
X146361150Y-87884000D03*
X139490450Y-87884000D03*
X146361150Y-113284000D03*
X139490450Y-113284000D03*
X165042850Y-113284000D03*
X171913550Y-113284000D03*
X114242850Y-125984000D03*
X121113550Y-125984000D03*
X139642850Y-125984000D03*
X146513550Y-125984000D03*
X165042850Y-125984000D03*
X171913550Y-125984000D03*
X119322850Y-100584000D03*
X126193550Y-100584000D03*
X114242850Y-113284000D03*
X121113550Y-113284000D03*
X159962850Y-100584000D03*
X166833550Y-100584000D03*
X139642850Y-100584000D03*
X146513550Y-100584000D03*
X119322850Y-87884000D03*
X126193550Y-87884000D03*
X159962850Y-87884000D03*
X166833550Y-87884000D03*
M02*
