M48
;DRILL file {KiCad 4.0.6} date 01/26/19 15:00:29
;FORMAT={-:-/ absolute / inch / decimal}
FMAT,2
INCH,TZ
T1C0.030
T2C0.039
T3C0.165
T4C0.177
%
G90
G05
M72
T1
X6.31Y-2.685
X6.31Y-2.785
X6.31Y-2.885
X6.31Y-2.985
X6.41Y-2.735
X6.41Y-2.835
X6.41Y-2.935
X6.41Y-3.035
T2
X4.39Y-2.9
X4.39Y-3.
X4.69Y-2.9
X4.69Y-3.
X4.99Y-2.9
X4.99Y-3.
X5.29Y-2.9
X5.29Y-3.
X5.59Y-2.9
X5.59Y-3.
X5.69Y-2.6
X5.79Y-2.6
X5.89Y-2.9
X5.89Y-3.
T3
X4.4977Y-4.46
X4.4977Y-4.96
X4.6978Y-3.46
X4.6978Y-3.96
X4.7683Y-4.46
X4.7683Y-4.96
X4.9683Y-3.46
X4.9683Y-3.96
X5.4977Y-3.96
X5.4977Y-4.96
X5.7683Y-3.96
X5.7683Y-4.96
X6.2977Y-3.46
X6.2977Y-3.96
X6.4977Y-4.46
X6.4977Y-4.96
X6.5682Y-3.46
X6.5682Y-3.96
X6.7683Y-4.46
X6.7683Y-4.96
T4
X5.4917Y-3.46
X5.4917Y-4.46
X5.7622Y-3.46
X5.7622Y-4.46
T0
M30
