G04 #@! TF.FileFunction,Legend,Bot*
%FSLAX46Y46*%
G04 Gerber Fmt 4.6, Leading zero omitted, Abs format (unit mm)*
G04 Created by KiCad (PCBNEW 4.0.6) date 01/26/19 15:00:27*
%MOMM*%
%LPD*%
G01*
G04 APERTURE LIST*
%ADD10C,0.100000*%
%ADD11C,0.300000*%
%ADD12C,0.200000*%
%ADD13C,0.150000*%
%ADD14R,2.100000X2.100000*%
%ADD15O,2.100000X2.100000*%
%ADD16R,1.668000X1.668000*%
%ADD17C,1.668000*%
%ADD18C,3.600000*%
%ADD19C,6.115000*%
G04 APERTURE END LIST*
D10*
D11*
X136576285Y-108096857D02*
X136361999Y-108168286D01*
X136290571Y-108239714D01*
X136219142Y-108382571D01*
X136219142Y-108596857D01*
X136290571Y-108739714D01*
X136361999Y-108811143D01*
X136504857Y-108882571D01*
X137076285Y-108882571D01*
X137076285Y-107382571D01*
X136576285Y-107382571D01*
X136433428Y-107454000D01*
X136361999Y-107525429D01*
X136290571Y-107668286D01*
X136290571Y-107811143D01*
X136361999Y-107954000D01*
X136433428Y-108025429D01*
X136576285Y-108096857D01*
X137076285Y-108096857D01*
X134933428Y-107882571D02*
X134933428Y-108882571D01*
X135576285Y-107882571D02*
X135576285Y-108668286D01*
X135504857Y-108811143D01*
X135361999Y-108882571D01*
X135147714Y-108882571D01*
X135004857Y-108811143D01*
X134933428Y-108739714D01*
X134290571Y-108811143D02*
X134147714Y-108882571D01*
X133861999Y-108882571D01*
X133719142Y-108811143D01*
X133647714Y-108668286D01*
X133647714Y-108596857D01*
X133719142Y-108454000D01*
X133861999Y-108382571D01*
X134076285Y-108382571D01*
X134219142Y-108311143D01*
X134290571Y-108168286D01*
X134290571Y-108096857D01*
X134219142Y-107954000D01*
X134076285Y-107882571D01*
X133861999Y-107882571D01*
X133719142Y-107954000D01*
X131933428Y-107525429D02*
X131861999Y-107454000D01*
X131719142Y-107382571D01*
X131361999Y-107382571D01*
X131219142Y-107454000D01*
X131147713Y-107525429D01*
X131076285Y-107668286D01*
X131076285Y-107811143D01*
X131147713Y-108025429D01*
X132004856Y-108882571D01*
X131076285Y-108882571D01*
X151816285Y-105556857D02*
X151601999Y-105628286D01*
X151530571Y-105699714D01*
X151459142Y-105842571D01*
X151459142Y-106056857D01*
X151530571Y-106199714D01*
X151601999Y-106271143D01*
X151744857Y-106342571D01*
X152316285Y-106342571D01*
X152316285Y-104842571D01*
X151816285Y-104842571D01*
X151673428Y-104914000D01*
X151601999Y-104985429D01*
X151530571Y-105128286D01*
X151530571Y-105271143D01*
X151601999Y-105414000D01*
X151673428Y-105485429D01*
X151816285Y-105556857D01*
X152316285Y-105556857D01*
X150173428Y-105342571D02*
X150173428Y-106342571D01*
X150816285Y-105342571D02*
X150816285Y-106128286D01*
X150744857Y-106271143D01*
X150601999Y-106342571D01*
X150387714Y-106342571D01*
X150244857Y-106271143D01*
X150173428Y-106199714D01*
X149530571Y-106271143D02*
X149387714Y-106342571D01*
X149101999Y-106342571D01*
X148959142Y-106271143D01*
X148887714Y-106128286D01*
X148887714Y-106056857D01*
X148959142Y-105914000D01*
X149101999Y-105842571D01*
X149316285Y-105842571D01*
X149459142Y-105771143D01*
X149530571Y-105628286D01*
X149530571Y-105556857D01*
X149459142Y-105414000D01*
X149316285Y-105342571D01*
X149101999Y-105342571D01*
X148959142Y-105414000D01*
X146316285Y-106342571D02*
X147173428Y-106342571D01*
X146744856Y-106342571D02*
X146744856Y-104842571D01*
X146887713Y-105056857D01*
X147030571Y-105199714D01*
X147173428Y-105271143D01*
D12*
X153162000Y-103124000D02*
X151892000Y-104394000D01*
X153162000Y-103124000D02*
X154432000Y-104394000D01*
X153162000Y-105664000D02*
X153162000Y-103124000D01*
X129032000Y-109474000D02*
X130302000Y-110744000D01*
X130302000Y-110744000D02*
X131572000Y-109474000D01*
X130302000Y-108204000D02*
X130302000Y-110744000D01*
X177292000Y-106934000D02*
X108712000Y-106934000D01*
D13*
X148329650Y-83820000D02*
X135134350Y-83820000D01*
X150869650Y-86360000D02*
X148329650Y-83820000D01*
X150869650Y-89408000D02*
X150869650Y-86360000D01*
X148329650Y-91948000D02*
X150869650Y-89408000D01*
X135134350Y-91948000D02*
X148329650Y-91948000D01*
X135134350Y-91948000D02*
X135134350Y-83820000D01*
X146164523Y-82365381D02*
X146164523Y-83079667D01*
X146212143Y-83222524D01*
X146307381Y-83317762D01*
X146450238Y-83365381D01*
X146545476Y-83365381D01*
X145164523Y-83365381D02*
X145735952Y-83365381D01*
X145450238Y-83365381D02*
X145450238Y-82365381D01*
X145545476Y-82508238D01*
X145640714Y-82603476D01*
X145735952Y-82651095D01*
X144545476Y-82365381D02*
X144450237Y-82365381D01*
X144354999Y-82413000D01*
X144307380Y-82460619D01*
X144259761Y-82555857D01*
X144212142Y-82746333D01*
X144212142Y-82984429D01*
X144259761Y-83174905D01*
X144307380Y-83270143D01*
X144354999Y-83317762D01*
X144450237Y-83365381D01*
X144545476Y-83365381D01*
X144640714Y-83317762D01*
X144688333Y-83270143D01*
X144735952Y-83174905D01*
X144783571Y-82984429D01*
X144783571Y-82746333D01*
X144735952Y-82555857D01*
X144688333Y-82460619D01*
X144640714Y-82413000D01*
X144545476Y-82365381D01*
%LPC*%
D12*
X177292000Y-81280000D02*
X108712000Y-81280000D01*
D14*
X144526000Y-66040000D03*
D15*
X147066000Y-66040000D03*
D14*
X111506000Y-73660000D03*
D15*
X111506000Y-76200000D03*
D14*
X119126000Y-73660000D03*
D15*
X119126000Y-76200000D03*
D14*
X126746000Y-73660000D03*
D15*
X126746000Y-76200000D03*
D14*
X134366000Y-73660000D03*
D15*
X134366000Y-76200000D03*
D14*
X141986000Y-73660000D03*
D15*
X141986000Y-76200000D03*
D14*
X149606000Y-73660000D03*
D15*
X149606000Y-76200000D03*
D16*
X162814000Y-77089000D03*
D17*
X160274000Y-75819000D03*
X162814000Y-74549000D03*
X160274000Y-73279000D03*
X162814000Y-72009000D03*
X160274000Y-70739000D03*
X162814000Y-69469000D03*
X160274000Y-68199000D03*
D18*
X169164000Y-78359000D03*
X169164000Y-66929000D03*
D19*
X146361150Y-87884000D03*
X139490450Y-87884000D03*
X146361150Y-113284000D03*
X139490450Y-113284000D03*
X165042850Y-113284000D03*
X171913550Y-113284000D03*
X114242850Y-125984000D03*
X121113550Y-125984000D03*
X139642850Y-125984000D03*
X146513550Y-125984000D03*
X165042850Y-125984000D03*
X171913550Y-125984000D03*
X119322850Y-100584000D03*
X126193550Y-100584000D03*
X114242850Y-113284000D03*
X121113550Y-113284000D03*
X159962850Y-100584000D03*
X166833550Y-100584000D03*
X139642850Y-100584000D03*
X146513550Y-100584000D03*
X119322850Y-87884000D03*
X126193550Y-87884000D03*
X159962850Y-87884000D03*
X166833550Y-87884000D03*
M02*
