G04 #@! TF.FileFunction,Copper,L1,Top,Signal*
%FSLAX46Y46*%
G04 Gerber Fmt 4.6, Leading zero omitted, Abs format (unit mm)*
G04 Created by KiCad (PCBNEW 4.0.6) date 01/26/19 15:00:27*
%MOMM*%
%LPD*%
G01*
G04 APERTURE LIST*
%ADD10C,0.100000*%
%ADD11R,1.700000X1.700000*%
%ADD12O,1.700000X1.700000*%
%ADD13R,1.268000X1.268000*%
%ADD14C,1.268000*%
%ADD15C,5.715000*%
%ADD16C,0.250000*%
%ADD17C,0.254000*%
G04 APERTURE END LIST*
D10*
D11*
X144526000Y-66040000D03*
D12*
X147066000Y-66040000D03*
D11*
X111506000Y-73660000D03*
D12*
X111506000Y-76200000D03*
D11*
X119126000Y-73660000D03*
D12*
X119126000Y-76200000D03*
D11*
X126746000Y-73660000D03*
D12*
X126746000Y-76200000D03*
D11*
X134366000Y-73660000D03*
D12*
X134366000Y-76200000D03*
D11*
X141986000Y-73660000D03*
D12*
X141986000Y-76200000D03*
D11*
X149606000Y-73660000D03*
D12*
X149606000Y-76200000D03*
D13*
X162814000Y-77089000D03*
D14*
X160274000Y-75819000D03*
X162814000Y-74549000D03*
X160274000Y-73279000D03*
X162814000Y-72009000D03*
X160274000Y-70739000D03*
X162814000Y-69469000D03*
X160274000Y-68199000D03*
D15*
X146361150Y-87884000D03*
X139490450Y-87884000D03*
X146361150Y-113284000D03*
X139490450Y-113284000D03*
X165042850Y-113284000D03*
X171913550Y-113284000D03*
X114242850Y-125984000D03*
X121113550Y-125984000D03*
X139642850Y-125984000D03*
X146513550Y-125984000D03*
X165042850Y-125984000D03*
X171913550Y-125984000D03*
X119322850Y-100584000D03*
X126193550Y-100584000D03*
X114242850Y-113284000D03*
X121113550Y-113284000D03*
X159962850Y-100584000D03*
X166833550Y-100584000D03*
X139642850Y-100584000D03*
X146513550Y-100584000D03*
X119322850Y-87884000D03*
X126193550Y-87884000D03*
X159962850Y-87884000D03*
X166833550Y-87884000D03*
D16*
X160274000Y-68199000D02*
X149225000Y-68199000D01*
X149225000Y-68199000D02*
X147066000Y-66040000D01*
X160274000Y-68199000D02*
X160147000Y-68199000D01*
X111506000Y-76200000D02*
X111506000Y-78232000D01*
X156972000Y-80010000D02*
X113284000Y-80010000D01*
X159893000Y-77089000D02*
X156972000Y-80010000D01*
X159893000Y-77089000D02*
X162814000Y-77089000D01*
X111506000Y-78232000D02*
X113284000Y-80010000D01*
X119126000Y-76200000D02*
X119126000Y-78232000D01*
X156210000Y-79502000D02*
X120396000Y-79502000D01*
X156210000Y-79502000D02*
X159893000Y-75819000D01*
X119126000Y-78232000D02*
X120396000Y-79502000D01*
X160274000Y-75819000D02*
X159893000Y-75819000D01*
X126746000Y-76200000D02*
X126746000Y-78232000D01*
X159893000Y-74549000D02*
X155448000Y-78994000D01*
X159893000Y-74549000D02*
X162814000Y-74549000D01*
X155448000Y-78994000D02*
X127508000Y-78994000D01*
X126746000Y-78232000D02*
X127508000Y-78994000D01*
X134366000Y-76200000D02*
X134366000Y-77978000D01*
X134366000Y-77978000D02*
X134874000Y-78486000D01*
X160274000Y-73279000D02*
X160147000Y-73279000D01*
X159893000Y-73279000D02*
X154686000Y-78486000D01*
X154686000Y-78486000D02*
X134874000Y-78486000D01*
X159893000Y-72009000D02*
X153924000Y-77978000D01*
X153924000Y-77978000D02*
X142494000Y-77978000D01*
X162814000Y-72009000D02*
X159893000Y-72009000D01*
X141986000Y-77470000D02*
X141986000Y-76200000D01*
X142494000Y-77978000D02*
X141986000Y-77470000D01*
X149606000Y-76200000D02*
X149606000Y-76962000D01*
X149606000Y-76962000D02*
X150114000Y-77470000D01*
X153162000Y-77470000D02*
X150114000Y-77470000D01*
X159955801Y-70676199D02*
X153162000Y-77470000D01*
X160274000Y-70739000D02*
X160272602Y-70739000D01*
X160274000Y-70739000D02*
X159893000Y-70739000D01*
D17*
G36*
X176455000Y-106045000D02*
X109549000Y-106045000D01*
X109549000Y-100908306D01*
X115460790Y-100908306D01*
X115597334Y-101652274D01*
X115875782Y-102355552D01*
X116285527Y-102991353D01*
X116810963Y-103535457D01*
X117432076Y-103967142D01*
X118125208Y-104269964D01*
X118863957Y-104432389D01*
X119620186Y-104448229D01*
X120365090Y-104316883D01*
X121070294Y-104043352D01*
X121708940Y-103638055D01*
X122256699Y-103116431D01*
X122692710Y-102498347D01*
X123000363Y-101807346D01*
X123167941Y-101069748D01*
X123170195Y-100908306D01*
X135780790Y-100908306D01*
X135917334Y-101652274D01*
X136195782Y-102355552D01*
X136605527Y-102991353D01*
X137130963Y-103535457D01*
X137752076Y-103967142D01*
X138445208Y-104269964D01*
X139183957Y-104432389D01*
X139940186Y-104448229D01*
X140685090Y-104316883D01*
X141390294Y-104043352D01*
X142028940Y-103638055D01*
X142576699Y-103116431D01*
X143012710Y-102498347D01*
X143320363Y-101807346D01*
X143487941Y-101069748D01*
X143490195Y-100908306D01*
X156100790Y-100908306D01*
X156237334Y-101652274D01*
X156515782Y-102355552D01*
X156925527Y-102991353D01*
X157450963Y-103535457D01*
X158072076Y-103967142D01*
X158765208Y-104269964D01*
X159503957Y-104432389D01*
X160260186Y-104448229D01*
X161005090Y-104316883D01*
X161710294Y-104043352D01*
X162348940Y-103638055D01*
X162896699Y-103116431D01*
X163332710Y-102498347D01*
X163640363Y-101807346D01*
X163807941Y-101069748D01*
X163820005Y-100205803D01*
X163673087Y-99463813D01*
X163384848Y-98764492D01*
X162966265Y-98134474D01*
X162433284Y-97597759D01*
X161806204Y-97174788D01*
X161108911Y-96881674D01*
X160367966Y-96729579D01*
X159611590Y-96724299D01*
X158868593Y-96866033D01*
X158167276Y-97149383D01*
X157534352Y-97563557D01*
X156993928Y-98092779D01*
X156566590Y-98716890D01*
X156268615Y-99412120D01*
X156111351Y-100151985D01*
X156100790Y-100908306D01*
X143490195Y-100908306D01*
X143500005Y-100205803D01*
X143353087Y-99463813D01*
X143064848Y-98764492D01*
X142646265Y-98134474D01*
X142113284Y-97597759D01*
X141486204Y-97174788D01*
X140788911Y-96881674D01*
X140047966Y-96729579D01*
X139291590Y-96724299D01*
X138548593Y-96866033D01*
X137847276Y-97149383D01*
X137214352Y-97563557D01*
X136673928Y-98092779D01*
X136246590Y-98716890D01*
X135948615Y-99412120D01*
X135791351Y-100151985D01*
X135780790Y-100908306D01*
X123170195Y-100908306D01*
X123180005Y-100205803D01*
X123033087Y-99463813D01*
X122744848Y-98764492D01*
X122326265Y-98134474D01*
X121793284Y-97597759D01*
X121166204Y-97174788D01*
X120468911Y-96881674D01*
X119727966Y-96729579D01*
X118971590Y-96724299D01*
X118228593Y-96866033D01*
X117527276Y-97149383D01*
X116894352Y-97563557D01*
X116353928Y-98092779D01*
X115926590Y-98716890D01*
X115628615Y-99412120D01*
X115471351Y-100151985D01*
X115460790Y-100908306D01*
X109549000Y-100908306D01*
X109549000Y-94269073D01*
X109756245Y-94269073D01*
X109810893Y-94756274D01*
X109959132Y-95223582D01*
X110195315Y-95653197D01*
X110510446Y-96028755D01*
X110892521Y-96335952D01*
X111326988Y-96563086D01*
X111797298Y-96701506D01*
X112285537Y-96745939D01*
X112773108Y-96694693D01*
X113241439Y-96549720D01*
X113672693Y-96316542D01*
X114050442Y-96004041D01*
X114360298Y-95624120D01*
X114590460Y-95191249D01*
X114732159Y-94721917D01*
X114776561Y-94269073D01*
X171224245Y-94269073D01*
X171278893Y-94756274D01*
X171427132Y-95223582D01*
X171663315Y-95653197D01*
X171978446Y-96028755D01*
X172360521Y-96335952D01*
X172794988Y-96563086D01*
X173265298Y-96701506D01*
X173753537Y-96745939D01*
X174241108Y-96694693D01*
X174709439Y-96549720D01*
X175140693Y-96316542D01*
X175518442Y-96004041D01*
X175828298Y-95624120D01*
X176058460Y-95191249D01*
X176200159Y-94721917D01*
X176248000Y-94234000D01*
X176247021Y-94163861D01*
X176185575Y-93677470D01*
X176030826Y-93212278D01*
X175788668Y-92786002D01*
X175468324Y-92414880D01*
X175081997Y-92113048D01*
X174644401Y-91892003D01*
X174172204Y-91760163D01*
X173683393Y-91722551D01*
X173196585Y-91780599D01*
X172730323Y-91932097D01*
X172302368Y-92171273D01*
X171929018Y-92489018D01*
X171624497Y-92873229D01*
X171400401Y-93309271D01*
X171265268Y-93780536D01*
X171224245Y-94269073D01*
X114776561Y-94269073D01*
X114780000Y-94234000D01*
X114779021Y-94163861D01*
X114717575Y-93677470D01*
X114562826Y-93212278D01*
X114320668Y-92786002D01*
X114000324Y-92414880D01*
X113613997Y-92113048D01*
X113176401Y-91892003D01*
X112704204Y-91760163D01*
X112215393Y-91722551D01*
X111728585Y-91780599D01*
X111262323Y-91932097D01*
X110834368Y-92171273D01*
X110461018Y-92489018D01*
X110156497Y-92873229D01*
X109932401Y-93309271D01*
X109797268Y-93780536D01*
X109756245Y-94269073D01*
X109549000Y-94269073D01*
X109549000Y-88208306D01*
X115460790Y-88208306D01*
X115597334Y-88952274D01*
X115875782Y-89655552D01*
X116285527Y-90291353D01*
X116810963Y-90835457D01*
X117432076Y-91267142D01*
X118125208Y-91569964D01*
X118863957Y-91732389D01*
X119620186Y-91748229D01*
X120365090Y-91616883D01*
X121070294Y-91343352D01*
X121708940Y-90938055D01*
X122256699Y-90416431D01*
X122692710Y-89798347D01*
X123000363Y-89107346D01*
X123167941Y-88369748D01*
X123170101Y-88215034D01*
X142418975Y-88215034D01*
X142558352Y-88974435D01*
X142842575Y-89692302D01*
X143260820Y-90341291D01*
X143797156Y-90896683D01*
X144431153Y-91337323D01*
X145138664Y-91646426D01*
X145892738Y-91812220D01*
X146664654Y-91828390D01*
X147425010Y-91694318D01*
X148144844Y-91415113D01*
X148796737Y-91001409D01*
X149355860Y-90468964D01*
X149800915Y-89838058D01*
X150114950Y-89132723D01*
X150286004Y-88379824D01*
X150288399Y-88208306D01*
X156100790Y-88208306D01*
X156237334Y-88952274D01*
X156515782Y-89655552D01*
X156925527Y-90291353D01*
X157450963Y-90835457D01*
X158072076Y-91267142D01*
X158765208Y-91569964D01*
X159503957Y-91732389D01*
X160260186Y-91748229D01*
X161005090Y-91616883D01*
X161710294Y-91343352D01*
X162348940Y-90938055D01*
X162896699Y-90416431D01*
X163332710Y-89798347D01*
X163640363Y-89107346D01*
X163807941Y-88369748D01*
X163820005Y-87505803D01*
X163673087Y-86763813D01*
X163384848Y-86064492D01*
X162966265Y-85434474D01*
X162433284Y-84897759D01*
X161806204Y-84474788D01*
X161108911Y-84181674D01*
X160367966Y-84029579D01*
X159611590Y-84024299D01*
X158868593Y-84166033D01*
X158167276Y-84449383D01*
X157534352Y-84863557D01*
X156993928Y-85392779D01*
X156566590Y-86016890D01*
X156268615Y-86712120D01*
X156111351Y-87451985D01*
X156100790Y-88208306D01*
X150288399Y-88208306D01*
X150298318Y-87497957D01*
X150148353Y-86740576D01*
X149854134Y-86026747D01*
X149426868Y-85383661D01*
X148882831Y-84835812D01*
X148242743Y-84404067D01*
X147530986Y-84104872D01*
X146774670Y-83949623D01*
X146002603Y-83944233D01*
X145244193Y-84088907D01*
X144528328Y-84378135D01*
X143882275Y-84800901D01*
X143330641Y-85341101D01*
X142894438Y-85978159D01*
X142590281Y-86687810D01*
X142429755Y-87443023D01*
X142418975Y-88215034D01*
X123170101Y-88215034D01*
X123180005Y-87505803D01*
X123033087Y-86763813D01*
X122744848Y-86064492D01*
X122326265Y-85434474D01*
X121793284Y-84897759D01*
X121166204Y-84474788D01*
X120468911Y-84181674D01*
X119727966Y-84029579D01*
X118971590Y-84024299D01*
X118228593Y-84166033D01*
X117527276Y-84449383D01*
X116894352Y-84863557D01*
X116353928Y-85392779D01*
X115926590Y-86016890D01*
X115628615Y-86712120D01*
X115471351Y-87451985D01*
X115460790Y-88208306D01*
X109549000Y-88208306D01*
X109549000Y-82169000D01*
X176455000Y-82169000D01*
X176455000Y-106045000D01*
X176455000Y-106045000D01*
G37*
X176455000Y-106045000D02*
X109549000Y-106045000D01*
X109549000Y-100908306D01*
X115460790Y-100908306D01*
X115597334Y-101652274D01*
X115875782Y-102355552D01*
X116285527Y-102991353D01*
X116810963Y-103535457D01*
X117432076Y-103967142D01*
X118125208Y-104269964D01*
X118863957Y-104432389D01*
X119620186Y-104448229D01*
X120365090Y-104316883D01*
X121070294Y-104043352D01*
X121708940Y-103638055D01*
X122256699Y-103116431D01*
X122692710Y-102498347D01*
X123000363Y-101807346D01*
X123167941Y-101069748D01*
X123170195Y-100908306D01*
X135780790Y-100908306D01*
X135917334Y-101652274D01*
X136195782Y-102355552D01*
X136605527Y-102991353D01*
X137130963Y-103535457D01*
X137752076Y-103967142D01*
X138445208Y-104269964D01*
X139183957Y-104432389D01*
X139940186Y-104448229D01*
X140685090Y-104316883D01*
X141390294Y-104043352D01*
X142028940Y-103638055D01*
X142576699Y-103116431D01*
X143012710Y-102498347D01*
X143320363Y-101807346D01*
X143487941Y-101069748D01*
X143490195Y-100908306D01*
X156100790Y-100908306D01*
X156237334Y-101652274D01*
X156515782Y-102355552D01*
X156925527Y-102991353D01*
X157450963Y-103535457D01*
X158072076Y-103967142D01*
X158765208Y-104269964D01*
X159503957Y-104432389D01*
X160260186Y-104448229D01*
X161005090Y-104316883D01*
X161710294Y-104043352D01*
X162348940Y-103638055D01*
X162896699Y-103116431D01*
X163332710Y-102498347D01*
X163640363Y-101807346D01*
X163807941Y-101069748D01*
X163820005Y-100205803D01*
X163673087Y-99463813D01*
X163384848Y-98764492D01*
X162966265Y-98134474D01*
X162433284Y-97597759D01*
X161806204Y-97174788D01*
X161108911Y-96881674D01*
X160367966Y-96729579D01*
X159611590Y-96724299D01*
X158868593Y-96866033D01*
X158167276Y-97149383D01*
X157534352Y-97563557D01*
X156993928Y-98092779D01*
X156566590Y-98716890D01*
X156268615Y-99412120D01*
X156111351Y-100151985D01*
X156100790Y-100908306D01*
X143490195Y-100908306D01*
X143500005Y-100205803D01*
X143353087Y-99463813D01*
X143064848Y-98764492D01*
X142646265Y-98134474D01*
X142113284Y-97597759D01*
X141486204Y-97174788D01*
X140788911Y-96881674D01*
X140047966Y-96729579D01*
X139291590Y-96724299D01*
X138548593Y-96866033D01*
X137847276Y-97149383D01*
X137214352Y-97563557D01*
X136673928Y-98092779D01*
X136246590Y-98716890D01*
X135948615Y-99412120D01*
X135791351Y-100151985D01*
X135780790Y-100908306D01*
X123170195Y-100908306D01*
X123180005Y-100205803D01*
X123033087Y-99463813D01*
X122744848Y-98764492D01*
X122326265Y-98134474D01*
X121793284Y-97597759D01*
X121166204Y-97174788D01*
X120468911Y-96881674D01*
X119727966Y-96729579D01*
X118971590Y-96724299D01*
X118228593Y-96866033D01*
X117527276Y-97149383D01*
X116894352Y-97563557D01*
X116353928Y-98092779D01*
X115926590Y-98716890D01*
X115628615Y-99412120D01*
X115471351Y-100151985D01*
X115460790Y-100908306D01*
X109549000Y-100908306D01*
X109549000Y-94269073D01*
X109756245Y-94269073D01*
X109810893Y-94756274D01*
X109959132Y-95223582D01*
X110195315Y-95653197D01*
X110510446Y-96028755D01*
X110892521Y-96335952D01*
X111326988Y-96563086D01*
X111797298Y-96701506D01*
X112285537Y-96745939D01*
X112773108Y-96694693D01*
X113241439Y-96549720D01*
X113672693Y-96316542D01*
X114050442Y-96004041D01*
X114360298Y-95624120D01*
X114590460Y-95191249D01*
X114732159Y-94721917D01*
X114776561Y-94269073D01*
X171224245Y-94269073D01*
X171278893Y-94756274D01*
X171427132Y-95223582D01*
X171663315Y-95653197D01*
X171978446Y-96028755D01*
X172360521Y-96335952D01*
X172794988Y-96563086D01*
X173265298Y-96701506D01*
X173753537Y-96745939D01*
X174241108Y-96694693D01*
X174709439Y-96549720D01*
X175140693Y-96316542D01*
X175518442Y-96004041D01*
X175828298Y-95624120D01*
X176058460Y-95191249D01*
X176200159Y-94721917D01*
X176248000Y-94234000D01*
X176247021Y-94163861D01*
X176185575Y-93677470D01*
X176030826Y-93212278D01*
X175788668Y-92786002D01*
X175468324Y-92414880D01*
X175081997Y-92113048D01*
X174644401Y-91892003D01*
X174172204Y-91760163D01*
X173683393Y-91722551D01*
X173196585Y-91780599D01*
X172730323Y-91932097D01*
X172302368Y-92171273D01*
X171929018Y-92489018D01*
X171624497Y-92873229D01*
X171400401Y-93309271D01*
X171265268Y-93780536D01*
X171224245Y-94269073D01*
X114776561Y-94269073D01*
X114780000Y-94234000D01*
X114779021Y-94163861D01*
X114717575Y-93677470D01*
X114562826Y-93212278D01*
X114320668Y-92786002D01*
X114000324Y-92414880D01*
X113613997Y-92113048D01*
X113176401Y-91892003D01*
X112704204Y-91760163D01*
X112215393Y-91722551D01*
X111728585Y-91780599D01*
X111262323Y-91932097D01*
X110834368Y-92171273D01*
X110461018Y-92489018D01*
X110156497Y-92873229D01*
X109932401Y-93309271D01*
X109797268Y-93780536D01*
X109756245Y-94269073D01*
X109549000Y-94269073D01*
X109549000Y-88208306D01*
X115460790Y-88208306D01*
X115597334Y-88952274D01*
X115875782Y-89655552D01*
X116285527Y-90291353D01*
X116810963Y-90835457D01*
X117432076Y-91267142D01*
X118125208Y-91569964D01*
X118863957Y-91732389D01*
X119620186Y-91748229D01*
X120365090Y-91616883D01*
X121070294Y-91343352D01*
X121708940Y-90938055D01*
X122256699Y-90416431D01*
X122692710Y-89798347D01*
X123000363Y-89107346D01*
X123167941Y-88369748D01*
X123170101Y-88215034D01*
X142418975Y-88215034D01*
X142558352Y-88974435D01*
X142842575Y-89692302D01*
X143260820Y-90341291D01*
X143797156Y-90896683D01*
X144431153Y-91337323D01*
X145138664Y-91646426D01*
X145892738Y-91812220D01*
X146664654Y-91828390D01*
X147425010Y-91694318D01*
X148144844Y-91415113D01*
X148796737Y-91001409D01*
X149355860Y-90468964D01*
X149800915Y-89838058D01*
X150114950Y-89132723D01*
X150286004Y-88379824D01*
X150288399Y-88208306D01*
X156100790Y-88208306D01*
X156237334Y-88952274D01*
X156515782Y-89655552D01*
X156925527Y-90291353D01*
X157450963Y-90835457D01*
X158072076Y-91267142D01*
X158765208Y-91569964D01*
X159503957Y-91732389D01*
X160260186Y-91748229D01*
X161005090Y-91616883D01*
X161710294Y-91343352D01*
X162348940Y-90938055D01*
X162896699Y-90416431D01*
X163332710Y-89798347D01*
X163640363Y-89107346D01*
X163807941Y-88369748D01*
X163820005Y-87505803D01*
X163673087Y-86763813D01*
X163384848Y-86064492D01*
X162966265Y-85434474D01*
X162433284Y-84897759D01*
X161806204Y-84474788D01*
X161108911Y-84181674D01*
X160367966Y-84029579D01*
X159611590Y-84024299D01*
X158868593Y-84166033D01*
X158167276Y-84449383D01*
X157534352Y-84863557D01*
X156993928Y-85392779D01*
X156566590Y-86016890D01*
X156268615Y-86712120D01*
X156111351Y-87451985D01*
X156100790Y-88208306D01*
X150288399Y-88208306D01*
X150298318Y-87497957D01*
X150148353Y-86740576D01*
X149854134Y-86026747D01*
X149426868Y-85383661D01*
X148882831Y-84835812D01*
X148242743Y-84404067D01*
X147530986Y-84104872D01*
X146774670Y-83949623D01*
X146002603Y-83944233D01*
X145244193Y-84088907D01*
X144528328Y-84378135D01*
X143882275Y-84800901D01*
X143330641Y-85341101D01*
X142894438Y-85978159D01*
X142590281Y-86687810D01*
X142429755Y-87443023D01*
X142418975Y-88215034D01*
X123170101Y-88215034D01*
X123180005Y-87505803D01*
X123033087Y-86763813D01*
X122744848Y-86064492D01*
X122326265Y-85434474D01*
X121793284Y-84897759D01*
X121166204Y-84474788D01*
X120468911Y-84181674D01*
X119727966Y-84029579D01*
X118971590Y-84024299D01*
X118228593Y-84166033D01*
X117527276Y-84449383D01*
X116894352Y-84863557D01*
X116353928Y-85392779D01*
X115926590Y-86016890D01*
X115628615Y-86712120D01*
X115471351Y-87451985D01*
X115460790Y-88208306D01*
X109549000Y-88208306D01*
X109549000Y-82169000D01*
X176455000Y-82169000D01*
X176455000Y-106045000D01*
G36*
X176455000Y-130227000D02*
X109549000Y-130227000D01*
X109549000Y-126308306D01*
X110380790Y-126308306D01*
X110517334Y-127052274D01*
X110795782Y-127755552D01*
X111205527Y-128391353D01*
X111730963Y-128935457D01*
X112352076Y-129367142D01*
X113045208Y-129669964D01*
X113783957Y-129832389D01*
X114540186Y-129848229D01*
X115285090Y-129716883D01*
X115990294Y-129443352D01*
X116628940Y-129038055D01*
X117176699Y-128516431D01*
X117612710Y-127898347D01*
X117770887Y-127543073D01*
X127282245Y-127543073D01*
X127336893Y-128030274D01*
X127485132Y-128497582D01*
X127721315Y-128927197D01*
X128036446Y-129302755D01*
X128418521Y-129609952D01*
X128852988Y-129837086D01*
X129323298Y-129975506D01*
X129811537Y-130019939D01*
X130299108Y-129968693D01*
X130767439Y-129823720D01*
X131198693Y-129590542D01*
X131576442Y-129278041D01*
X131886298Y-128898120D01*
X132116460Y-128465249D01*
X132258159Y-127995917D01*
X132306000Y-127508000D01*
X132305021Y-127437861D01*
X132243575Y-126951470D01*
X132088826Y-126486278D01*
X131987725Y-126308306D01*
X135780790Y-126308306D01*
X135917334Y-127052274D01*
X136195782Y-127755552D01*
X136605527Y-128391353D01*
X137130963Y-128935457D01*
X137752076Y-129367142D01*
X138445208Y-129669964D01*
X139183957Y-129832389D01*
X139940186Y-129848229D01*
X140685090Y-129716883D01*
X141390294Y-129443352D01*
X142028940Y-129038055D01*
X142576699Y-128516431D01*
X143012710Y-127898347D01*
X143170887Y-127543073D01*
X153444245Y-127543073D01*
X153498893Y-128030274D01*
X153647132Y-128497582D01*
X153883315Y-128927197D01*
X154198446Y-129302755D01*
X154580521Y-129609952D01*
X155014988Y-129837086D01*
X155485298Y-129975506D01*
X155973537Y-130019939D01*
X156461108Y-129968693D01*
X156929439Y-129823720D01*
X157360693Y-129590542D01*
X157738442Y-129278041D01*
X158048298Y-128898120D01*
X158278460Y-128465249D01*
X158420159Y-127995917D01*
X158468000Y-127508000D01*
X158467021Y-127437861D01*
X158405575Y-126951470D01*
X158250826Y-126486278D01*
X158149725Y-126308306D01*
X161180790Y-126308306D01*
X161317334Y-127052274D01*
X161595782Y-127755552D01*
X162005527Y-128391353D01*
X162530963Y-128935457D01*
X163152076Y-129367142D01*
X163845208Y-129669964D01*
X164583957Y-129832389D01*
X165340186Y-129848229D01*
X166085090Y-129716883D01*
X166790294Y-129443352D01*
X167428940Y-129038055D01*
X167976699Y-128516431D01*
X168412710Y-127898347D01*
X168720363Y-127207346D01*
X168887941Y-126469748D01*
X168900005Y-125605803D01*
X168753087Y-124863813D01*
X168464848Y-124164492D01*
X168046265Y-123534474D01*
X167513284Y-122997759D01*
X166886204Y-122574788D01*
X166188911Y-122281674D01*
X165447966Y-122129579D01*
X164691590Y-122124299D01*
X163948593Y-122266033D01*
X163247276Y-122549383D01*
X162614352Y-122963557D01*
X162073928Y-123492779D01*
X161646590Y-124116890D01*
X161348615Y-124812120D01*
X161191351Y-125551985D01*
X161180790Y-126308306D01*
X158149725Y-126308306D01*
X158008668Y-126060002D01*
X157688324Y-125688880D01*
X157301997Y-125387048D01*
X156864401Y-125166003D01*
X156392204Y-125034163D01*
X155903393Y-124996551D01*
X155416585Y-125054599D01*
X154950323Y-125206097D01*
X154522368Y-125445273D01*
X154149018Y-125763018D01*
X153844497Y-126147229D01*
X153620401Y-126583271D01*
X153485268Y-127054536D01*
X153444245Y-127543073D01*
X143170887Y-127543073D01*
X143320363Y-127207346D01*
X143487941Y-126469748D01*
X143500005Y-125605803D01*
X143353087Y-124863813D01*
X143064848Y-124164492D01*
X142646265Y-123534474D01*
X142113284Y-122997759D01*
X141486204Y-122574788D01*
X140788911Y-122281674D01*
X140047966Y-122129579D01*
X139291590Y-122124299D01*
X138548593Y-122266033D01*
X137847276Y-122549383D01*
X137214352Y-122963557D01*
X136673928Y-123492779D01*
X136246590Y-124116890D01*
X135948615Y-124812120D01*
X135791351Y-125551985D01*
X135780790Y-126308306D01*
X131987725Y-126308306D01*
X131846668Y-126060002D01*
X131526324Y-125688880D01*
X131139997Y-125387048D01*
X130702401Y-125166003D01*
X130230204Y-125034163D01*
X129741393Y-124996551D01*
X129254585Y-125054599D01*
X128788323Y-125206097D01*
X128360368Y-125445273D01*
X127987018Y-125763018D01*
X127682497Y-126147229D01*
X127458401Y-126583271D01*
X127323268Y-127054536D01*
X127282245Y-127543073D01*
X117770887Y-127543073D01*
X117920363Y-127207346D01*
X118087941Y-126469748D01*
X118100005Y-125605803D01*
X117953087Y-124863813D01*
X117664848Y-124164492D01*
X117246265Y-123534474D01*
X116713284Y-122997759D01*
X116086204Y-122574788D01*
X115388911Y-122281674D01*
X114647966Y-122129579D01*
X113891590Y-122124299D01*
X113148593Y-122266033D01*
X112447276Y-122549383D01*
X111814352Y-122963557D01*
X111273928Y-123492779D01*
X110846590Y-124116890D01*
X110548615Y-124812120D01*
X110391351Y-125551985D01*
X110380790Y-126308306D01*
X109549000Y-126308306D01*
X109549000Y-113608306D01*
X110380790Y-113608306D01*
X110517334Y-114352274D01*
X110795782Y-115055552D01*
X111205527Y-115691353D01*
X111730963Y-116235457D01*
X112352076Y-116667142D01*
X113045208Y-116969964D01*
X113783957Y-117132389D01*
X114540186Y-117148229D01*
X115285090Y-117016883D01*
X115990294Y-116743352D01*
X116628940Y-116338055D01*
X117176699Y-115816431D01*
X117612710Y-115198347D01*
X117920363Y-114507346D01*
X118087941Y-113769748D01*
X118090101Y-113615034D01*
X142418975Y-113615034D01*
X142558352Y-114374435D01*
X142842575Y-115092302D01*
X143260820Y-115741291D01*
X143797156Y-116296683D01*
X144431153Y-116737323D01*
X145138664Y-117046426D01*
X145892738Y-117212220D01*
X146664654Y-117228390D01*
X147425010Y-117094318D01*
X148144844Y-116815113D01*
X148796737Y-116401409D01*
X149355860Y-115868964D01*
X149800915Y-115238058D01*
X150114950Y-114532723D01*
X150286004Y-113779824D01*
X150288399Y-113608306D01*
X161180790Y-113608306D01*
X161317334Y-114352274D01*
X161595782Y-115055552D01*
X162005527Y-115691353D01*
X162530963Y-116235457D01*
X163152076Y-116667142D01*
X163845208Y-116969964D01*
X164583957Y-117132389D01*
X165340186Y-117148229D01*
X166085090Y-117016883D01*
X166790294Y-116743352D01*
X167428940Y-116338055D01*
X167976699Y-115816431D01*
X168412710Y-115198347D01*
X168720363Y-114507346D01*
X168887941Y-113769748D01*
X168900005Y-112905803D01*
X168753087Y-112163813D01*
X168464848Y-111464492D01*
X168046265Y-110834474D01*
X167513284Y-110297759D01*
X166886204Y-109874788D01*
X166188911Y-109581674D01*
X165447966Y-109429579D01*
X164691590Y-109424299D01*
X163948593Y-109566033D01*
X163247276Y-109849383D01*
X162614352Y-110263557D01*
X162073928Y-110792779D01*
X161646590Y-111416890D01*
X161348615Y-112112120D01*
X161191351Y-112851985D01*
X161180790Y-113608306D01*
X150288399Y-113608306D01*
X150298318Y-112897957D01*
X150148353Y-112140576D01*
X149854134Y-111426747D01*
X149426868Y-110783661D01*
X148882831Y-110235812D01*
X148242743Y-109804067D01*
X147530986Y-109504872D01*
X146774670Y-109349623D01*
X146002603Y-109344233D01*
X145244193Y-109488907D01*
X144528328Y-109778135D01*
X143882275Y-110200901D01*
X143330641Y-110741101D01*
X142894438Y-111378159D01*
X142590281Y-112087810D01*
X142429755Y-112843023D01*
X142418975Y-113615034D01*
X118090101Y-113615034D01*
X118100005Y-112905803D01*
X117953087Y-112163813D01*
X117664848Y-111464492D01*
X117246265Y-110834474D01*
X116713284Y-110297759D01*
X116086204Y-109874788D01*
X115388911Y-109581674D01*
X114647966Y-109429579D01*
X113891590Y-109424299D01*
X113148593Y-109566033D01*
X112447276Y-109849383D01*
X111814352Y-110263557D01*
X111273928Y-110792779D01*
X110846590Y-111416890D01*
X110548615Y-112112120D01*
X110391351Y-112851985D01*
X110380790Y-113608306D01*
X109549000Y-113608306D01*
X109549000Y-107823000D01*
X176455000Y-107823000D01*
X176455000Y-130227000D01*
X176455000Y-130227000D01*
G37*
X176455000Y-130227000D02*
X109549000Y-130227000D01*
X109549000Y-126308306D01*
X110380790Y-126308306D01*
X110517334Y-127052274D01*
X110795782Y-127755552D01*
X111205527Y-128391353D01*
X111730963Y-128935457D01*
X112352076Y-129367142D01*
X113045208Y-129669964D01*
X113783957Y-129832389D01*
X114540186Y-129848229D01*
X115285090Y-129716883D01*
X115990294Y-129443352D01*
X116628940Y-129038055D01*
X117176699Y-128516431D01*
X117612710Y-127898347D01*
X117770887Y-127543073D01*
X127282245Y-127543073D01*
X127336893Y-128030274D01*
X127485132Y-128497582D01*
X127721315Y-128927197D01*
X128036446Y-129302755D01*
X128418521Y-129609952D01*
X128852988Y-129837086D01*
X129323298Y-129975506D01*
X129811537Y-130019939D01*
X130299108Y-129968693D01*
X130767439Y-129823720D01*
X131198693Y-129590542D01*
X131576442Y-129278041D01*
X131886298Y-128898120D01*
X132116460Y-128465249D01*
X132258159Y-127995917D01*
X132306000Y-127508000D01*
X132305021Y-127437861D01*
X132243575Y-126951470D01*
X132088826Y-126486278D01*
X131987725Y-126308306D01*
X135780790Y-126308306D01*
X135917334Y-127052274D01*
X136195782Y-127755552D01*
X136605527Y-128391353D01*
X137130963Y-128935457D01*
X137752076Y-129367142D01*
X138445208Y-129669964D01*
X139183957Y-129832389D01*
X139940186Y-129848229D01*
X140685090Y-129716883D01*
X141390294Y-129443352D01*
X142028940Y-129038055D01*
X142576699Y-128516431D01*
X143012710Y-127898347D01*
X143170887Y-127543073D01*
X153444245Y-127543073D01*
X153498893Y-128030274D01*
X153647132Y-128497582D01*
X153883315Y-128927197D01*
X154198446Y-129302755D01*
X154580521Y-129609952D01*
X155014988Y-129837086D01*
X155485298Y-129975506D01*
X155973537Y-130019939D01*
X156461108Y-129968693D01*
X156929439Y-129823720D01*
X157360693Y-129590542D01*
X157738442Y-129278041D01*
X158048298Y-128898120D01*
X158278460Y-128465249D01*
X158420159Y-127995917D01*
X158468000Y-127508000D01*
X158467021Y-127437861D01*
X158405575Y-126951470D01*
X158250826Y-126486278D01*
X158149725Y-126308306D01*
X161180790Y-126308306D01*
X161317334Y-127052274D01*
X161595782Y-127755552D01*
X162005527Y-128391353D01*
X162530963Y-128935457D01*
X163152076Y-129367142D01*
X163845208Y-129669964D01*
X164583957Y-129832389D01*
X165340186Y-129848229D01*
X166085090Y-129716883D01*
X166790294Y-129443352D01*
X167428940Y-129038055D01*
X167976699Y-128516431D01*
X168412710Y-127898347D01*
X168720363Y-127207346D01*
X168887941Y-126469748D01*
X168900005Y-125605803D01*
X168753087Y-124863813D01*
X168464848Y-124164492D01*
X168046265Y-123534474D01*
X167513284Y-122997759D01*
X166886204Y-122574788D01*
X166188911Y-122281674D01*
X165447966Y-122129579D01*
X164691590Y-122124299D01*
X163948593Y-122266033D01*
X163247276Y-122549383D01*
X162614352Y-122963557D01*
X162073928Y-123492779D01*
X161646590Y-124116890D01*
X161348615Y-124812120D01*
X161191351Y-125551985D01*
X161180790Y-126308306D01*
X158149725Y-126308306D01*
X158008668Y-126060002D01*
X157688324Y-125688880D01*
X157301997Y-125387048D01*
X156864401Y-125166003D01*
X156392204Y-125034163D01*
X155903393Y-124996551D01*
X155416585Y-125054599D01*
X154950323Y-125206097D01*
X154522368Y-125445273D01*
X154149018Y-125763018D01*
X153844497Y-126147229D01*
X153620401Y-126583271D01*
X153485268Y-127054536D01*
X153444245Y-127543073D01*
X143170887Y-127543073D01*
X143320363Y-127207346D01*
X143487941Y-126469748D01*
X143500005Y-125605803D01*
X143353087Y-124863813D01*
X143064848Y-124164492D01*
X142646265Y-123534474D01*
X142113284Y-122997759D01*
X141486204Y-122574788D01*
X140788911Y-122281674D01*
X140047966Y-122129579D01*
X139291590Y-122124299D01*
X138548593Y-122266033D01*
X137847276Y-122549383D01*
X137214352Y-122963557D01*
X136673928Y-123492779D01*
X136246590Y-124116890D01*
X135948615Y-124812120D01*
X135791351Y-125551985D01*
X135780790Y-126308306D01*
X131987725Y-126308306D01*
X131846668Y-126060002D01*
X131526324Y-125688880D01*
X131139997Y-125387048D01*
X130702401Y-125166003D01*
X130230204Y-125034163D01*
X129741393Y-124996551D01*
X129254585Y-125054599D01*
X128788323Y-125206097D01*
X128360368Y-125445273D01*
X127987018Y-125763018D01*
X127682497Y-126147229D01*
X127458401Y-126583271D01*
X127323268Y-127054536D01*
X127282245Y-127543073D01*
X117770887Y-127543073D01*
X117920363Y-127207346D01*
X118087941Y-126469748D01*
X118100005Y-125605803D01*
X117953087Y-124863813D01*
X117664848Y-124164492D01*
X117246265Y-123534474D01*
X116713284Y-122997759D01*
X116086204Y-122574788D01*
X115388911Y-122281674D01*
X114647966Y-122129579D01*
X113891590Y-122124299D01*
X113148593Y-122266033D01*
X112447276Y-122549383D01*
X111814352Y-122963557D01*
X111273928Y-123492779D01*
X110846590Y-124116890D01*
X110548615Y-124812120D01*
X110391351Y-125551985D01*
X110380790Y-126308306D01*
X109549000Y-126308306D01*
X109549000Y-113608306D01*
X110380790Y-113608306D01*
X110517334Y-114352274D01*
X110795782Y-115055552D01*
X111205527Y-115691353D01*
X111730963Y-116235457D01*
X112352076Y-116667142D01*
X113045208Y-116969964D01*
X113783957Y-117132389D01*
X114540186Y-117148229D01*
X115285090Y-117016883D01*
X115990294Y-116743352D01*
X116628940Y-116338055D01*
X117176699Y-115816431D01*
X117612710Y-115198347D01*
X117920363Y-114507346D01*
X118087941Y-113769748D01*
X118090101Y-113615034D01*
X142418975Y-113615034D01*
X142558352Y-114374435D01*
X142842575Y-115092302D01*
X143260820Y-115741291D01*
X143797156Y-116296683D01*
X144431153Y-116737323D01*
X145138664Y-117046426D01*
X145892738Y-117212220D01*
X146664654Y-117228390D01*
X147425010Y-117094318D01*
X148144844Y-116815113D01*
X148796737Y-116401409D01*
X149355860Y-115868964D01*
X149800915Y-115238058D01*
X150114950Y-114532723D01*
X150286004Y-113779824D01*
X150288399Y-113608306D01*
X161180790Y-113608306D01*
X161317334Y-114352274D01*
X161595782Y-115055552D01*
X162005527Y-115691353D01*
X162530963Y-116235457D01*
X163152076Y-116667142D01*
X163845208Y-116969964D01*
X164583957Y-117132389D01*
X165340186Y-117148229D01*
X166085090Y-117016883D01*
X166790294Y-116743352D01*
X167428940Y-116338055D01*
X167976699Y-115816431D01*
X168412710Y-115198347D01*
X168720363Y-114507346D01*
X168887941Y-113769748D01*
X168900005Y-112905803D01*
X168753087Y-112163813D01*
X168464848Y-111464492D01*
X168046265Y-110834474D01*
X167513284Y-110297759D01*
X166886204Y-109874788D01*
X166188911Y-109581674D01*
X165447966Y-109429579D01*
X164691590Y-109424299D01*
X163948593Y-109566033D01*
X163247276Y-109849383D01*
X162614352Y-110263557D01*
X162073928Y-110792779D01*
X161646590Y-111416890D01*
X161348615Y-112112120D01*
X161191351Y-112851985D01*
X161180790Y-113608306D01*
X150288399Y-113608306D01*
X150298318Y-112897957D01*
X150148353Y-112140576D01*
X149854134Y-111426747D01*
X149426868Y-110783661D01*
X148882831Y-110235812D01*
X148242743Y-109804067D01*
X147530986Y-109504872D01*
X146774670Y-109349623D01*
X146002603Y-109344233D01*
X145244193Y-109488907D01*
X144528328Y-109778135D01*
X143882275Y-110200901D01*
X143330641Y-110741101D01*
X142894438Y-111378159D01*
X142590281Y-112087810D01*
X142429755Y-112843023D01*
X142418975Y-113615034D01*
X118090101Y-113615034D01*
X118100005Y-112905803D01*
X117953087Y-112163813D01*
X117664848Y-111464492D01*
X117246265Y-110834474D01*
X116713284Y-110297759D01*
X116086204Y-109874788D01*
X115388911Y-109581674D01*
X114647966Y-109429579D01*
X113891590Y-109424299D01*
X113148593Y-109566033D01*
X112447276Y-109849383D01*
X111814352Y-110263557D01*
X111273928Y-110792779D01*
X110846590Y-111416890D01*
X110548615Y-112112120D01*
X110391351Y-112851985D01*
X110380790Y-113608306D01*
X109549000Y-113608306D01*
X109549000Y-107823000D01*
X176455000Y-107823000D01*
X176455000Y-130227000D01*
M02*
