M48
; DRILL file {KiCad (5.1.4)-1} date 2/8/2020 10:20:28 AM
; FORMAT={-:-/ absolute / inch / decimal}
; #@! TF.CreationDate,2020-02-08T10:20:28-06:00
; #@! TF.GenerationSoftware,Kicad,Pcbnew,(5.1.4)-1
; #@! TF.FileFunction,Plated,1,2,PTH
FMAT,2
INCH
T1C0.0157
T2C0.0394
T3C0.0591
T4C0.0669
%
G90
G05
T1
X3.85Y-5.63
X4.04Y-4.778
X4.041Y-3.685
X4.07Y-4.36
X4.07Y-5.34
X4.1Y-4.39
X4.102Y-4.896
X4.129Y-6.146
X4.13Y-4.27
X4.137Y-4.843
X4.1535Y-3.6729
X4.154Y-3.633
X4.155Y-5.553
X4.17Y-4.3
X4.2Y-4.27
X4.24Y-5.34
X4.5Y-5.4
X4.6Y-5.4
X4.62Y-4.35
X4.915Y-4.35
X5.0774Y-4.1556
X5.11Y-4.187
X5.129Y-4.365
X5.143Y-5.347
X5.1695Y-4.2475
X5.187Y-4.365
X5.1953Y-4.2177
X5.266Y-4.226
X5.69Y-5.63
X5.72Y-5.66
X5.76Y-4.99
X5.926Y-5.503
X5.933Y-5.208
X6.325Y-3.76
X6.4Y-5.562
X6.4Y-5.65
X6.405Y-5.149
X6.45Y-3.465
X6.4548Y-3.6934
X6.475Y-5.7
X6.495Y-3.685
X6.525Y-5.75
X6.55Y-5.675
X6.575Y-5.8
X6.588Y-4.151
X6.6Y-5.725
X6.65Y-5.775
X6.7Y-5.825
T2
X3.6417Y-5.5638
X3.6417Y-5.6638
X3.6417Y-5.7638
X3.6417Y-5.8638
X3.6417Y-5.9638
X3.6417Y-6.0638
X4.85Y-3.8
X4.85Y-3.9
X4.95Y-3.8
X4.95Y-3.9
X5.05Y-3.8
X5.05Y-3.9
X5.15Y-3.8
X5.15Y-3.9
X5.25Y-3.8
X5.25Y-3.9
X5.35Y-3.8
X5.35Y-3.9
X3.75Y-3.5
X3.75Y-3.6
X3.75Y-3.7
X3.75Y-3.8
X3.75Y-3.9
X3.75Y-4.0
X3.75Y-4.1
X3.75Y-4.2
X3.85Y-3.5
X3.85Y-3.6
X3.85Y-3.7
X3.85Y-3.8
X3.85Y-3.9
X3.85Y-4.0
X3.85Y-4.1
X3.85Y-4.2
X3.75Y-4.6
X3.75Y-4.7
X3.75Y-4.8
X3.75Y-4.9
X3.75Y-5.0
X3.75Y-5.1
X3.75Y-5.2
X3.75Y-5.3
X3.85Y-4.6
X3.85Y-4.7
X3.85Y-4.8
X3.85Y-4.9
X3.85Y-5.0
X3.85Y-5.1
X3.85Y-5.2
X3.85Y-5.3
X4.1287Y-5.8555
X4.1287Y-5.9555
X4.2287Y-5.8555
X4.2287Y-5.9555
X4.3287Y-5.8555
X4.3287Y-5.9555
X4.4287Y-5.8555
X4.4287Y-5.9555
X4.5287Y-5.8555
X4.5287Y-5.9555
X4.6287Y-5.8555
X4.6287Y-5.9555
X4.7287Y-5.8555
X4.7287Y-5.9555
X4.8287Y-5.8555
X4.8287Y-5.9555
X4.9287Y-5.8555
X4.9287Y-5.9555
X5.0287Y-5.8555
X5.0287Y-5.9555
X5.1287Y-5.8555
X5.1287Y-5.9555
X5.2287Y-5.8555
X5.2287Y-5.9555
X5.3287Y-5.8555
X5.3287Y-5.9555
X5.4287Y-5.8555
X5.4287Y-5.9555
X5.5287Y-5.8555
X5.5287Y-5.9555
X5.6287Y-5.8555
X5.6287Y-5.9555
X5.7287Y-5.8555
X5.7287Y-5.9555
X5.8287Y-5.8555
X5.8287Y-5.9555
X5.9287Y-5.8555
X5.9287Y-5.9555
X6.0287Y-5.8555
X6.0287Y-5.9555
X5.65Y-3.8
X5.75Y-3.8
X4.35Y-4.6
X4.35Y-4.7
X4.35Y-4.8
X4.35Y-4.9
X4.35Y-5.0
X4.35Y-5.1
X4.35Y-5.2
X4.35Y-5.3
X4.45Y-4.6
X4.45Y-4.7
X4.45Y-4.8
X4.45Y-4.9
X4.45Y-5.0
X4.45Y-5.1
X4.45Y-5.2
X4.45Y-5.3
X6.7Y-3.5
X6.7Y-3.6
X4.35Y-3.5
X4.35Y-3.6
X4.35Y-3.7
X4.35Y-3.8
X4.35Y-3.9
X4.35Y-4.0
X4.35Y-4.1
X4.35Y-4.2
X4.45Y-3.5
X4.45Y-3.6
X4.45Y-3.7
X4.45Y-3.8
X4.45Y-3.9
X4.45Y-4.0
X4.45Y-4.1
X4.45Y-4.2
X6.7Y-3.8
X6.7Y-3.9
X6.05Y-3.8
X6.15Y-3.8
X6.7717Y-4.2126
X6.7717Y-4.3126
X6.7717Y-4.4126
X6.7717Y-4.5126
X6.7717Y-4.6126
X6.7717Y-4.7126
X6.7717Y-4.8126
X6.7717Y-4.9126
X6.7717Y-5.0126
X6.7717Y-5.1126
X6.7717Y-5.2126
X6.7717Y-5.3126
X6.7717Y-5.4126
X6.7717Y-5.5126
X6.7717Y-5.6126
X6.8717Y-4.2126
X6.8717Y-4.3126
X6.8717Y-4.4126
X6.8717Y-4.5126
X6.8717Y-4.6126
X6.8717Y-4.7126
X6.8717Y-4.8126
X6.8717Y-4.9126
X6.8717Y-5.0126
X6.8717Y-5.1126
X6.8717Y-5.2126
X6.8717Y-5.3126
X6.8717Y-5.4126
X6.8717Y-5.5126
X6.8717Y-5.6126
T3
X6.7Y-6.0
T4
X6.6Y-5.9
X6.6Y-6.1
X6.8Y-5.9
X6.8Y-6.1
T0
M30
