G04 #@! TF.GenerationSoftware,KiCad,Pcbnew,(5.1.4)-1*
G04 #@! TF.CreationDate,2020-02-08T10:20:25-06:00*
G04 #@! TF.ProjectId,Jetson_Addon,4a657473-6f6e-45f4-9164-646f6e2e6b69,rev?*
G04 #@! TF.SameCoordinates,Original*
G04 #@! TF.FileFunction,Legend,Bot*
G04 #@! TF.FilePolarity,Positive*
%FSLAX46Y46*%
G04 Gerber Fmt 4.6, Leading zero omitted, Abs format (unit mm)*
G04 Created by KiCad (PCBNEW (5.1.4)-1) date 2020-02-08 10:20:25*
%MOMM*%
%LPD*%
G04 APERTURE LIST*
%ADD10C,0.150000*%
G04 APERTURE END LIST*
D10*
X175920696Y-91691901D02*
X175968315Y-91739520D01*
X176111173Y-91787139D01*
X176206411Y-91787139D01*
X176349268Y-91739520D01*
X176444506Y-91644282D01*
X176492125Y-91549044D01*
X176539744Y-91358568D01*
X176539744Y-91215711D01*
X176492125Y-91025235D01*
X176444506Y-90929997D01*
X176349268Y-90834759D01*
X176206411Y-90787139D01*
X176111173Y-90787139D01*
X175968315Y-90834759D01*
X175920696Y-90882378D01*
X175539744Y-91501425D02*
X175063554Y-91501425D01*
X175634982Y-91787139D02*
X175301649Y-90787139D01*
X174968315Y-91787139D01*
X174634982Y-91787139D02*
X174634982Y-90787139D01*
X174063554Y-91787139D01*
X174063554Y-90787139D01*
X173396887Y-90787139D02*
X173301649Y-90787139D01*
X173206411Y-90834759D01*
X173158792Y-90882378D01*
X173111173Y-90977616D01*
X173063554Y-91168092D01*
X173063554Y-91406187D01*
X173111173Y-91596663D01*
X173158792Y-91691901D01*
X173206411Y-91739520D01*
X173301649Y-91787139D01*
X173396887Y-91787139D01*
X173492125Y-91739520D01*
X173539744Y-91691901D01*
X173587363Y-91596663D01*
X173634982Y-91406187D01*
X173634982Y-91168092D01*
X173587363Y-90977616D01*
X173539744Y-90882378D01*
X173492125Y-90834759D01*
X173396887Y-90787139D01*
X172873077Y-91882378D02*
X172111173Y-91882378D01*
X171396887Y-91787139D02*
X171873077Y-91787139D01*
X171873077Y-90787139D01*
X176039744Y-89151901D02*
X176087363Y-89199520D01*
X176230220Y-89247139D01*
X176325458Y-89247139D01*
X176468315Y-89199520D01*
X176563554Y-89104282D01*
X176611173Y-89009044D01*
X176658792Y-88818568D01*
X176658792Y-88675711D01*
X176611173Y-88485235D01*
X176563554Y-88389997D01*
X176468315Y-88294759D01*
X176325458Y-88247139D01*
X176230220Y-88247139D01*
X176087363Y-88294759D01*
X176039744Y-88342378D01*
X175658792Y-88961425D02*
X175182601Y-88961425D01*
X175754030Y-89247139D02*
X175420696Y-88247139D01*
X175087363Y-89247139D01*
X174754030Y-89247139D02*
X174754030Y-88247139D01*
X174182601Y-89247139D01*
X174182601Y-88247139D01*
X173515935Y-88247139D02*
X173420696Y-88247139D01*
X173325458Y-88294759D01*
X173277839Y-88342378D01*
X173230220Y-88437616D01*
X173182601Y-88628092D01*
X173182601Y-88866187D01*
X173230220Y-89056663D01*
X173277839Y-89151901D01*
X173325458Y-89199520D01*
X173420696Y-89247139D01*
X173515935Y-89247139D01*
X173611173Y-89199520D01*
X173658792Y-89151901D01*
X173706411Y-89056663D01*
X173754030Y-88866187D01*
X173754030Y-88628092D01*
X173706411Y-88437616D01*
X173658792Y-88342378D01*
X173611173Y-88294759D01*
X173515935Y-88247139D01*
X172992125Y-89342378D02*
X172230220Y-89342378D01*
X171992125Y-89247139D02*
X171992125Y-88247139D01*
X171992125Y-88723330D02*
X171420696Y-88723330D01*
X171420696Y-89247139D02*
X171420696Y-88247139D01*
X176021761Y-99290142D02*
X176069380Y-99337761D01*
X176212238Y-99385380D01*
X176307476Y-99385380D01*
X176450333Y-99337761D01*
X176545571Y-99242523D01*
X176593190Y-99147285D01*
X176640809Y-98956809D01*
X176640809Y-98813952D01*
X176593190Y-98623476D01*
X176545571Y-98528238D01*
X176450333Y-98433000D01*
X176307476Y-98385380D01*
X176212238Y-98385380D01*
X176069380Y-98433000D01*
X176021761Y-98480619D01*
X175640809Y-99099666D02*
X175164619Y-99099666D01*
X175736047Y-99385380D02*
X175402714Y-98385380D01*
X175069380Y-99385380D01*
X174736047Y-99385380D02*
X174736047Y-98385380D01*
X174164619Y-99385380D01*
X174164619Y-98385380D01*
X173164619Y-99385380D02*
X173736047Y-99385380D01*
X173450333Y-99385380D02*
X173450333Y-98385380D01*
X173545571Y-98528238D01*
X173640809Y-98623476D01*
X173736047Y-98671095D01*
X172974142Y-99480619D02*
X172212238Y-99480619D01*
X171497952Y-99385380D02*
X171974142Y-99385380D01*
X171974142Y-98385380D01*
X176140809Y-96750142D02*
X176188428Y-96797761D01*
X176331285Y-96845380D01*
X176426523Y-96845380D01*
X176569380Y-96797761D01*
X176664619Y-96702523D01*
X176712238Y-96607285D01*
X176759857Y-96416809D01*
X176759857Y-96273952D01*
X176712238Y-96083476D01*
X176664619Y-95988238D01*
X176569380Y-95893000D01*
X176426523Y-95845380D01*
X176331285Y-95845380D01*
X176188428Y-95893000D01*
X176140809Y-95940619D01*
X175759857Y-96559666D02*
X175283666Y-96559666D01*
X175855095Y-96845380D02*
X175521761Y-95845380D01*
X175188428Y-96845380D01*
X174855095Y-96845380D02*
X174855095Y-95845380D01*
X174283666Y-96845380D01*
X174283666Y-95845380D01*
X173283666Y-96845380D02*
X173855095Y-96845380D01*
X173569380Y-96845380D02*
X173569380Y-95845380D01*
X173664619Y-95988238D01*
X173759857Y-96083476D01*
X173855095Y-96131095D01*
X173093190Y-96940619D02*
X172331285Y-96940619D01*
X172093190Y-96845380D02*
X172093190Y-95845380D01*
X172093190Y-96321571D02*
X171521761Y-96321571D01*
X171521761Y-96845380D02*
X171521761Y-95845380D01*
M02*
