G04 #@! TF.FileFunction,Copper,L2,Bot,Signal*
%FSLAX46Y46*%
G04 Gerber Fmt 4.6, Leading zero omitted, Abs format (unit mm)*
G04 Created by KiCad (PCBNEW 4.0.6) date 02/08/19 21:52:06*
%MOMM*%
%LPD*%
G01*
G04 APERTURE LIST*
%ADD10C,0.100000*%
%ADD11R,1.700000X1.700000*%
%ADD12O,1.700000X1.700000*%
%ADD13C,1.016000*%
%ADD14C,0.600000*%
%ADD15C,0.762000*%
%ADD16C,0.254000*%
%ADD17C,0.250000*%
G04 APERTURE END LIST*
D10*
D11*
X110910000Y-84000000D03*
D12*
X113450000Y-84000000D03*
D11*
X108370000Y-79770000D03*
D12*
X108370000Y-77230000D03*
X110910000Y-79770000D03*
X110910000Y-77230000D03*
X113450000Y-79770000D03*
X113450000Y-77230000D03*
X115990000Y-79770000D03*
X115990000Y-77230000D03*
X118530000Y-79770000D03*
X118530000Y-77230000D03*
X121070000Y-79770000D03*
X121070000Y-77230000D03*
X123610000Y-79770000D03*
X123610000Y-77230000D03*
X126150000Y-79770000D03*
X126150000Y-77230000D03*
X128690000Y-79770000D03*
X128690000Y-77230000D03*
X131230000Y-79770000D03*
X131230000Y-77230000D03*
X133770000Y-79770000D03*
X133770000Y-77230000D03*
X136310000Y-79770000D03*
X136310000Y-77230000D03*
X138850000Y-79770000D03*
X138850000Y-77230000D03*
X141390000Y-79770000D03*
X141390000Y-77230000D03*
X143930000Y-79770000D03*
X143930000Y-77230000D03*
X146470000Y-79770000D03*
X146470000Y-77230000D03*
X149010000Y-79770000D03*
X149010000Y-77230000D03*
X151550000Y-79770000D03*
X151550000Y-77230000D03*
X154090000Y-79770000D03*
X154090000Y-77230000D03*
X156630000Y-79770000D03*
X156630000Y-77230000D03*
D11*
X112903000Y-104013000D03*
D12*
X112903000Y-106553000D03*
X112903000Y-109093000D03*
D11*
X115443000Y-104013000D03*
D12*
X115443000Y-106553000D03*
X115443000Y-109093000D03*
D11*
X117983000Y-104013000D03*
D12*
X117983000Y-106553000D03*
X117983000Y-109093000D03*
D11*
X120523000Y-104013000D03*
D12*
X120523000Y-106553000D03*
X120523000Y-109093000D03*
D11*
X123063000Y-104013000D03*
D12*
X123063000Y-106553000D03*
X123063000Y-109093000D03*
D11*
X125603000Y-104013000D03*
D12*
X125603000Y-106553000D03*
X125603000Y-109093000D03*
D11*
X128143000Y-104013000D03*
D12*
X128143000Y-106553000D03*
X128143000Y-109093000D03*
D11*
X130683000Y-104013000D03*
D12*
X130683000Y-106553000D03*
X130683000Y-109093000D03*
D11*
X112903000Y-114173000D03*
D12*
X112903000Y-116713000D03*
X112903000Y-119253000D03*
D11*
X115443000Y-114173000D03*
D12*
X115443000Y-116713000D03*
X115443000Y-119253000D03*
D11*
X117983000Y-114173000D03*
D12*
X117983000Y-116713000D03*
X117983000Y-119253000D03*
D11*
X120523000Y-114173000D03*
D12*
X120523000Y-116713000D03*
X120523000Y-119253000D03*
D11*
X123063000Y-114173000D03*
D12*
X123063000Y-116713000D03*
X123063000Y-119253000D03*
D11*
X125603000Y-114173000D03*
D12*
X125603000Y-116713000D03*
X125603000Y-119253000D03*
D11*
X128143000Y-114173000D03*
D12*
X128143000Y-116713000D03*
X128143000Y-119253000D03*
D11*
X130683000Y-114173000D03*
D12*
X130683000Y-116713000D03*
X130683000Y-119253000D03*
D11*
X113030000Y-98044000D03*
D12*
X113030000Y-95504000D03*
D11*
X152400000Y-90170000D03*
D12*
X152400000Y-92710000D03*
X152400000Y-95250000D03*
X152400000Y-97790000D03*
D11*
X149860000Y-90170000D03*
D12*
X149860000Y-92710000D03*
X149860000Y-95250000D03*
D13*
X107442000Y-90424000D03*
X109728000Y-107696000D03*
D14*
X132334000Y-88646000D03*
X136398000Y-91440000D03*
X130556000Y-91694000D03*
X130556000Y-94234000D03*
X144780000Y-104902000D03*
X137922000Y-91440000D03*
X125222000Y-92964000D03*
X134874000Y-91440000D03*
X131826000Y-96520000D03*
X124968000Y-89408000D03*
X121666000Y-92710000D03*
D15*
X107442000Y-90424000D02*
X107442000Y-100330000D01*
X107442000Y-100330000D02*
X108370000Y-101258000D01*
X111125000Y-104013000D02*
X112903000Y-104013000D01*
X108370000Y-101258000D02*
X111125000Y-104013000D01*
X112903000Y-104013000D02*
X115443000Y-104013000D01*
X115443000Y-104013000D02*
X117983000Y-104013000D01*
X117983000Y-104013000D02*
X120523000Y-104013000D01*
X120523000Y-104013000D02*
X123063000Y-104013000D01*
X123063000Y-104013000D02*
X125603000Y-104013000D01*
X125603000Y-104013000D02*
X128143000Y-104013000D01*
X128143000Y-104013000D02*
X130683000Y-104013000D01*
X112903000Y-109093000D02*
X111125000Y-109093000D01*
X111125000Y-109093000D02*
X109728000Y-107696000D01*
D16*
X134620000Y-88646000D02*
X132334000Y-88646000D01*
X136398000Y-90424000D02*
X134620000Y-88646000D01*
X136398000Y-91440000D02*
X136398000Y-90424000D01*
D15*
X112903000Y-109093000D02*
X115443000Y-109093000D01*
X115443000Y-109093000D02*
X117983000Y-109093000D01*
X117983000Y-109093000D02*
X120523000Y-109093000D01*
X120523000Y-109093000D02*
X123063000Y-109093000D01*
X123063000Y-109093000D02*
X125603000Y-109093000D01*
X125603000Y-109093000D02*
X128143000Y-109093000D01*
X128143000Y-109093000D02*
X130683000Y-109093000D01*
D16*
X130556000Y-91694000D02*
X130556000Y-94234000D01*
D17*
X113030000Y-98044000D02*
X113030000Y-98044000D01*
X125603000Y-119253000D02*
X125603000Y-119888000D01*
D16*
X124968000Y-89408000D02*
X121666000Y-92710000D01*
G36*
X162444134Y-75756953D02*
X162871355Y-75885938D01*
X163265384Y-76095446D01*
X163611214Y-76377499D01*
X163895673Y-76721351D01*
X164107929Y-77113910D01*
X164239892Y-77540213D01*
X164290000Y-78016964D01*
X164290000Y-127965279D01*
X164243048Y-128444133D01*
X164114063Y-128871353D01*
X163904554Y-129265384D01*
X163622501Y-129611214D01*
X163278651Y-129895672D01*
X162886093Y-130107927D01*
X162459788Y-130239891D01*
X161983036Y-130290000D01*
X103034721Y-130290000D01*
X102555867Y-130243048D01*
X102128647Y-130114063D01*
X101734616Y-129904554D01*
X101388786Y-129622501D01*
X101104328Y-129278651D01*
X100892073Y-128886093D01*
X100760109Y-128459788D01*
X100710000Y-127983036D01*
X100710000Y-127530158D01*
X101340211Y-127530158D01*
X101387201Y-127949089D01*
X101514668Y-128350915D01*
X101717755Y-128720329D01*
X101988727Y-129043261D01*
X102317263Y-129307411D01*
X102690850Y-129502717D01*
X103095256Y-129621740D01*
X103515080Y-129659947D01*
X103934328Y-129615883D01*
X104337034Y-129491224D01*
X104707857Y-129290721D01*
X105032673Y-129022010D01*
X105299110Y-128695326D01*
X105497019Y-128323112D01*
X105618863Y-127919546D01*
X105657042Y-127530158D01*
X159340211Y-127530158D01*
X159387201Y-127949089D01*
X159514668Y-128350915D01*
X159717755Y-128720329D01*
X159988727Y-129043261D01*
X160317263Y-129307411D01*
X160690850Y-129502717D01*
X161095256Y-129621740D01*
X161515080Y-129659947D01*
X161934328Y-129615883D01*
X162337034Y-129491224D01*
X162707857Y-129290721D01*
X163032673Y-129022010D01*
X163299110Y-128695326D01*
X163497019Y-128323112D01*
X163618863Y-127919546D01*
X163660000Y-127500000D01*
X163659158Y-127439689D01*
X163606323Y-127021455D01*
X163473258Y-126621449D01*
X163265033Y-126254906D01*
X162989578Y-125935789D01*
X162657386Y-125676252D01*
X162281109Y-125486181D01*
X161875080Y-125372815D01*
X161454764Y-125340474D01*
X161036172Y-125390388D01*
X160635246Y-125520657D01*
X160267259Y-125726318D01*
X159946226Y-125999538D01*
X159684376Y-126329910D01*
X159491683Y-126704851D01*
X159375486Y-127110079D01*
X159340211Y-127530158D01*
X105657042Y-127530158D01*
X105660000Y-127500000D01*
X105659158Y-127439689D01*
X105606323Y-127021455D01*
X105473258Y-126621449D01*
X105265033Y-126254906D01*
X104989578Y-125935789D01*
X104657386Y-125676252D01*
X104281109Y-125486181D01*
X103875080Y-125372815D01*
X103454764Y-125340474D01*
X103036172Y-125390388D01*
X102635246Y-125520657D01*
X102267259Y-125726318D01*
X101946226Y-125999538D01*
X101684376Y-126329910D01*
X101491683Y-126704851D01*
X101375486Y-127110079D01*
X101340211Y-127530158D01*
X100710000Y-127530158D01*
X100710000Y-116702633D01*
X111410851Y-116702633D01*
X111437118Y-116991261D01*
X111518947Y-117269291D01*
X111653220Y-117526131D01*
X111834823Y-117752000D01*
X112056839Y-117938294D01*
X112137247Y-117982498D01*
X112074029Y-118016112D01*
X111849433Y-118199287D01*
X111664694Y-118422599D01*
X111526848Y-118677539D01*
X111441146Y-118954399D01*
X111410851Y-119242633D01*
X111437118Y-119531261D01*
X111518947Y-119809291D01*
X111653220Y-120066131D01*
X111834823Y-120292000D01*
X112056839Y-120478294D01*
X112310811Y-120617916D01*
X112587066Y-120705549D01*
X112875081Y-120737855D01*
X112895815Y-120738000D01*
X112910185Y-120738000D01*
X113198623Y-120709718D01*
X113476075Y-120625951D01*
X113731971Y-120489888D01*
X113956567Y-120306713D01*
X114141306Y-120083401D01*
X114172290Y-120026097D01*
X114193220Y-120066131D01*
X114374823Y-120292000D01*
X114596839Y-120478294D01*
X114850811Y-120617916D01*
X115127066Y-120705549D01*
X115415081Y-120737855D01*
X115435815Y-120738000D01*
X115450185Y-120738000D01*
X115738623Y-120709718D01*
X116016075Y-120625951D01*
X116271971Y-120489888D01*
X116496567Y-120306713D01*
X116681306Y-120083401D01*
X116712290Y-120026097D01*
X116733220Y-120066131D01*
X116914823Y-120292000D01*
X117136839Y-120478294D01*
X117390811Y-120617916D01*
X117667066Y-120705549D01*
X117955081Y-120737855D01*
X117975815Y-120738000D01*
X117990185Y-120738000D01*
X118278623Y-120709718D01*
X118556075Y-120625951D01*
X118811971Y-120489888D01*
X119036567Y-120306713D01*
X119221306Y-120083401D01*
X119252290Y-120026097D01*
X119273220Y-120066131D01*
X119454823Y-120292000D01*
X119676839Y-120478294D01*
X119930811Y-120617916D01*
X120207066Y-120705549D01*
X120495081Y-120737855D01*
X120515815Y-120738000D01*
X120530185Y-120738000D01*
X120818623Y-120709718D01*
X121096075Y-120625951D01*
X121351971Y-120489888D01*
X121576567Y-120306713D01*
X121761306Y-120083401D01*
X121792290Y-120026097D01*
X121813220Y-120066131D01*
X121994823Y-120292000D01*
X122216839Y-120478294D01*
X122470811Y-120617916D01*
X122747066Y-120705549D01*
X123035081Y-120737855D01*
X123055815Y-120738000D01*
X123070185Y-120738000D01*
X123358623Y-120709718D01*
X123636075Y-120625951D01*
X123891971Y-120489888D01*
X124116567Y-120306713D01*
X124301306Y-120083401D01*
X124332290Y-120026097D01*
X124353220Y-120066131D01*
X124534823Y-120292000D01*
X124756839Y-120478294D01*
X125010811Y-120617916D01*
X125287066Y-120705549D01*
X125575081Y-120737855D01*
X125595815Y-120738000D01*
X125610185Y-120738000D01*
X125898623Y-120709718D01*
X126176075Y-120625951D01*
X126431971Y-120489888D01*
X126656567Y-120306713D01*
X126841306Y-120083401D01*
X126872290Y-120026097D01*
X126893220Y-120066131D01*
X127074823Y-120292000D01*
X127296839Y-120478294D01*
X127550811Y-120617916D01*
X127827066Y-120705549D01*
X128115081Y-120737855D01*
X128135815Y-120738000D01*
X128150185Y-120738000D01*
X128438623Y-120709718D01*
X128716075Y-120625951D01*
X128971971Y-120489888D01*
X129196567Y-120306713D01*
X129381306Y-120083401D01*
X129412290Y-120026097D01*
X129433220Y-120066131D01*
X129614823Y-120292000D01*
X129836839Y-120478294D01*
X130090811Y-120617916D01*
X130367066Y-120705549D01*
X130655081Y-120737855D01*
X130675815Y-120738000D01*
X130690185Y-120738000D01*
X130978623Y-120709718D01*
X131256075Y-120625951D01*
X131511971Y-120489888D01*
X131736567Y-120306713D01*
X131921306Y-120083401D01*
X132059152Y-119828461D01*
X132144854Y-119551601D01*
X132175149Y-119263367D01*
X132148882Y-118974739D01*
X132067053Y-118696709D01*
X131932780Y-118439869D01*
X131751177Y-118214000D01*
X131529161Y-118027706D01*
X131448753Y-117983502D01*
X131511971Y-117949888D01*
X131736567Y-117766713D01*
X131921306Y-117543401D01*
X132059152Y-117288461D01*
X132144854Y-117011601D01*
X132175149Y-116723367D01*
X132148882Y-116434739D01*
X132067053Y-116156709D01*
X131932780Y-115899869D01*
X131751177Y-115674000D01*
X131705939Y-115636041D01*
X131718223Y-115633597D01*
X131833785Y-115585730D01*
X131937789Y-115516237D01*
X132026237Y-115427789D01*
X132095730Y-115323785D01*
X132143597Y-115208223D01*
X132168000Y-115085542D01*
X132168000Y-114458750D01*
X132009250Y-114300000D01*
X130810000Y-114300000D01*
X130810000Y-114320000D01*
X130556000Y-114320000D01*
X130556000Y-114300000D01*
X128270000Y-114300000D01*
X128270000Y-114320000D01*
X128016000Y-114320000D01*
X128016000Y-114300000D01*
X125730000Y-114300000D01*
X125730000Y-114320000D01*
X125476000Y-114320000D01*
X125476000Y-114300000D01*
X123190000Y-114300000D01*
X123190000Y-114320000D01*
X122936000Y-114320000D01*
X122936000Y-114300000D01*
X120650000Y-114300000D01*
X120650000Y-114320000D01*
X120396000Y-114320000D01*
X120396000Y-114300000D01*
X118110000Y-114300000D01*
X118110000Y-114320000D01*
X117856000Y-114320000D01*
X117856000Y-114300000D01*
X115570000Y-114300000D01*
X115570000Y-114320000D01*
X115316000Y-114320000D01*
X115316000Y-114300000D01*
X113030000Y-114300000D01*
X113030000Y-114320000D01*
X112776000Y-114320000D01*
X112776000Y-114300000D01*
X111576750Y-114300000D01*
X111418000Y-114458750D01*
X111418000Y-115085542D01*
X111442403Y-115208223D01*
X111490270Y-115323785D01*
X111559763Y-115427789D01*
X111648211Y-115516237D01*
X111752215Y-115585730D01*
X111867777Y-115633597D01*
X111878353Y-115635701D01*
X111849433Y-115659287D01*
X111664694Y-115882599D01*
X111526848Y-116137539D01*
X111441146Y-116414399D01*
X111410851Y-116702633D01*
X100710000Y-116702633D01*
X100710000Y-113260458D01*
X111418000Y-113260458D01*
X111418000Y-113887250D01*
X111576750Y-114046000D01*
X112776000Y-114046000D01*
X112776000Y-112846750D01*
X113030000Y-112846750D01*
X113030000Y-114046000D01*
X115316000Y-114046000D01*
X115316000Y-112846750D01*
X115570000Y-112846750D01*
X115570000Y-114046000D01*
X117856000Y-114046000D01*
X117856000Y-112846750D01*
X118110000Y-112846750D01*
X118110000Y-114046000D01*
X120396000Y-114046000D01*
X120396000Y-112846750D01*
X120650000Y-112846750D01*
X120650000Y-114046000D01*
X122936000Y-114046000D01*
X122936000Y-112846750D01*
X123190000Y-112846750D01*
X123190000Y-114046000D01*
X125476000Y-114046000D01*
X125476000Y-112846750D01*
X125730000Y-112846750D01*
X125730000Y-114046000D01*
X128016000Y-114046000D01*
X128016000Y-112846750D01*
X128270000Y-112846750D01*
X128270000Y-114046000D01*
X130556000Y-114046000D01*
X130556000Y-112846750D01*
X130810000Y-112846750D01*
X130810000Y-114046000D01*
X132009250Y-114046000D01*
X132168000Y-113887250D01*
X132168000Y-113260458D01*
X132143597Y-113137777D01*
X132095730Y-113022215D01*
X132026237Y-112918211D01*
X131937789Y-112829763D01*
X131833785Y-112760270D01*
X131718223Y-112712403D01*
X131595542Y-112688000D01*
X130968750Y-112688000D01*
X130810000Y-112846750D01*
X130556000Y-112846750D01*
X130397250Y-112688000D01*
X129770458Y-112688000D01*
X129647777Y-112712403D01*
X129532215Y-112760270D01*
X129428211Y-112829763D01*
X129413000Y-112844974D01*
X129397789Y-112829763D01*
X129293785Y-112760270D01*
X129178223Y-112712403D01*
X129055542Y-112688000D01*
X128428750Y-112688000D01*
X128270000Y-112846750D01*
X128016000Y-112846750D01*
X127857250Y-112688000D01*
X127230458Y-112688000D01*
X127107777Y-112712403D01*
X126992215Y-112760270D01*
X126888211Y-112829763D01*
X126873000Y-112844974D01*
X126857789Y-112829763D01*
X126753785Y-112760270D01*
X126638223Y-112712403D01*
X126515542Y-112688000D01*
X125888750Y-112688000D01*
X125730000Y-112846750D01*
X125476000Y-112846750D01*
X125317250Y-112688000D01*
X124690458Y-112688000D01*
X124567777Y-112712403D01*
X124452215Y-112760270D01*
X124348211Y-112829763D01*
X124333000Y-112844974D01*
X124317789Y-112829763D01*
X124213785Y-112760270D01*
X124098223Y-112712403D01*
X123975542Y-112688000D01*
X123348750Y-112688000D01*
X123190000Y-112846750D01*
X122936000Y-112846750D01*
X122777250Y-112688000D01*
X122150458Y-112688000D01*
X122027777Y-112712403D01*
X121912215Y-112760270D01*
X121808211Y-112829763D01*
X121793000Y-112844974D01*
X121777789Y-112829763D01*
X121673785Y-112760270D01*
X121558223Y-112712403D01*
X121435542Y-112688000D01*
X120808750Y-112688000D01*
X120650000Y-112846750D01*
X120396000Y-112846750D01*
X120237250Y-112688000D01*
X119610458Y-112688000D01*
X119487777Y-112712403D01*
X119372215Y-112760270D01*
X119268211Y-112829763D01*
X119253000Y-112844974D01*
X119237789Y-112829763D01*
X119133785Y-112760270D01*
X119018223Y-112712403D01*
X118895542Y-112688000D01*
X118268750Y-112688000D01*
X118110000Y-112846750D01*
X117856000Y-112846750D01*
X117697250Y-112688000D01*
X117070458Y-112688000D01*
X116947777Y-112712403D01*
X116832215Y-112760270D01*
X116728211Y-112829763D01*
X116713000Y-112844974D01*
X116697789Y-112829763D01*
X116593785Y-112760270D01*
X116478223Y-112712403D01*
X116355542Y-112688000D01*
X115728750Y-112688000D01*
X115570000Y-112846750D01*
X115316000Y-112846750D01*
X115157250Y-112688000D01*
X114530458Y-112688000D01*
X114407777Y-112712403D01*
X114292215Y-112760270D01*
X114188211Y-112829763D01*
X114173000Y-112844974D01*
X114157789Y-112829763D01*
X114053785Y-112760270D01*
X113938223Y-112712403D01*
X113815542Y-112688000D01*
X113188750Y-112688000D01*
X113030000Y-112846750D01*
X112776000Y-112846750D01*
X112617250Y-112688000D01*
X111990458Y-112688000D01*
X111867777Y-112712403D01*
X111752215Y-112760270D01*
X111648211Y-112829763D01*
X111559763Y-112918211D01*
X111490270Y-113022215D01*
X111442403Y-113137777D01*
X111418000Y-113260458D01*
X100710000Y-113260458D01*
X100710000Y-90520107D01*
X106297498Y-90520107D01*
X106337962Y-90740578D01*
X106420479Y-90948991D01*
X106426000Y-90957558D01*
X106426000Y-100330000D01*
X106435159Y-100423407D01*
X106443338Y-100516895D01*
X106444829Y-100522026D01*
X106445350Y-100527342D01*
X106472469Y-100617166D01*
X106498658Y-100707310D01*
X106501117Y-100712054D01*
X106502661Y-100717168D01*
X106546732Y-100800053D01*
X106589911Y-100883353D01*
X106593242Y-100887526D01*
X106595752Y-100892246D01*
X106655074Y-100964982D01*
X106713618Y-101038319D01*
X106720949Y-101045752D01*
X106721076Y-101045908D01*
X106721220Y-101046027D01*
X106723580Y-101048420D01*
X107651579Y-101976420D01*
X107651585Y-101976425D01*
X110406579Y-104731420D01*
X110479110Y-104790998D01*
X110550994Y-104851315D01*
X110555675Y-104853888D01*
X110559804Y-104857280D01*
X110642512Y-104901628D01*
X110724755Y-104946842D01*
X110729848Y-104948458D01*
X110734556Y-104950982D01*
X110824286Y-104978415D01*
X110913762Y-105006798D01*
X110919073Y-105007394D01*
X110924180Y-105008955D01*
X111017486Y-105018433D01*
X111110814Y-105028901D01*
X111121265Y-105028974D01*
X111121453Y-105028993D01*
X111121628Y-105028976D01*
X111125000Y-105029000D01*
X111443084Y-105029000D01*
X111476106Y-105135634D01*
X111574900Y-105285559D01*
X111711550Y-105402025D01*
X111875237Y-105475810D01*
X111877776Y-105476171D01*
X111849433Y-105499287D01*
X111664694Y-105722599D01*
X111526848Y-105977539D01*
X111441146Y-106254399D01*
X111410851Y-106542633D01*
X111437118Y-106831261D01*
X111518947Y-107109291D01*
X111653220Y-107366131D01*
X111834823Y-107592000D01*
X112056839Y-107778294D01*
X112137247Y-107822498D01*
X112074029Y-107856112D01*
X111849433Y-108039287D01*
X111818234Y-108077000D01*
X111545841Y-108077000D01*
X110823746Y-107354906D01*
X110742092Y-107156798D01*
X110618047Y-106970095D01*
X110460101Y-106811042D01*
X110274269Y-106685697D01*
X110067630Y-106598834D01*
X109848054Y-106553762D01*
X109623906Y-106552197D01*
X109403722Y-106594199D01*
X109195891Y-106678169D01*
X109008327Y-106800907D01*
X108848175Y-106957739D01*
X108721535Y-107142691D01*
X108633232Y-107348719D01*
X108586628Y-107567975D01*
X108583498Y-107792107D01*
X108623962Y-108012578D01*
X108706479Y-108220991D01*
X108827905Y-108409407D01*
X108983615Y-108570650D01*
X109167679Y-108698577D01*
X109373085Y-108788317D01*
X109386405Y-108791246D01*
X110406579Y-109811420D01*
X110479110Y-109870998D01*
X110550994Y-109931315D01*
X110555675Y-109933888D01*
X110559804Y-109937280D01*
X110642512Y-109981628D01*
X110724755Y-110026842D01*
X110729848Y-110028458D01*
X110734556Y-110030982D01*
X110824286Y-110058415D01*
X110913762Y-110086798D01*
X110919073Y-110087394D01*
X110924180Y-110088955D01*
X111017486Y-110098433D01*
X111110814Y-110108901D01*
X111121265Y-110108974D01*
X111121453Y-110108993D01*
X111121628Y-110108976D01*
X111125000Y-110109000D01*
X111816331Y-110109000D01*
X111834823Y-110132000D01*
X112056839Y-110318294D01*
X112310811Y-110457916D01*
X112587066Y-110545549D01*
X112875081Y-110577855D01*
X112895815Y-110578000D01*
X112910185Y-110578000D01*
X113198623Y-110549718D01*
X113476075Y-110465951D01*
X113731971Y-110329888D01*
X113956567Y-110146713D01*
X113987766Y-110109000D01*
X114356331Y-110109000D01*
X114374823Y-110132000D01*
X114596839Y-110318294D01*
X114850811Y-110457916D01*
X115127066Y-110545549D01*
X115415081Y-110577855D01*
X115435815Y-110578000D01*
X115450185Y-110578000D01*
X115738623Y-110549718D01*
X116016075Y-110465951D01*
X116271971Y-110329888D01*
X116496567Y-110146713D01*
X116527766Y-110109000D01*
X116896331Y-110109000D01*
X116914823Y-110132000D01*
X117136839Y-110318294D01*
X117390811Y-110457916D01*
X117667066Y-110545549D01*
X117955081Y-110577855D01*
X117975815Y-110578000D01*
X117990185Y-110578000D01*
X118278623Y-110549718D01*
X118556075Y-110465951D01*
X118811971Y-110329888D01*
X119036567Y-110146713D01*
X119067766Y-110109000D01*
X119436331Y-110109000D01*
X119454823Y-110132000D01*
X119676839Y-110318294D01*
X119930811Y-110457916D01*
X120207066Y-110545549D01*
X120495081Y-110577855D01*
X120515815Y-110578000D01*
X120530185Y-110578000D01*
X120818623Y-110549718D01*
X121096075Y-110465951D01*
X121351971Y-110329888D01*
X121576567Y-110146713D01*
X121607766Y-110109000D01*
X121976331Y-110109000D01*
X121994823Y-110132000D01*
X122216839Y-110318294D01*
X122470811Y-110457916D01*
X122747066Y-110545549D01*
X123035081Y-110577855D01*
X123055815Y-110578000D01*
X123070185Y-110578000D01*
X123358623Y-110549718D01*
X123636075Y-110465951D01*
X123891971Y-110329888D01*
X124116567Y-110146713D01*
X124147766Y-110109000D01*
X124516331Y-110109000D01*
X124534823Y-110132000D01*
X124756839Y-110318294D01*
X125010811Y-110457916D01*
X125287066Y-110545549D01*
X125575081Y-110577855D01*
X125595815Y-110578000D01*
X125610185Y-110578000D01*
X125898623Y-110549718D01*
X126176075Y-110465951D01*
X126431971Y-110329888D01*
X126656567Y-110146713D01*
X126687766Y-110109000D01*
X127056331Y-110109000D01*
X127074823Y-110132000D01*
X127296839Y-110318294D01*
X127550811Y-110457916D01*
X127827066Y-110545549D01*
X128115081Y-110577855D01*
X128135815Y-110578000D01*
X128150185Y-110578000D01*
X128438623Y-110549718D01*
X128716075Y-110465951D01*
X128971971Y-110329888D01*
X129196567Y-110146713D01*
X129227766Y-110109000D01*
X129596331Y-110109000D01*
X129614823Y-110132000D01*
X129836839Y-110318294D01*
X130090811Y-110457916D01*
X130367066Y-110545549D01*
X130655081Y-110577855D01*
X130675815Y-110578000D01*
X130690185Y-110578000D01*
X130978623Y-110549718D01*
X131256075Y-110465951D01*
X131511971Y-110329888D01*
X131736567Y-110146713D01*
X131921306Y-109923401D01*
X132059152Y-109668461D01*
X132144854Y-109391601D01*
X132175149Y-109103367D01*
X132148882Y-108814739D01*
X132067053Y-108536709D01*
X131932780Y-108279869D01*
X131751177Y-108054000D01*
X131529161Y-107867706D01*
X131448753Y-107823502D01*
X131511971Y-107789888D01*
X131736567Y-107606713D01*
X131921306Y-107383401D01*
X132059152Y-107128461D01*
X132144854Y-106851601D01*
X132175149Y-106563367D01*
X132148882Y-106274739D01*
X132067053Y-105996709D01*
X131932780Y-105739869D01*
X131751177Y-105514000D01*
X131701349Y-105472189D01*
X131805634Y-105439894D01*
X131955559Y-105341100D01*
X132072025Y-105204450D01*
X132145810Y-105040763D01*
X132171072Y-104863000D01*
X132171072Y-103163000D01*
X132163008Y-103061879D01*
X132109894Y-102890366D01*
X132011100Y-102740441D01*
X131874450Y-102623975D01*
X131710763Y-102550190D01*
X131533000Y-102524928D01*
X129833000Y-102524928D01*
X129731879Y-102532992D01*
X129560366Y-102586106D01*
X129410441Y-102684900D01*
X129408544Y-102687125D01*
X129334450Y-102623975D01*
X129170763Y-102550190D01*
X128993000Y-102524928D01*
X127293000Y-102524928D01*
X127191879Y-102532992D01*
X127020366Y-102586106D01*
X126870441Y-102684900D01*
X126868544Y-102687125D01*
X126794450Y-102623975D01*
X126630763Y-102550190D01*
X126453000Y-102524928D01*
X124753000Y-102524928D01*
X124651879Y-102532992D01*
X124480366Y-102586106D01*
X124330441Y-102684900D01*
X124328544Y-102687125D01*
X124254450Y-102623975D01*
X124090763Y-102550190D01*
X123913000Y-102524928D01*
X122213000Y-102524928D01*
X122111879Y-102532992D01*
X121940366Y-102586106D01*
X121790441Y-102684900D01*
X121788544Y-102687125D01*
X121714450Y-102623975D01*
X121550763Y-102550190D01*
X121373000Y-102524928D01*
X119673000Y-102524928D01*
X119571879Y-102532992D01*
X119400366Y-102586106D01*
X119250441Y-102684900D01*
X119248544Y-102687125D01*
X119174450Y-102623975D01*
X119010763Y-102550190D01*
X118833000Y-102524928D01*
X117133000Y-102524928D01*
X117031879Y-102532992D01*
X116860366Y-102586106D01*
X116710441Y-102684900D01*
X116708544Y-102687125D01*
X116634450Y-102623975D01*
X116470763Y-102550190D01*
X116293000Y-102524928D01*
X114593000Y-102524928D01*
X114491879Y-102532992D01*
X114320366Y-102586106D01*
X114170441Y-102684900D01*
X114168544Y-102687125D01*
X114094450Y-102623975D01*
X113930763Y-102550190D01*
X113753000Y-102524928D01*
X112053000Y-102524928D01*
X111951879Y-102532992D01*
X111780366Y-102586106D01*
X111630441Y-102684900D01*
X111513975Y-102821550D01*
X111469362Y-102920521D01*
X109088491Y-100539651D01*
X109088420Y-100539579D01*
X108458000Y-99909160D01*
X108458000Y-97194000D01*
X111541928Y-97194000D01*
X111541928Y-98894000D01*
X111549992Y-98995121D01*
X111603106Y-99166634D01*
X111701900Y-99316559D01*
X111838550Y-99433025D01*
X112002237Y-99506810D01*
X112180000Y-99532072D01*
X113880000Y-99532072D01*
X113981121Y-99524008D01*
X114152634Y-99470894D01*
X114302559Y-99372100D01*
X114419025Y-99235450D01*
X114492810Y-99071763D01*
X114518072Y-98894000D01*
X114518072Y-97194000D01*
X114510008Y-97092879D01*
X114456894Y-96921366D01*
X114358100Y-96771441D01*
X114221450Y-96654975D01*
X114057763Y-96581190D01*
X114044364Y-96579286D01*
X114127588Y-96504269D01*
X114301641Y-96270920D01*
X114426825Y-96008099D01*
X114471476Y-95860890D01*
X114350155Y-95631000D01*
X113157000Y-95631000D01*
X113157000Y-95651000D01*
X112903000Y-95651000D01*
X112903000Y-95631000D01*
X111709845Y-95631000D01*
X111588524Y-95860890D01*
X111633175Y-96008099D01*
X111758359Y-96270920D01*
X111932412Y-96504269D01*
X112019179Y-96582480D01*
X111907366Y-96617106D01*
X111757441Y-96715900D01*
X111640975Y-96852550D01*
X111567190Y-97016237D01*
X111541928Y-97194000D01*
X108458000Y-97194000D01*
X108458000Y-95147110D01*
X111588524Y-95147110D01*
X111709845Y-95377000D01*
X112903000Y-95377000D01*
X112903000Y-94183186D01*
X113157000Y-94183186D01*
X113157000Y-95377000D01*
X114350155Y-95377000D01*
X114471476Y-95147110D01*
X114426825Y-94999901D01*
X114301641Y-94737080D01*
X114127588Y-94503731D01*
X113911355Y-94308822D01*
X113661252Y-94159843D01*
X113386891Y-94062519D01*
X113157000Y-94183186D01*
X112903000Y-94183186D01*
X112673109Y-94062519D01*
X112398748Y-94159843D01*
X112148645Y-94308822D01*
X111932412Y-94503731D01*
X111758359Y-94737080D01*
X111633175Y-94999901D01*
X111588524Y-95147110D01*
X108458000Y-95147110D01*
X108458000Y-92788617D01*
X120729771Y-92788617D01*
X120762872Y-92968968D01*
X120830372Y-93139454D01*
X120929701Y-93293583D01*
X121057076Y-93425484D01*
X121207644Y-93530131D01*
X121375671Y-93603540D01*
X121554757Y-93642915D01*
X121738079Y-93646755D01*
X121918657Y-93614914D01*
X122089610Y-93548606D01*
X122244429Y-93450355D01*
X122377215Y-93323904D01*
X122482911Y-93174070D01*
X122557492Y-93006560D01*
X122589955Y-92863675D01*
X123681013Y-91772617D01*
X129619771Y-91772617D01*
X129652872Y-91952968D01*
X129720372Y-92123454D01*
X129794000Y-92237703D01*
X129794000Y-93691839D01*
X129732689Y-93781381D01*
X129660454Y-93949916D01*
X129622331Y-94129272D01*
X129619771Y-94312617D01*
X129652872Y-94492968D01*
X129720372Y-94663454D01*
X129819701Y-94817583D01*
X129947076Y-94949484D01*
X130097644Y-95054131D01*
X130265671Y-95127540D01*
X130444757Y-95166915D01*
X130628079Y-95170755D01*
X130808657Y-95138914D01*
X130979610Y-95072606D01*
X131134429Y-94974355D01*
X131267215Y-94847904D01*
X131372911Y-94698070D01*
X131447492Y-94530560D01*
X131488116Y-94351754D01*
X131491040Y-94142319D01*
X131455425Y-93962448D01*
X131385550Y-93792920D01*
X131318000Y-93691248D01*
X131318000Y-92699633D01*
X148367851Y-92699633D01*
X148394118Y-92988261D01*
X148475947Y-93266291D01*
X148610220Y-93523131D01*
X148791823Y-93749000D01*
X149013839Y-93935294D01*
X149094247Y-93979498D01*
X149031029Y-94013112D01*
X148806433Y-94196287D01*
X148621694Y-94419599D01*
X148483848Y-94674539D01*
X148398146Y-94951399D01*
X148367851Y-95239633D01*
X148394118Y-95528261D01*
X148475947Y-95806291D01*
X148610220Y-96063131D01*
X148791823Y-96289000D01*
X149013839Y-96475294D01*
X149267811Y-96614916D01*
X149544066Y-96702549D01*
X149832081Y-96734855D01*
X149852815Y-96735000D01*
X149867185Y-96735000D01*
X150155623Y-96706718D01*
X150433075Y-96622951D01*
X150688971Y-96486888D01*
X150913567Y-96303713D01*
X151098306Y-96080401D01*
X151129290Y-96023097D01*
X151150220Y-96063131D01*
X151331823Y-96289000D01*
X151553839Y-96475294D01*
X151634247Y-96519498D01*
X151571029Y-96553112D01*
X151346433Y-96736287D01*
X151161694Y-96959599D01*
X151023848Y-97214539D01*
X150938146Y-97491399D01*
X150907851Y-97779633D01*
X150934118Y-98068261D01*
X151015947Y-98346291D01*
X151150220Y-98603131D01*
X151331823Y-98829000D01*
X151553839Y-99015294D01*
X151807811Y-99154916D01*
X152084066Y-99242549D01*
X152372081Y-99274855D01*
X152392815Y-99275000D01*
X152407185Y-99275000D01*
X152695623Y-99246718D01*
X152973075Y-99162951D01*
X153228971Y-99026888D01*
X153453567Y-98843713D01*
X153638306Y-98620401D01*
X153776152Y-98365461D01*
X153861854Y-98088601D01*
X153892149Y-97800367D01*
X153865882Y-97511739D01*
X153784053Y-97233709D01*
X153649780Y-96976869D01*
X153468177Y-96751000D01*
X153246161Y-96564706D01*
X153165753Y-96520502D01*
X153228971Y-96486888D01*
X153453567Y-96303713D01*
X153638306Y-96080401D01*
X153776152Y-95825461D01*
X153861854Y-95548601D01*
X153892149Y-95260367D01*
X153865882Y-94971739D01*
X153784053Y-94693709D01*
X153649780Y-94436869D01*
X153468177Y-94211000D01*
X153246161Y-94024706D01*
X153165753Y-93980502D01*
X153228971Y-93946888D01*
X153453567Y-93763713D01*
X153638306Y-93540401D01*
X153776152Y-93285461D01*
X153861854Y-93008601D01*
X153892149Y-92720367D01*
X153865882Y-92431739D01*
X153784053Y-92153709D01*
X153649780Y-91896869D01*
X153468177Y-91671000D01*
X153418349Y-91629189D01*
X153522634Y-91596894D01*
X153672559Y-91498100D01*
X153789025Y-91361450D01*
X153862810Y-91197763D01*
X153888072Y-91020000D01*
X153888072Y-89320000D01*
X153880008Y-89218879D01*
X153826894Y-89047366D01*
X153728100Y-88897441D01*
X153591450Y-88780975D01*
X153427763Y-88707190D01*
X153250000Y-88681928D01*
X151550000Y-88681928D01*
X151448879Y-88689992D01*
X151277366Y-88743106D01*
X151128939Y-88840913D01*
X151114789Y-88826763D01*
X151010785Y-88757270D01*
X150895223Y-88709403D01*
X150772542Y-88685000D01*
X150145750Y-88685000D01*
X149987000Y-88843750D01*
X149987000Y-90043000D01*
X150007000Y-90043000D01*
X150007000Y-90297000D01*
X149987000Y-90297000D01*
X149987000Y-90317000D01*
X149733000Y-90317000D01*
X149733000Y-90297000D01*
X148533750Y-90297000D01*
X148375000Y-90455750D01*
X148375000Y-91082542D01*
X148399403Y-91205223D01*
X148447270Y-91320785D01*
X148516763Y-91424789D01*
X148605211Y-91513237D01*
X148709215Y-91582730D01*
X148824777Y-91630597D01*
X148835353Y-91632701D01*
X148806433Y-91656287D01*
X148621694Y-91879599D01*
X148483848Y-92134539D01*
X148398146Y-92411399D01*
X148367851Y-92699633D01*
X131318000Y-92699633D01*
X131318000Y-92235911D01*
X131372911Y-92158070D01*
X131447492Y-91990560D01*
X131488116Y-91811754D01*
X131491040Y-91602319D01*
X131455425Y-91422448D01*
X131385550Y-91252920D01*
X131284079Y-91100193D01*
X131154875Y-90970084D01*
X131002860Y-90867549D01*
X130833825Y-90796493D01*
X130654207Y-90759623D01*
X130470849Y-90758343D01*
X130290733Y-90792701D01*
X130120722Y-90861390D01*
X129967291Y-90961793D01*
X129836283Y-91090086D01*
X129732689Y-91241381D01*
X129660454Y-91409916D01*
X129622331Y-91589272D01*
X129619771Y-91772617D01*
X123681013Y-91772617D01*
X125123603Y-90330027D01*
X125220657Y-90312914D01*
X125391610Y-90246606D01*
X125546429Y-90148355D01*
X125679215Y-90021904D01*
X125784911Y-89872070D01*
X125859492Y-89704560D01*
X125900116Y-89525754D01*
X125903040Y-89316319D01*
X125867425Y-89136448D01*
X125797550Y-88966920D01*
X125696079Y-88814193D01*
X125607127Y-88724617D01*
X131397771Y-88724617D01*
X131430872Y-88904968D01*
X131498372Y-89075454D01*
X131597701Y-89229583D01*
X131725076Y-89361484D01*
X131875644Y-89466131D01*
X132043671Y-89539540D01*
X132222757Y-89578915D01*
X132406079Y-89582755D01*
X132586657Y-89550914D01*
X132757610Y-89484606D01*
X132878322Y-89408000D01*
X134304370Y-89408000D01*
X135636000Y-90739631D01*
X135636000Y-90897839D01*
X135574689Y-90987381D01*
X135502454Y-91155916D01*
X135464331Y-91335272D01*
X135461771Y-91518617D01*
X135494872Y-91698968D01*
X135562372Y-91869454D01*
X135661701Y-92023583D01*
X135789076Y-92155484D01*
X135939644Y-92260131D01*
X136107671Y-92333540D01*
X136286757Y-92372915D01*
X136470079Y-92376755D01*
X136650657Y-92344914D01*
X136821610Y-92278606D01*
X136976429Y-92180355D01*
X137109215Y-92053904D01*
X137214911Y-91904070D01*
X137289492Y-91736560D01*
X137330116Y-91557754D01*
X137333040Y-91348319D01*
X137297425Y-91168448D01*
X137227550Y-90998920D01*
X137160000Y-90897248D01*
X137160000Y-90424000D01*
X137153130Y-90353936D01*
X137146997Y-90283830D01*
X137145879Y-90279982D01*
X137145488Y-90275993D01*
X137125135Y-90208582D01*
X137105506Y-90141018D01*
X137103663Y-90137462D01*
X137102504Y-90133624D01*
X137069444Y-90071447D01*
X137037067Y-90008986D01*
X137034568Y-90005856D01*
X137032686Y-90002316D01*
X136988199Y-89947769D01*
X136944286Y-89892760D01*
X136938784Y-89887181D01*
X136938693Y-89887069D01*
X136938589Y-89886983D01*
X136936816Y-89885185D01*
X136309089Y-89257458D01*
X148375000Y-89257458D01*
X148375000Y-89884250D01*
X148533750Y-90043000D01*
X149733000Y-90043000D01*
X149733000Y-88843750D01*
X149574250Y-88685000D01*
X148947458Y-88685000D01*
X148824777Y-88709403D01*
X148709215Y-88757270D01*
X148605211Y-88826763D01*
X148516763Y-88915211D01*
X148447270Y-89019215D01*
X148399403Y-89134777D01*
X148375000Y-89257458D01*
X136309089Y-89257458D01*
X135158815Y-88107185D01*
X135104401Y-88062488D01*
X135050505Y-88017264D01*
X135046997Y-88015336D01*
X135043897Y-88012789D01*
X134981831Y-87979510D01*
X134920184Y-87945619D01*
X134916364Y-87944407D01*
X134912833Y-87942514D01*
X134845536Y-87921939D01*
X134778429Y-87900652D01*
X134774446Y-87900205D01*
X134770615Y-87899034D01*
X134700627Y-87891925D01*
X134630639Y-87884074D01*
X134622803Y-87884019D01*
X134622660Y-87884005D01*
X134622527Y-87884018D01*
X134620000Y-87884000D01*
X132876413Y-87884000D01*
X132780860Y-87819549D01*
X132611825Y-87748493D01*
X132432207Y-87711623D01*
X132248849Y-87710343D01*
X132068733Y-87744701D01*
X131898722Y-87813390D01*
X131745291Y-87913793D01*
X131614283Y-88042086D01*
X131510689Y-88193381D01*
X131438454Y-88361916D01*
X131400331Y-88541272D01*
X131397771Y-88724617D01*
X125607127Y-88724617D01*
X125566875Y-88684084D01*
X125414860Y-88581549D01*
X125245825Y-88510493D01*
X125066207Y-88473623D01*
X124882849Y-88472343D01*
X124702733Y-88506701D01*
X124532722Y-88575390D01*
X124379291Y-88675793D01*
X124248283Y-88804086D01*
X124144689Y-88955381D01*
X124072454Y-89123916D01*
X124044921Y-89253449D01*
X121510633Y-91787737D01*
X121400733Y-91808701D01*
X121230722Y-91877390D01*
X121077291Y-91977793D01*
X120946283Y-92106086D01*
X120842689Y-92257381D01*
X120770454Y-92425916D01*
X120732331Y-92605272D01*
X120729771Y-92788617D01*
X108458000Y-92788617D01*
X108458000Y-90952318D01*
X108531813Y-90786532D01*
X108581473Y-90567949D01*
X108585049Y-90311923D01*
X108541510Y-90092038D01*
X108456092Y-89884798D01*
X108332047Y-89698095D01*
X108174101Y-89539042D01*
X107988269Y-89413697D01*
X107781630Y-89326834D01*
X107562054Y-89281762D01*
X107337906Y-89280197D01*
X107117722Y-89322199D01*
X106909891Y-89406169D01*
X106722327Y-89528907D01*
X106562175Y-89685739D01*
X106435535Y-89870691D01*
X106347232Y-90076719D01*
X106300628Y-90295975D01*
X106297498Y-90520107D01*
X100710000Y-90520107D01*
X100710000Y-83150000D01*
X109421928Y-83150000D01*
X109421928Y-84850000D01*
X109429992Y-84951121D01*
X109483106Y-85122634D01*
X109581900Y-85272559D01*
X109718550Y-85389025D01*
X109882237Y-85462810D01*
X110060000Y-85488072D01*
X111760000Y-85488072D01*
X111861121Y-85480008D01*
X112032634Y-85426894D01*
X112182559Y-85328100D01*
X112299025Y-85191450D01*
X112372810Y-85027763D01*
X112373171Y-85025224D01*
X112396287Y-85053567D01*
X112619599Y-85238306D01*
X112874539Y-85376152D01*
X113151399Y-85461854D01*
X113439633Y-85492149D01*
X113728261Y-85465882D01*
X114006291Y-85384053D01*
X114263131Y-85249780D01*
X114489000Y-85068177D01*
X114675294Y-84846161D01*
X114814916Y-84592189D01*
X114902549Y-84315934D01*
X114934855Y-84027919D01*
X114935000Y-84007185D01*
X114935000Y-83992815D01*
X114906718Y-83704377D01*
X114822951Y-83426925D01*
X114686888Y-83171029D01*
X114503713Y-82946433D01*
X114280401Y-82761694D01*
X114025461Y-82623848D01*
X113748601Y-82538146D01*
X113460367Y-82507851D01*
X113171739Y-82534118D01*
X112893709Y-82615947D01*
X112636869Y-82750220D01*
X112411000Y-82931823D01*
X112369189Y-82981651D01*
X112336894Y-82877366D01*
X112238100Y-82727441D01*
X112101450Y-82610975D01*
X111937763Y-82537190D01*
X111760000Y-82511928D01*
X110060000Y-82511928D01*
X109958879Y-82519992D01*
X109787366Y-82573106D01*
X109637441Y-82671900D01*
X109520975Y-82808550D01*
X109447190Y-82972237D01*
X109421928Y-83150000D01*
X100710000Y-83150000D01*
X100710000Y-78530158D01*
X101340211Y-78530158D01*
X101387201Y-78949089D01*
X101514668Y-79350915D01*
X101717755Y-79720329D01*
X101988727Y-80043261D01*
X102317263Y-80307411D01*
X102690850Y-80502717D01*
X103095256Y-80621740D01*
X103515080Y-80659947D01*
X103934328Y-80615883D01*
X104337034Y-80491224D01*
X104707857Y-80290721D01*
X105032673Y-80022010D01*
X105299110Y-79695326D01*
X105497019Y-79323112D01*
X105618725Y-78920000D01*
X106881928Y-78920000D01*
X106881928Y-80620000D01*
X106889992Y-80721121D01*
X106943106Y-80892634D01*
X107041900Y-81042559D01*
X107178550Y-81159025D01*
X107342237Y-81232810D01*
X107520000Y-81258072D01*
X109220000Y-81258072D01*
X109321121Y-81250008D01*
X109492634Y-81196894D01*
X109642559Y-81098100D01*
X109759025Y-80961450D01*
X109832810Y-80797763D01*
X109833171Y-80795224D01*
X109856287Y-80823567D01*
X110079599Y-81008306D01*
X110334539Y-81146152D01*
X110611399Y-81231854D01*
X110899633Y-81262149D01*
X111188261Y-81235882D01*
X111466291Y-81154053D01*
X111723131Y-81019780D01*
X111949000Y-80838177D01*
X112135294Y-80616161D01*
X112179498Y-80535753D01*
X112213112Y-80598971D01*
X112396287Y-80823567D01*
X112619599Y-81008306D01*
X112874539Y-81146152D01*
X113151399Y-81231854D01*
X113439633Y-81262149D01*
X113728261Y-81235882D01*
X114006291Y-81154053D01*
X114263131Y-81019780D01*
X114489000Y-80838177D01*
X114675294Y-80616161D01*
X114719498Y-80535753D01*
X114753112Y-80598971D01*
X114936287Y-80823567D01*
X115159599Y-81008306D01*
X115414539Y-81146152D01*
X115691399Y-81231854D01*
X115979633Y-81262149D01*
X116268261Y-81235882D01*
X116546291Y-81154053D01*
X116803131Y-81019780D01*
X117029000Y-80838177D01*
X117215294Y-80616161D01*
X117262600Y-80530111D01*
X117334822Y-80651355D01*
X117529731Y-80867588D01*
X117763080Y-81041641D01*
X118025901Y-81166825D01*
X118173110Y-81211476D01*
X118403000Y-81090155D01*
X118403000Y-79897000D01*
X118383000Y-79897000D01*
X118383000Y-79643000D01*
X118403000Y-79643000D01*
X118403000Y-79623000D01*
X118657000Y-79623000D01*
X118657000Y-79643000D01*
X118677000Y-79643000D01*
X118677000Y-79897000D01*
X118657000Y-79897000D01*
X118657000Y-81090155D01*
X118886890Y-81211476D01*
X119034099Y-81166825D01*
X119296920Y-81041641D01*
X119530269Y-80867588D01*
X119725178Y-80651355D01*
X119796923Y-80530910D01*
X119833112Y-80598971D01*
X120016287Y-80823567D01*
X120239599Y-81008306D01*
X120494539Y-81146152D01*
X120771399Y-81231854D01*
X121059633Y-81262149D01*
X121348261Y-81235882D01*
X121626291Y-81154053D01*
X121883131Y-81019780D01*
X122109000Y-80838177D01*
X122295294Y-80616161D01*
X122339498Y-80535753D01*
X122373112Y-80598971D01*
X122556287Y-80823567D01*
X122779599Y-81008306D01*
X123034539Y-81146152D01*
X123311399Y-81231854D01*
X123599633Y-81262149D01*
X123888261Y-81235882D01*
X124166291Y-81154053D01*
X124423131Y-81019780D01*
X124649000Y-80838177D01*
X124835294Y-80616161D01*
X124879498Y-80535753D01*
X124913112Y-80598971D01*
X125096287Y-80823567D01*
X125319599Y-81008306D01*
X125574539Y-81146152D01*
X125851399Y-81231854D01*
X126139633Y-81262149D01*
X126428261Y-81235882D01*
X126706291Y-81154053D01*
X126963131Y-81019780D01*
X127189000Y-80838177D01*
X127375294Y-80616161D01*
X127419498Y-80535753D01*
X127453112Y-80598971D01*
X127636287Y-80823567D01*
X127859599Y-81008306D01*
X128114539Y-81146152D01*
X128391399Y-81231854D01*
X128679633Y-81262149D01*
X128968261Y-81235882D01*
X129246291Y-81154053D01*
X129503131Y-81019780D01*
X129729000Y-80838177D01*
X129915294Y-80616161D01*
X129959498Y-80535753D01*
X129993112Y-80598971D01*
X130176287Y-80823567D01*
X130399599Y-81008306D01*
X130654539Y-81146152D01*
X130931399Y-81231854D01*
X131219633Y-81262149D01*
X131508261Y-81235882D01*
X131786291Y-81154053D01*
X132043131Y-81019780D01*
X132269000Y-80838177D01*
X132455294Y-80616161D01*
X132499498Y-80535753D01*
X132533112Y-80598971D01*
X132716287Y-80823567D01*
X132939599Y-81008306D01*
X133194539Y-81146152D01*
X133471399Y-81231854D01*
X133759633Y-81262149D01*
X134048261Y-81235882D01*
X134326291Y-81154053D01*
X134583131Y-81019780D01*
X134809000Y-80838177D01*
X134995294Y-80616161D01*
X135039498Y-80535753D01*
X135073112Y-80598971D01*
X135256287Y-80823567D01*
X135479599Y-81008306D01*
X135734539Y-81146152D01*
X136011399Y-81231854D01*
X136299633Y-81262149D01*
X136588261Y-81235882D01*
X136866291Y-81154053D01*
X137123131Y-81019780D01*
X137349000Y-80838177D01*
X137535294Y-80616161D01*
X137582600Y-80530111D01*
X137654822Y-80651355D01*
X137849731Y-80867588D01*
X138083080Y-81041641D01*
X138345901Y-81166825D01*
X138493110Y-81211476D01*
X138723000Y-81090155D01*
X138723000Y-79897000D01*
X138703000Y-79897000D01*
X138703000Y-79643000D01*
X138723000Y-79643000D01*
X138723000Y-79623000D01*
X138977000Y-79623000D01*
X138977000Y-79643000D01*
X138997000Y-79643000D01*
X138997000Y-79897000D01*
X138977000Y-79897000D01*
X138977000Y-81090155D01*
X139206890Y-81211476D01*
X139354099Y-81166825D01*
X139616920Y-81041641D01*
X139850269Y-80867588D01*
X140045178Y-80651355D01*
X140116923Y-80530910D01*
X140153112Y-80598971D01*
X140336287Y-80823567D01*
X140559599Y-81008306D01*
X140814539Y-81146152D01*
X141091399Y-81231854D01*
X141379633Y-81262149D01*
X141668261Y-81235882D01*
X141946291Y-81154053D01*
X142203131Y-81019780D01*
X142429000Y-80838177D01*
X142615294Y-80616161D01*
X142659498Y-80535753D01*
X142693112Y-80598971D01*
X142876287Y-80823567D01*
X143099599Y-81008306D01*
X143354539Y-81146152D01*
X143631399Y-81231854D01*
X143919633Y-81262149D01*
X144208261Y-81235882D01*
X144486291Y-81154053D01*
X144743131Y-81019780D01*
X144969000Y-80838177D01*
X145155294Y-80616161D01*
X145199498Y-80535753D01*
X145233112Y-80598971D01*
X145416287Y-80823567D01*
X145639599Y-81008306D01*
X145894539Y-81146152D01*
X146171399Y-81231854D01*
X146459633Y-81262149D01*
X146748261Y-81235882D01*
X147026291Y-81154053D01*
X147283131Y-81019780D01*
X147509000Y-80838177D01*
X147695294Y-80616161D01*
X147739498Y-80535753D01*
X147773112Y-80598971D01*
X147956287Y-80823567D01*
X148179599Y-81008306D01*
X148434539Y-81146152D01*
X148711399Y-81231854D01*
X148999633Y-81262149D01*
X149288261Y-81235882D01*
X149566291Y-81154053D01*
X149823131Y-81019780D01*
X150049000Y-80838177D01*
X150235294Y-80616161D01*
X150279498Y-80535753D01*
X150313112Y-80598971D01*
X150496287Y-80823567D01*
X150719599Y-81008306D01*
X150974539Y-81146152D01*
X151251399Y-81231854D01*
X151539633Y-81262149D01*
X151828261Y-81235882D01*
X152106291Y-81154053D01*
X152363131Y-81019780D01*
X152589000Y-80838177D01*
X152775294Y-80616161D01*
X152819498Y-80535753D01*
X152853112Y-80598971D01*
X153036287Y-80823567D01*
X153259599Y-81008306D01*
X153514539Y-81146152D01*
X153791399Y-81231854D01*
X154079633Y-81262149D01*
X154368261Y-81235882D01*
X154646291Y-81154053D01*
X154903131Y-81019780D01*
X155129000Y-80838177D01*
X155315294Y-80616161D01*
X155362600Y-80530111D01*
X155434822Y-80651355D01*
X155629731Y-80867588D01*
X155863080Y-81041641D01*
X156125901Y-81166825D01*
X156273110Y-81211476D01*
X156503000Y-81090155D01*
X156503000Y-79897000D01*
X156757000Y-79897000D01*
X156757000Y-81090155D01*
X156986890Y-81211476D01*
X157134099Y-81166825D01*
X157396920Y-81041641D01*
X157630269Y-80867588D01*
X157825178Y-80651355D01*
X157974157Y-80401252D01*
X158071481Y-80126891D01*
X157950814Y-79897000D01*
X156757000Y-79897000D01*
X156503000Y-79897000D01*
X156483000Y-79897000D01*
X156483000Y-79643000D01*
X156503000Y-79643000D01*
X156503000Y-79623000D01*
X156757000Y-79623000D01*
X156757000Y-79643000D01*
X157950814Y-79643000D01*
X158071481Y-79413109D01*
X157974157Y-79138748D01*
X157825178Y-78888645D01*
X157630269Y-78672412D01*
X157439553Y-78530158D01*
X159340211Y-78530158D01*
X159387201Y-78949089D01*
X159514668Y-79350915D01*
X159717755Y-79720329D01*
X159988727Y-80043261D01*
X160317263Y-80307411D01*
X160690850Y-80502717D01*
X161095256Y-80621740D01*
X161515080Y-80659947D01*
X161934328Y-80615883D01*
X162337034Y-80491224D01*
X162707857Y-80290721D01*
X163032673Y-80022010D01*
X163299110Y-79695326D01*
X163497019Y-79323112D01*
X163618863Y-78919546D01*
X163660000Y-78500000D01*
X163659158Y-78439689D01*
X163606323Y-78021455D01*
X163473258Y-77621449D01*
X163265033Y-77254906D01*
X162989578Y-76935789D01*
X162657386Y-76676252D01*
X162281109Y-76486181D01*
X161875080Y-76372815D01*
X161454764Y-76340474D01*
X161036172Y-76390388D01*
X160635246Y-76520657D01*
X160267259Y-76726318D01*
X159946226Y-76999538D01*
X159684376Y-77329910D01*
X159491683Y-77704851D01*
X159375486Y-78110079D01*
X159340211Y-78530158D01*
X157439553Y-78530158D01*
X157401318Y-78501639D01*
X157443131Y-78479780D01*
X157669000Y-78298177D01*
X157855294Y-78076161D01*
X157994916Y-77822189D01*
X158082549Y-77545934D01*
X158114855Y-77257919D01*
X158115000Y-77237185D01*
X158115000Y-77222815D01*
X158086718Y-76934377D01*
X158002951Y-76656925D01*
X157866888Y-76401029D01*
X157683713Y-76176433D01*
X157460401Y-75991694D01*
X157205461Y-75853848D01*
X156928601Y-75768146D01*
X156640367Y-75737851D01*
X156351739Y-75764118D01*
X156073709Y-75845947D01*
X155816869Y-75980220D01*
X155591000Y-76161823D01*
X155404706Y-76383839D01*
X155360502Y-76464247D01*
X155326888Y-76401029D01*
X155143713Y-76176433D01*
X154920401Y-75991694D01*
X154665461Y-75853848D01*
X154388601Y-75768146D01*
X154100367Y-75737851D01*
X153811739Y-75764118D01*
X153533709Y-75845947D01*
X153276869Y-75980220D01*
X153051000Y-76161823D01*
X152864706Y-76383839D01*
X152820502Y-76464247D01*
X152786888Y-76401029D01*
X152603713Y-76176433D01*
X152380401Y-75991694D01*
X152125461Y-75853848D01*
X151848601Y-75768146D01*
X151560367Y-75737851D01*
X151271739Y-75764118D01*
X150993709Y-75845947D01*
X150736869Y-75980220D01*
X150511000Y-76161823D01*
X150324706Y-76383839D01*
X150277400Y-76469889D01*
X150205178Y-76348645D01*
X150010269Y-76132412D01*
X149776920Y-75958359D01*
X149514099Y-75833175D01*
X149366890Y-75788524D01*
X149137000Y-75909845D01*
X149137000Y-77103000D01*
X149157000Y-77103000D01*
X149157000Y-77357000D01*
X149137000Y-77357000D01*
X149137000Y-77377000D01*
X148883000Y-77377000D01*
X148883000Y-77357000D01*
X148863000Y-77357000D01*
X148863000Y-77103000D01*
X148883000Y-77103000D01*
X148883000Y-75909845D01*
X148653110Y-75788524D01*
X148505901Y-75833175D01*
X148243080Y-75958359D01*
X148009731Y-76132412D01*
X147814822Y-76348645D01*
X147743077Y-76469090D01*
X147706888Y-76401029D01*
X147523713Y-76176433D01*
X147300401Y-75991694D01*
X147045461Y-75853848D01*
X146768601Y-75768146D01*
X146480367Y-75737851D01*
X146191739Y-75764118D01*
X145913709Y-75845947D01*
X145656869Y-75980220D01*
X145431000Y-76161823D01*
X145244706Y-76383839D01*
X145197400Y-76469889D01*
X145125178Y-76348645D01*
X144930269Y-76132412D01*
X144696920Y-75958359D01*
X144434099Y-75833175D01*
X144286890Y-75788524D01*
X144057000Y-75909845D01*
X144057000Y-77103000D01*
X144077000Y-77103000D01*
X144077000Y-77357000D01*
X144057000Y-77357000D01*
X144057000Y-77377000D01*
X143803000Y-77377000D01*
X143803000Y-77357000D01*
X143783000Y-77357000D01*
X143783000Y-77103000D01*
X143803000Y-77103000D01*
X143803000Y-75909845D01*
X143573110Y-75788524D01*
X143425901Y-75833175D01*
X143163080Y-75958359D01*
X142929731Y-76132412D01*
X142734822Y-76348645D01*
X142663077Y-76469090D01*
X142626888Y-76401029D01*
X142443713Y-76176433D01*
X142220401Y-75991694D01*
X141965461Y-75853848D01*
X141688601Y-75768146D01*
X141400367Y-75737851D01*
X141111739Y-75764118D01*
X140833709Y-75845947D01*
X140576869Y-75980220D01*
X140351000Y-76161823D01*
X140164706Y-76383839D01*
X140120502Y-76464247D01*
X140086888Y-76401029D01*
X139903713Y-76176433D01*
X139680401Y-75991694D01*
X139425461Y-75853848D01*
X139148601Y-75768146D01*
X138860367Y-75737851D01*
X138571739Y-75764118D01*
X138293709Y-75845947D01*
X138036869Y-75980220D01*
X137811000Y-76161823D01*
X137624706Y-76383839D01*
X137580502Y-76464247D01*
X137546888Y-76401029D01*
X137363713Y-76176433D01*
X137140401Y-75991694D01*
X136885461Y-75853848D01*
X136608601Y-75768146D01*
X136320367Y-75737851D01*
X136031739Y-75764118D01*
X135753709Y-75845947D01*
X135496869Y-75980220D01*
X135271000Y-76161823D01*
X135084706Y-76383839D01*
X135040502Y-76464247D01*
X135006888Y-76401029D01*
X134823713Y-76176433D01*
X134600401Y-75991694D01*
X134345461Y-75853848D01*
X134068601Y-75768146D01*
X133780367Y-75737851D01*
X133491739Y-75764118D01*
X133213709Y-75845947D01*
X132956869Y-75980220D01*
X132731000Y-76161823D01*
X132544706Y-76383839D01*
X132497400Y-76469889D01*
X132425178Y-76348645D01*
X132230269Y-76132412D01*
X131996920Y-75958359D01*
X131734099Y-75833175D01*
X131586890Y-75788524D01*
X131357000Y-75909845D01*
X131357000Y-77103000D01*
X131377000Y-77103000D01*
X131377000Y-77357000D01*
X131357000Y-77357000D01*
X131357000Y-77377000D01*
X131103000Y-77377000D01*
X131103000Y-77357000D01*
X131083000Y-77357000D01*
X131083000Y-77103000D01*
X131103000Y-77103000D01*
X131103000Y-75909845D01*
X130873110Y-75788524D01*
X130725901Y-75833175D01*
X130463080Y-75958359D01*
X130229731Y-76132412D01*
X130034822Y-76348645D01*
X129963077Y-76469090D01*
X129926888Y-76401029D01*
X129743713Y-76176433D01*
X129520401Y-75991694D01*
X129265461Y-75853848D01*
X128988601Y-75768146D01*
X128700367Y-75737851D01*
X128411739Y-75764118D01*
X128133709Y-75845947D01*
X127876869Y-75980220D01*
X127651000Y-76161823D01*
X127464706Y-76383839D01*
X127420502Y-76464247D01*
X127386888Y-76401029D01*
X127203713Y-76176433D01*
X126980401Y-75991694D01*
X126725461Y-75853848D01*
X126448601Y-75768146D01*
X126160367Y-75737851D01*
X125871739Y-75764118D01*
X125593709Y-75845947D01*
X125336869Y-75980220D01*
X125111000Y-76161823D01*
X124924706Y-76383839D01*
X124877400Y-76469889D01*
X124805178Y-76348645D01*
X124610269Y-76132412D01*
X124376920Y-75958359D01*
X124114099Y-75833175D01*
X123966890Y-75788524D01*
X123737000Y-75909845D01*
X123737000Y-77103000D01*
X123757000Y-77103000D01*
X123757000Y-77357000D01*
X123737000Y-77357000D01*
X123737000Y-77377000D01*
X123483000Y-77377000D01*
X123483000Y-77357000D01*
X123463000Y-77357000D01*
X123463000Y-77103000D01*
X123483000Y-77103000D01*
X123483000Y-75909845D01*
X123253110Y-75788524D01*
X123105901Y-75833175D01*
X122843080Y-75958359D01*
X122609731Y-76132412D01*
X122414822Y-76348645D01*
X122343077Y-76469090D01*
X122306888Y-76401029D01*
X122123713Y-76176433D01*
X121900401Y-75991694D01*
X121645461Y-75853848D01*
X121368601Y-75768146D01*
X121080367Y-75737851D01*
X120791739Y-75764118D01*
X120513709Y-75845947D01*
X120256869Y-75980220D01*
X120031000Y-76161823D01*
X119844706Y-76383839D01*
X119800502Y-76464247D01*
X119766888Y-76401029D01*
X119583713Y-76176433D01*
X119360401Y-75991694D01*
X119105461Y-75853848D01*
X118828601Y-75768146D01*
X118540367Y-75737851D01*
X118251739Y-75764118D01*
X117973709Y-75845947D01*
X117716869Y-75980220D01*
X117491000Y-76161823D01*
X117304706Y-76383839D01*
X117260502Y-76464247D01*
X117226888Y-76401029D01*
X117043713Y-76176433D01*
X116820401Y-75991694D01*
X116565461Y-75853848D01*
X116288601Y-75768146D01*
X116000367Y-75737851D01*
X115711739Y-75764118D01*
X115433709Y-75845947D01*
X115176869Y-75980220D01*
X114951000Y-76161823D01*
X114764706Y-76383839D01*
X114717400Y-76469889D01*
X114645178Y-76348645D01*
X114450269Y-76132412D01*
X114216920Y-75958359D01*
X113954099Y-75833175D01*
X113806890Y-75788524D01*
X113577000Y-75909845D01*
X113577000Y-77103000D01*
X113597000Y-77103000D01*
X113597000Y-77357000D01*
X113577000Y-77357000D01*
X113577000Y-77377000D01*
X113323000Y-77377000D01*
X113323000Y-77357000D01*
X113303000Y-77357000D01*
X113303000Y-77103000D01*
X113323000Y-77103000D01*
X113323000Y-75909845D01*
X113093110Y-75788524D01*
X112945901Y-75833175D01*
X112683080Y-75958359D01*
X112449731Y-76132412D01*
X112254822Y-76348645D01*
X112183077Y-76469090D01*
X112146888Y-76401029D01*
X111963713Y-76176433D01*
X111740401Y-75991694D01*
X111485461Y-75853848D01*
X111208601Y-75768146D01*
X110920367Y-75737851D01*
X110631739Y-75764118D01*
X110353709Y-75845947D01*
X110096869Y-75980220D01*
X109871000Y-76161823D01*
X109684706Y-76383839D01*
X109640502Y-76464247D01*
X109606888Y-76401029D01*
X109423713Y-76176433D01*
X109200401Y-75991694D01*
X108945461Y-75853848D01*
X108668601Y-75768146D01*
X108380367Y-75737851D01*
X108091739Y-75764118D01*
X107813709Y-75845947D01*
X107556869Y-75980220D01*
X107331000Y-76161823D01*
X107144706Y-76383839D01*
X107005084Y-76637811D01*
X106917451Y-76914066D01*
X106885145Y-77202081D01*
X106885000Y-77222815D01*
X106885000Y-77237185D01*
X106913282Y-77525623D01*
X106997049Y-77803075D01*
X107133112Y-78058971D01*
X107316287Y-78283567D01*
X107349882Y-78311359D01*
X107247366Y-78343106D01*
X107097441Y-78441900D01*
X106980975Y-78578550D01*
X106907190Y-78742237D01*
X106881928Y-78920000D01*
X105618725Y-78920000D01*
X105618863Y-78919546D01*
X105660000Y-78500000D01*
X105659158Y-78439689D01*
X105606323Y-78021455D01*
X105473258Y-77621449D01*
X105265033Y-77254906D01*
X104989578Y-76935789D01*
X104657386Y-76676252D01*
X104281109Y-76486181D01*
X103875080Y-76372815D01*
X103454764Y-76340474D01*
X103036172Y-76390388D01*
X102635246Y-76520657D01*
X102267259Y-76726318D01*
X101946226Y-76999538D01*
X101684376Y-77329910D01*
X101491683Y-77704851D01*
X101375486Y-78110079D01*
X101340211Y-78530158D01*
X100710000Y-78530158D01*
X100710000Y-78034721D01*
X100756953Y-77555866D01*
X100885938Y-77128645D01*
X101095446Y-76734616D01*
X101377499Y-76388786D01*
X101721351Y-76104327D01*
X102113910Y-75892071D01*
X102540213Y-75760108D01*
X103016964Y-75710000D01*
X161965279Y-75710000D01*
X162444134Y-75756953D01*
X162444134Y-75756953D01*
G37*
X162444134Y-75756953D02*
X162871355Y-75885938D01*
X163265384Y-76095446D01*
X163611214Y-76377499D01*
X163895673Y-76721351D01*
X164107929Y-77113910D01*
X164239892Y-77540213D01*
X164290000Y-78016964D01*
X164290000Y-127965279D01*
X164243048Y-128444133D01*
X164114063Y-128871353D01*
X163904554Y-129265384D01*
X163622501Y-129611214D01*
X163278651Y-129895672D01*
X162886093Y-130107927D01*
X162459788Y-130239891D01*
X161983036Y-130290000D01*
X103034721Y-130290000D01*
X102555867Y-130243048D01*
X102128647Y-130114063D01*
X101734616Y-129904554D01*
X101388786Y-129622501D01*
X101104328Y-129278651D01*
X100892073Y-128886093D01*
X100760109Y-128459788D01*
X100710000Y-127983036D01*
X100710000Y-127530158D01*
X101340211Y-127530158D01*
X101387201Y-127949089D01*
X101514668Y-128350915D01*
X101717755Y-128720329D01*
X101988727Y-129043261D01*
X102317263Y-129307411D01*
X102690850Y-129502717D01*
X103095256Y-129621740D01*
X103515080Y-129659947D01*
X103934328Y-129615883D01*
X104337034Y-129491224D01*
X104707857Y-129290721D01*
X105032673Y-129022010D01*
X105299110Y-128695326D01*
X105497019Y-128323112D01*
X105618863Y-127919546D01*
X105657042Y-127530158D01*
X159340211Y-127530158D01*
X159387201Y-127949089D01*
X159514668Y-128350915D01*
X159717755Y-128720329D01*
X159988727Y-129043261D01*
X160317263Y-129307411D01*
X160690850Y-129502717D01*
X161095256Y-129621740D01*
X161515080Y-129659947D01*
X161934328Y-129615883D01*
X162337034Y-129491224D01*
X162707857Y-129290721D01*
X163032673Y-129022010D01*
X163299110Y-128695326D01*
X163497019Y-128323112D01*
X163618863Y-127919546D01*
X163660000Y-127500000D01*
X163659158Y-127439689D01*
X163606323Y-127021455D01*
X163473258Y-126621449D01*
X163265033Y-126254906D01*
X162989578Y-125935789D01*
X162657386Y-125676252D01*
X162281109Y-125486181D01*
X161875080Y-125372815D01*
X161454764Y-125340474D01*
X161036172Y-125390388D01*
X160635246Y-125520657D01*
X160267259Y-125726318D01*
X159946226Y-125999538D01*
X159684376Y-126329910D01*
X159491683Y-126704851D01*
X159375486Y-127110079D01*
X159340211Y-127530158D01*
X105657042Y-127530158D01*
X105660000Y-127500000D01*
X105659158Y-127439689D01*
X105606323Y-127021455D01*
X105473258Y-126621449D01*
X105265033Y-126254906D01*
X104989578Y-125935789D01*
X104657386Y-125676252D01*
X104281109Y-125486181D01*
X103875080Y-125372815D01*
X103454764Y-125340474D01*
X103036172Y-125390388D01*
X102635246Y-125520657D01*
X102267259Y-125726318D01*
X101946226Y-125999538D01*
X101684376Y-126329910D01*
X101491683Y-126704851D01*
X101375486Y-127110079D01*
X101340211Y-127530158D01*
X100710000Y-127530158D01*
X100710000Y-116702633D01*
X111410851Y-116702633D01*
X111437118Y-116991261D01*
X111518947Y-117269291D01*
X111653220Y-117526131D01*
X111834823Y-117752000D01*
X112056839Y-117938294D01*
X112137247Y-117982498D01*
X112074029Y-118016112D01*
X111849433Y-118199287D01*
X111664694Y-118422599D01*
X111526848Y-118677539D01*
X111441146Y-118954399D01*
X111410851Y-119242633D01*
X111437118Y-119531261D01*
X111518947Y-119809291D01*
X111653220Y-120066131D01*
X111834823Y-120292000D01*
X112056839Y-120478294D01*
X112310811Y-120617916D01*
X112587066Y-120705549D01*
X112875081Y-120737855D01*
X112895815Y-120738000D01*
X112910185Y-120738000D01*
X113198623Y-120709718D01*
X113476075Y-120625951D01*
X113731971Y-120489888D01*
X113956567Y-120306713D01*
X114141306Y-120083401D01*
X114172290Y-120026097D01*
X114193220Y-120066131D01*
X114374823Y-120292000D01*
X114596839Y-120478294D01*
X114850811Y-120617916D01*
X115127066Y-120705549D01*
X115415081Y-120737855D01*
X115435815Y-120738000D01*
X115450185Y-120738000D01*
X115738623Y-120709718D01*
X116016075Y-120625951D01*
X116271971Y-120489888D01*
X116496567Y-120306713D01*
X116681306Y-120083401D01*
X116712290Y-120026097D01*
X116733220Y-120066131D01*
X116914823Y-120292000D01*
X117136839Y-120478294D01*
X117390811Y-120617916D01*
X117667066Y-120705549D01*
X117955081Y-120737855D01*
X117975815Y-120738000D01*
X117990185Y-120738000D01*
X118278623Y-120709718D01*
X118556075Y-120625951D01*
X118811971Y-120489888D01*
X119036567Y-120306713D01*
X119221306Y-120083401D01*
X119252290Y-120026097D01*
X119273220Y-120066131D01*
X119454823Y-120292000D01*
X119676839Y-120478294D01*
X119930811Y-120617916D01*
X120207066Y-120705549D01*
X120495081Y-120737855D01*
X120515815Y-120738000D01*
X120530185Y-120738000D01*
X120818623Y-120709718D01*
X121096075Y-120625951D01*
X121351971Y-120489888D01*
X121576567Y-120306713D01*
X121761306Y-120083401D01*
X121792290Y-120026097D01*
X121813220Y-120066131D01*
X121994823Y-120292000D01*
X122216839Y-120478294D01*
X122470811Y-120617916D01*
X122747066Y-120705549D01*
X123035081Y-120737855D01*
X123055815Y-120738000D01*
X123070185Y-120738000D01*
X123358623Y-120709718D01*
X123636075Y-120625951D01*
X123891971Y-120489888D01*
X124116567Y-120306713D01*
X124301306Y-120083401D01*
X124332290Y-120026097D01*
X124353220Y-120066131D01*
X124534823Y-120292000D01*
X124756839Y-120478294D01*
X125010811Y-120617916D01*
X125287066Y-120705549D01*
X125575081Y-120737855D01*
X125595815Y-120738000D01*
X125610185Y-120738000D01*
X125898623Y-120709718D01*
X126176075Y-120625951D01*
X126431971Y-120489888D01*
X126656567Y-120306713D01*
X126841306Y-120083401D01*
X126872290Y-120026097D01*
X126893220Y-120066131D01*
X127074823Y-120292000D01*
X127296839Y-120478294D01*
X127550811Y-120617916D01*
X127827066Y-120705549D01*
X128115081Y-120737855D01*
X128135815Y-120738000D01*
X128150185Y-120738000D01*
X128438623Y-120709718D01*
X128716075Y-120625951D01*
X128971971Y-120489888D01*
X129196567Y-120306713D01*
X129381306Y-120083401D01*
X129412290Y-120026097D01*
X129433220Y-120066131D01*
X129614823Y-120292000D01*
X129836839Y-120478294D01*
X130090811Y-120617916D01*
X130367066Y-120705549D01*
X130655081Y-120737855D01*
X130675815Y-120738000D01*
X130690185Y-120738000D01*
X130978623Y-120709718D01*
X131256075Y-120625951D01*
X131511971Y-120489888D01*
X131736567Y-120306713D01*
X131921306Y-120083401D01*
X132059152Y-119828461D01*
X132144854Y-119551601D01*
X132175149Y-119263367D01*
X132148882Y-118974739D01*
X132067053Y-118696709D01*
X131932780Y-118439869D01*
X131751177Y-118214000D01*
X131529161Y-118027706D01*
X131448753Y-117983502D01*
X131511971Y-117949888D01*
X131736567Y-117766713D01*
X131921306Y-117543401D01*
X132059152Y-117288461D01*
X132144854Y-117011601D01*
X132175149Y-116723367D01*
X132148882Y-116434739D01*
X132067053Y-116156709D01*
X131932780Y-115899869D01*
X131751177Y-115674000D01*
X131705939Y-115636041D01*
X131718223Y-115633597D01*
X131833785Y-115585730D01*
X131937789Y-115516237D01*
X132026237Y-115427789D01*
X132095730Y-115323785D01*
X132143597Y-115208223D01*
X132168000Y-115085542D01*
X132168000Y-114458750D01*
X132009250Y-114300000D01*
X130810000Y-114300000D01*
X130810000Y-114320000D01*
X130556000Y-114320000D01*
X130556000Y-114300000D01*
X128270000Y-114300000D01*
X128270000Y-114320000D01*
X128016000Y-114320000D01*
X128016000Y-114300000D01*
X125730000Y-114300000D01*
X125730000Y-114320000D01*
X125476000Y-114320000D01*
X125476000Y-114300000D01*
X123190000Y-114300000D01*
X123190000Y-114320000D01*
X122936000Y-114320000D01*
X122936000Y-114300000D01*
X120650000Y-114300000D01*
X120650000Y-114320000D01*
X120396000Y-114320000D01*
X120396000Y-114300000D01*
X118110000Y-114300000D01*
X118110000Y-114320000D01*
X117856000Y-114320000D01*
X117856000Y-114300000D01*
X115570000Y-114300000D01*
X115570000Y-114320000D01*
X115316000Y-114320000D01*
X115316000Y-114300000D01*
X113030000Y-114300000D01*
X113030000Y-114320000D01*
X112776000Y-114320000D01*
X112776000Y-114300000D01*
X111576750Y-114300000D01*
X111418000Y-114458750D01*
X111418000Y-115085542D01*
X111442403Y-115208223D01*
X111490270Y-115323785D01*
X111559763Y-115427789D01*
X111648211Y-115516237D01*
X111752215Y-115585730D01*
X111867777Y-115633597D01*
X111878353Y-115635701D01*
X111849433Y-115659287D01*
X111664694Y-115882599D01*
X111526848Y-116137539D01*
X111441146Y-116414399D01*
X111410851Y-116702633D01*
X100710000Y-116702633D01*
X100710000Y-113260458D01*
X111418000Y-113260458D01*
X111418000Y-113887250D01*
X111576750Y-114046000D01*
X112776000Y-114046000D01*
X112776000Y-112846750D01*
X113030000Y-112846750D01*
X113030000Y-114046000D01*
X115316000Y-114046000D01*
X115316000Y-112846750D01*
X115570000Y-112846750D01*
X115570000Y-114046000D01*
X117856000Y-114046000D01*
X117856000Y-112846750D01*
X118110000Y-112846750D01*
X118110000Y-114046000D01*
X120396000Y-114046000D01*
X120396000Y-112846750D01*
X120650000Y-112846750D01*
X120650000Y-114046000D01*
X122936000Y-114046000D01*
X122936000Y-112846750D01*
X123190000Y-112846750D01*
X123190000Y-114046000D01*
X125476000Y-114046000D01*
X125476000Y-112846750D01*
X125730000Y-112846750D01*
X125730000Y-114046000D01*
X128016000Y-114046000D01*
X128016000Y-112846750D01*
X128270000Y-112846750D01*
X128270000Y-114046000D01*
X130556000Y-114046000D01*
X130556000Y-112846750D01*
X130810000Y-112846750D01*
X130810000Y-114046000D01*
X132009250Y-114046000D01*
X132168000Y-113887250D01*
X132168000Y-113260458D01*
X132143597Y-113137777D01*
X132095730Y-113022215D01*
X132026237Y-112918211D01*
X131937789Y-112829763D01*
X131833785Y-112760270D01*
X131718223Y-112712403D01*
X131595542Y-112688000D01*
X130968750Y-112688000D01*
X130810000Y-112846750D01*
X130556000Y-112846750D01*
X130397250Y-112688000D01*
X129770458Y-112688000D01*
X129647777Y-112712403D01*
X129532215Y-112760270D01*
X129428211Y-112829763D01*
X129413000Y-112844974D01*
X129397789Y-112829763D01*
X129293785Y-112760270D01*
X129178223Y-112712403D01*
X129055542Y-112688000D01*
X128428750Y-112688000D01*
X128270000Y-112846750D01*
X128016000Y-112846750D01*
X127857250Y-112688000D01*
X127230458Y-112688000D01*
X127107777Y-112712403D01*
X126992215Y-112760270D01*
X126888211Y-112829763D01*
X126873000Y-112844974D01*
X126857789Y-112829763D01*
X126753785Y-112760270D01*
X126638223Y-112712403D01*
X126515542Y-112688000D01*
X125888750Y-112688000D01*
X125730000Y-112846750D01*
X125476000Y-112846750D01*
X125317250Y-112688000D01*
X124690458Y-112688000D01*
X124567777Y-112712403D01*
X124452215Y-112760270D01*
X124348211Y-112829763D01*
X124333000Y-112844974D01*
X124317789Y-112829763D01*
X124213785Y-112760270D01*
X124098223Y-112712403D01*
X123975542Y-112688000D01*
X123348750Y-112688000D01*
X123190000Y-112846750D01*
X122936000Y-112846750D01*
X122777250Y-112688000D01*
X122150458Y-112688000D01*
X122027777Y-112712403D01*
X121912215Y-112760270D01*
X121808211Y-112829763D01*
X121793000Y-112844974D01*
X121777789Y-112829763D01*
X121673785Y-112760270D01*
X121558223Y-112712403D01*
X121435542Y-112688000D01*
X120808750Y-112688000D01*
X120650000Y-112846750D01*
X120396000Y-112846750D01*
X120237250Y-112688000D01*
X119610458Y-112688000D01*
X119487777Y-112712403D01*
X119372215Y-112760270D01*
X119268211Y-112829763D01*
X119253000Y-112844974D01*
X119237789Y-112829763D01*
X119133785Y-112760270D01*
X119018223Y-112712403D01*
X118895542Y-112688000D01*
X118268750Y-112688000D01*
X118110000Y-112846750D01*
X117856000Y-112846750D01*
X117697250Y-112688000D01*
X117070458Y-112688000D01*
X116947777Y-112712403D01*
X116832215Y-112760270D01*
X116728211Y-112829763D01*
X116713000Y-112844974D01*
X116697789Y-112829763D01*
X116593785Y-112760270D01*
X116478223Y-112712403D01*
X116355542Y-112688000D01*
X115728750Y-112688000D01*
X115570000Y-112846750D01*
X115316000Y-112846750D01*
X115157250Y-112688000D01*
X114530458Y-112688000D01*
X114407777Y-112712403D01*
X114292215Y-112760270D01*
X114188211Y-112829763D01*
X114173000Y-112844974D01*
X114157789Y-112829763D01*
X114053785Y-112760270D01*
X113938223Y-112712403D01*
X113815542Y-112688000D01*
X113188750Y-112688000D01*
X113030000Y-112846750D01*
X112776000Y-112846750D01*
X112617250Y-112688000D01*
X111990458Y-112688000D01*
X111867777Y-112712403D01*
X111752215Y-112760270D01*
X111648211Y-112829763D01*
X111559763Y-112918211D01*
X111490270Y-113022215D01*
X111442403Y-113137777D01*
X111418000Y-113260458D01*
X100710000Y-113260458D01*
X100710000Y-90520107D01*
X106297498Y-90520107D01*
X106337962Y-90740578D01*
X106420479Y-90948991D01*
X106426000Y-90957558D01*
X106426000Y-100330000D01*
X106435159Y-100423407D01*
X106443338Y-100516895D01*
X106444829Y-100522026D01*
X106445350Y-100527342D01*
X106472469Y-100617166D01*
X106498658Y-100707310D01*
X106501117Y-100712054D01*
X106502661Y-100717168D01*
X106546732Y-100800053D01*
X106589911Y-100883353D01*
X106593242Y-100887526D01*
X106595752Y-100892246D01*
X106655074Y-100964982D01*
X106713618Y-101038319D01*
X106720949Y-101045752D01*
X106721076Y-101045908D01*
X106721220Y-101046027D01*
X106723580Y-101048420D01*
X107651579Y-101976420D01*
X107651585Y-101976425D01*
X110406579Y-104731420D01*
X110479110Y-104790998D01*
X110550994Y-104851315D01*
X110555675Y-104853888D01*
X110559804Y-104857280D01*
X110642512Y-104901628D01*
X110724755Y-104946842D01*
X110729848Y-104948458D01*
X110734556Y-104950982D01*
X110824286Y-104978415D01*
X110913762Y-105006798D01*
X110919073Y-105007394D01*
X110924180Y-105008955D01*
X111017486Y-105018433D01*
X111110814Y-105028901D01*
X111121265Y-105028974D01*
X111121453Y-105028993D01*
X111121628Y-105028976D01*
X111125000Y-105029000D01*
X111443084Y-105029000D01*
X111476106Y-105135634D01*
X111574900Y-105285559D01*
X111711550Y-105402025D01*
X111875237Y-105475810D01*
X111877776Y-105476171D01*
X111849433Y-105499287D01*
X111664694Y-105722599D01*
X111526848Y-105977539D01*
X111441146Y-106254399D01*
X111410851Y-106542633D01*
X111437118Y-106831261D01*
X111518947Y-107109291D01*
X111653220Y-107366131D01*
X111834823Y-107592000D01*
X112056839Y-107778294D01*
X112137247Y-107822498D01*
X112074029Y-107856112D01*
X111849433Y-108039287D01*
X111818234Y-108077000D01*
X111545841Y-108077000D01*
X110823746Y-107354906D01*
X110742092Y-107156798D01*
X110618047Y-106970095D01*
X110460101Y-106811042D01*
X110274269Y-106685697D01*
X110067630Y-106598834D01*
X109848054Y-106553762D01*
X109623906Y-106552197D01*
X109403722Y-106594199D01*
X109195891Y-106678169D01*
X109008327Y-106800907D01*
X108848175Y-106957739D01*
X108721535Y-107142691D01*
X108633232Y-107348719D01*
X108586628Y-107567975D01*
X108583498Y-107792107D01*
X108623962Y-108012578D01*
X108706479Y-108220991D01*
X108827905Y-108409407D01*
X108983615Y-108570650D01*
X109167679Y-108698577D01*
X109373085Y-108788317D01*
X109386405Y-108791246D01*
X110406579Y-109811420D01*
X110479110Y-109870998D01*
X110550994Y-109931315D01*
X110555675Y-109933888D01*
X110559804Y-109937280D01*
X110642512Y-109981628D01*
X110724755Y-110026842D01*
X110729848Y-110028458D01*
X110734556Y-110030982D01*
X110824286Y-110058415D01*
X110913762Y-110086798D01*
X110919073Y-110087394D01*
X110924180Y-110088955D01*
X111017486Y-110098433D01*
X111110814Y-110108901D01*
X111121265Y-110108974D01*
X111121453Y-110108993D01*
X111121628Y-110108976D01*
X111125000Y-110109000D01*
X111816331Y-110109000D01*
X111834823Y-110132000D01*
X112056839Y-110318294D01*
X112310811Y-110457916D01*
X112587066Y-110545549D01*
X112875081Y-110577855D01*
X112895815Y-110578000D01*
X112910185Y-110578000D01*
X113198623Y-110549718D01*
X113476075Y-110465951D01*
X113731971Y-110329888D01*
X113956567Y-110146713D01*
X113987766Y-110109000D01*
X114356331Y-110109000D01*
X114374823Y-110132000D01*
X114596839Y-110318294D01*
X114850811Y-110457916D01*
X115127066Y-110545549D01*
X115415081Y-110577855D01*
X115435815Y-110578000D01*
X115450185Y-110578000D01*
X115738623Y-110549718D01*
X116016075Y-110465951D01*
X116271971Y-110329888D01*
X116496567Y-110146713D01*
X116527766Y-110109000D01*
X116896331Y-110109000D01*
X116914823Y-110132000D01*
X117136839Y-110318294D01*
X117390811Y-110457916D01*
X117667066Y-110545549D01*
X117955081Y-110577855D01*
X117975815Y-110578000D01*
X117990185Y-110578000D01*
X118278623Y-110549718D01*
X118556075Y-110465951D01*
X118811971Y-110329888D01*
X119036567Y-110146713D01*
X119067766Y-110109000D01*
X119436331Y-110109000D01*
X119454823Y-110132000D01*
X119676839Y-110318294D01*
X119930811Y-110457916D01*
X120207066Y-110545549D01*
X120495081Y-110577855D01*
X120515815Y-110578000D01*
X120530185Y-110578000D01*
X120818623Y-110549718D01*
X121096075Y-110465951D01*
X121351971Y-110329888D01*
X121576567Y-110146713D01*
X121607766Y-110109000D01*
X121976331Y-110109000D01*
X121994823Y-110132000D01*
X122216839Y-110318294D01*
X122470811Y-110457916D01*
X122747066Y-110545549D01*
X123035081Y-110577855D01*
X123055815Y-110578000D01*
X123070185Y-110578000D01*
X123358623Y-110549718D01*
X123636075Y-110465951D01*
X123891971Y-110329888D01*
X124116567Y-110146713D01*
X124147766Y-110109000D01*
X124516331Y-110109000D01*
X124534823Y-110132000D01*
X124756839Y-110318294D01*
X125010811Y-110457916D01*
X125287066Y-110545549D01*
X125575081Y-110577855D01*
X125595815Y-110578000D01*
X125610185Y-110578000D01*
X125898623Y-110549718D01*
X126176075Y-110465951D01*
X126431971Y-110329888D01*
X126656567Y-110146713D01*
X126687766Y-110109000D01*
X127056331Y-110109000D01*
X127074823Y-110132000D01*
X127296839Y-110318294D01*
X127550811Y-110457916D01*
X127827066Y-110545549D01*
X128115081Y-110577855D01*
X128135815Y-110578000D01*
X128150185Y-110578000D01*
X128438623Y-110549718D01*
X128716075Y-110465951D01*
X128971971Y-110329888D01*
X129196567Y-110146713D01*
X129227766Y-110109000D01*
X129596331Y-110109000D01*
X129614823Y-110132000D01*
X129836839Y-110318294D01*
X130090811Y-110457916D01*
X130367066Y-110545549D01*
X130655081Y-110577855D01*
X130675815Y-110578000D01*
X130690185Y-110578000D01*
X130978623Y-110549718D01*
X131256075Y-110465951D01*
X131511971Y-110329888D01*
X131736567Y-110146713D01*
X131921306Y-109923401D01*
X132059152Y-109668461D01*
X132144854Y-109391601D01*
X132175149Y-109103367D01*
X132148882Y-108814739D01*
X132067053Y-108536709D01*
X131932780Y-108279869D01*
X131751177Y-108054000D01*
X131529161Y-107867706D01*
X131448753Y-107823502D01*
X131511971Y-107789888D01*
X131736567Y-107606713D01*
X131921306Y-107383401D01*
X132059152Y-107128461D01*
X132144854Y-106851601D01*
X132175149Y-106563367D01*
X132148882Y-106274739D01*
X132067053Y-105996709D01*
X131932780Y-105739869D01*
X131751177Y-105514000D01*
X131701349Y-105472189D01*
X131805634Y-105439894D01*
X131955559Y-105341100D01*
X132072025Y-105204450D01*
X132145810Y-105040763D01*
X132171072Y-104863000D01*
X132171072Y-103163000D01*
X132163008Y-103061879D01*
X132109894Y-102890366D01*
X132011100Y-102740441D01*
X131874450Y-102623975D01*
X131710763Y-102550190D01*
X131533000Y-102524928D01*
X129833000Y-102524928D01*
X129731879Y-102532992D01*
X129560366Y-102586106D01*
X129410441Y-102684900D01*
X129408544Y-102687125D01*
X129334450Y-102623975D01*
X129170763Y-102550190D01*
X128993000Y-102524928D01*
X127293000Y-102524928D01*
X127191879Y-102532992D01*
X127020366Y-102586106D01*
X126870441Y-102684900D01*
X126868544Y-102687125D01*
X126794450Y-102623975D01*
X126630763Y-102550190D01*
X126453000Y-102524928D01*
X124753000Y-102524928D01*
X124651879Y-102532992D01*
X124480366Y-102586106D01*
X124330441Y-102684900D01*
X124328544Y-102687125D01*
X124254450Y-102623975D01*
X124090763Y-102550190D01*
X123913000Y-102524928D01*
X122213000Y-102524928D01*
X122111879Y-102532992D01*
X121940366Y-102586106D01*
X121790441Y-102684900D01*
X121788544Y-102687125D01*
X121714450Y-102623975D01*
X121550763Y-102550190D01*
X121373000Y-102524928D01*
X119673000Y-102524928D01*
X119571879Y-102532992D01*
X119400366Y-102586106D01*
X119250441Y-102684900D01*
X119248544Y-102687125D01*
X119174450Y-102623975D01*
X119010763Y-102550190D01*
X118833000Y-102524928D01*
X117133000Y-102524928D01*
X117031879Y-102532992D01*
X116860366Y-102586106D01*
X116710441Y-102684900D01*
X116708544Y-102687125D01*
X116634450Y-102623975D01*
X116470763Y-102550190D01*
X116293000Y-102524928D01*
X114593000Y-102524928D01*
X114491879Y-102532992D01*
X114320366Y-102586106D01*
X114170441Y-102684900D01*
X114168544Y-102687125D01*
X114094450Y-102623975D01*
X113930763Y-102550190D01*
X113753000Y-102524928D01*
X112053000Y-102524928D01*
X111951879Y-102532992D01*
X111780366Y-102586106D01*
X111630441Y-102684900D01*
X111513975Y-102821550D01*
X111469362Y-102920521D01*
X109088491Y-100539651D01*
X109088420Y-100539579D01*
X108458000Y-99909160D01*
X108458000Y-97194000D01*
X111541928Y-97194000D01*
X111541928Y-98894000D01*
X111549992Y-98995121D01*
X111603106Y-99166634D01*
X111701900Y-99316559D01*
X111838550Y-99433025D01*
X112002237Y-99506810D01*
X112180000Y-99532072D01*
X113880000Y-99532072D01*
X113981121Y-99524008D01*
X114152634Y-99470894D01*
X114302559Y-99372100D01*
X114419025Y-99235450D01*
X114492810Y-99071763D01*
X114518072Y-98894000D01*
X114518072Y-97194000D01*
X114510008Y-97092879D01*
X114456894Y-96921366D01*
X114358100Y-96771441D01*
X114221450Y-96654975D01*
X114057763Y-96581190D01*
X114044364Y-96579286D01*
X114127588Y-96504269D01*
X114301641Y-96270920D01*
X114426825Y-96008099D01*
X114471476Y-95860890D01*
X114350155Y-95631000D01*
X113157000Y-95631000D01*
X113157000Y-95651000D01*
X112903000Y-95651000D01*
X112903000Y-95631000D01*
X111709845Y-95631000D01*
X111588524Y-95860890D01*
X111633175Y-96008099D01*
X111758359Y-96270920D01*
X111932412Y-96504269D01*
X112019179Y-96582480D01*
X111907366Y-96617106D01*
X111757441Y-96715900D01*
X111640975Y-96852550D01*
X111567190Y-97016237D01*
X111541928Y-97194000D01*
X108458000Y-97194000D01*
X108458000Y-95147110D01*
X111588524Y-95147110D01*
X111709845Y-95377000D01*
X112903000Y-95377000D01*
X112903000Y-94183186D01*
X113157000Y-94183186D01*
X113157000Y-95377000D01*
X114350155Y-95377000D01*
X114471476Y-95147110D01*
X114426825Y-94999901D01*
X114301641Y-94737080D01*
X114127588Y-94503731D01*
X113911355Y-94308822D01*
X113661252Y-94159843D01*
X113386891Y-94062519D01*
X113157000Y-94183186D01*
X112903000Y-94183186D01*
X112673109Y-94062519D01*
X112398748Y-94159843D01*
X112148645Y-94308822D01*
X111932412Y-94503731D01*
X111758359Y-94737080D01*
X111633175Y-94999901D01*
X111588524Y-95147110D01*
X108458000Y-95147110D01*
X108458000Y-92788617D01*
X120729771Y-92788617D01*
X120762872Y-92968968D01*
X120830372Y-93139454D01*
X120929701Y-93293583D01*
X121057076Y-93425484D01*
X121207644Y-93530131D01*
X121375671Y-93603540D01*
X121554757Y-93642915D01*
X121738079Y-93646755D01*
X121918657Y-93614914D01*
X122089610Y-93548606D01*
X122244429Y-93450355D01*
X122377215Y-93323904D01*
X122482911Y-93174070D01*
X122557492Y-93006560D01*
X122589955Y-92863675D01*
X123681013Y-91772617D01*
X129619771Y-91772617D01*
X129652872Y-91952968D01*
X129720372Y-92123454D01*
X129794000Y-92237703D01*
X129794000Y-93691839D01*
X129732689Y-93781381D01*
X129660454Y-93949916D01*
X129622331Y-94129272D01*
X129619771Y-94312617D01*
X129652872Y-94492968D01*
X129720372Y-94663454D01*
X129819701Y-94817583D01*
X129947076Y-94949484D01*
X130097644Y-95054131D01*
X130265671Y-95127540D01*
X130444757Y-95166915D01*
X130628079Y-95170755D01*
X130808657Y-95138914D01*
X130979610Y-95072606D01*
X131134429Y-94974355D01*
X131267215Y-94847904D01*
X131372911Y-94698070D01*
X131447492Y-94530560D01*
X131488116Y-94351754D01*
X131491040Y-94142319D01*
X131455425Y-93962448D01*
X131385550Y-93792920D01*
X131318000Y-93691248D01*
X131318000Y-92699633D01*
X148367851Y-92699633D01*
X148394118Y-92988261D01*
X148475947Y-93266291D01*
X148610220Y-93523131D01*
X148791823Y-93749000D01*
X149013839Y-93935294D01*
X149094247Y-93979498D01*
X149031029Y-94013112D01*
X148806433Y-94196287D01*
X148621694Y-94419599D01*
X148483848Y-94674539D01*
X148398146Y-94951399D01*
X148367851Y-95239633D01*
X148394118Y-95528261D01*
X148475947Y-95806291D01*
X148610220Y-96063131D01*
X148791823Y-96289000D01*
X149013839Y-96475294D01*
X149267811Y-96614916D01*
X149544066Y-96702549D01*
X149832081Y-96734855D01*
X149852815Y-96735000D01*
X149867185Y-96735000D01*
X150155623Y-96706718D01*
X150433075Y-96622951D01*
X150688971Y-96486888D01*
X150913567Y-96303713D01*
X151098306Y-96080401D01*
X151129290Y-96023097D01*
X151150220Y-96063131D01*
X151331823Y-96289000D01*
X151553839Y-96475294D01*
X151634247Y-96519498D01*
X151571029Y-96553112D01*
X151346433Y-96736287D01*
X151161694Y-96959599D01*
X151023848Y-97214539D01*
X150938146Y-97491399D01*
X150907851Y-97779633D01*
X150934118Y-98068261D01*
X151015947Y-98346291D01*
X151150220Y-98603131D01*
X151331823Y-98829000D01*
X151553839Y-99015294D01*
X151807811Y-99154916D01*
X152084066Y-99242549D01*
X152372081Y-99274855D01*
X152392815Y-99275000D01*
X152407185Y-99275000D01*
X152695623Y-99246718D01*
X152973075Y-99162951D01*
X153228971Y-99026888D01*
X153453567Y-98843713D01*
X153638306Y-98620401D01*
X153776152Y-98365461D01*
X153861854Y-98088601D01*
X153892149Y-97800367D01*
X153865882Y-97511739D01*
X153784053Y-97233709D01*
X153649780Y-96976869D01*
X153468177Y-96751000D01*
X153246161Y-96564706D01*
X153165753Y-96520502D01*
X153228971Y-96486888D01*
X153453567Y-96303713D01*
X153638306Y-96080401D01*
X153776152Y-95825461D01*
X153861854Y-95548601D01*
X153892149Y-95260367D01*
X153865882Y-94971739D01*
X153784053Y-94693709D01*
X153649780Y-94436869D01*
X153468177Y-94211000D01*
X153246161Y-94024706D01*
X153165753Y-93980502D01*
X153228971Y-93946888D01*
X153453567Y-93763713D01*
X153638306Y-93540401D01*
X153776152Y-93285461D01*
X153861854Y-93008601D01*
X153892149Y-92720367D01*
X153865882Y-92431739D01*
X153784053Y-92153709D01*
X153649780Y-91896869D01*
X153468177Y-91671000D01*
X153418349Y-91629189D01*
X153522634Y-91596894D01*
X153672559Y-91498100D01*
X153789025Y-91361450D01*
X153862810Y-91197763D01*
X153888072Y-91020000D01*
X153888072Y-89320000D01*
X153880008Y-89218879D01*
X153826894Y-89047366D01*
X153728100Y-88897441D01*
X153591450Y-88780975D01*
X153427763Y-88707190D01*
X153250000Y-88681928D01*
X151550000Y-88681928D01*
X151448879Y-88689992D01*
X151277366Y-88743106D01*
X151128939Y-88840913D01*
X151114789Y-88826763D01*
X151010785Y-88757270D01*
X150895223Y-88709403D01*
X150772542Y-88685000D01*
X150145750Y-88685000D01*
X149987000Y-88843750D01*
X149987000Y-90043000D01*
X150007000Y-90043000D01*
X150007000Y-90297000D01*
X149987000Y-90297000D01*
X149987000Y-90317000D01*
X149733000Y-90317000D01*
X149733000Y-90297000D01*
X148533750Y-90297000D01*
X148375000Y-90455750D01*
X148375000Y-91082542D01*
X148399403Y-91205223D01*
X148447270Y-91320785D01*
X148516763Y-91424789D01*
X148605211Y-91513237D01*
X148709215Y-91582730D01*
X148824777Y-91630597D01*
X148835353Y-91632701D01*
X148806433Y-91656287D01*
X148621694Y-91879599D01*
X148483848Y-92134539D01*
X148398146Y-92411399D01*
X148367851Y-92699633D01*
X131318000Y-92699633D01*
X131318000Y-92235911D01*
X131372911Y-92158070D01*
X131447492Y-91990560D01*
X131488116Y-91811754D01*
X131491040Y-91602319D01*
X131455425Y-91422448D01*
X131385550Y-91252920D01*
X131284079Y-91100193D01*
X131154875Y-90970084D01*
X131002860Y-90867549D01*
X130833825Y-90796493D01*
X130654207Y-90759623D01*
X130470849Y-90758343D01*
X130290733Y-90792701D01*
X130120722Y-90861390D01*
X129967291Y-90961793D01*
X129836283Y-91090086D01*
X129732689Y-91241381D01*
X129660454Y-91409916D01*
X129622331Y-91589272D01*
X129619771Y-91772617D01*
X123681013Y-91772617D01*
X125123603Y-90330027D01*
X125220657Y-90312914D01*
X125391610Y-90246606D01*
X125546429Y-90148355D01*
X125679215Y-90021904D01*
X125784911Y-89872070D01*
X125859492Y-89704560D01*
X125900116Y-89525754D01*
X125903040Y-89316319D01*
X125867425Y-89136448D01*
X125797550Y-88966920D01*
X125696079Y-88814193D01*
X125607127Y-88724617D01*
X131397771Y-88724617D01*
X131430872Y-88904968D01*
X131498372Y-89075454D01*
X131597701Y-89229583D01*
X131725076Y-89361484D01*
X131875644Y-89466131D01*
X132043671Y-89539540D01*
X132222757Y-89578915D01*
X132406079Y-89582755D01*
X132586657Y-89550914D01*
X132757610Y-89484606D01*
X132878322Y-89408000D01*
X134304370Y-89408000D01*
X135636000Y-90739631D01*
X135636000Y-90897839D01*
X135574689Y-90987381D01*
X135502454Y-91155916D01*
X135464331Y-91335272D01*
X135461771Y-91518617D01*
X135494872Y-91698968D01*
X135562372Y-91869454D01*
X135661701Y-92023583D01*
X135789076Y-92155484D01*
X135939644Y-92260131D01*
X136107671Y-92333540D01*
X136286757Y-92372915D01*
X136470079Y-92376755D01*
X136650657Y-92344914D01*
X136821610Y-92278606D01*
X136976429Y-92180355D01*
X137109215Y-92053904D01*
X137214911Y-91904070D01*
X137289492Y-91736560D01*
X137330116Y-91557754D01*
X137333040Y-91348319D01*
X137297425Y-91168448D01*
X137227550Y-90998920D01*
X137160000Y-90897248D01*
X137160000Y-90424000D01*
X137153130Y-90353936D01*
X137146997Y-90283830D01*
X137145879Y-90279982D01*
X137145488Y-90275993D01*
X137125135Y-90208582D01*
X137105506Y-90141018D01*
X137103663Y-90137462D01*
X137102504Y-90133624D01*
X137069444Y-90071447D01*
X137037067Y-90008986D01*
X137034568Y-90005856D01*
X137032686Y-90002316D01*
X136988199Y-89947769D01*
X136944286Y-89892760D01*
X136938784Y-89887181D01*
X136938693Y-89887069D01*
X136938589Y-89886983D01*
X136936816Y-89885185D01*
X136309089Y-89257458D01*
X148375000Y-89257458D01*
X148375000Y-89884250D01*
X148533750Y-90043000D01*
X149733000Y-90043000D01*
X149733000Y-88843750D01*
X149574250Y-88685000D01*
X148947458Y-88685000D01*
X148824777Y-88709403D01*
X148709215Y-88757270D01*
X148605211Y-88826763D01*
X148516763Y-88915211D01*
X148447270Y-89019215D01*
X148399403Y-89134777D01*
X148375000Y-89257458D01*
X136309089Y-89257458D01*
X135158815Y-88107185D01*
X135104401Y-88062488D01*
X135050505Y-88017264D01*
X135046997Y-88015336D01*
X135043897Y-88012789D01*
X134981831Y-87979510D01*
X134920184Y-87945619D01*
X134916364Y-87944407D01*
X134912833Y-87942514D01*
X134845536Y-87921939D01*
X134778429Y-87900652D01*
X134774446Y-87900205D01*
X134770615Y-87899034D01*
X134700627Y-87891925D01*
X134630639Y-87884074D01*
X134622803Y-87884019D01*
X134622660Y-87884005D01*
X134622527Y-87884018D01*
X134620000Y-87884000D01*
X132876413Y-87884000D01*
X132780860Y-87819549D01*
X132611825Y-87748493D01*
X132432207Y-87711623D01*
X132248849Y-87710343D01*
X132068733Y-87744701D01*
X131898722Y-87813390D01*
X131745291Y-87913793D01*
X131614283Y-88042086D01*
X131510689Y-88193381D01*
X131438454Y-88361916D01*
X131400331Y-88541272D01*
X131397771Y-88724617D01*
X125607127Y-88724617D01*
X125566875Y-88684084D01*
X125414860Y-88581549D01*
X125245825Y-88510493D01*
X125066207Y-88473623D01*
X124882849Y-88472343D01*
X124702733Y-88506701D01*
X124532722Y-88575390D01*
X124379291Y-88675793D01*
X124248283Y-88804086D01*
X124144689Y-88955381D01*
X124072454Y-89123916D01*
X124044921Y-89253449D01*
X121510633Y-91787737D01*
X121400733Y-91808701D01*
X121230722Y-91877390D01*
X121077291Y-91977793D01*
X120946283Y-92106086D01*
X120842689Y-92257381D01*
X120770454Y-92425916D01*
X120732331Y-92605272D01*
X120729771Y-92788617D01*
X108458000Y-92788617D01*
X108458000Y-90952318D01*
X108531813Y-90786532D01*
X108581473Y-90567949D01*
X108585049Y-90311923D01*
X108541510Y-90092038D01*
X108456092Y-89884798D01*
X108332047Y-89698095D01*
X108174101Y-89539042D01*
X107988269Y-89413697D01*
X107781630Y-89326834D01*
X107562054Y-89281762D01*
X107337906Y-89280197D01*
X107117722Y-89322199D01*
X106909891Y-89406169D01*
X106722327Y-89528907D01*
X106562175Y-89685739D01*
X106435535Y-89870691D01*
X106347232Y-90076719D01*
X106300628Y-90295975D01*
X106297498Y-90520107D01*
X100710000Y-90520107D01*
X100710000Y-83150000D01*
X109421928Y-83150000D01*
X109421928Y-84850000D01*
X109429992Y-84951121D01*
X109483106Y-85122634D01*
X109581900Y-85272559D01*
X109718550Y-85389025D01*
X109882237Y-85462810D01*
X110060000Y-85488072D01*
X111760000Y-85488072D01*
X111861121Y-85480008D01*
X112032634Y-85426894D01*
X112182559Y-85328100D01*
X112299025Y-85191450D01*
X112372810Y-85027763D01*
X112373171Y-85025224D01*
X112396287Y-85053567D01*
X112619599Y-85238306D01*
X112874539Y-85376152D01*
X113151399Y-85461854D01*
X113439633Y-85492149D01*
X113728261Y-85465882D01*
X114006291Y-85384053D01*
X114263131Y-85249780D01*
X114489000Y-85068177D01*
X114675294Y-84846161D01*
X114814916Y-84592189D01*
X114902549Y-84315934D01*
X114934855Y-84027919D01*
X114935000Y-84007185D01*
X114935000Y-83992815D01*
X114906718Y-83704377D01*
X114822951Y-83426925D01*
X114686888Y-83171029D01*
X114503713Y-82946433D01*
X114280401Y-82761694D01*
X114025461Y-82623848D01*
X113748601Y-82538146D01*
X113460367Y-82507851D01*
X113171739Y-82534118D01*
X112893709Y-82615947D01*
X112636869Y-82750220D01*
X112411000Y-82931823D01*
X112369189Y-82981651D01*
X112336894Y-82877366D01*
X112238100Y-82727441D01*
X112101450Y-82610975D01*
X111937763Y-82537190D01*
X111760000Y-82511928D01*
X110060000Y-82511928D01*
X109958879Y-82519992D01*
X109787366Y-82573106D01*
X109637441Y-82671900D01*
X109520975Y-82808550D01*
X109447190Y-82972237D01*
X109421928Y-83150000D01*
X100710000Y-83150000D01*
X100710000Y-78530158D01*
X101340211Y-78530158D01*
X101387201Y-78949089D01*
X101514668Y-79350915D01*
X101717755Y-79720329D01*
X101988727Y-80043261D01*
X102317263Y-80307411D01*
X102690850Y-80502717D01*
X103095256Y-80621740D01*
X103515080Y-80659947D01*
X103934328Y-80615883D01*
X104337034Y-80491224D01*
X104707857Y-80290721D01*
X105032673Y-80022010D01*
X105299110Y-79695326D01*
X105497019Y-79323112D01*
X105618725Y-78920000D01*
X106881928Y-78920000D01*
X106881928Y-80620000D01*
X106889992Y-80721121D01*
X106943106Y-80892634D01*
X107041900Y-81042559D01*
X107178550Y-81159025D01*
X107342237Y-81232810D01*
X107520000Y-81258072D01*
X109220000Y-81258072D01*
X109321121Y-81250008D01*
X109492634Y-81196894D01*
X109642559Y-81098100D01*
X109759025Y-80961450D01*
X109832810Y-80797763D01*
X109833171Y-80795224D01*
X109856287Y-80823567D01*
X110079599Y-81008306D01*
X110334539Y-81146152D01*
X110611399Y-81231854D01*
X110899633Y-81262149D01*
X111188261Y-81235882D01*
X111466291Y-81154053D01*
X111723131Y-81019780D01*
X111949000Y-80838177D01*
X112135294Y-80616161D01*
X112179498Y-80535753D01*
X112213112Y-80598971D01*
X112396287Y-80823567D01*
X112619599Y-81008306D01*
X112874539Y-81146152D01*
X113151399Y-81231854D01*
X113439633Y-81262149D01*
X113728261Y-81235882D01*
X114006291Y-81154053D01*
X114263131Y-81019780D01*
X114489000Y-80838177D01*
X114675294Y-80616161D01*
X114719498Y-80535753D01*
X114753112Y-80598971D01*
X114936287Y-80823567D01*
X115159599Y-81008306D01*
X115414539Y-81146152D01*
X115691399Y-81231854D01*
X115979633Y-81262149D01*
X116268261Y-81235882D01*
X116546291Y-81154053D01*
X116803131Y-81019780D01*
X117029000Y-80838177D01*
X117215294Y-80616161D01*
X117262600Y-80530111D01*
X117334822Y-80651355D01*
X117529731Y-80867588D01*
X117763080Y-81041641D01*
X118025901Y-81166825D01*
X118173110Y-81211476D01*
X118403000Y-81090155D01*
X118403000Y-79897000D01*
X118383000Y-79897000D01*
X118383000Y-79643000D01*
X118403000Y-79643000D01*
X118403000Y-79623000D01*
X118657000Y-79623000D01*
X118657000Y-79643000D01*
X118677000Y-79643000D01*
X118677000Y-79897000D01*
X118657000Y-79897000D01*
X118657000Y-81090155D01*
X118886890Y-81211476D01*
X119034099Y-81166825D01*
X119296920Y-81041641D01*
X119530269Y-80867588D01*
X119725178Y-80651355D01*
X119796923Y-80530910D01*
X119833112Y-80598971D01*
X120016287Y-80823567D01*
X120239599Y-81008306D01*
X120494539Y-81146152D01*
X120771399Y-81231854D01*
X121059633Y-81262149D01*
X121348261Y-81235882D01*
X121626291Y-81154053D01*
X121883131Y-81019780D01*
X122109000Y-80838177D01*
X122295294Y-80616161D01*
X122339498Y-80535753D01*
X122373112Y-80598971D01*
X122556287Y-80823567D01*
X122779599Y-81008306D01*
X123034539Y-81146152D01*
X123311399Y-81231854D01*
X123599633Y-81262149D01*
X123888261Y-81235882D01*
X124166291Y-81154053D01*
X124423131Y-81019780D01*
X124649000Y-80838177D01*
X124835294Y-80616161D01*
X124879498Y-80535753D01*
X124913112Y-80598971D01*
X125096287Y-80823567D01*
X125319599Y-81008306D01*
X125574539Y-81146152D01*
X125851399Y-81231854D01*
X126139633Y-81262149D01*
X126428261Y-81235882D01*
X126706291Y-81154053D01*
X126963131Y-81019780D01*
X127189000Y-80838177D01*
X127375294Y-80616161D01*
X127419498Y-80535753D01*
X127453112Y-80598971D01*
X127636287Y-80823567D01*
X127859599Y-81008306D01*
X128114539Y-81146152D01*
X128391399Y-81231854D01*
X128679633Y-81262149D01*
X128968261Y-81235882D01*
X129246291Y-81154053D01*
X129503131Y-81019780D01*
X129729000Y-80838177D01*
X129915294Y-80616161D01*
X129959498Y-80535753D01*
X129993112Y-80598971D01*
X130176287Y-80823567D01*
X130399599Y-81008306D01*
X130654539Y-81146152D01*
X130931399Y-81231854D01*
X131219633Y-81262149D01*
X131508261Y-81235882D01*
X131786291Y-81154053D01*
X132043131Y-81019780D01*
X132269000Y-80838177D01*
X132455294Y-80616161D01*
X132499498Y-80535753D01*
X132533112Y-80598971D01*
X132716287Y-80823567D01*
X132939599Y-81008306D01*
X133194539Y-81146152D01*
X133471399Y-81231854D01*
X133759633Y-81262149D01*
X134048261Y-81235882D01*
X134326291Y-81154053D01*
X134583131Y-81019780D01*
X134809000Y-80838177D01*
X134995294Y-80616161D01*
X135039498Y-80535753D01*
X135073112Y-80598971D01*
X135256287Y-80823567D01*
X135479599Y-81008306D01*
X135734539Y-81146152D01*
X136011399Y-81231854D01*
X136299633Y-81262149D01*
X136588261Y-81235882D01*
X136866291Y-81154053D01*
X137123131Y-81019780D01*
X137349000Y-80838177D01*
X137535294Y-80616161D01*
X137582600Y-80530111D01*
X137654822Y-80651355D01*
X137849731Y-80867588D01*
X138083080Y-81041641D01*
X138345901Y-81166825D01*
X138493110Y-81211476D01*
X138723000Y-81090155D01*
X138723000Y-79897000D01*
X138703000Y-79897000D01*
X138703000Y-79643000D01*
X138723000Y-79643000D01*
X138723000Y-79623000D01*
X138977000Y-79623000D01*
X138977000Y-79643000D01*
X138997000Y-79643000D01*
X138997000Y-79897000D01*
X138977000Y-79897000D01*
X138977000Y-81090155D01*
X139206890Y-81211476D01*
X139354099Y-81166825D01*
X139616920Y-81041641D01*
X139850269Y-80867588D01*
X140045178Y-80651355D01*
X140116923Y-80530910D01*
X140153112Y-80598971D01*
X140336287Y-80823567D01*
X140559599Y-81008306D01*
X140814539Y-81146152D01*
X141091399Y-81231854D01*
X141379633Y-81262149D01*
X141668261Y-81235882D01*
X141946291Y-81154053D01*
X142203131Y-81019780D01*
X142429000Y-80838177D01*
X142615294Y-80616161D01*
X142659498Y-80535753D01*
X142693112Y-80598971D01*
X142876287Y-80823567D01*
X143099599Y-81008306D01*
X143354539Y-81146152D01*
X143631399Y-81231854D01*
X143919633Y-81262149D01*
X144208261Y-81235882D01*
X144486291Y-81154053D01*
X144743131Y-81019780D01*
X144969000Y-80838177D01*
X145155294Y-80616161D01*
X145199498Y-80535753D01*
X145233112Y-80598971D01*
X145416287Y-80823567D01*
X145639599Y-81008306D01*
X145894539Y-81146152D01*
X146171399Y-81231854D01*
X146459633Y-81262149D01*
X146748261Y-81235882D01*
X147026291Y-81154053D01*
X147283131Y-81019780D01*
X147509000Y-80838177D01*
X147695294Y-80616161D01*
X147739498Y-80535753D01*
X147773112Y-80598971D01*
X147956287Y-80823567D01*
X148179599Y-81008306D01*
X148434539Y-81146152D01*
X148711399Y-81231854D01*
X148999633Y-81262149D01*
X149288261Y-81235882D01*
X149566291Y-81154053D01*
X149823131Y-81019780D01*
X150049000Y-80838177D01*
X150235294Y-80616161D01*
X150279498Y-80535753D01*
X150313112Y-80598971D01*
X150496287Y-80823567D01*
X150719599Y-81008306D01*
X150974539Y-81146152D01*
X151251399Y-81231854D01*
X151539633Y-81262149D01*
X151828261Y-81235882D01*
X152106291Y-81154053D01*
X152363131Y-81019780D01*
X152589000Y-80838177D01*
X152775294Y-80616161D01*
X152819498Y-80535753D01*
X152853112Y-80598971D01*
X153036287Y-80823567D01*
X153259599Y-81008306D01*
X153514539Y-81146152D01*
X153791399Y-81231854D01*
X154079633Y-81262149D01*
X154368261Y-81235882D01*
X154646291Y-81154053D01*
X154903131Y-81019780D01*
X155129000Y-80838177D01*
X155315294Y-80616161D01*
X155362600Y-80530111D01*
X155434822Y-80651355D01*
X155629731Y-80867588D01*
X155863080Y-81041641D01*
X156125901Y-81166825D01*
X156273110Y-81211476D01*
X156503000Y-81090155D01*
X156503000Y-79897000D01*
X156757000Y-79897000D01*
X156757000Y-81090155D01*
X156986890Y-81211476D01*
X157134099Y-81166825D01*
X157396920Y-81041641D01*
X157630269Y-80867588D01*
X157825178Y-80651355D01*
X157974157Y-80401252D01*
X158071481Y-80126891D01*
X157950814Y-79897000D01*
X156757000Y-79897000D01*
X156503000Y-79897000D01*
X156483000Y-79897000D01*
X156483000Y-79643000D01*
X156503000Y-79643000D01*
X156503000Y-79623000D01*
X156757000Y-79623000D01*
X156757000Y-79643000D01*
X157950814Y-79643000D01*
X158071481Y-79413109D01*
X157974157Y-79138748D01*
X157825178Y-78888645D01*
X157630269Y-78672412D01*
X157439553Y-78530158D01*
X159340211Y-78530158D01*
X159387201Y-78949089D01*
X159514668Y-79350915D01*
X159717755Y-79720329D01*
X159988727Y-80043261D01*
X160317263Y-80307411D01*
X160690850Y-80502717D01*
X161095256Y-80621740D01*
X161515080Y-80659947D01*
X161934328Y-80615883D01*
X162337034Y-80491224D01*
X162707857Y-80290721D01*
X163032673Y-80022010D01*
X163299110Y-79695326D01*
X163497019Y-79323112D01*
X163618863Y-78919546D01*
X163660000Y-78500000D01*
X163659158Y-78439689D01*
X163606323Y-78021455D01*
X163473258Y-77621449D01*
X163265033Y-77254906D01*
X162989578Y-76935789D01*
X162657386Y-76676252D01*
X162281109Y-76486181D01*
X161875080Y-76372815D01*
X161454764Y-76340474D01*
X161036172Y-76390388D01*
X160635246Y-76520657D01*
X160267259Y-76726318D01*
X159946226Y-76999538D01*
X159684376Y-77329910D01*
X159491683Y-77704851D01*
X159375486Y-78110079D01*
X159340211Y-78530158D01*
X157439553Y-78530158D01*
X157401318Y-78501639D01*
X157443131Y-78479780D01*
X157669000Y-78298177D01*
X157855294Y-78076161D01*
X157994916Y-77822189D01*
X158082549Y-77545934D01*
X158114855Y-77257919D01*
X158115000Y-77237185D01*
X158115000Y-77222815D01*
X158086718Y-76934377D01*
X158002951Y-76656925D01*
X157866888Y-76401029D01*
X157683713Y-76176433D01*
X157460401Y-75991694D01*
X157205461Y-75853848D01*
X156928601Y-75768146D01*
X156640367Y-75737851D01*
X156351739Y-75764118D01*
X156073709Y-75845947D01*
X155816869Y-75980220D01*
X155591000Y-76161823D01*
X155404706Y-76383839D01*
X155360502Y-76464247D01*
X155326888Y-76401029D01*
X155143713Y-76176433D01*
X154920401Y-75991694D01*
X154665461Y-75853848D01*
X154388601Y-75768146D01*
X154100367Y-75737851D01*
X153811739Y-75764118D01*
X153533709Y-75845947D01*
X153276869Y-75980220D01*
X153051000Y-76161823D01*
X152864706Y-76383839D01*
X152820502Y-76464247D01*
X152786888Y-76401029D01*
X152603713Y-76176433D01*
X152380401Y-75991694D01*
X152125461Y-75853848D01*
X151848601Y-75768146D01*
X151560367Y-75737851D01*
X151271739Y-75764118D01*
X150993709Y-75845947D01*
X150736869Y-75980220D01*
X150511000Y-76161823D01*
X150324706Y-76383839D01*
X150277400Y-76469889D01*
X150205178Y-76348645D01*
X150010269Y-76132412D01*
X149776920Y-75958359D01*
X149514099Y-75833175D01*
X149366890Y-75788524D01*
X149137000Y-75909845D01*
X149137000Y-77103000D01*
X149157000Y-77103000D01*
X149157000Y-77357000D01*
X149137000Y-77357000D01*
X149137000Y-77377000D01*
X148883000Y-77377000D01*
X148883000Y-77357000D01*
X148863000Y-77357000D01*
X148863000Y-77103000D01*
X148883000Y-77103000D01*
X148883000Y-75909845D01*
X148653110Y-75788524D01*
X148505901Y-75833175D01*
X148243080Y-75958359D01*
X148009731Y-76132412D01*
X147814822Y-76348645D01*
X147743077Y-76469090D01*
X147706888Y-76401029D01*
X147523713Y-76176433D01*
X147300401Y-75991694D01*
X147045461Y-75853848D01*
X146768601Y-75768146D01*
X146480367Y-75737851D01*
X146191739Y-75764118D01*
X145913709Y-75845947D01*
X145656869Y-75980220D01*
X145431000Y-76161823D01*
X145244706Y-76383839D01*
X145197400Y-76469889D01*
X145125178Y-76348645D01*
X144930269Y-76132412D01*
X144696920Y-75958359D01*
X144434099Y-75833175D01*
X144286890Y-75788524D01*
X144057000Y-75909845D01*
X144057000Y-77103000D01*
X144077000Y-77103000D01*
X144077000Y-77357000D01*
X144057000Y-77357000D01*
X144057000Y-77377000D01*
X143803000Y-77377000D01*
X143803000Y-77357000D01*
X143783000Y-77357000D01*
X143783000Y-77103000D01*
X143803000Y-77103000D01*
X143803000Y-75909845D01*
X143573110Y-75788524D01*
X143425901Y-75833175D01*
X143163080Y-75958359D01*
X142929731Y-76132412D01*
X142734822Y-76348645D01*
X142663077Y-76469090D01*
X142626888Y-76401029D01*
X142443713Y-76176433D01*
X142220401Y-75991694D01*
X141965461Y-75853848D01*
X141688601Y-75768146D01*
X141400367Y-75737851D01*
X141111739Y-75764118D01*
X140833709Y-75845947D01*
X140576869Y-75980220D01*
X140351000Y-76161823D01*
X140164706Y-76383839D01*
X140120502Y-76464247D01*
X140086888Y-76401029D01*
X139903713Y-76176433D01*
X139680401Y-75991694D01*
X139425461Y-75853848D01*
X139148601Y-75768146D01*
X138860367Y-75737851D01*
X138571739Y-75764118D01*
X138293709Y-75845947D01*
X138036869Y-75980220D01*
X137811000Y-76161823D01*
X137624706Y-76383839D01*
X137580502Y-76464247D01*
X137546888Y-76401029D01*
X137363713Y-76176433D01*
X137140401Y-75991694D01*
X136885461Y-75853848D01*
X136608601Y-75768146D01*
X136320367Y-75737851D01*
X136031739Y-75764118D01*
X135753709Y-75845947D01*
X135496869Y-75980220D01*
X135271000Y-76161823D01*
X135084706Y-76383839D01*
X135040502Y-76464247D01*
X135006888Y-76401029D01*
X134823713Y-76176433D01*
X134600401Y-75991694D01*
X134345461Y-75853848D01*
X134068601Y-75768146D01*
X133780367Y-75737851D01*
X133491739Y-75764118D01*
X133213709Y-75845947D01*
X132956869Y-75980220D01*
X132731000Y-76161823D01*
X132544706Y-76383839D01*
X132497400Y-76469889D01*
X132425178Y-76348645D01*
X132230269Y-76132412D01*
X131996920Y-75958359D01*
X131734099Y-75833175D01*
X131586890Y-75788524D01*
X131357000Y-75909845D01*
X131357000Y-77103000D01*
X131377000Y-77103000D01*
X131377000Y-77357000D01*
X131357000Y-77357000D01*
X131357000Y-77377000D01*
X131103000Y-77377000D01*
X131103000Y-77357000D01*
X131083000Y-77357000D01*
X131083000Y-77103000D01*
X131103000Y-77103000D01*
X131103000Y-75909845D01*
X130873110Y-75788524D01*
X130725901Y-75833175D01*
X130463080Y-75958359D01*
X130229731Y-76132412D01*
X130034822Y-76348645D01*
X129963077Y-76469090D01*
X129926888Y-76401029D01*
X129743713Y-76176433D01*
X129520401Y-75991694D01*
X129265461Y-75853848D01*
X128988601Y-75768146D01*
X128700367Y-75737851D01*
X128411739Y-75764118D01*
X128133709Y-75845947D01*
X127876869Y-75980220D01*
X127651000Y-76161823D01*
X127464706Y-76383839D01*
X127420502Y-76464247D01*
X127386888Y-76401029D01*
X127203713Y-76176433D01*
X126980401Y-75991694D01*
X126725461Y-75853848D01*
X126448601Y-75768146D01*
X126160367Y-75737851D01*
X125871739Y-75764118D01*
X125593709Y-75845947D01*
X125336869Y-75980220D01*
X125111000Y-76161823D01*
X124924706Y-76383839D01*
X124877400Y-76469889D01*
X124805178Y-76348645D01*
X124610269Y-76132412D01*
X124376920Y-75958359D01*
X124114099Y-75833175D01*
X123966890Y-75788524D01*
X123737000Y-75909845D01*
X123737000Y-77103000D01*
X123757000Y-77103000D01*
X123757000Y-77357000D01*
X123737000Y-77357000D01*
X123737000Y-77377000D01*
X123483000Y-77377000D01*
X123483000Y-77357000D01*
X123463000Y-77357000D01*
X123463000Y-77103000D01*
X123483000Y-77103000D01*
X123483000Y-75909845D01*
X123253110Y-75788524D01*
X123105901Y-75833175D01*
X122843080Y-75958359D01*
X122609731Y-76132412D01*
X122414822Y-76348645D01*
X122343077Y-76469090D01*
X122306888Y-76401029D01*
X122123713Y-76176433D01*
X121900401Y-75991694D01*
X121645461Y-75853848D01*
X121368601Y-75768146D01*
X121080367Y-75737851D01*
X120791739Y-75764118D01*
X120513709Y-75845947D01*
X120256869Y-75980220D01*
X120031000Y-76161823D01*
X119844706Y-76383839D01*
X119800502Y-76464247D01*
X119766888Y-76401029D01*
X119583713Y-76176433D01*
X119360401Y-75991694D01*
X119105461Y-75853848D01*
X118828601Y-75768146D01*
X118540367Y-75737851D01*
X118251739Y-75764118D01*
X117973709Y-75845947D01*
X117716869Y-75980220D01*
X117491000Y-76161823D01*
X117304706Y-76383839D01*
X117260502Y-76464247D01*
X117226888Y-76401029D01*
X117043713Y-76176433D01*
X116820401Y-75991694D01*
X116565461Y-75853848D01*
X116288601Y-75768146D01*
X116000367Y-75737851D01*
X115711739Y-75764118D01*
X115433709Y-75845947D01*
X115176869Y-75980220D01*
X114951000Y-76161823D01*
X114764706Y-76383839D01*
X114717400Y-76469889D01*
X114645178Y-76348645D01*
X114450269Y-76132412D01*
X114216920Y-75958359D01*
X113954099Y-75833175D01*
X113806890Y-75788524D01*
X113577000Y-75909845D01*
X113577000Y-77103000D01*
X113597000Y-77103000D01*
X113597000Y-77357000D01*
X113577000Y-77357000D01*
X113577000Y-77377000D01*
X113323000Y-77377000D01*
X113323000Y-77357000D01*
X113303000Y-77357000D01*
X113303000Y-77103000D01*
X113323000Y-77103000D01*
X113323000Y-75909845D01*
X113093110Y-75788524D01*
X112945901Y-75833175D01*
X112683080Y-75958359D01*
X112449731Y-76132412D01*
X112254822Y-76348645D01*
X112183077Y-76469090D01*
X112146888Y-76401029D01*
X111963713Y-76176433D01*
X111740401Y-75991694D01*
X111485461Y-75853848D01*
X111208601Y-75768146D01*
X110920367Y-75737851D01*
X110631739Y-75764118D01*
X110353709Y-75845947D01*
X110096869Y-75980220D01*
X109871000Y-76161823D01*
X109684706Y-76383839D01*
X109640502Y-76464247D01*
X109606888Y-76401029D01*
X109423713Y-76176433D01*
X109200401Y-75991694D01*
X108945461Y-75853848D01*
X108668601Y-75768146D01*
X108380367Y-75737851D01*
X108091739Y-75764118D01*
X107813709Y-75845947D01*
X107556869Y-75980220D01*
X107331000Y-76161823D01*
X107144706Y-76383839D01*
X107005084Y-76637811D01*
X106917451Y-76914066D01*
X106885145Y-77202081D01*
X106885000Y-77222815D01*
X106885000Y-77237185D01*
X106913282Y-77525623D01*
X106997049Y-77803075D01*
X107133112Y-78058971D01*
X107316287Y-78283567D01*
X107349882Y-78311359D01*
X107247366Y-78343106D01*
X107097441Y-78441900D01*
X106980975Y-78578550D01*
X106907190Y-78742237D01*
X106881928Y-78920000D01*
X105618725Y-78920000D01*
X105618863Y-78919546D01*
X105660000Y-78500000D01*
X105659158Y-78439689D01*
X105606323Y-78021455D01*
X105473258Y-77621449D01*
X105265033Y-77254906D01*
X104989578Y-76935789D01*
X104657386Y-76676252D01*
X104281109Y-76486181D01*
X103875080Y-76372815D01*
X103454764Y-76340474D01*
X103036172Y-76390388D01*
X102635246Y-76520657D01*
X102267259Y-76726318D01*
X101946226Y-76999538D01*
X101684376Y-77329910D01*
X101491683Y-77704851D01*
X101375486Y-78110079D01*
X101340211Y-78530158D01*
X100710000Y-78530158D01*
X100710000Y-78034721D01*
X100756953Y-77555866D01*
X100885938Y-77128645D01*
X101095446Y-76734616D01*
X101377499Y-76388786D01*
X101721351Y-76104327D01*
X102113910Y-75892071D01*
X102540213Y-75760108D01*
X103016964Y-75710000D01*
X161965279Y-75710000D01*
X162444134Y-75756953D01*
M02*
