G04 #@! TF.FileFunction,Soldermask,Top*
%FSLAX46Y46*%
G04 Gerber Fmt 4.6, Leading zero omitted, Abs format (unit mm)*
G04 Created by KiCad (PCBNEW 4.0.6) date 02/08/19 22:09:57*
%MOMM*%
%LPD*%
G01*
G04 APERTURE LIST*
%ADD10C,0.100000*%
%ADD11R,1.850000X0.850000*%
%ADD12R,2.100000X2.100000*%
%ADD13O,2.100000X2.100000*%
%ADD14R,2.900000X1.400000*%
%ADD15R,2.900000X1.300000*%
%ADD16R,1.300000X0.900000*%
G04 APERTURE END LIST*
D10*
D11*
X133448000Y-90801000D03*
X133448000Y-91451000D03*
X133448000Y-92101000D03*
X133448000Y-92751000D03*
X133448000Y-93401000D03*
X133448000Y-94051000D03*
X133448000Y-94701000D03*
X133448000Y-95351000D03*
X133448000Y-96001000D03*
X133448000Y-96651000D03*
X139348000Y-96651000D03*
X139348000Y-96001000D03*
X139348000Y-95351000D03*
X139348000Y-94701000D03*
X139348000Y-94051000D03*
X139348000Y-93401000D03*
X139348000Y-92751000D03*
X139348000Y-92101000D03*
X139348000Y-91451000D03*
X139348000Y-90801000D03*
D12*
X110910000Y-84000000D03*
D13*
X113450000Y-84000000D03*
D12*
X108370000Y-79770000D03*
D13*
X108370000Y-77230000D03*
X110910000Y-79770000D03*
X110910000Y-77230000D03*
X113450000Y-79770000D03*
X113450000Y-77230000D03*
X115990000Y-79770000D03*
X115990000Y-77230000D03*
X118530000Y-79770000D03*
X118530000Y-77230000D03*
X121070000Y-79770000D03*
X121070000Y-77230000D03*
X123610000Y-79770000D03*
X123610000Y-77230000D03*
X126150000Y-79770000D03*
X126150000Y-77230000D03*
X128690000Y-79770000D03*
X128690000Y-77230000D03*
X131230000Y-79770000D03*
X131230000Y-77230000D03*
X133770000Y-79770000D03*
X133770000Y-77230000D03*
X136310000Y-79770000D03*
X136310000Y-77230000D03*
X138850000Y-79770000D03*
X138850000Y-77230000D03*
X141390000Y-79770000D03*
X141390000Y-77230000D03*
X143930000Y-79770000D03*
X143930000Y-77230000D03*
X146470000Y-79770000D03*
X146470000Y-77230000D03*
X149010000Y-79770000D03*
X149010000Y-77230000D03*
X151550000Y-79770000D03*
X151550000Y-77230000D03*
X154090000Y-79770000D03*
X154090000Y-77230000D03*
X156630000Y-79770000D03*
X156630000Y-77230000D03*
D14*
X121539000Y-95401000D03*
X121539000Y-98401000D03*
X118110000Y-95401000D03*
X118110000Y-98401000D03*
D12*
X112903000Y-104013000D03*
D13*
X112903000Y-106553000D03*
X112903000Y-109093000D03*
D12*
X115443000Y-104013000D03*
D13*
X115443000Y-106553000D03*
X115443000Y-109093000D03*
D12*
X117983000Y-104013000D03*
D13*
X117983000Y-106553000D03*
X117983000Y-109093000D03*
D12*
X120523000Y-104013000D03*
D13*
X120523000Y-106553000D03*
X120523000Y-109093000D03*
D12*
X123063000Y-104013000D03*
D13*
X123063000Y-106553000D03*
X123063000Y-109093000D03*
D12*
X125603000Y-104013000D03*
D13*
X125603000Y-106553000D03*
X125603000Y-109093000D03*
D12*
X128143000Y-104013000D03*
D13*
X128143000Y-106553000D03*
X128143000Y-109093000D03*
D12*
X130683000Y-104013000D03*
D13*
X130683000Y-106553000D03*
X130683000Y-109093000D03*
D12*
X112903000Y-114173000D03*
D13*
X112903000Y-116713000D03*
X112903000Y-119253000D03*
D12*
X115443000Y-114173000D03*
D13*
X115443000Y-116713000D03*
X115443000Y-119253000D03*
D12*
X117983000Y-114173000D03*
D13*
X117983000Y-116713000D03*
X117983000Y-119253000D03*
D12*
X120523000Y-114173000D03*
D13*
X120523000Y-116713000D03*
X120523000Y-119253000D03*
D12*
X123063000Y-114173000D03*
D13*
X123063000Y-116713000D03*
X123063000Y-119253000D03*
D12*
X125603000Y-114173000D03*
D13*
X125603000Y-116713000D03*
X125603000Y-119253000D03*
D12*
X128143000Y-114173000D03*
D13*
X128143000Y-116713000D03*
X128143000Y-119253000D03*
D12*
X130683000Y-114173000D03*
D13*
X130683000Y-116713000D03*
X130683000Y-119253000D03*
D15*
X113704000Y-90450000D03*
X113704000Y-87550000D03*
X110656000Y-90450000D03*
X110656000Y-87550000D03*
D12*
X113030000Y-98044000D03*
D13*
X113030000Y-95504000D03*
D16*
X129286000Y-94984000D03*
X129286000Y-93484000D03*
X129286000Y-90944000D03*
X129286000Y-92444000D03*
X126492000Y-94984000D03*
X126492000Y-93484000D03*
X126492000Y-90944000D03*
X126492000Y-92444000D03*
D14*
X144780000Y-99846000D03*
X144780000Y-102846000D03*
D12*
X152400000Y-90170000D03*
D13*
X152400000Y-92710000D03*
X152400000Y-95250000D03*
X152400000Y-97790000D03*
D12*
X149860000Y-90170000D03*
D13*
X149860000Y-92710000D03*
X149860000Y-95250000D03*
M02*
