G04 #@! TF.FileFunction,Soldermask,Bot*
%FSLAX46Y46*%
G04 Gerber Fmt 4.6, Leading zero omitted, Abs format (unit mm)*
G04 Created by KiCad (PCBNEW 4.0.6) date 02/08/19 22:09:57*
%MOMM*%
%LPD*%
G01*
G04 APERTURE LIST*
%ADD10C,0.100000*%
%ADD11R,2.100000X2.100000*%
%ADD12O,2.100000X2.100000*%
G04 APERTURE END LIST*
D10*
D11*
X110910000Y-84000000D03*
D12*
X113450000Y-84000000D03*
D11*
X108370000Y-79770000D03*
D12*
X108370000Y-77230000D03*
X110910000Y-79770000D03*
X110910000Y-77230000D03*
X113450000Y-79770000D03*
X113450000Y-77230000D03*
X115990000Y-79770000D03*
X115990000Y-77230000D03*
X118530000Y-79770000D03*
X118530000Y-77230000D03*
X121070000Y-79770000D03*
X121070000Y-77230000D03*
X123610000Y-79770000D03*
X123610000Y-77230000D03*
X126150000Y-79770000D03*
X126150000Y-77230000D03*
X128690000Y-79770000D03*
X128690000Y-77230000D03*
X131230000Y-79770000D03*
X131230000Y-77230000D03*
X133770000Y-79770000D03*
X133770000Y-77230000D03*
X136310000Y-79770000D03*
X136310000Y-77230000D03*
X138850000Y-79770000D03*
X138850000Y-77230000D03*
X141390000Y-79770000D03*
X141390000Y-77230000D03*
X143930000Y-79770000D03*
X143930000Y-77230000D03*
X146470000Y-79770000D03*
X146470000Y-77230000D03*
X149010000Y-79770000D03*
X149010000Y-77230000D03*
X151550000Y-79770000D03*
X151550000Y-77230000D03*
X154090000Y-79770000D03*
X154090000Y-77230000D03*
X156630000Y-79770000D03*
X156630000Y-77230000D03*
D11*
X112903000Y-104013000D03*
D12*
X112903000Y-106553000D03*
X112903000Y-109093000D03*
D11*
X115443000Y-104013000D03*
D12*
X115443000Y-106553000D03*
X115443000Y-109093000D03*
D11*
X117983000Y-104013000D03*
D12*
X117983000Y-106553000D03*
X117983000Y-109093000D03*
D11*
X120523000Y-104013000D03*
D12*
X120523000Y-106553000D03*
X120523000Y-109093000D03*
D11*
X123063000Y-104013000D03*
D12*
X123063000Y-106553000D03*
X123063000Y-109093000D03*
D11*
X125603000Y-104013000D03*
D12*
X125603000Y-106553000D03*
X125603000Y-109093000D03*
D11*
X128143000Y-104013000D03*
D12*
X128143000Y-106553000D03*
X128143000Y-109093000D03*
D11*
X130683000Y-104013000D03*
D12*
X130683000Y-106553000D03*
X130683000Y-109093000D03*
D11*
X112903000Y-114173000D03*
D12*
X112903000Y-116713000D03*
X112903000Y-119253000D03*
D11*
X115443000Y-114173000D03*
D12*
X115443000Y-116713000D03*
X115443000Y-119253000D03*
D11*
X117983000Y-114173000D03*
D12*
X117983000Y-116713000D03*
X117983000Y-119253000D03*
D11*
X120523000Y-114173000D03*
D12*
X120523000Y-116713000D03*
X120523000Y-119253000D03*
D11*
X123063000Y-114173000D03*
D12*
X123063000Y-116713000D03*
X123063000Y-119253000D03*
D11*
X125603000Y-114173000D03*
D12*
X125603000Y-116713000D03*
X125603000Y-119253000D03*
D11*
X128143000Y-114173000D03*
D12*
X128143000Y-116713000D03*
X128143000Y-119253000D03*
D11*
X130683000Y-114173000D03*
D12*
X130683000Y-116713000D03*
X130683000Y-119253000D03*
D11*
X113030000Y-98044000D03*
D12*
X113030000Y-95504000D03*
D11*
X152400000Y-90170000D03*
D12*
X152400000Y-92710000D03*
X152400000Y-95250000D03*
X152400000Y-97790000D03*
D11*
X149860000Y-90170000D03*
D12*
X149860000Y-92710000D03*
X149860000Y-95250000D03*
M02*
