G04 #@! TF.FileFunction,Copper,L1,Top,Signal*
%FSLAX46Y46*%
G04 Gerber Fmt 4.6, Leading zero omitted, Abs format (unit mm)*
G04 Created by KiCad (PCBNEW 4.0.6) date 02/08/19 22:04:21*
%MOMM*%
%LPD*%
G01*
G04 APERTURE LIST*
%ADD10C,0.100000*%
%ADD11R,1.450000X0.450000*%
%ADD12R,1.700000X1.700000*%
%ADD13O,1.700000X1.700000*%
%ADD14R,2.500000X1.000000*%
%ADD15R,2.500000X0.900000*%
%ADD16R,0.900000X0.500000*%
%ADD17C,1.016000*%
%ADD18C,0.600000*%
%ADD19C,0.381000*%
%ADD20C,0.762000*%
%ADD21C,0.254000*%
%ADD22C,0.250000*%
G04 APERTURE END LIST*
D10*
D11*
X133448000Y-90801000D03*
X133448000Y-91451000D03*
X133448000Y-92101000D03*
X133448000Y-92751000D03*
X133448000Y-93401000D03*
X133448000Y-94051000D03*
X133448000Y-94701000D03*
X133448000Y-95351000D03*
X133448000Y-96001000D03*
X133448000Y-96651000D03*
X139348000Y-96651000D03*
X139348000Y-96001000D03*
X139348000Y-95351000D03*
X139348000Y-94701000D03*
X139348000Y-94051000D03*
X139348000Y-93401000D03*
X139348000Y-92751000D03*
X139348000Y-92101000D03*
X139348000Y-91451000D03*
X139348000Y-90801000D03*
D12*
X110910000Y-84000000D03*
D13*
X113450000Y-84000000D03*
D12*
X108370000Y-79770000D03*
D13*
X108370000Y-77230000D03*
X110910000Y-79770000D03*
X110910000Y-77230000D03*
X113450000Y-79770000D03*
X113450000Y-77230000D03*
X115990000Y-79770000D03*
X115990000Y-77230000D03*
X118530000Y-79770000D03*
X118530000Y-77230000D03*
X121070000Y-79770000D03*
X121070000Y-77230000D03*
X123610000Y-79770000D03*
X123610000Y-77230000D03*
X126150000Y-79770000D03*
X126150000Y-77230000D03*
X128690000Y-79770000D03*
X128690000Y-77230000D03*
X131230000Y-79770000D03*
X131230000Y-77230000D03*
X133770000Y-79770000D03*
X133770000Y-77230000D03*
X136310000Y-79770000D03*
X136310000Y-77230000D03*
X138850000Y-79770000D03*
X138850000Y-77230000D03*
X141390000Y-79770000D03*
X141390000Y-77230000D03*
X143930000Y-79770000D03*
X143930000Y-77230000D03*
X146470000Y-79770000D03*
X146470000Y-77230000D03*
X149010000Y-79770000D03*
X149010000Y-77230000D03*
X151550000Y-79770000D03*
X151550000Y-77230000D03*
X154090000Y-79770000D03*
X154090000Y-77230000D03*
X156630000Y-79770000D03*
X156630000Y-77230000D03*
D14*
X121539000Y-95401000D03*
X121539000Y-98401000D03*
X118110000Y-95401000D03*
X118110000Y-98401000D03*
D12*
X112903000Y-104013000D03*
D13*
X112903000Y-106553000D03*
X112903000Y-109093000D03*
D12*
X115443000Y-104013000D03*
D13*
X115443000Y-106553000D03*
X115443000Y-109093000D03*
D12*
X117983000Y-104013000D03*
D13*
X117983000Y-106553000D03*
X117983000Y-109093000D03*
D12*
X120523000Y-104013000D03*
D13*
X120523000Y-106553000D03*
X120523000Y-109093000D03*
D12*
X123063000Y-104013000D03*
D13*
X123063000Y-106553000D03*
X123063000Y-109093000D03*
D12*
X125603000Y-104013000D03*
D13*
X125603000Y-106553000D03*
X125603000Y-109093000D03*
D12*
X128143000Y-104013000D03*
D13*
X128143000Y-106553000D03*
X128143000Y-109093000D03*
D12*
X130683000Y-104013000D03*
D13*
X130683000Y-106553000D03*
X130683000Y-109093000D03*
D12*
X112903000Y-114173000D03*
D13*
X112903000Y-116713000D03*
X112903000Y-119253000D03*
D12*
X115443000Y-114173000D03*
D13*
X115443000Y-116713000D03*
X115443000Y-119253000D03*
D12*
X117983000Y-114173000D03*
D13*
X117983000Y-116713000D03*
X117983000Y-119253000D03*
D12*
X120523000Y-114173000D03*
D13*
X120523000Y-116713000D03*
X120523000Y-119253000D03*
D12*
X123063000Y-114173000D03*
D13*
X123063000Y-116713000D03*
X123063000Y-119253000D03*
D12*
X125603000Y-114173000D03*
D13*
X125603000Y-116713000D03*
X125603000Y-119253000D03*
D12*
X128143000Y-114173000D03*
D13*
X128143000Y-116713000D03*
X128143000Y-119253000D03*
D12*
X130683000Y-114173000D03*
D13*
X130683000Y-116713000D03*
X130683000Y-119253000D03*
D15*
X113704000Y-90450000D03*
X113704000Y-87550000D03*
X110656000Y-90450000D03*
X110656000Y-87550000D03*
D12*
X113030000Y-98044000D03*
D13*
X113030000Y-95504000D03*
D16*
X129286000Y-94984000D03*
X129286000Y-93484000D03*
X129286000Y-90944000D03*
X129286000Y-92444000D03*
X126492000Y-94984000D03*
X126492000Y-93484000D03*
X126492000Y-90944000D03*
X126492000Y-92444000D03*
D14*
X144780000Y-99846000D03*
X144780000Y-102846000D03*
D12*
X152400000Y-90170000D03*
D13*
X152400000Y-92710000D03*
X152400000Y-95250000D03*
X152400000Y-97790000D03*
D12*
X149860000Y-90170000D03*
D13*
X149860000Y-92710000D03*
X149860000Y-95250000D03*
D17*
X107442000Y-90424000D03*
X109728000Y-107696000D03*
D18*
X132334000Y-88646000D03*
X136398000Y-91440000D03*
X130556000Y-91694000D03*
X130556000Y-94234000D03*
X144780000Y-104902000D03*
X137922000Y-91440000D03*
X125222000Y-92964000D03*
X134874000Y-91440000D03*
X131826000Y-96520000D03*
X124968000Y-89408000D03*
X121666000Y-92710000D03*
D19*
X123444000Y-94742000D02*
X123444000Y-91948000D01*
X110656000Y-88050000D02*
X111506000Y-88900000D01*
X111506000Y-88900000D02*
X120396000Y-88900000D01*
X123444000Y-94742000D02*
X125476000Y-96774000D01*
X125476000Y-96774000D02*
X130302000Y-96774000D01*
X130302000Y-96774000D02*
X132375000Y-94701000D01*
X133448000Y-94701000D02*
X132375000Y-94701000D01*
X110656000Y-88050000D02*
X110656000Y-87550000D01*
X123444000Y-91948000D02*
X120396000Y-88900000D01*
X110910000Y-79770000D02*
X110910000Y-84000000D01*
X110910000Y-84000000D02*
X110910000Y-87650000D01*
X124206000Y-94488000D02*
X124206000Y-91186000D01*
X124206000Y-94488000D02*
X125730000Y-96012000D01*
X125730000Y-96012000D02*
X130048000Y-96012000D01*
X130048000Y-96012000D02*
X132009000Y-94051000D01*
X133448000Y-94051000D02*
X132009000Y-94051000D01*
X120570000Y-87550000D02*
X113704000Y-87550000D01*
X124206000Y-91186000D02*
X120570000Y-87550000D01*
X113450000Y-79770000D02*
X113450000Y-84000000D01*
X113450000Y-84000000D02*
X113450000Y-87650000D01*
X107442000Y-90424000D02*
X110630000Y-90424000D01*
D20*
X110630000Y-90424000D02*
X110656000Y-90450000D01*
D19*
X110656000Y-90450000D02*
X113704000Y-90450000D01*
D20*
X108370000Y-79770000D02*
X108370000Y-79844000D01*
X108370000Y-79844000D02*
X107442000Y-80772000D01*
X107442000Y-80772000D02*
X107442000Y-90424000D01*
D21*
X133448000Y-96651000D02*
X133448000Y-98200000D01*
X133448000Y-98200000D02*
X133096000Y-98552000D01*
X133448000Y-92101000D02*
X135737000Y-92101000D01*
X135737000Y-92101000D02*
X136398000Y-91440000D01*
D22*
X113387000Y-98401000D02*
X113030000Y-98044000D01*
D21*
X129806000Y-90944000D02*
X130556000Y-91694000D01*
X129286000Y-90944000D02*
X129806000Y-90944000D01*
X129806000Y-94984000D02*
X130556000Y-94234000D01*
X129806000Y-94984000D02*
X129286000Y-94984000D01*
D20*
X106172000Y-96012000D02*
X106172000Y-79428000D01*
X108370000Y-77230000D02*
X106172000Y-79428000D01*
X108204000Y-98044000D02*
X106172000Y-96012000D01*
X108204000Y-98044000D02*
X113030000Y-98044000D01*
D22*
X108370000Y-77230000D02*
X110910000Y-77230000D01*
X118110000Y-98401000D02*
X118110000Y-97790000D01*
X114808000Y-95504000D02*
X113030000Y-95504000D01*
X116078000Y-96774000D02*
X114808000Y-95504000D01*
X117094000Y-96774000D02*
X116078000Y-96774000D01*
X118110000Y-97790000D02*
X117094000Y-96774000D01*
D21*
X144780000Y-102846000D02*
X144780000Y-104902000D01*
X139348000Y-91451000D02*
X137933000Y-91451000D01*
X137933000Y-91451000D02*
X137922000Y-91440000D01*
X125222000Y-92964000D02*
X125222000Y-91694000D01*
X125222000Y-92964000D02*
X125222000Y-94234000D01*
X125972000Y-94984000D02*
X125222000Y-94234000D01*
X125972000Y-94984000D02*
X126492000Y-94984000D01*
X126492000Y-90944000D02*
X125972000Y-90944000D01*
X125222000Y-91694000D02*
X125972000Y-90944000D01*
D22*
X113133000Y-95401000D02*
X113030000Y-95504000D01*
D21*
X133448000Y-91451000D02*
X134863000Y-91451000D01*
X134863000Y-91451000D02*
X134874000Y-91440000D01*
X133448000Y-95351000D02*
X133448000Y-96001000D01*
X133448000Y-96001000D02*
X133437000Y-96012000D01*
X133437000Y-96012000D02*
X132334000Y-96012000D01*
X132334000Y-96012000D02*
X131826000Y-96520000D01*
X121539000Y-98401000D02*
X119888000Y-98401000D01*
X119888000Y-98401000D02*
X118110000Y-98401000D01*
D22*
X112903000Y-106553000D02*
X112903000Y-106680000D01*
D19*
X112903000Y-106680000D02*
X111379000Y-108204000D01*
X111379000Y-115189000D02*
X112903000Y-116713000D01*
X111379000Y-108204000D02*
X111379000Y-115189000D01*
X115443000Y-106553000D02*
X114173000Y-107823000D01*
X114173000Y-107823000D02*
X114173000Y-110998000D01*
X114173000Y-110998000D02*
X114173000Y-115443000D01*
X114173000Y-115443000D02*
X115443000Y-116713000D01*
X117983000Y-106553000D02*
X116713000Y-107823000D01*
X116713000Y-107823000D02*
X116713000Y-115443000D01*
X116713000Y-115443000D02*
X117983000Y-116713000D01*
D22*
X117856000Y-116713000D02*
X117983000Y-116713000D01*
D19*
X120523000Y-106553000D02*
X119253000Y-107823000D01*
X119253000Y-107823000D02*
X119253000Y-115443000D01*
X119253000Y-115443000D02*
X120523000Y-116713000D01*
X123063000Y-106553000D02*
X121793000Y-107823000D01*
X121793000Y-107823000D02*
X121793000Y-115443000D01*
X121793000Y-115443000D02*
X123063000Y-116713000D01*
X125603000Y-106553000D02*
X124333000Y-107823000D01*
X124333000Y-107823000D02*
X124333000Y-115443000D01*
X124333000Y-115443000D02*
X125603000Y-116713000D01*
X128143000Y-106553000D02*
X126873000Y-107823000D01*
X126873000Y-107823000D02*
X126873000Y-115443000D01*
X126873000Y-115443000D02*
X128143000Y-116713000D01*
X130683000Y-106553000D02*
X129413000Y-107823000D01*
X129413000Y-107823000D02*
X129413000Y-115443000D01*
X129413000Y-115443000D02*
X130683000Y-116713000D01*
D22*
X138176000Y-119380000D02*
X137160000Y-120396000D01*
X133731000Y-123825000D02*
X137160000Y-120396000D01*
X138176000Y-97028000D02*
X138176000Y-119380000D01*
X112903000Y-119253000D02*
X117475000Y-123825000D01*
X117475000Y-123825000D02*
X133731000Y-123825000D01*
X138553000Y-96651000D02*
X139348000Y-96651000D01*
X138176000Y-97028000D02*
X138553000Y-96651000D01*
X112903000Y-119253000D02*
X112903000Y-119253000D01*
X137668000Y-119126000D02*
X136652000Y-120142000D01*
X133477000Y-123317000D02*
X136652000Y-120142000D01*
X137668000Y-96774000D02*
X137668000Y-119126000D01*
X137668000Y-96774000D02*
X138441000Y-96001000D01*
X139348000Y-96001000D02*
X138441000Y-96001000D01*
X119507000Y-123317000D02*
X115443000Y-119253000D01*
X119507000Y-123317000D02*
X133477000Y-123317000D01*
X115443000Y-119253000D02*
X115443000Y-119253000D01*
X115443000Y-119253000D02*
X115443000Y-119761000D01*
X137160000Y-118872000D02*
X136144000Y-119888000D01*
X133223000Y-122809000D02*
X136144000Y-119888000D01*
X137160000Y-96520000D02*
X137160000Y-118872000D01*
X137160000Y-96520000D02*
X138329000Y-95351000D01*
X139348000Y-95351000D02*
X138329000Y-95351000D01*
X121539000Y-122809000D02*
X133223000Y-122809000D01*
X121539000Y-122809000D02*
X117983000Y-119253000D01*
X117983000Y-119253000D02*
X117983000Y-119253000D01*
X117983000Y-119253000D02*
X117983000Y-120015000D01*
X136652000Y-118618000D02*
X135636000Y-119634000D01*
X132969000Y-122301000D02*
X135636000Y-119634000D01*
X136652000Y-96266000D02*
X136652000Y-118618000D01*
X136652000Y-96266000D02*
X138217000Y-94701000D01*
X139348000Y-94701000D02*
X138217000Y-94701000D01*
X123571000Y-122301000D02*
X132969000Y-122301000D01*
X123571000Y-122301000D02*
X120523000Y-119253000D01*
X120523000Y-119253000D02*
X120523000Y-119253000D01*
X120523000Y-119253000D02*
X120523000Y-119634000D01*
X136144000Y-118364000D02*
X135128000Y-119380000D01*
X132715000Y-121793000D02*
X135128000Y-119380000D01*
X136144000Y-96012000D02*
X136144000Y-118364000D01*
X136144000Y-96012000D02*
X138105000Y-94051000D01*
X139348000Y-94051000D02*
X138105000Y-94051000D01*
X125603000Y-121793000D02*
X132715000Y-121793000D01*
X125603000Y-121793000D02*
X123063000Y-119253000D01*
X123063000Y-119253000D02*
X123063000Y-119253000D01*
X132461000Y-121285000D02*
X134620000Y-119126000D01*
X135636000Y-118110000D02*
X134620000Y-119126000D01*
X135636000Y-95758000D02*
X135636000Y-118110000D01*
X135636000Y-95758000D02*
X137993000Y-93401000D01*
X139348000Y-93401000D02*
X137993000Y-93401000D01*
X127635000Y-121285000D02*
X125603000Y-119253000D01*
X127635000Y-121285000D02*
X132461000Y-121285000D01*
X125603000Y-119253000D02*
X125603000Y-119253000D01*
X132207000Y-120777000D02*
X134112000Y-118872000D01*
X135128000Y-117856000D02*
X134112000Y-118872000D01*
X135128000Y-95504000D02*
X135128000Y-117856000D01*
X135128000Y-95504000D02*
X137881000Y-92751000D01*
X139348000Y-92751000D02*
X137881000Y-92751000D01*
X129667000Y-120777000D02*
X128143000Y-119253000D01*
X129667000Y-120777000D02*
X132207000Y-120777000D01*
X128143000Y-119253000D02*
X128143000Y-119253000D01*
X134620000Y-117602000D02*
X133604000Y-118618000D01*
X132969000Y-119253000D02*
X133604000Y-118618000D01*
X134620000Y-95250000D02*
X134620000Y-117602000D01*
X132969000Y-119253000D02*
X130683000Y-119253000D01*
X139348000Y-92101000D02*
X137769000Y-92101000D01*
X134620000Y-95250000D02*
X137769000Y-92101000D01*
X126492000Y-93484000D02*
X129286000Y-93484000D01*
X133448000Y-93401000D02*
X129369000Y-93401000D01*
X129369000Y-93401000D02*
X129286000Y-93484000D01*
X126492000Y-92444000D02*
X129286000Y-92444000D01*
X133448000Y-92751000D02*
X129593000Y-92751000D01*
X129593000Y-92751000D02*
X129286000Y-92444000D01*
D21*
X121539000Y-95401000D02*
X118110000Y-95401000D01*
X131949000Y-90801000D02*
X129540000Y-88392000D01*
X129540000Y-88392000D02*
X125984000Y-88392000D01*
X125984000Y-88392000D02*
X124968000Y-89408000D01*
X133448000Y-90801000D02*
X131949000Y-90801000D01*
X121539000Y-92837000D02*
X121539000Y-95401000D01*
X121666000Y-92710000D02*
X121539000Y-92837000D01*
D22*
X118110000Y-95401000D02*
X118261000Y-95250000D01*
D21*
X133448000Y-90801000D02*
X133448000Y-89818000D01*
X133448000Y-89818000D02*
X135382000Y-87884000D01*
X135382000Y-87884000D02*
X153924000Y-87884000D01*
X153924000Y-87884000D02*
X154686000Y-88646000D01*
X154686000Y-88646000D02*
X154686000Y-91948000D01*
X154686000Y-91948000D02*
X153924000Y-92710000D01*
X153924000Y-92710000D02*
X152400000Y-92710000D01*
X149860000Y-95250000D02*
X149860000Y-97790000D01*
X147804000Y-99846000D02*
X144780000Y-99846000D01*
X149860000Y-97790000D02*
X147804000Y-99846000D01*
X139348000Y-90801000D02*
X141601000Y-90801000D01*
X143510000Y-92710000D02*
X149860000Y-92710000D01*
X141601000Y-90801000D02*
X143510000Y-92710000D01*
X139348000Y-90801000D02*
X139225000Y-90678000D01*
D20*
X152400000Y-95250000D02*
X152400000Y-97790000D01*
D21*
G36*
X162444134Y-75756953D02*
X162871355Y-75885938D01*
X163265384Y-76095446D01*
X163611214Y-76377499D01*
X163895673Y-76721351D01*
X164107929Y-77113910D01*
X164239892Y-77540213D01*
X164290000Y-78016964D01*
X164290000Y-127965279D01*
X164243048Y-128444133D01*
X164114063Y-128871353D01*
X163904554Y-129265384D01*
X163622501Y-129611214D01*
X163278651Y-129895672D01*
X162886093Y-130107927D01*
X162459788Y-130239891D01*
X161983036Y-130290000D01*
X103034721Y-130290000D01*
X102555867Y-130243048D01*
X102128647Y-130114063D01*
X101734616Y-129904554D01*
X101388786Y-129622501D01*
X101104328Y-129278651D01*
X100892073Y-128886093D01*
X100760109Y-128459788D01*
X100710000Y-127983036D01*
X100710000Y-127530158D01*
X101340211Y-127530158D01*
X101387201Y-127949089D01*
X101514668Y-128350915D01*
X101717755Y-128720329D01*
X101988727Y-129043261D01*
X102317263Y-129307411D01*
X102690850Y-129502717D01*
X103095256Y-129621740D01*
X103515080Y-129659947D01*
X103934328Y-129615883D01*
X104337034Y-129491224D01*
X104707857Y-129290721D01*
X105032673Y-129022010D01*
X105299110Y-128695326D01*
X105497019Y-128323112D01*
X105618863Y-127919546D01*
X105657042Y-127530158D01*
X159340211Y-127530158D01*
X159387201Y-127949089D01*
X159514668Y-128350915D01*
X159717755Y-128720329D01*
X159988727Y-129043261D01*
X160317263Y-129307411D01*
X160690850Y-129502717D01*
X161095256Y-129621740D01*
X161515080Y-129659947D01*
X161934328Y-129615883D01*
X162337034Y-129491224D01*
X162707857Y-129290721D01*
X163032673Y-129022010D01*
X163299110Y-128695326D01*
X163497019Y-128323112D01*
X163618863Y-127919546D01*
X163660000Y-127500000D01*
X163659158Y-127439689D01*
X163606323Y-127021455D01*
X163473258Y-126621449D01*
X163265033Y-126254906D01*
X162989578Y-125935789D01*
X162657386Y-125676252D01*
X162281109Y-125486181D01*
X161875080Y-125372815D01*
X161454764Y-125340474D01*
X161036172Y-125390388D01*
X160635246Y-125520657D01*
X160267259Y-125726318D01*
X159946226Y-125999538D01*
X159684376Y-126329910D01*
X159491683Y-126704851D01*
X159375486Y-127110079D01*
X159340211Y-127530158D01*
X105657042Y-127530158D01*
X105660000Y-127500000D01*
X105659158Y-127439689D01*
X105606323Y-127021455D01*
X105473258Y-126621449D01*
X105265033Y-126254906D01*
X104989578Y-125935789D01*
X104657386Y-125676252D01*
X104281109Y-125486181D01*
X103875080Y-125372815D01*
X103454764Y-125340474D01*
X103036172Y-125390388D01*
X102635246Y-125520657D01*
X102267259Y-125726318D01*
X101946226Y-125999538D01*
X101684376Y-126329910D01*
X101491683Y-126704851D01*
X101375486Y-127110079D01*
X101340211Y-127530158D01*
X100710000Y-127530158D01*
X100710000Y-98393250D01*
X111545000Y-98393250D01*
X111545000Y-98956542D01*
X111569403Y-99079223D01*
X111617270Y-99194785D01*
X111686763Y-99298789D01*
X111775211Y-99387237D01*
X111879215Y-99456730D01*
X111994777Y-99504597D01*
X112117458Y-99529000D01*
X112680750Y-99529000D01*
X112839500Y-99370250D01*
X112839500Y-98234500D01*
X113220500Y-98234500D01*
X113220500Y-99370250D01*
X113379250Y-99529000D01*
X113942542Y-99529000D01*
X114065223Y-99504597D01*
X114180785Y-99456730D01*
X114284789Y-99387237D01*
X114373237Y-99298789D01*
X114442730Y-99194785D01*
X114490597Y-99079223D01*
X114515000Y-98956542D01*
X114515000Y-98393250D01*
X114356250Y-98234500D01*
X113220500Y-98234500D01*
X112839500Y-98234500D01*
X111703750Y-98234500D01*
X111545000Y-98393250D01*
X100710000Y-98393250D01*
X100710000Y-90520107D01*
X106297498Y-90520107D01*
X106337962Y-90740578D01*
X106420479Y-90948991D01*
X106541905Y-91137407D01*
X106697615Y-91298650D01*
X106881679Y-91426577D01*
X107087085Y-91516317D01*
X107306009Y-91564451D01*
X107530114Y-91569145D01*
X107750862Y-91530221D01*
X107959846Y-91449162D01*
X108149106Y-91329054D01*
X108232646Y-91249500D01*
X108879757Y-91249500D01*
X108927900Y-91322559D01*
X109064550Y-91439025D01*
X109228237Y-91512810D01*
X109406000Y-91538072D01*
X111906000Y-91538072D01*
X112007121Y-91530008D01*
X112178634Y-91476894D01*
X112185915Y-91472096D01*
X112276237Y-91512810D01*
X112454000Y-91538072D01*
X114954000Y-91538072D01*
X115055121Y-91530008D01*
X115226634Y-91476894D01*
X115376559Y-91378100D01*
X115493025Y-91241450D01*
X115566810Y-91077763D01*
X115592072Y-90900000D01*
X115592072Y-90000000D01*
X115584008Y-89898879D01*
X115530894Y-89727366D01*
X115529664Y-89725500D01*
X120054066Y-89725500D01*
X122618500Y-92289934D01*
X122618500Y-94262928D01*
X122301000Y-94262928D01*
X122301000Y-93396483D01*
X122377215Y-93323904D01*
X122482911Y-93174070D01*
X122557492Y-93006560D01*
X122598116Y-92827754D01*
X122601040Y-92618319D01*
X122565425Y-92438448D01*
X122495550Y-92268920D01*
X122394079Y-92116193D01*
X122264875Y-91986084D01*
X122112860Y-91883549D01*
X121943825Y-91812493D01*
X121764207Y-91775623D01*
X121580849Y-91774343D01*
X121400733Y-91808701D01*
X121230722Y-91877390D01*
X121077291Y-91977793D01*
X120946283Y-92106086D01*
X120842689Y-92257381D01*
X120770454Y-92425916D01*
X120732331Y-92605272D01*
X120729771Y-92788617D01*
X120762872Y-92968968D01*
X120777000Y-93004651D01*
X120777000Y-94262928D01*
X120289000Y-94262928D01*
X120187879Y-94270992D01*
X120016366Y-94324106D01*
X119866441Y-94422900D01*
X119827097Y-94469063D01*
X119701450Y-94361975D01*
X119537763Y-94288190D01*
X119360000Y-94262928D01*
X116860000Y-94262928D01*
X116758879Y-94270992D01*
X116587366Y-94324106D01*
X116437441Y-94422900D01*
X116320975Y-94559550D01*
X116247190Y-94723237D01*
X116221928Y-94901000D01*
X116221928Y-95843126D01*
X115345401Y-94966599D01*
X115291145Y-94922032D01*
X115237375Y-94876914D01*
X115233874Y-94874989D01*
X115230785Y-94872452D01*
X115168933Y-94839287D01*
X115107396Y-94805457D01*
X115103584Y-94804248D01*
X115100065Y-94802361D01*
X115032969Y-94781848D01*
X114966013Y-94760608D01*
X114962041Y-94760162D01*
X114958219Y-94758994D01*
X114888351Y-94751897D01*
X114818611Y-94744074D01*
X114810806Y-94744020D01*
X114810653Y-94744004D01*
X114810510Y-94744018D01*
X114808000Y-94744000D01*
X114307556Y-94744000D01*
X114279780Y-94690869D01*
X114098177Y-94465000D01*
X113876161Y-94278706D01*
X113622189Y-94139084D01*
X113345934Y-94051451D01*
X113057919Y-94019145D01*
X113037185Y-94019000D01*
X113022815Y-94019000D01*
X112734377Y-94047282D01*
X112456925Y-94131049D01*
X112201029Y-94267112D01*
X111976433Y-94450287D01*
X111791694Y-94673599D01*
X111653848Y-94928539D01*
X111568146Y-95205399D01*
X111537851Y-95493633D01*
X111564118Y-95782261D01*
X111645947Y-96060291D01*
X111780220Y-96317131D01*
X111961823Y-96543000D01*
X112007061Y-96580959D01*
X111994777Y-96583403D01*
X111879215Y-96631270D01*
X111775211Y-96700763D01*
X111686763Y-96789211D01*
X111617270Y-96893215D01*
X111569403Y-97008777D01*
X111545000Y-97131458D01*
X111545000Y-97694750D01*
X111703750Y-97853500D01*
X112839500Y-97853500D01*
X112839500Y-97833500D01*
X113220500Y-97833500D01*
X113220500Y-97853500D01*
X114356250Y-97853500D01*
X114515000Y-97694750D01*
X114515000Y-97131458D01*
X114490597Y-97008777D01*
X114442730Y-96893215D01*
X114373237Y-96789211D01*
X114284789Y-96700763D01*
X114180785Y-96631270D01*
X114065223Y-96583403D01*
X114054647Y-96581299D01*
X114083567Y-96557713D01*
X114268306Y-96334401D01*
X114306372Y-96264000D01*
X114493198Y-96264000D01*
X115540599Y-97311401D01*
X115594855Y-97355968D01*
X115648625Y-97401086D01*
X115652126Y-97403011D01*
X115655215Y-97405548D01*
X115717067Y-97438713D01*
X115778604Y-97472543D01*
X115782416Y-97473752D01*
X115785935Y-97475639D01*
X115853031Y-97496152D01*
X115919987Y-97517392D01*
X115923959Y-97517838D01*
X115927781Y-97519006D01*
X115997605Y-97526098D01*
X116067389Y-97533926D01*
X116075204Y-97533981D01*
X116075347Y-97533995D01*
X116075480Y-97533982D01*
X116078000Y-97534000D01*
X116342751Y-97534000D01*
X116320975Y-97559550D01*
X116247190Y-97723237D01*
X116221928Y-97901000D01*
X116221928Y-98901000D01*
X116229992Y-99002121D01*
X116283106Y-99173634D01*
X116381900Y-99323559D01*
X116518550Y-99440025D01*
X116682237Y-99513810D01*
X116860000Y-99539072D01*
X119360000Y-99539072D01*
X119461121Y-99531008D01*
X119632634Y-99477894D01*
X119782559Y-99379100D01*
X119821903Y-99332937D01*
X119947550Y-99440025D01*
X120111237Y-99513810D01*
X120289000Y-99539072D01*
X122789000Y-99539072D01*
X122890121Y-99531008D01*
X123061634Y-99477894D01*
X123211559Y-99379100D01*
X123328025Y-99242450D01*
X123401810Y-99078763D01*
X123427072Y-98901000D01*
X123427072Y-97901000D01*
X123419008Y-97799879D01*
X123365894Y-97628366D01*
X123267100Y-97478441D01*
X123130450Y-97361975D01*
X122966763Y-97288190D01*
X122789000Y-97262928D01*
X120289000Y-97262928D01*
X120187879Y-97270992D01*
X120016366Y-97324106D01*
X119866441Y-97422900D01*
X119827097Y-97469063D01*
X119701450Y-97361975D01*
X119537763Y-97288190D01*
X119360000Y-97262928D01*
X118657066Y-97262928D01*
X118654852Y-97260154D01*
X118649369Y-97254594D01*
X118649274Y-97254478D01*
X118649166Y-97254389D01*
X118647401Y-97252599D01*
X117933874Y-96539072D01*
X119360000Y-96539072D01*
X119461121Y-96531008D01*
X119632634Y-96477894D01*
X119782559Y-96379100D01*
X119821903Y-96332937D01*
X119947550Y-96440025D01*
X120111237Y-96513810D01*
X120289000Y-96539072D01*
X122789000Y-96539072D01*
X122890121Y-96531008D01*
X123061634Y-96477894D01*
X123211559Y-96379100D01*
X123328025Y-96242450D01*
X123401810Y-96078763D01*
X123427072Y-95901000D01*
X123427072Y-95892506D01*
X124892283Y-97357717D01*
X124951226Y-97406133D01*
X125009620Y-97455131D01*
X125013425Y-97457223D01*
X125016778Y-97459977D01*
X125084012Y-97496028D01*
X125150801Y-97532746D01*
X125154933Y-97534057D01*
X125158764Y-97536111D01*
X125231741Y-97558422D01*
X125304369Y-97581461D01*
X125308683Y-97581945D01*
X125312834Y-97583214D01*
X125388716Y-97590922D01*
X125464474Y-97599420D01*
X125472950Y-97599479D01*
X125473119Y-97599496D01*
X125473277Y-97599481D01*
X125476000Y-97599500D01*
X130302000Y-97599500D01*
X130377858Y-97592062D01*
X130453852Y-97585413D01*
X130458023Y-97584201D01*
X130462340Y-97583778D01*
X130535334Y-97561740D01*
X130608564Y-97540465D01*
X130612416Y-97538468D01*
X130616574Y-97537213D01*
X130683884Y-97501423D01*
X130751600Y-97466323D01*
X130754996Y-97463612D01*
X130758825Y-97461576D01*
X130817892Y-97413403D01*
X130877510Y-97365810D01*
X130883551Y-97359853D01*
X130883676Y-97359751D01*
X130883772Y-97359635D01*
X130885717Y-97357717D01*
X131114338Y-97129096D01*
X131217076Y-97235484D01*
X131367644Y-97340131D01*
X131535671Y-97413540D01*
X131714757Y-97452915D01*
X131898079Y-97456755D01*
X132078657Y-97424914D01*
X132249610Y-97358606D01*
X132285074Y-97336100D01*
X132318211Y-97369237D01*
X132422215Y-97438730D01*
X132537777Y-97486597D01*
X132660458Y-97511000D01*
X133098750Y-97511000D01*
X133257500Y-97352250D01*
X133257500Y-96864072D01*
X133638500Y-96864072D01*
X133638500Y-97352250D01*
X133797250Y-97511000D01*
X133860000Y-97511000D01*
X133860000Y-117287198D01*
X132654198Y-118493000D01*
X131960556Y-118493000D01*
X131932780Y-118439869D01*
X131751177Y-118214000D01*
X131529161Y-118027706D01*
X131448753Y-117983502D01*
X131511971Y-117949888D01*
X131736567Y-117766713D01*
X131921306Y-117543401D01*
X132059152Y-117288461D01*
X132144854Y-117011601D01*
X132175149Y-116723367D01*
X132148882Y-116434739D01*
X132067053Y-116156709D01*
X131932780Y-115899869D01*
X131751177Y-115674000D01*
X131701349Y-115632189D01*
X131805634Y-115599894D01*
X131955559Y-115501100D01*
X132072025Y-115364450D01*
X132145810Y-115200763D01*
X132171072Y-115023000D01*
X132171072Y-113323000D01*
X132163008Y-113221879D01*
X132109894Y-113050366D01*
X132011100Y-112900441D01*
X131874450Y-112783975D01*
X131710763Y-112710190D01*
X131533000Y-112684928D01*
X130238500Y-112684928D01*
X130238500Y-110507320D01*
X130264458Y-110517805D01*
X130492500Y-110406988D01*
X130492500Y-109283500D01*
X130873500Y-109283500D01*
X130873500Y-110406988D01*
X131101542Y-110517805D01*
X131371465Y-110408774D01*
X131614931Y-110249179D01*
X131822584Y-110045153D01*
X131986443Y-109804536D01*
X132100211Y-109536575D01*
X132107797Y-109511540D01*
X131995497Y-109283500D01*
X130873500Y-109283500D01*
X130492500Y-109283500D01*
X130472500Y-109283500D01*
X130472500Y-108902500D01*
X130492500Y-108902500D01*
X130492500Y-108882500D01*
X130873500Y-108882500D01*
X130873500Y-108902500D01*
X131995497Y-108902500D01*
X132107797Y-108674460D01*
X132100211Y-108649425D01*
X131986443Y-108381464D01*
X131822584Y-108140847D01*
X131614931Y-107936821D01*
X131445057Y-107825467D01*
X131511971Y-107789888D01*
X131736567Y-107606713D01*
X131921306Y-107383401D01*
X132059152Y-107128461D01*
X132144854Y-106851601D01*
X132175149Y-106563367D01*
X132148882Y-106274739D01*
X132067053Y-105996709D01*
X131932780Y-105739869D01*
X131751177Y-105514000D01*
X131701349Y-105472189D01*
X131805634Y-105439894D01*
X131955559Y-105341100D01*
X132072025Y-105204450D01*
X132145810Y-105040763D01*
X132171072Y-104863000D01*
X132171072Y-103163000D01*
X132163008Y-103061879D01*
X132109894Y-102890366D01*
X132011100Y-102740441D01*
X131874450Y-102623975D01*
X131710763Y-102550190D01*
X131533000Y-102524928D01*
X129833000Y-102524928D01*
X129731879Y-102532992D01*
X129560366Y-102586106D01*
X129410441Y-102684900D01*
X129408544Y-102687125D01*
X129334450Y-102623975D01*
X129170763Y-102550190D01*
X128993000Y-102524928D01*
X127293000Y-102524928D01*
X127191879Y-102532992D01*
X127020366Y-102586106D01*
X126870441Y-102684900D01*
X126868544Y-102687125D01*
X126794450Y-102623975D01*
X126630763Y-102550190D01*
X126453000Y-102524928D01*
X124753000Y-102524928D01*
X124651879Y-102532992D01*
X124480366Y-102586106D01*
X124330441Y-102684900D01*
X124328544Y-102687125D01*
X124254450Y-102623975D01*
X124090763Y-102550190D01*
X123913000Y-102524928D01*
X122213000Y-102524928D01*
X122111879Y-102532992D01*
X121940366Y-102586106D01*
X121790441Y-102684900D01*
X121788544Y-102687125D01*
X121714450Y-102623975D01*
X121550763Y-102550190D01*
X121373000Y-102524928D01*
X119673000Y-102524928D01*
X119571879Y-102532992D01*
X119400366Y-102586106D01*
X119250441Y-102684900D01*
X119248544Y-102687125D01*
X119174450Y-102623975D01*
X119010763Y-102550190D01*
X118833000Y-102524928D01*
X117133000Y-102524928D01*
X117031879Y-102532992D01*
X116860366Y-102586106D01*
X116710441Y-102684900D01*
X116708544Y-102687125D01*
X116634450Y-102623975D01*
X116470763Y-102550190D01*
X116293000Y-102524928D01*
X114593000Y-102524928D01*
X114491879Y-102532992D01*
X114320366Y-102586106D01*
X114170441Y-102684900D01*
X114168544Y-102687125D01*
X114094450Y-102623975D01*
X113930763Y-102550190D01*
X113753000Y-102524928D01*
X112053000Y-102524928D01*
X111951879Y-102532992D01*
X111780366Y-102586106D01*
X111630441Y-102684900D01*
X111513975Y-102821550D01*
X111440190Y-102985237D01*
X111414928Y-103163000D01*
X111414928Y-104863000D01*
X111422992Y-104964121D01*
X111476106Y-105135634D01*
X111574900Y-105285559D01*
X111711550Y-105402025D01*
X111875237Y-105475810D01*
X111877776Y-105476171D01*
X111849433Y-105499287D01*
X111664694Y-105722599D01*
X111526848Y-105977539D01*
X111441146Y-106254399D01*
X111410851Y-106542633D01*
X111437118Y-106831261D01*
X111470587Y-106944979D01*
X110795283Y-107620283D01*
X110746867Y-107679226D01*
X110697869Y-107737620D01*
X110695777Y-107741425D01*
X110693023Y-107744778D01*
X110656991Y-107811977D01*
X110620254Y-107878801D01*
X110618942Y-107882937D01*
X110616890Y-107886764D01*
X110594593Y-107959695D01*
X110571539Y-108032369D01*
X110571055Y-108036683D01*
X110569786Y-108040834D01*
X110562078Y-108116716D01*
X110553580Y-108192474D01*
X110553521Y-108200950D01*
X110553504Y-108201119D01*
X110553519Y-108201277D01*
X110553500Y-108204000D01*
X110553500Y-115189000D01*
X110560938Y-115264858D01*
X110567587Y-115340852D01*
X110568799Y-115345023D01*
X110569222Y-115349340D01*
X110591260Y-115422334D01*
X110612535Y-115495564D01*
X110614532Y-115499416D01*
X110615787Y-115503574D01*
X110651577Y-115570884D01*
X110686677Y-115638600D01*
X110689388Y-115641996D01*
X110691424Y-115645825D01*
X110739597Y-115704892D01*
X110787190Y-115764510D01*
X110793147Y-115770551D01*
X110793249Y-115770676D01*
X110793365Y-115770772D01*
X110795283Y-115772717D01*
X111440748Y-116418182D01*
X111410851Y-116702633D01*
X111437118Y-116991261D01*
X111518947Y-117269291D01*
X111653220Y-117526131D01*
X111834823Y-117752000D01*
X112056839Y-117938294D01*
X112137247Y-117982498D01*
X112074029Y-118016112D01*
X111849433Y-118199287D01*
X111664694Y-118422599D01*
X111526848Y-118677539D01*
X111441146Y-118954399D01*
X111410851Y-119242633D01*
X111437118Y-119531261D01*
X111518947Y-119809291D01*
X111653220Y-120066131D01*
X111834823Y-120292000D01*
X112056839Y-120478294D01*
X112310811Y-120617916D01*
X112587066Y-120705549D01*
X112875081Y-120737855D01*
X112895815Y-120738000D01*
X112910185Y-120738000D01*
X113198623Y-120709718D01*
X113264905Y-120689707D01*
X116937599Y-124362401D01*
X116991855Y-124406968D01*
X117045625Y-124452086D01*
X117049126Y-124454011D01*
X117052215Y-124456548D01*
X117114067Y-124489713D01*
X117175604Y-124523543D01*
X117179416Y-124524752D01*
X117182935Y-124526639D01*
X117250031Y-124547152D01*
X117316987Y-124568392D01*
X117320959Y-124568838D01*
X117324781Y-124570006D01*
X117394605Y-124577098D01*
X117464389Y-124584926D01*
X117472204Y-124584981D01*
X117472347Y-124584995D01*
X117472480Y-124584982D01*
X117475000Y-124585000D01*
X133731000Y-124585000D01*
X133800877Y-124578149D01*
X133870803Y-124572031D01*
X133874641Y-124570916D01*
X133878618Y-124570526D01*
X133945821Y-124550236D01*
X134013240Y-124530649D01*
X134016788Y-124528810D01*
X134020613Y-124527655D01*
X134082591Y-124494701D01*
X134144925Y-124462390D01*
X134148048Y-124459897D01*
X134151578Y-124458020D01*
X134205987Y-124413645D01*
X134260846Y-124369852D01*
X134266406Y-124364369D01*
X134266522Y-124364274D01*
X134266611Y-124364166D01*
X134268401Y-124362401D01*
X138713401Y-119917401D01*
X138757968Y-119863145D01*
X138803086Y-119809375D01*
X138805011Y-119805874D01*
X138807548Y-119802785D01*
X138840713Y-119740933D01*
X138874543Y-119679396D01*
X138875752Y-119675584D01*
X138877639Y-119672065D01*
X138898152Y-119604969D01*
X138919392Y-119538013D01*
X138919838Y-119534041D01*
X138921006Y-119530219D01*
X138928103Y-119460351D01*
X138935926Y-119390611D01*
X138935980Y-119382806D01*
X138935996Y-119382653D01*
X138935982Y-119382510D01*
X138936000Y-119380000D01*
X138936000Y-102346000D01*
X142891928Y-102346000D01*
X142891928Y-103346000D01*
X142899992Y-103447121D01*
X142953106Y-103618634D01*
X143051900Y-103768559D01*
X143188550Y-103885025D01*
X143352237Y-103958810D01*
X143530000Y-103984072D01*
X144018000Y-103984072D01*
X144018000Y-104359839D01*
X143956689Y-104449381D01*
X143884454Y-104617916D01*
X143846331Y-104797272D01*
X143843771Y-104980617D01*
X143876872Y-105160968D01*
X143944372Y-105331454D01*
X144043701Y-105485583D01*
X144171076Y-105617484D01*
X144321644Y-105722131D01*
X144489671Y-105795540D01*
X144668757Y-105834915D01*
X144852079Y-105838755D01*
X145032657Y-105806914D01*
X145203610Y-105740606D01*
X145358429Y-105642355D01*
X145491215Y-105515904D01*
X145596911Y-105366070D01*
X145671492Y-105198560D01*
X145712116Y-105019754D01*
X145715040Y-104810319D01*
X145679425Y-104630448D01*
X145609550Y-104460920D01*
X145542000Y-104359248D01*
X145542000Y-103984072D01*
X146030000Y-103984072D01*
X146131121Y-103976008D01*
X146302634Y-103922894D01*
X146452559Y-103824100D01*
X146569025Y-103687450D01*
X146642810Y-103523763D01*
X146668072Y-103346000D01*
X146668072Y-102346000D01*
X146660008Y-102244879D01*
X146606894Y-102073366D01*
X146508100Y-101923441D01*
X146371450Y-101806975D01*
X146207763Y-101733190D01*
X146030000Y-101707928D01*
X143530000Y-101707928D01*
X143428879Y-101715992D01*
X143257366Y-101769106D01*
X143107441Y-101867900D01*
X142990975Y-102004550D01*
X142917190Y-102168237D01*
X142891928Y-102346000D01*
X138936000Y-102346000D01*
X138936000Y-97514072D01*
X140073000Y-97514072D01*
X140174121Y-97506008D01*
X140345634Y-97452894D01*
X140495559Y-97354100D01*
X140612025Y-97217450D01*
X140685810Y-97053763D01*
X140711072Y-96876000D01*
X140711072Y-96426000D01*
X140703008Y-96324879D01*
X140698904Y-96311626D01*
X140711072Y-96226000D01*
X140711072Y-95776000D01*
X140703008Y-95674879D01*
X140698904Y-95661626D01*
X140711072Y-95576000D01*
X140711072Y-95126000D01*
X140703008Y-95024879D01*
X140698904Y-95011626D01*
X140711072Y-94926000D01*
X140711072Y-94476000D01*
X140703008Y-94374879D01*
X140698904Y-94361626D01*
X140711072Y-94276000D01*
X140711072Y-93826000D01*
X140703008Y-93724879D01*
X140698904Y-93711626D01*
X140711072Y-93626000D01*
X140711072Y-93176000D01*
X140703008Y-93074879D01*
X140698904Y-93061626D01*
X140711072Y-92976000D01*
X140711072Y-92526000D01*
X140703008Y-92424879D01*
X140698904Y-92411626D01*
X140711072Y-92326000D01*
X140711072Y-91876000D01*
X140703008Y-91774879D01*
X140698904Y-91761626D01*
X140711072Y-91676000D01*
X140711072Y-91563000D01*
X141285370Y-91563000D01*
X142971185Y-93248816D01*
X143025629Y-93293537D01*
X143079495Y-93338736D01*
X143083003Y-93340664D01*
X143086103Y-93343211D01*
X143148185Y-93376499D01*
X143209816Y-93410381D01*
X143213634Y-93411592D01*
X143217168Y-93413487D01*
X143284537Y-93434084D01*
X143351571Y-93455348D01*
X143355549Y-93455794D01*
X143359385Y-93456967D01*
X143429422Y-93464081D01*
X143499361Y-93471926D01*
X143507197Y-93471981D01*
X143507340Y-93471995D01*
X143507473Y-93471982D01*
X143510000Y-93472000D01*
X148583489Y-93472000D01*
X148610220Y-93523131D01*
X148791823Y-93749000D01*
X149013839Y-93935294D01*
X149094247Y-93979498D01*
X149031029Y-94013112D01*
X148806433Y-94196287D01*
X148621694Y-94419599D01*
X148483848Y-94674539D01*
X148398146Y-94951399D01*
X148367851Y-95239633D01*
X148394118Y-95528261D01*
X148475947Y-95806291D01*
X148610220Y-96063131D01*
X148791823Y-96289000D01*
X149013839Y-96475294D01*
X149098000Y-96521562D01*
X149098000Y-97474370D01*
X147488370Y-99084000D01*
X146610187Y-99084000D01*
X146606894Y-99073366D01*
X146508100Y-98923441D01*
X146371450Y-98806975D01*
X146207763Y-98733190D01*
X146030000Y-98707928D01*
X143530000Y-98707928D01*
X143428879Y-98715992D01*
X143257366Y-98769106D01*
X143107441Y-98867900D01*
X142990975Y-99004550D01*
X142917190Y-99168237D01*
X142891928Y-99346000D01*
X142891928Y-100346000D01*
X142899992Y-100447121D01*
X142953106Y-100618634D01*
X143051900Y-100768559D01*
X143188550Y-100885025D01*
X143352237Y-100958810D01*
X143530000Y-100984072D01*
X146030000Y-100984072D01*
X146131121Y-100976008D01*
X146302634Y-100922894D01*
X146452559Y-100824100D01*
X146569025Y-100687450D01*
X146604839Y-100608000D01*
X147804000Y-100608000D01*
X147874114Y-100601125D01*
X147944170Y-100594996D01*
X147948013Y-100593880D01*
X147952007Y-100593488D01*
X148019460Y-100573123D01*
X148086982Y-100553506D01*
X148090538Y-100551663D01*
X148094376Y-100550504D01*
X148156553Y-100517444D01*
X148219014Y-100485067D01*
X148222144Y-100482568D01*
X148225684Y-100480686D01*
X148280231Y-100436199D01*
X148335240Y-100392286D01*
X148340815Y-100386788D01*
X148340931Y-100386693D01*
X148341020Y-100386585D01*
X148342815Y-100384815D01*
X150398815Y-98328815D01*
X150443512Y-98274401D01*
X150488736Y-98220505D01*
X150490664Y-98216997D01*
X150493211Y-98213897D01*
X150526490Y-98151831D01*
X150560381Y-98090184D01*
X150561593Y-98086364D01*
X150563486Y-98082833D01*
X150584061Y-98015536D01*
X150605348Y-97948429D01*
X150605795Y-97944446D01*
X150606966Y-97940615D01*
X150614075Y-97870627D01*
X150621926Y-97800639D01*
X150621981Y-97792803D01*
X150621995Y-97792660D01*
X150621982Y-97792527D01*
X150622000Y-97790000D01*
X150622000Y-96522497D01*
X150688971Y-96486888D01*
X150913567Y-96303713D01*
X151098306Y-96080401D01*
X151129290Y-96023097D01*
X151150220Y-96063131D01*
X151331823Y-96289000D01*
X151384000Y-96332782D01*
X151384000Y-96705648D01*
X151346433Y-96736287D01*
X151161694Y-96959599D01*
X151023848Y-97214539D01*
X150938146Y-97491399D01*
X150907851Y-97779633D01*
X150934118Y-98068261D01*
X151015947Y-98346291D01*
X151150220Y-98603131D01*
X151331823Y-98829000D01*
X151553839Y-99015294D01*
X151807811Y-99154916D01*
X152084066Y-99242549D01*
X152372081Y-99274855D01*
X152392815Y-99275000D01*
X152407185Y-99275000D01*
X152695623Y-99246718D01*
X152973075Y-99162951D01*
X153228971Y-99026888D01*
X153453567Y-98843713D01*
X153638306Y-98620401D01*
X153776152Y-98365461D01*
X153861854Y-98088601D01*
X153892149Y-97800367D01*
X153865882Y-97511739D01*
X153784053Y-97233709D01*
X153649780Y-96976869D01*
X153468177Y-96751000D01*
X153416000Y-96707218D01*
X153416000Y-96334352D01*
X153453567Y-96303713D01*
X153638306Y-96080401D01*
X153776152Y-95825461D01*
X153861854Y-95548601D01*
X153892149Y-95260367D01*
X153865882Y-94971739D01*
X153784053Y-94693709D01*
X153649780Y-94436869D01*
X153468177Y-94211000D01*
X153246161Y-94024706D01*
X153165753Y-93980502D01*
X153228971Y-93946888D01*
X153453567Y-93763713D01*
X153638306Y-93540401D01*
X153675290Y-93472000D01*
X153924000Y-93472000D01*
X153994114Y-93465125D01*
X154064170Y-93458996D01*
X154068013Y-93457880D01*
X154072007Y-93457488D01*
X154139460Y-93437123D01*
X154206982Y-93417506D01*
X154210538Y-93415663D01*
X154214376Y-93414504D01*
X154276553Y-93381444D01*
X154339014Y-93349067D01*
X154342144Y-93346568D01*
X154345684Y-93344686D01*
X154400231Y-93300199D01*
X154455240Y-93256286D01*
X154460815Y-93250788D01*
X154460931Y-93250693D01*
X154461020Y-93250585D01*
X154462815Y-93248815D01*
X155224816Y-92486815D01*
X155269537Y-92432371D01*
X155314736Y-92378505D01*
X155316664Y-92374997D01*
X155319211Y-92371897D01*
X155352509Y-92309796D01*
X155386381Y-92248184D01*
X155387591Y-92244368D01*
X155389487Y-92240833D01*
X155410088Y-92173449D01*
X155431348Y-92106429D01*
X155431794Y-92102451D01*
X155432967Y-92098615D01*
X155440081Y-92028578D01*
X155447926Y-91958639D01*
X155447981Y-91950803D01*
X155447995Y-91950660D01*
X155447982Y-91950527D01*
X155448000Y-91948000D01*
X155448000Y-88646000D01*
X155441130Y-88575936D01*
X155434997Y-88505830D01*
X155433879Y-88501982D01*
X155433488Y-88497993D01*
X155413135Y-88430582D01*
X155393506Y-88363018D01*
X155391663Y-88359462D01*
X155390504Y-88355624D01*
X155357444Y-88293447D01*
X155325067Y-88230986D01*
X155322568Y-88227856D01*
X155320686Y-88224316D01*
X155276199Y-88169769D01*
X155232286Y-88114760D01*
X155226784Y-88109181D01*
X155226693Y-88109069D01*
X155226589Y-88108983D01*
X155224816Y-88107185D01*
X154462815Y-87345185D01*
X154408401Y-87300488D01*
X154354505Y-87255264D01*
X154350997Y-87253336D01*
X154347897Y-87250789D01*
X154285831Y-87217510D01*
X154224184Y-87183619D01*
X154220364Y-87182407D01*
X154216833Y-87180514D01*
X154149536Y-87159939D01*
X154082429Y-87138652D01*
X154078446Y-87138205D01*
X154074615Y-87137034D01*
X154004627Y-87129925D01*
X153934639Y-87122074D01*
X153926803Y-87122019D01*
X153926660Y-87122005D01*
X153926527Y-87122018D01*
X153924000Y-87122000D01*
X135382000Y-87122000D01*
X135311891Y-87128874D01*
X135241829Y-87135004D01*
X135237986Y-87136120D01*
X135233993Y-87136512D01*
X135166552Y-87156874D01*
X135099018Y-87176494D01*
X135095462Y-87178337D01*
X135091624Y-87179496D01*
X135029447Y-87212556D01*
X134966986Y-87244933D01*
X134963856Y-87247432D01*
X134960316Y-87249314D01*
X134905769Y-87293801D01*
X134850760Y-87337714D01*
X134845185Y-87343212D01*
X134845069Y-87343307D01*
X134844980Y-87343415D01*
X134843185Y-87345185D01*
X132909185Y-89279185D01*
X132864488Y-89333599D01*
X132819264Y-89387495D01*
X132817336Y-89391003D01*
X132814789Y-89394103D01*
X132781510Y-89456169D01*
X132747619Y-89517816D01*
X132746407Y-89521636D01*
X132744514Y-89525167D01*
X132723939Y-89592464D01*
X132702652Y-89659571D01*
X132702205Y-89663554D01*
X132701034Y-89667385D01*
X132693925Y-89737373D01*
X132686074Y-89807361D01*
X132686019Y-89815197D01*
X132686005Y-89815340D01*
X132686018Y-89815473D01*
X132686000Y-89818000D01*
X132686000Y-89940879D01*
X132621879Y-89945992D01*
X132450366Y-89999106D01*
X132389825Y-90039000D01*
X132264631Y-90039000D01*
X130078815Y-87853185D01*
X130024401Y-87808488D01*
X129970505Y-87763264D01*
X129966997Y-87761336D01*
X129963897Y-87758789D01*
X129901831Y-87725510D01*
X129840184Y-87691619D01*
X129836364Y-87690407D01*
X129832833Y-87688514D01*
X129765536Y-87667939D01*
X129698429Y-87646652D01*
X129694446Y-87646205D01*
X129690615Y-87645034D01*
X129620627Y-87637925D01*
X129550639Y-87630074D01*
X129542803Y-87630019D01*
X129542660Y-87630005D01*
X129542527Y-87630018D01*
X129540000Y-87630000D01*
X125984000Y-87630000D01*
X125913936Y-87636870D01*
X125843830Y-87643003D01*
X125839982Y-87644121D01*
X125835993Y-87644512D01*
X125768582Y-87664865D01*
X125701018Y-87684494D01*
X125697462Y-87686337D01*
X125693624Y-87687496D01*
X125631447Y-87720556D01*
X125568986Y-87752933D01*
X125565856Y-87755432D01*
X125562316Y-87757314D01*
X125507769Y-87801801D01*
X125452760Y-87845714D01*
X125447185Y-87851212D01*
X125447069Y-87851307D01*
X125446980Y-87851415D01*
X125445185Y-87853185D01*
X124812633Y-88485737D01*
X124702733Y-88506701D01*
X124532722Y-88575390D01*
X124379291Y-88675793D01*
X124248283Y-88804086D01*
X124144689Y-88955381D01*
X124072454Y-89123916D01*
X124034331Y-89303272D01*
X124031771Y-89486617D01*
X124064872Y-89666968D01*
X124132372Y-89837454D01*
X124231701Y-89991583D01*
X124359076Y-90123484D01*
X124509644Y-90228131D01*
X124677671Y-90301540D01*
X124856757Y-90340915D01*
X125040079Y-90344755D01*
X125220657Y-90312914D01*
X125391610Y-90246606D01*
X125546429Y-90148355D01*
X125679215Y-90021904D01*
X125784911Y-89872070D01*
X125859492Y-89704560D01*
X125891955Y-89561675D01*
X126299630Y-89154000D01*
X129224370Y-89154000D01*
X131410184Y-91339815D01*
X131464597Y-91384510D01*
X131518495Y-91429736D01*
X131522006Y-91431666D01*
X131525103Y-91434210D01*
X131587130Y-91467469D01*
X131648816Y-91501381D01*
X131652636Y-91502593D01*
X131656167Y-91504486D01*
X131723464Y-91525061D01*
X131790571Y-91546348D01*
X131794554Y-91546795D01*
X131798385Y-91547966D01*
X131868373Y-91555075D01*
X131938361Y-91562926D01*
X131946197Y-91562981D01*
X131946340Y-91562995D01*
X131946473Y-91562982D01*
X131949000Y-91563000D01*
X132084928Y-91563000D01*
X132084928Y-91676000D01*
X132092992Y-91777121D01*
X132094353Y-91781517D01*
X132088000Y-91813458D01*
X132088000Y-91829750D01*
X132118841Y-91860591D01*
X132134296Y-91910498D01*
X132088000Y-91910498D01*
X132088000Y-91991000D01*
X130334458Y-91991000D01*
X130312894Y-91921366D01*
X130214100Y-91771441D01*
X130126503Y-91696783D01*
X130140789Y-91687237D01*
X130229237Y-91598789D01*
X130298730Y-91494785D01*
X130346597Y-91379223D01*
X130371000Y-91256542D01*
X130371000Y-91227750D01*
X130212250Y-91069000D01*
X129476500Y-91069000D01*
X129476500Y-91154500D01*
X129095500Y-91154500D01*
X129095500Y-91069000D01*
X128359750Y-91069000D01*
X128201000Y-91227750D01*
X128201000Y-91256542D01*
X128225403Y-91379223D01*
X128273270Y-91494785D01*
X128342763Y-91598789D01*
X128427974Y-91684000D01*
X127346500Y-91684000D01*
X127364559Y-91672100D01*
X127481025Y-91535450D01*
X127554810Y-91371763D01*
X127580072Y-91194000D01*
X127580072Y-90694000D01*
X127575085Y-90631458D01*
X128201000Y-90631458D01*
X128201000Y-90660250D01*
X128359750Y-90819000D01*
X129095500Y-90819000D01*
X129095500Y-90217750D01*
X129476500Y-90217750D01*
X129476500Y-90819000D01*
X130212250Y-90819000D01*
X130371000Y-90660250D01*
X130371000Y-90631458D01*
X130346597Y-90508777D01*
X130298730Y-90393215D01*
X130229237Y-90289211D01*
X130140789Y-90200763D01*
X130036785Y-90131270D01*
X129921223Y-90083403D01*
X129798542Y-90059000D01*
X129635250Y-90059000D01*
X129476500Y-90217750D01*
X129095500Y-90217750D01*
X128936750Y-90059000D01*
X128773458Y-90059000D01*
X128650777Y-90083403D01*
X128535215Y-90131270D01*
X128431211Y-90200763D01*
X128342763Y-90289211D01*
X128273270Y-90393215D01*
X128225403Y-90508777D01*
X128201000Y-90631458D01*
X127575085Y-90631458D01*
X127572008Y-90592879D01*
X127518894Y-90421366D01*
X127420100Y-90271441D01*
X127283450Y-90154975D01*
X127119763Y-90081190D01*
X126942000Y-90055928D01*
X126042000Y-90055928D01*
X125940879Y-90063992D01*
X125769366Y-90117106D01*
X125619441Y-90215900D01*
X125515906Y-90337378D01*
X125495791Y-90353783D01*
X125440760Y-90397714D01*
X125435185Y-90403212D01*
X125435069Y-90403307D01*
X125434980Y-90403415D01*
X125433185Y-90405185D01*
X124968425Y-90869945D01*
X124933412Y-90804095D01*
X124898323Y-90736401D01*
X124895613Y-90733007D01*
X124893576Y-90729175D01*
X124845410Y-90670117D01*
X124797811Y-90610490D01*
X124791855Y-90604452D01*
X124791751Y-90604324D01*
X124791632Y-90604226D01*
X124789717Y-90602284D01*
X121153717Y-86966283D01*
X121094774Y-86917867D01*
X121036380Y-86868869D01*
X121032575Y-86866777D01*
X121029222Y-86864023D01*
X120962023Y-86827991D01*
X120895199Y-86791254D01*
X120891063Y-86789942D01*
X120887236Y-86787890D01*
X120814305Y-86765593D01*
X120741631Y-86742539D01*
X120737317Y-86742055D01*
X120733166Y-86740786D01*
X120657284Y-86733078D01*
X120581526Y-86724580D01*
X120573050Y-86724521D01*
X120572881Y-86724504D01*
X120572723Y-86724519D01*
X120570000Y-86724500D01*
X115463110Y-86724500D01*
X115432100Y-86677441D01*
X115295450Y-86560975D01*
X115131763Y-86487190D01*
X114954000Y-86461928D01*
X114275500Y-86461928D01*
X114275500Y-85239835D01*
X114489000Y-85068177D01*
X114675294Y-84846161D01*
X114814916Y-84592189D01*
X114902549Y-84315934D01*
X114934855Y-84027919D01*
X114935000Y-84007185D01*
X114935000Y-83992815D01*
X114906718Y-83704377D01*
X114822951Y-83426925D01*
X114686888Y-83171029D01*
X114503713Y-82946433D01*
X114280401Y-82761694D01*
X114275500Y-82759044D01*
X114275500Y-81009835D01*
X114489000Y-80838177D01*
X114675294Y-80616161D01*
X114719498Y-80535753D01*
X114753112Y-80598971D01*
X114936287Y-80823567D01*
X115159599Y-81008306D01*
X115414539Y-81146152D01*
X115691399Y-81231854D01*
X115979633Y-81262149D01*
X116268261Y-81235882D01*
X116546291Y-81154053D01*
X116803131Y-81019780D01*
X117029000Y-80838177D01*
X117215294Y-80616161D01*
X117259498Y-80535753D01*
X117293112Y-80598971D01*
X117476287Y-80823567D01*
X117699599Y-81008306D01*
X117954539Y-81146152D01*
X118231399Y-81231854D01*
X118519633Y-81262149D01*
X118808261Y-81235882D01*
X119086291Y-81154053D01*
X119343131Y-81019780D01*
X119569000Y-80838177D01*
X119755294Y-80616161D01*
X119799498Y-80535753D01*
X119833112Y-80598971D01*
X120016287Y-80823567D01*
X120239599Y-81008306D01*
X120494539Y-81146152D01*
X120771399Y-81231854D01*
X121059633Y-81262149D01*
X121348261Y-81235882D01*
X121626291Y-81154053D01*
X121883131Y-81019780D01*
X122109000Y-80838177D01*
X122295294Y-80616161D01*
X122339498Y-80535753D01*
X122373112Y-80598971D01*
X122556287Y-80823567D01*
X122779599Y-81008306D01*
X123034539Y-81146152D01*
X123311399Y-81231854D01*
X123599633Y-81262149D01*
X123888261Y-81235882D01*
X124166291Y-81154053D01*
X124423131Y-81019780D01*
X124649000Y-80838177D01*
X124835294Y-80616161D01*
X124879498Y-80535753D01*
X124913112Y-80598971D01*
X125096287Y-80823567D01*
X125319599Y-81008306D01*
X125574539Y-81146152D01*
X125851399Y-81231854D01*
X126139633Y-81262149D01*
X126428261Y-81235882D01*
X126706291Y-81154053D01*
X126963131Y-81019780D01*
X127189000Y-80838177D01*
X127375294Y-80616161D01*
X127419498Y-80535753D01*
X127453112Y-80598971D01*
X127636287Y-80823567D01*
X127859599Y-81008306D01*
X128114539Y-81146152D01*
X128391399Y-81231854D01*
X128679633Y-81262149D01*
X128968261Y-81235882D01*
X129246291Y-81154053D01*
X129503131Y-81019780D01*
X129729000Y-80838177D01*
X129915294Y-80616161D01*
X129959498Y-80535753D01*
X129993112Y-80598971D01*
X130176287Y-80823567D01*
X130399599Y-81008306D01*
X130654539Y-81146152D01*
X130931399Y-81231854D01*
X131219633Y-81262149D01*
X131508261Y-81235882D01*
X131786291Y-81154053D01*
X132043131Y-81019780D01*
X132269000Y-80838177D01*
X132455294Y-80616161D01*
X132499498Y-80535753D01*
X132533112Y-80598971D01*
X132716287Y-80823567D01*
X132939599Y-81008306D01*
X133194539Y-81146152D01*
X133471399Y-81231854D01*
X133759633Y-81262149D01*
X134048261Y-81235882D01*
X134326291Y-81154053D01*
X134583131Y-81019780D01*
X134809000Y-80838177D01*
X134995294Y-80616161D01*
X135039498Y-80535753D01*
X135073112Y-80598971D01*
X135256287Y-80823567D01*
X135479599Y-81008306D01*
X135734539Y-81146152D01*
X136011399Y-81231854D01*
X136299633Y-81262149D01*
X136588261Y-81235882D01*
X136866291Y-81154053D01*
X137123131Y-81019780D01*
X137349000Y-80838177D01*
X137535294Y-80616161D01*
X137579498Y-80535753D01*
X137613112Y-80598971D01*
X137796287Y-80823567D01*
X138019599Y-81008306D01*
X138274539Y-81146152D01*
X138551399Y-81231854D01*
X138839633Y-81262149D01*
X139128261Y-81235882D01*
X139406291Y-81154053D01*
X139663131Y-81019780D01*
X139889000Y-80838177D01*
X140075294Y-80616161D01*
X140119498Y-80535753D01*
X140153112Y-80598971D01*
X140336287Y-80823567D01*
X140559599Y-81008306D01*
X140814539Y-81146152D01*
X141091399Y-81231854D01*
X141379633Y-81262149D01*
X141668261Y-81235882D01*
X141946291Y-81154053D01*
X142203131Y-81019780D01*
X142429000Y-80838177D01*
X142615294Y-80616161D01*
X142659498Y-80535753D01*
X142693112Y-80598971D01*
X142876287Y-80823567D01*
X143099599Y-81008306D01*
X143354539Y-81146152D01*
X143631399Y-81231854D01*
X143919633Y-81262149D01*
X144208261Y-81235882D01*
X144486291Y-81154053D01*
X144743131Y-81019780D01*
X144969000Y-80838177D01*
X145155294Y-80616161D01*
X145199498Y-80535753D01*
X145233112Y-80598971D01*
X145416287Y-80823567D01*
X145639599Y-81008306D01*
X145894539Y-81146152D01*
X146171399Y-81231854D01*
X146459633Y-81262149D01*
X146748261Y-81235882D01*
X147026291Y-81154053D01*
X147283131Y-81019780D01*
X147509000Y-80838177D01*
X147695294Y-80616161D01*
X147739498Y-80535753D01*
X147773112Y-80598971D01*
X147956287Y-80823567D01*
X148179599Y-81008306D01*
X148434539Y-81146152D01*
X148711399Y-81231854D01*
X148999633Y-81262149D01*
X149288261Y-81235882D01*
X149566291Y-81154053D01*
X149823131Y-81019780D01*
X150049000Y-80838177D01*
X150235294Y-80616161D01*
X150279498Y-80535753D01*
X150313112Y-80598971D01*
X150496287Y-80823567D01*
X150719599Y-81008306D01*
X150974539Y-81146152D01*
X151251399Y-81231854D01*
X151539633Y-81262149D01*
X151828261Y-81235882D01*
X152106291Y-81154053D01*
X152363131Y-81019780D01*
X152589000Y-80838177D01*
X152775294Y-80616161D01*
X152819498Y-80535753D01*
X152853112Y-80598971D01*
X153036287Y-80823567D01*
X153259599Y-81008306D01*
X153514539Y-81146152D01*
X153791399Y-81231854D01*
X154079633Y-81262149D01*
X154368261Y-81235882D01*
X154646291Y-81154053D01*
X154903131Y-81019780D01*
X155129000Y-80838177D01*
X155315294Y-80616161D01*
X155359498Y-80535753D01*
X155393112Y-80598971D01*
X155576287Y-80823567D01*
X155799599Y-81008306D01*
X156054539Y-81146152D01*
X156331399Y-81231854D01*
X156619633Y-81262149D01*
X156908261Y-81235882D01*
X157186291Y-81154053D01*
X157443131Y-81019780D01*
X157669000Y-80838177D01*
X157855294Y-80616161D01*
X157994916Y-80362189D01*
X158082549Y-80085934D01*
X158114855Y-79797919D01*
X158115000Y-79777185D01*
X158115000Y-79762815D01*
X158086718Y-79474377D01*
X158002951Y-79196925D01*
X157866888Y-78941029D01*
X157683713Y-78716433D01*
X157460401Y-78531694D01*
X157457561Y-78530158D01*
X159340211Y-78530158D01*
X159387201Y-78949089D01*
X159514668Y-79350915D01*
X159717755Y-79720329D01*
X159988727Y-80043261D01*
X160317263Y-80307411D01*
X160690850Y-80502717D01*
X161095256Y-80621740D01*
X161515080Y-80659947D01*
X161934328Y-80615883D01*
X162337034Y-80491224D01*
X162707857Y-80290721D01*
X163032673Y-80022010D01*
X163299110Y-79695326D01*
X163497019Y-79323112D01*
X163618863Y-78919546D01*
X163660000Y-78500000D01*
X163659158Y-78439689D01*
X163606323Y-78021455D01*
X163473258Y-77621449D01*
X163265033Y-77254906D01*
X162989578Y-76935789D01*
X162657386Y-76676252D01*
X162281109Y-76486181D01*
X161875080Y-76372815D01*
X161454764Y-76340474D01*
X161036172Y-76390388D01*
X160635246Y-76520657D01*
X160267259Y-76726318D01*
X159946226Y-76999538D01*
X159684376Y-77329910D01*
X159491683Y-77704851D01*
X159375486Y-78110079D01*
X159340211Y-78530158D01*
X157457561Y-78530158D01*
X157403097Y-78500710D01*
X157443131Y-78479780D01*
X157669000Y-78298177D01*
X157855294Y-78076161D01*
X157994916Y-77822189D01*
X158082549Y-77545934D01*
X158114855Y-77257919D01*
X158115000Y-77237185D01*
X158115000Y-77222815D01*
X158086718Y-76934377D01*
X158002951Y-76656925D01*
X157866888Y-76401029D01*
X157683713Y-76176433D01*
X157460401Y-75991694D01*
X157205461Y-75853848D01*
X156928601Y-75768146D01*
X156640367Y-75737851D01*
X156351739Y-75764118D01*
X156073709Y-75845947D01*
X155816869Y-75980220D01*
X155591000Y-76161823D01*
X155404706Y-76383839D01*
X155360502Y-76464247D01*
X155326888Y-76401029D01*
X155143713Y-76176433D01*
X154920401Y-75991694D01*
X154665461Y-75853848D01*
X154388601Y-75768146D01*
X154100367Y-75737851D01*
X153811739Y-75764118D01*
X153533709Y-75845947D01*
X153276869Y-75980220D01*
X153051000Y-76161823D01*
X152864706Y-76383839D01*
X152820502Y-76464247D01*
X152786888Y-76401029D01*
X152603713Y-76176433D01*
X152380401Y-75991694D01*
X152125461Y-75853848D01*
X151848601Y-75768146D01*
X151560367Y-75737851D01*
X151271739Y-75764118D01*
X150993709Y-75845947D01*
X150736869Y-75980220D01*
X150511000Y-76161823D01*
X150324706Y-76383839D01*
X150280502Y-76464247D01*
X150246888Y-76401029D01*
X150063713Y-76176433D01*
X149840401Y-75991694D01*
X149585461Y-75853848D01*
X149308601Y-75768146D01*
X149020367Y-75737851D01*
X148731739Y-75764118D01*
X148453709Y-75845947D01*
X148196869Y-75980220D01*
X147971000Y-76161823D01*
X147784706Y-76383839D01*
X147740502Y-76464247D01*
X147706888Y-76401029D01*
X147523713Y-76176433D01*
X147300401Y-75991694D01*
X147045461Y-75853848D01*
X146768601Y-75768146D01*
X146480367Y-75737851D01*
X146191739Y-75764118D01*
X145913709Y-75845947D01*
X145656869Y-75980220D01*
X145431000Y-76161823D01*
X145244706Y-76383839D01*
X145200502Y-76464247D01*
X145166888Y-76401029D01*
X144983713Y-76176433D01*
X144760401Y-75991694D01*
X144505461Y-75853848D01*
X144228601Y-75768146D01*
X143940367Y-75737851D01*
X143651739Y-75764118D01*
X143373709Y-75845947D01*
X143116869Y-75980220D01*
X142891000Y-76161823D01*
X142704706Y-76383839D01*
X142660502Y-76464247D01*
X142626888Y-76401029D01*
X142443713Y-76176433D01*
X142220401Y-75991694D01*
X141965461Y-75853848D01*
X141688601Y-75768146D01*
X141400367Y-75737851D01*
X141111739Y-75764118D01*
X140833709Y-75845947D01*
X140576869Y-75980220D01*
X140351000Y-76161823D01*
X140164706Y-76383839D01*
X140120502Y-76464247D01*
X140086888Y-76401029D01*
X139903713Y-76176433D01*
X139680401Y-75991694D01*
X139425461Y-75853848D01*
X139148601Y-75768146D01*
X138860367Y-75737851D01*
X138571739Y-75764118D01*
X138293709Y-75845947D01*
X138036869Y-75980220D01*
X137811000Y-76161823D01*
X137624706Y-76383839D01*
X137580502Y-76464247D01*
X137546888Y-76401029D01*
X137363713Y-76176433D01*
X137140401Y-75991694D01*
X136885461Y-75853848D01*
X136608601Y-75768146D01*
X136320367Y-75737851D01*
X136031739Y-75764118D01*
X135753709Y-75845947D01*
X135496869Y-75980220D01*
X135271000Y-76161823D01*
X135084706Y-76383839D01*
X135040502Y-76464247D01*
X135006888Y-76401029D01*
X134823713Y-76176433D01*
X134600401Y-75991694D01*
X134345461Y-75853848D01*
X134068601Y-75768146D01*
X133780367Y-75737851D01*
X133491739Y-75764118D01*
X133213709Y-75845947D01*
X132956869Y-75980220D01*
X132731000Y-76161823D01*
X132544706Y-76383839D01*
X132500502Y-76464247D01*
X132466888Y-76401029D01*
X132283713Y-76176433D01*
X132060401Y-75991694D01*
X131805461Y-75853848D01*
X131528601Y-75768146D01*
X131240367Y-75737851D01*
X130951739Y-75764118D01*
X130673709Y-75845947D01*
X130416869Y-75980220D01*
X130191000Y-76161823D01*
X130004706Y-76383839D01*
X129960502Y-76464247D01*
X129926888Y-76401029D01*
X129743713Y-76176433D01*
X129520401Y-75991694D01*
X129265461Y-75853848D01*
X128988601Y-75768146D01*
X128700367Y-75737851D01*
X128411739Y-75764118D01*
X128133709Y-75845947D01*
X127876869Y-75980220D01*
X127651000Y-76161823D01*
X127464706Y-76383839D01*
X127420502Y-76464247D01*
X127386888Y-76401029D01*
X127203713Y-76176433D01*
X126980401Y-75991694D01*
X126725461Y-75853848D01*
X126448601Y-75768146D01*
X126160367Y-75737851D01*
X125871739Y-75764118D01*
X125593709Y-75845947D01*
X125336869Y-75980220D01*
X125111000Y-76161823D01*
X124924706Y-76383839D01*
X124880502Y-76464247D01*
X124846888Y-76401029D01*
X124663713Y-76176433D01*
X124440401Y-75991694D01*
X124185461Y-75853848D01*
X123908601Y-75768146D01*
X123620367Y-75737851D01*
X123331739Y-75764118D01*
X123053709Y-75845947D01*
X122796869Y-75980220D01*
X122571000Y-76161823D01*
X122384706Y-76383839D01*
X122340502Y-76464247D01*
X122306888Y-76401029D01*
X122123713Y-76176433D01*
X121900401Y-75991694D01*
X121645461Y-75853848D01*
X121368601Y-75768146D01*
X121080367Y-75737851D01*
X120791739Y-75764118D01*
X120513709Y-75845947D01*
X120256869Y-75980220D01*
X120031000Y-76161823D01*
X119844706Y-76383839D01*
X119800502Y-76464247D01*
X119766888Y-76401029D01*
X119583713Y-76176433D01*
X119360401Y-75991694D01*
X119105461Y-75853848D01*
X118828601Y-75768146D01*
X118540367Y-75737851D01*
X118251739Y-75764118D01*
X117973709Y-75845947D01*
X117716869Y-75980220D01*
X117491000Y-76161823D01*
X117304706Y-76383839D01*
X117260502Y-76464247D01*
X117226888Y-76401029D01*
X117043713Y-76176433D01*
X116820401Y-75991694D01*
X116565461Y-75853848D01*
X116288601Y-75768146D01*
X116000367Y-75737851D01*
X115711739Y-75764118D01*
X115433709Y-75845947D01*
X115176869Y-75980220D01*
X114951000Y-76161823D01*
X114764706Y-76383839D01*
X114720502Y-76464247D01*
X114686888Y-76401029D01*
X114503713Y-76176433D01*
X114280401Y-75991694D01*
X114025461Y-75853848D01*
X113748601Y-75768146D01*
X113460367Y-75737851D01*
X113171739Y-75764118D01*
X112893709Y-75845947D01*
X112636869Y-75980220D01*
X112411000Y-76161823D01*
X112224706Y-76383839D01*
X112178043Y-76468720D01*
X112066179Y-76298069D01*
X111862153Y-76090416D01*
X111621536Y-75926557D01*
X111353575Y-75812789D01*
X111328540Y-75805203D01*
X111100500Y-75917503D01*
X111100500Y-77039500D01*
X111120500Y-77039500D01*
X111120500Y-77420500D01*
X111100500Y-77420500D01*
X111100500Y-77440500D01*
X110719500Y-77440500D01*
X110719500Y-77420500D01*
X108560500Y-77420500D01*
X108560500Y-77440500D01*
X108179500Y-77440500D01*
X108179500Y-77420500D01*
X107056012Y-77420500D01*
X106945195Y-77648542D01*
X107054226Y-77918465D01*
X107213821Y-78161931D01*
X107358129Y-78308805D01*
X107247366Y-78343106D01*
X107097441Y-78441900D01*
X106980975Y-78578550D01*
X106907190Y-78742237D01*
X106881928Y-78920000D01*
X106881928Y-79895232D01*
X106723580Y-80053580D01*
X106664023Y-80126086D01*
X106603685Y-80197994D01*
X106601111Y-80202675D01*
X106597720Y-80206804D01*
X106553372Y-80289512D01*
X106508158Y-80371755D01*
X106506542Y-80376848D01*
X106504018Y-80381556D01*
X106476572Y-80471327D01*
X106448202Y-80560762D01*
X106447607Y-80566068D01*
X106446044Y-80571180D01*
X106436557Y-80664581D01*
X106426099Y-80757814D01*
X106426026Y-80768255D01*
X106426006Y-80768453D01*
X106426023Y-80768638D01*
X106426000Y-80772000D01*
X106426000Y-89892938D01*
X106347232Y-90076719D01*
X106300628Y-90295975D01*
X106297498Y-90520107D01*
X100710000Y-90520107D01*
X100710000Y-78530158D01*
X101340211Y-78530158D01*
X101387201Y-78949089D01*
X101514668Y-79350915D01*
X101717755Y-79720329D01*
X101988727Y-80043261D01*
X102317263Y-80307411D01*
X102690850Y-80502717D01*
X103095256Y-80621740D01*
X103515080Y-80659947D01*
X103934328Y-80615883D01*
X104337034Y-80491224D01*
X104707857Y-80290721D01*
X105032673Y-80022010D01*
X105299110Y-79695326D01*
X105497019Y-79323112D01*
X105618863Y-78919546D01*
X105660000Y-78500000D01*
X105659158Y-78439689D01*
X105606323Y-78021455D01*
X105473258Y-77621449D01*
X105265033Y-77254906D01*
X104989578Y-76935789D01*
X104830442Y-76811458D01*
X106945195Y-76811458D01*
X107056012Y-77039500D01*
X108179500Y-77039500D01*
X108179500Y-75917503D01*
X108560500Y-75917503D01*
X108560500Y-77039500D01*
X110719500Y-77039500D01*
X110719500Y-75917503D01*
X110491460Y-75805203D01*
X110466425Y-75812789D01*
X110198464Y-75926557D01*
X109957847Y-76090416D01*
X109753821Y-76298069D01*
X109640000Y-76471706D01*
X109526179Y-76298069D01*
X109322153Y-76090416D01*
X109081536Y-75926557D01*
X108813575Y-75812789D01*
X108788540Y-75805203D01*
X108560500Y-75917503D01*
X108179500Y-75917503D01*
X107951460Y-75805203D01*
X107926425Y-75812789D01*
X107658464Y-75926557D01*
X107417847Y-76090416D01*
X107213821Y-76298069D01*
X107054226Y-76541535D01*
X106945195Y-76811458D01*
X104830442Y-76811458D01*
X104657386Y-76676252D01*
X104281109Y-76486181D01*
X103875080Y-76372815D01*
X103454764Y-76340474D01*
X103036172Y-76390388D01*
X102635246Y-76520657D01*
X102267259Y-76726318D01*
X101946226Y-76999538D01*
X101684376Y-77329910D01*
X101491683Y-77704851D01*
X101375486Y-78110079D01*
X101340211Y-78530158D01*
X100710000Y-78530158D01*
X100710000Y-78034721D01*
X100756953Y-77555866D01*
X100885938Y-77128645D01*
X101095446Y-76734616D01*
X101377499Y-76388786D01*
X101721351Y-76104327D01*
X102113910Y-75892071D01*
X102540213Y-75760108D01*
X103016964Y-75710000D01*
X161965279Y-75710000D01*
X162444134Y-75756953D01*
X162444134Y-75756953D01*
G37*
X162444134Y-75756953D02*
X162871355Y-75885938D01*
X163265384Y-76095446D01*
X163611214Y-76377499D01*
X163895673Y-76721351D01*
X164107929Y-77113910D01*
X164239892Y-77540213D01*
X164290000Y-78016964D01*
X164290000Y-127965279D01*
X164243048Y-128444133D01*
X164114063Y-128871353D01*
X163904554Y-129265384D01*
X163622501Y-129611214D01*
X163278651Y-129895672D01*
X162886093Y-130107927D01*
X162459788Y-130239891D01*
X161983036Y-130290000D01*
X103034721Y-130290000D01*
X102555867Y-130243048D01*
X102128647Y-130114063D01*
X101734616Y-129904554D01*
X101388786Y-129622501D01*
X101104328Y-129278651D01*
X100892073Y-128886093D01*
X100760109Y-128459788D01*
X100710000Y-127983036D01*
X100710000Y-127530158D01*
X101340211Y-127530158D01*
X101387201Y-127949089D01*
X101514668Y-128350915D01*
X101717755Y-128720329D01*
X101988727Y-129043261D01*
X102317263Y-129307411D01*
X102690850Y-129502717D01*
X103095256Y-129621740D01*
X103515080Y-129659947D01*
X103934328Y-129615883D01*
X104337034Y-129491224D01*
X104707857Y-129290721D01*
X105032673Y-129022010D01*
X105299110Y-128695326D01*
X105497019Y-128323112D01*
X105618863Y-127919546D01*
X105657042Y-127530158D01*
X159340211Y-127530158D01*
X159387201Y-127949089D01*
X159514668Y-128350915D01*
X159717755Y-128720329D01*
X159988727Y-129043261D01*
X160317263Y-129307411D01*
X160690850Y-129502717D01*
X161095256Y-129621740D01*
X161515080Y-129659947D01*
X161934328Y-129615883D01*
X162337034Y-129491224D01*
X162707857Y-129290721D01*
X163032673Y-129022010D01*
X163299110Y-128695326D01*
X163497019Y-128323112D01*
X163618863Y-127919546D01*
X163660000Y-127500000D01*
X163659158Y-127439689D01*
X163606323Y-127021455D01*
X163473258Y-126621449D01*
X163265033Y-126254906D01*
X162989578Y-125935789D01*
X162657386Y-125676252D01*
X162281109Y-125486181D01*
X161875080Y-125372815D01*
X161454764Y-125340474D01*
X161036172Y-125390388D01*
X160635246Y-125520657D01*
X160267259Y-125726318D01*
X159946226Y-125999538D01*
X159684376Y-126329910D01*
X159491683Y-126704851D01*
X159375486Y-127110079D01*
X159340211Y-127530158D01*
X105657042Y-127530158D01*
X105660000Y-127500000D01*
X105659158Y-127439689D01*
X105606323Y-127021455D01*
X105473258Y-126621449D01*
X105265033Y-126254906D01*
X104989578Y-125935789D01*
X104657386Y-125676252D01*
X104281109Y-125486181D01*
X103875080Y-125372815D01*
X103454764Y-125340474D01*
X103036172Y-125390388D01*
X102635246Y-125520657D01*
X102267259Y-125726318D01*
X101946226Y-125999538D01*
X101684376Y-126329910D01*
X101491683Y-126704851D01*
X101375486Y-127110079D01*
X101340211Y-127530158D01*
X100710000Y-127530158D01*
X100710000Y-98393250D01*
X111545000Y-98393250D01*
X111545000Y-98956542D01*
X111569403Y-99079223D01*
X111617270Y-99194785D01*
X111686763Y-99298789D01*
X111775211Y-99387237D01*
X111879215Y-99456730D01*
X111994777Y-99504597D01*
X112117458Y-99529000D01*
X112680750Y-99529000D01*
X112839500Y-99370250D01*
X112839500Y-98234500D01*
X113220500Y-98234500D01*
X113220500Y-99370250D01*
X113379250Y-99529000D01*
X113942542Y-99529000D01*
X114065223Y-99504597D01*
X114180785Y-99456730D01*
X114284789Y-99387237D01*
X114373237Y-99298789D01*
X114442730Y-99194785D01*
X114490597Y-99079223D01*
X114515000Y-98956542D01*
X114515000Y-98393250D01*
X114356250Y-98234500D01*
X113220500Y-98234500D01*
X112839500Y-98234500D01*
X111703750Y-98234500D01*
X111545000Y-98393250D01*
X100710000Y-98393250D01*
X100710000Y-90520107D01*
X106297498Y-90520107D01*
X106337962Y-90740578D01*
X106420479Y-90948991D01*
X106541905Y-91137407D01*
X106697615Y-91298650D01*
X106881679Y-91426577D01*
X107087085Y-91516317D01*
X107306009Y-91564451D01*
X107530114Y-91569145D01*
X107750862Y-91530221D01*
X107959846Y-91449162D01*
X108149106Y-91329054D01*
X108232646Y-91249500D01*
X108879757Y-91249500D01*
X108927900Y-91322559D01*
X109064550Y-91439025D01*
X109228237Y-91512810D01*
X109406000Y-91538072D01*
X111906000Y-91538072D01*
X112007121Y-91530008D01*
X112178634Y-91476894D01*
X112185915Y-91472096D01*
X112276237Y-91512810D01*
X112454000Y-91538072D01*
X114954000Y-91538072D01*
X115055121Y-91530008D01*
X115226634Y-91476894D01*
X115376559Y-91378100D01*
X115493025Y-91241450D01*
X115566810Y-91077763D01*
X115592072Y-90900000D01*
X115592072Y-90000000D01*
X115584008Y-89898879D01*
X115530894Y-89727366D01*
X115529664Y-89725500D01*
X120054066Y-89725500D01*
X122618500Y-92289934D01*
X122618500Y-94262928D01*
X122301000Y-94262928D01*
X122301000Y-93396483D01*
X122377215Y-93323904D01*
X122482911Y-93174070D01*
X122557492Y-93006560D01*
X122598116Y-92827754D01*
X122601040Y-92618319D01*
X122565425Y-92438448D01*
X122495550Y-92268920D01*
X122394079Y-92116193D01*
X122264875Y-91986084D01*
X122112860Y-91883549D01*
X121943825Y-91812493D01*
X121764207Y-91775623D01*
X121580849Y-91774343D01*
X121400733Y-91808701D01*
X121230722Y-91877390D01*
X121077291Y-91977793D01*
X120946283Y-92106086D01*
X120842689Y-92257381D01*
X120770454Y-92425916D01*
X120732331Y-92605272D01*
X120729771Y-92788617D01*
X120762872Y-92968968D01*
X120777000Y-93004651D01*
X120777000Y-94262928D01*
X120289000Y-94262928D01*
X120187879Y-94270992D01*
X120016366Y-94324106D01*
X119866441Y-94422900D01*
X119827097Y-94469063D01*
X119701450Y-94361975D01*
X119537763Y-94288190D01*
X119360000Y-94262928D01*
X116860000Y-94262928D01*
X116758879Y-94270992D01*
X116587366Y-94324106D01*
X116437441Y-94422900D01*
X116320975Y-94559550D01*
X116247190Y-94723237D01*
X116221928Y-94901000D01*
X116221928Y-95843126D01*
X115345401Y-94966599D01*
X115291145Y-94922032D01*
X115237375Y-94876914D01*
X115233874Y-94874989D01*
X115230785Y-94872452D01*
X115168933Y-94839287D01*
X115107396Y-94805457D01*
X115103584Y-94804248D01*
X115100065Y-94802361D01*
X115032969Y-94781848D01*
X114966013Y-94760608D01*
X114962041Y-94760162D01*
X114958219Y-94758994D01*
X114888351Y-94751897D01*
X114818611Y-94744074D01*
X114810806Y-94744020D01*
X114810653Y-94744004D01*
X114810510Y-94744018D01*
X114808000Y-94744000D01*
X114307556Y-94744000D01*
X114279780Y-94690869D01*
X114098177Y-94465000D01*
X113876161Y-94278706D01*
X113622189Y-94139084D01*
X113345934Y-94051451D01*
X113057919Y-94019145D01*
X113037185Y-94019000D01*
X113022815Y-94019000D01*
X112734377Y-94047282D01*
X112456925Y-94131049D01*
X112201029Y-94267112D01*
X111976433Y-94450287D01*
X111791694Y-94673599D01*
X111653848Y-94928539D01*
X111568146Y-95205399D01*
X111537851Y-95493633D01*
X111564118Y-95782261D01*
X111645947Y-96060291D01*
X111780220Y-96317131D01*
X111961823Y-96543000D01*
X112007061Y-96580959D01*
X111994777Y-96583403D01*
X111879215Y-96631270D01*
X111775211Y-96700763D01*
X111686763Y-96789211D01*
X111617270Y-96893215D01*
X111569403Y-97008777D01*
X111545000Y-97131458D01*
X111545000Y-97694750D01*
X111703750Y-97853500D01*
X112839500Y-97853500D01*
X112839500Y-97833500D01*
X113220500Y-97833500D01*
X113220500Y-97853500D01*
X114356250Y-97853500D01*
X114515000Y-97694750D01*
X114515000Y-97131458D01*
X114490597Y-97008777D01*
X114442730Y-96893215D01*
X114373237Y-96789211D01*
X114284789Y-96700763D01*
X114180785Y-96631270D01*
X114065223Y-96583403D01*
X114054647Y-96581299D01*
X114083567Y-96557713D01*
X114268306Y-96334401D01*
X114306372Y-96264000D01*
X114493198Y-96264000D01*
X115540599Y-97311401D01*
X115594855Y-97355968D01*
X115648625Y-97401086D01*
X115652126Y-97403011D01*
X115655215Y-97405548D01*
X115717067Y-97438713D01*
X115778604Y-97472543D01*
X115782416Y-97473752D01*
X115785935Y-97475639D01*
X115853031Y-97496152D01*
X115919987Y-97517392D01*
X115923959Y-97517838D01*
X115927781Y-97519006D01*
X115997605Y-97526098D01*
X116067389Y-97533926D01*
X116075204Y-97533981D01*
X116075347Y-97533995D01*
X116075480Y-97533982D01*
X116078000Y-97534000D01*
X116342751Y-97534000D01*
X116320975Y-97559550D01*
X116247190Y-97723237D01*
X116221928Y-97901000D01*
X116221928Y-98901000D01*
X116229992Y-99002121D01*
X116283106Y-99173634D01*
X116381900Y-99323559D01*
X116518550Y-99440025D01*
X116682237Y-99513810D01*
X116860000Y-99539072D01*
X119360000Y-99539072D01*
X119461121Y-99531008D01*
X119632634Y-99477894D01*
X119782559Y-99379100D01*
X119821903Y-99332937D01*
X119947550Y-99440025D01*
X120111237Y-99513810D01*
X120289000Y-99539072D01*
X122789000Y-99539072D01*
X122890121Y-99531008D01*
X123061634Y-99477894D01*
X123211559Y-99379100D01*
X123328025Y-99242450D01*
X123401810Y-99078763D01*
X123427072Y-98901000D01*
X123427072Y-97901000D01*
X123419008Y-97799879D01*
X123365894Y-97628366D01*
X123267100Y-97478441D01*
X123130450Y-97361975D01*
X122966763Y-97288190D01*
X122789000Y-97262928D01*
X120289000Y-97262928D01*
X120187879Y-97270992D01*
X120016366Y-97324106D01*
X119866441Y-97422900D01*
X119827097Y-97469063D01*
X119701450Y-97361975D01*
X119537763Y-97288190D01*
X119360000Y-97262928D01*
X118657066Y-97262928D01*
X118654852Y-97260154D01*
X118649369Y-97254594D01*
X118649274Y-97254478D01*
X118649166Y-97254389D01*
X118647401Y-97252599D01*
X117933874Y-96539072D01*
X119360000Y-96539072D01*
X119461121Y-96531008D01*
X119632634Y-96477894D01*
X119782559Y-96379100D01*
X119821903Y-96332937D01*
X119947550Y-96440025D01*
X120111237Y-96513810D01*
X120289000Y-96539072D01*
X122789000Y-96539072D01*
X122890121Y-96531008D01*
X123061634Y-96477894D01*
X123211559Y-96379100D01*
X123328025Y-96242450D01*
X123401810Y-96078763D01*
X123427072Y-95901000D01*
X123427072Y-95892506D01*
X124892283Y-97357717D01*
X124951226Y-97406133D01*
X125009620Y-97455131D01*
X125013425Y-97457223D01*
X125016778Y-97459977D01*
X125084012Y-97496028D01*
X125150801Y-97532746D01*
X125154933Y-97534057D01*
X125158764Y-97536111D01*
X125231741Y-97558422D01*
X125304369Y-97581461D01*
X125308683Y-97581945D01*
X125312834Y-97583214D01*
X125388716Y-97590922D01*
X125464474Y-97599420D01*
X125472950Y-97599479D01*
X125473119Y-97599496D01*
X125473277Y-97599481D01*
X125476000Y-97599500D01*
X130302000Y-97599500D01*
X130377858Y-97592062D01*
X130453852Y-97585413D01*
X130458023Y-97584201D01*
X130462340Y-97583778D01*
X130535334Y-97561740D01*
X130608564Y-97540465D01*
X130612416Y-97538468D01*
X130616574Y-97537213D01*
X130683884Y-97501423D01*
X130751600Y-97466323D01*
X130754996Y-97463612D01*
X130758825Y-97461576D01*
X130817892Y-97413403D01*
X130877510Y-97365810D01*
X130883551Y-97359853D01*
X130883676Y-97359751D01*
X130883772Y-97359635D01*
X130885717Y-97357717D01*
X131114338Y-97129096D01*
X131217076Y-97235484D01*
X131367644Y-97340131D01*
X131535671Y-97413540D01*
X131714757Y-97452915D01*
X131898079Y-97456755D01*
X132078657Y-97424914D01*
X132249610Y-97358606D01*
X132285074Y-97336100D01*
X132318211Y-97369237D01*
X132422215Y-97438730D01*
X132537777Y-97486597D01*
X132660458Y-97511000D01*
X133098750Y-97511000D01*
X133257500Y-97352250D01*
X133257500Y-96864072D01*
X133638500Y-96864072D01*
X133638500Y-97352250D01*
X133797250Y-97511000D01*
X133860000Y-97511000D01*
X133860000Y-117287198D01*
X132654198Y-118493000D01*
X131960556Y-118493000D01*
X131932780Y-118439869D01*
X131751177Y-118214000D01*
X131529161Y-118027706D01*
X131448753Y-117983502D01*
X131511971Y-117949888D01*
X131736567Y-117766713D01*
X131921306Y-117543401D01*
X132059152Y-117288461D01*
X132144854Y-117011601D01*
X132175149Y-116723367D01*
X132148882Y-116434739D01*
X132067053Y-116156709D01*
X131932780Y-115899869D01*
X131751177Y-115674000D01*
X131701349Y-115632189D01*
X131805634Y-115599894D01*
X131955559Y-115501100D01*
X132072025Y-115364450D01*
X132145810Y-115200763D01*
X132171072Y-115023000D01*
X132171072Y-113323000D01*
X132163008Y-113221879D01*
X132109894Y-113050366D01*
X132011100Y-112900441D01*
X131874450Y-112783975D01*
X131710763Y-112710190D01*
X131533000Y-112684928D01*
X130238500Y-112684928D01*
X130238500Y-110507320D01*
X130264458Y-110517805D01*
X130492500Y-110406988D01*
X130492500Y-109283500D01*
X130873500Y-109283500D01*
X130873500Y-110406988D01*
X131101542Y-110517805D01*
X131371465Y-110408774D01*
X131614931Y-110249179D01*
X131822584Y-110045153D01*
X131986443Y-109804536D01*
X132100211Y-109536575D01*
X132107797Y-109511540D01*
X131995497Y-109283500D01*
X130873500Y-109283500D01*
X130492500Y-109283500D01*
X130472500Y-109283500D01*
X130472500Y-108902500D01*
X130492500Y-108902500D01*
X130492500Y-108882500D01*
X130873500Y-108882500D01*
X130873500Y-108902500D01*
X131995497Y-108902500D01*
X132107797Y-108674460D01*
X132100211Y-108649425D01*
X131986443Y-108381464D01*
X131822584Y-108140847D01*
X131614931Y-107936821D01*
X131445057Y-107825467D01*
X131511971Y-107789888D01*
X131736567Y-107606713D01*
X131921306Y-107383401D01*
X132059152Y-107128461D01*
X132144854Y-106851601D01*
X132175149Y-106563367D01*
X132148882Y-106274739D01*
X132067053Y-105996709D01*
X131932780Y-105739869D01*
X131751177Y-105514000D01*
X131701349Y-105472189D01*
X131805634Y-105439894D01*
X131955559Y-105341100D01*
X132072025Y-105204450D01*
X132145810Y-105040763D01*
X132171072Y-104863000D01*
X132171072Y-103163000D01*
X132163008Y-103061879D01*
X132109894Y-102890366D01*
X132011100Y-102740441D01*
X131874450Y-102623975D01*
X131710763Y-102550190D01*
X131533000Y-102524928D01*
X129833000Y-102524928D01*
X129731879Y-102532992D01*
X129560366Y-102586106D01*
X129410441Y-102684900D01*
X129408544Y-102687125D01*
X129334450Y-102623975D01*
X129170763Y-102550190D01*
X128993000Y-102524928D01*
X127293000Y-102524928D01*
X127191879Y-102532992D01*
X127020366Y-102586106D01*
X126870441Y-102684900D01*
X126868544Y-102687125D01*
X126794450Y-102623975D01*
X126630763Y-102550190D01*
X126453000Y-102524928D01*
X124753000Y-102524928D01*
X124651879Y-102532992D01*
X124480366Y-102586106D01*
X124330441Y-102684900D01*
X124328544Y-102687125D01*
X124254450Y-102623975D01*
X124090763Y-102550190D01*
X123913000Y-102524928D01*
X122213000Y-102524928D01*
X122111879Y-102532992D01*
X121940366Y-102586106D01*
X121790441Y-102684900D01*
X121788544Y-102687125D01*
X121714450Y-102623975D01*
X121550763Y-102550190D01*
X121373000Y-102524928D01*
X119673000Y-102524928D01*
X119571879Y-102532992D01*
X119400366Y-102586106D01*
X119250441Y-102684900D01*
X119248544Y-102687125D01*
X119174450Y-102623975D01*
X119010763Y-102550190D01*
X118833000Y-102524928D01*
X117133000Y-102524928D01*
X117031879Y-102532992D01*
X116860366Y-102586106D01*
X116710441Y-102684900D01*
X116708544Y-102687125D01*
X116634450Y-102623975D01*
X116470763Y-102550190D01*
X116293000Y-102524928D01*
X114593000Y-102524928D01*
X114491879Y-102532992D01*
X114320366Y-102586106D01*
X114170441Y-102684900D01*
X114168544Y-102687125D01*
X114094450Y-102623975D01*
X113930763Y-102550190D01*
X113753000Y-102524928D01*
X112053000Y-102524928D01*
X111951879Y-102532992D01*
X111780366Y-102586106D01*
X111630441Y-102684900D01*
X111513975Y-102821550D01*
X111440190Y-102985237D01*
X111414928Y-103163000D01*
X111414928Y-104863000D01*
X111422992Y-104964121D01*
X111476106Y-105135634D01*
X111574900Y-105285559D01*
X111711550Y-105402025D01*
X111875237Y-105475810D01*
X111877776Y-105476171D01*
X111849433Y-105499287D01*
X111664694Y-105722599D01*
X111526848Y-105977539D01*
X111441146Y-106254399D01*
X111410851Y-106542633D01*
X111437118Y-106831261D01*
X111470587Y-106944979D01*
X110795283Y-107620283D01*
X110746867Y-107679226D01*
X110697869Y-107737620D01*
X110695777Y-107741425D01*
X110693023Y-107744778D01*
X110656991Y-107811977D01*
X110620254Y-107878801D01*
X110618942Y-107882937D01*
X110616890Y-107886764D01*
X110594593Y-107959695D01*
X110571539Y-108032369D01*
X110571055Y-108036683D01*
X110569786Y-108040834D01*
X110562078Y-108116716D01*
X110553580Y-108192474D01*
X110553521Y-108200950D01*
X110553504Y-108201119D01*
X110553519Y-108201277D01*
X110553500Y-108204000D01*
X110553500Y-115189000D01*
X110560938Y-115264858D01*
X110567587Y-115340852D01*
X110568799Y-115345023D01*
X110569222Y-115349340D01*
X110591260Y-115422334D01*
X110612535Y-115495564D01*
X110614532Y-115499416D01*
X110615787Y-115503574D01*
X110651577Y-115570884D01*
X110686677Y-115638600D01*
X110689388Y-115641996D01*
X110691424Y-115645825D01*
X110739597Y-115704892D01*
X110787190Y-115764510D01*
X110793147Y-115770551D01*
X110793249Y-115770676D01*
X110793365Y-115770772D01*
X110795283Y-115772717D01*
X111440748Y-116418182D01*
X111410851Y-116702633D01*
X111437118Y-116991261D01*
X111518947Y-117269291D01*
X111653220Y-117526131D01*
X111834823Y-117752000D01*
X112056839Y-117938294D01*
X112137247Y-117982498D01*
X112074029Y-118016112D01*
X111849433Y-118199287D01*
X111664694Y-118422599D01*
X111526848Y-118677539D01*
X111441146Y-118954399D01*
X111410851Y-119242633D01*
X111437118Y-119531261D01*
X111518947Y-119809291D01*
X111653220Y-120066131D01*
X111834823Y-120292000D01*
X112056839Y-120478294D01*
X112310811Y-120617916D01*
X112587066Y-120705549D01*
X112875081Y-120737855D01*
X112895815Y-120738000D01*
X112910185Y-120738000D01*
X113198623Y-120709718D01*
X113264905Y-120689707D01*
X116937599Y-124362401D01*
X116991855Y-124406968D01*
X117045625Y-124452086D01*
X117049126Y-124454011D01*
X117052215Y-124456548D01*
X117114067Y-124489713D01*
X117175604Y-124523543D01*
X117179416Y-124524752D01*
X117182935Y-124526639D01*
X117250031Y-124547152D01*
X117316987Y-124568392D01*
X117320959Y-124568838D01*
X117324781Y-124570006D01*
X117394605Y-124577098D01*
X117464389Y-124584926D01*
X117472204Y-124584981D01*
X117472347Y-124584995D01*
X117472480Y-124584982D01*
X117475000Y-124585000D01*
X133731000Y-124585000D01*
X133800877Y-124578149D01*
X133870803Y-124572031D01*
X133874641Y-124570916D01*
X133878618Y-124570526D01*
X133945821Y-124550236D01*
X134013240Y-124530649D01*
X134016788Y-124528810D01*
X134020613Y-124527655D01*
X134082591Y-124494701D01*
X134144925Y-124462390D01*
X134148048Y-124459897D01*
X134151578Y-124458020D01*
X134205987Y-124413645D01*
X134260846Y-124369852D01*
X134266406Y-124364369D01*
X134266522Y-124364274D01*
X134266611Y-124364166D01*
X134268401Y-124362401D01*
X138713401Y-119917401D01*
X138757968Y-119863145D01*
X138803086Y-119809375D01*
X138805011Y-119805874D01*
X138807548Y-119802785D01*
X138840713Y-119740933D01*
X138874543Y-119679396D01*
X138875752Y-119675584D01*
X138877639Y-119672065D01*
X138898152Y-119604969D01*
X138919392Y-119538013D01*
X138919838Y-119534041D01*
X138921006Y-119530219D01*
X138928103Y-119460351D01*
X138935926Y-119390611D01*
X138935980Y-119382806D01*
X138935996Y-119382653D01*
X138935982Y-119382510D01*
X138936000Y-119380000D01*
X138936000Y-102346000D01*
X142891928Y-102346000D01*
X142891928Y-103346000D01*
X142899992Y-103447121D01*
X142953106Y-103618634D01*
X143051900Y-103768559D01*
X143188550Y-103885025D01*
X143352237Y-103958810D01*
X143530000Y-103984072D01*
X144018000Y-103984072D01*
X144018000Y-104359839D01*
X143956689Y-104449381D01*
X143884454Y-104617916D01*
X143846331Y-104797272D01*
X143843771Y-104980617D01*
X143876872Y-105160968D01*
X143944372Y-105331454D01*
X144043701Y-105485583D01*
X144171076Y-105617484D01*
X144321644Y-105722131D01*
X144489671Y-105795540D01*
X144668757Y-105834915D01*
X144852079Y-105838755D01*
X145032657Y-105806914D01*
X145203610Y-105740606D01*
X145358429Y-105642355D01*
X145491215Y-105515904D01*
X145596911Y-105366070D01*
X145671492Y-105198560D01*
X145712116Y-105019754D01*
X145715040Y-104810319D01*
X145679425Y-104630448D01*
X145609550Y-104460920D01*
X145542000Y-104359248D01*
X145542000Y-103984072D01*
X146030000Y-103984072D01*
X146131121Y-103976008D01*
X146302634Y-103922894D01*
X146452559Y-103824100D01*
X146569025Y-103687450D01*
X146642810Y-103523763D01*
X146668072Y-103346000D01*
X146668072Y-102346000D01*
X146660008Y-102244879D01*
X146606894Y-102073366D01*
X146508100Y-101923441D01*
X146371450Y-101806975D01*
X146207763Y-101733190D01*
X146030000Y-101707928D01*
X143530000Y-101707928D01*
X143428879Y-101715992D01*
X143257366Y-101769106D01*
X143107441Y-101867900D01*
X142990975Y-102004550D01*
X142917190Y-102168237D01*
X142891928Y-102346000D01*
X138936000Y-102346000D01*
X138936000Y-97514072D01*
X140073000Y-97514072D01*
X140174121Y-97506008D01*
X140345634Y-97452894D01*
X140495559Y-97354100D01*
X140612025Y-97217450D01*
X140685810Y-97053763D01*
X140711072Y-96876000D01*
X140711072Y-96426000D01*
X140703008Y-96324879D01*
X140698904Y-96311626D01*
X140711072Y-96226000D01*
X140711072Y-95776000D01*
X140703008Y-95674879D01*
X140698904Y-95661626D01*
X140711072Y-95576000D01*
X140711072Y-95126000D01*
X140703008Y-95024879D01*
X140698904Y-95011626D01*
X140711072Y-94926000D01*
X140711072Y-94476000D01*
X140703008Y-94374879D01*
X140698904Y-94361626D01*
X140711072Y-94276000D01*
X140711072Y-93826000D01*
X140703008Y-93724879D01*
X140698904Y-93711626D01*
X140711072Y-93626000D01*
X140711072Y-93176000D01*
X140703008Y-93074879D01*
X140698904Y-93061626D01*
X140711072Y-92976000D01*
X140711072Y-92526000D01*
X140703008Y-92424879D01*
X140698904Y-92411626D01*
X140711072Y-92326000D01*
X140711072Y-91876000D01*
X140703008Y-91774879D01*
X140698904Y-91761626D01*
X140711072Y-91676000D01*
X140711072Y-91563000D01*
X141285370Y-91563000D01*
X142971185Y-93248816D01*
X143025629Y-93293537D01*
X143079495Y-93338736D01*
X143083003Y-93340664D01*
X143086103Y-93343211D01*
X143148185Y-93376499D01*
X143209816Y-93410381D01*
X143213634Y-93411592D01*
X143217168Y-93413487D01*
X143284537Y-93434084D01*
X143351571Y-93455348D01*
X143355549Y-93455794D01*
X143359385Y-93456967D01*
X143429422Y-93464081D01*
X143499361Y-93471926D01*
X143507197Y-93471981D01*
X143507340Y-93471995D01*
X143507473Y-93471982D01*
X143510000Y-93472000D01*
X148583489Y-93472000D01*
X148610220Y-93523131D01*
X148791823Y-93749000D01*
X149013839Y-93935294D01*
X149094247Y-93979498D01*
X149031029Y-94013112D01*
X148806433Y-94196287D01*
X148621694Y-94419599D01*
X148483848Y-94674539D01*
X148398146Y-94951399D01*
X148367851Y-95239633D01*
X148394118Y-95528261D01*
X148475947Y-95806291D01*
X148610220Y-96063131D01*
X148791823Y-96289000D01*
X149013839Y-96475294D01*
X149098000Y-96521562D01*
X149098000Y-97474370D01*
X147488370Y-99084000D01*
X146610187Y-99084000D01*
X146606894Y-99073366D01*
X146508100Y-98923441D01*
X146371450Y-98806975D01*
X146207763Y-98733190D01*
X146030000Y-98707928D01*
X143530000Y-98707928D01*
X143428879Y-98715992D01*
X143257366Y-98769106D01*
X143107441Y-98867900D01*
X142990975Y-99004550D01*
X142917190Y-99168237D01*
X142891928Y-99346000D01*
X142891928Y-100346000D01*
X142899992Y-100447121D01*
X142953106Y-100618634D01*
X143051900Y-100768559D01*
X143188550Y-100885025D01*
X143352237Y-100958810D01*
X143530000Y-100984072D01*
X146030000Y-100984072D01*
X146131121Y-100976008D01*
X146302634Y-100922894D01*
X146452559Y-100824100D01*
X146569025Y-100687450D01*
X146604839Y-100608000D01*
X147804000Y-100608000D01*
X147874114Y-100601125D01*
X147944170Y-100594996D01*
X147948013Y-100593880D01*
X147952007Y-100593488D01*
X148019460Y-100573123D01*
X148086982Y-100553506D01*
X148090538Y-100551663D01*
X148094376Y-100550504D01*
X148156553Y-100517444D01*
X148219014Y-100485067D01*
X148222144Y-100482568D01*
X148225684Y-100480686D01*
X148280231Y-100436199D01*
X148335240Y-100392286D01*
X148340815Y-100386788D01*
X148340931Y-100386693D01*
X148341020Y-100386585D01*
X148342815Y-100384815D01*
X150398815Y-98328815D01*
X150443512Y-98274401D01*
X150488736Y-98220505D01*
X150490664Y-98216997D01*
X150493211Y-98213897D01*
X150526490Y-98151831D01*
X150560381Y-98090184D01*
X150561593Y-98086364D01*
X150563486Y-98082833D01*
X150584061Y-98015536D01*
X150605348Y-97948429D01*
X150605795Y-97944446D01*
X150606966Y-97940615D01*
X150614075Y-97870627D01*
X150621926Y-97800639D01*
X150621981Y-97792803D01*
X150621995Y-97792660D01*
X150621982Y-97792527D01*
X150622000Y-97790000D01*
X150622000Y-96522497D01*
X150688971Y-96486888D01*
X150913567Y-96303713D01*
X151098306Y-96080401D01*
X151129290Y-96023097D01*
X151150220Y-96063131D01*
X151331823Y-96289000D01*
X151384000Y-96332782D01*
X151384000Y-96705648D01*
X151346433Y-96736287D01*
X151161694Y-96959599D01*
X151023848Y-97214539D01*
X150938146Y-97491399D01*
X150907851Y-97779633D01*
X150934118Y-98068261D01*
X151015947Y-98346291D01*
X151150220Y-98603131D01*
X151331823Y-98829000D01*
X151553839Y-99015294D01*
X151807811Y-99154916D01*
X152084066Y-99242549D01*
X152372081Y-99274855D01*
X152392815Y-99275000D01*
X152407185Y-99275000D01*
X152695623Y-99246718D01*
X152973075Y-99162951D01*
X153228971Y-99026888D01*
X153453567Y-98843713D01*
X153638306Y-98620401D01*
X153776152Y-98365461D01*
X153861854Y-98088601D01*
X153892149Y-97800367D01*
X153865882Y-97511739D01*
X153784053Y-97233709D01*
X153649780Y-96976869D01*
X153468177Y-96751000D01*
X153416000Y-96707218D01*
X153416000Y-96334352D01*
X153453567Y-96303713D01*
X153638306Y-96080401D01*
X153776152Y-95825461D01*
X153861854Y-95548601D01*
X153892149Y-95260367D01*
X153865882Y-94971739D01*
X153784053Y-94693709D01*
X153649780Y-94436869D01*
X153468177Y-94211000D01*
X153246161Y-94024706D01*
X153165753Y-93980502D01*
X153228971Y-93946888D01*
X153453567Y-93763713D01*
X153638306Y-93540401D01*
X153675290Y-93472000D01*
X153924000Y-93472000D01*
X153994114Y-93465125D01*
X154064170Y-93458996D01*
X154068013Y-93457880D01*
X154072007Y-93457488D01*
X154139460Y-93437123D01*
X154206982Y-93417506D01*
X154210538Y-93415663D01*
X154214376Y-93414504D01*
X154276553Y-93381444D01*
X154339014Y-93349067D01*
X154342144Y-93346568D01*
X154345684Y-93344686D01*
X154400231Y-93300199D01*
X154455240Y-93256286D01*
X154460815Y-93250788D01*
X154460931Y-93250693D01*
X154461020Y-93250585D01*
X154462815Y-93248815D01*
X155224816Y-92486815D01*
X155269537Y-92432371D01*
X155314736Y-92378505D01*
X155316664Y-92374997D01*
X155319211Y-92371897D01*
X155352509Y-92309796D01*
X155386381Y-92248184D01*
X155387591Y-92244368D01*
X155389487Y-92240833D01*
X155410088Y-92173449D01*
X155431348Y-92106429D01*
X155431794Y-92102451D01*
X155432967Y-92098615D01*
X155440081Y-92028578D01*
X155447926Y-91958639D01*
X155447981Y-91950803D01*
X155447995Y-91950660D01*
X155447982Y-91950527D01*
X155448000Y-91948000D01*
X155448000Y-88646000D01*
X155441130Y-88575936D01*
X155434997Y-88505830D01*
X155433879Y-88501982D01*
X155433488Y-88497993D01*
X155413135Y-88430582D01*
X155393506Y-88363018D01*
X155391663Y-88359462D01*
X155390504Y-88355624D01*
X155357444Y-88293447D01*
X155325067Y-88230986D01*
X155322568Y-88227856D01*
X155320686Y-88224316D01*
X155276199Y-88169769D01*
X155232286Y-88114760D01*
X155226784Y-88109181D01*
X155226693Y-88109069D01*
X155226589Y-88108983D01*
X155224816Y-88107185D01*
X154462815Y-87345185D01*
X154408401Y-87300488D01*
X154354505Y-87255264D01*
X154350997Y-87253336D01*
X154347897Y-87250789D01*
X154285831Y-87217510D01*
X154224184Y-87183619D01*
X154220364Y-87182407D01*
X154216833Y-87180514D01*
X154149536Y-87159939D01*
X154082429Y-87138652D01*
X154078446Y-87138205D01*
X154074615Y-87137034D01*
X154004627Y-87129925D01*
X153934639Y-87122074D01*
X153926803Y-87122019D01*
X153926660Y-87122005D01*
X153926527Y-87122018D01*
X153924000Y-87122000D01*
X135382000Y-87122000D01*
X135311891Y-87128874D01*
X135241829Y-87135004D01*
X135237986Y-87136120D01*
X135233993Y-87136512D01*
X135166552Y-87156874D01*
X135099018Y-87176494D01*
X135095462Y-87178337D01*
X135091624Y-87179496D01*
X135029447Y-87212556D01*
X134966986Y-87244933D01*
X134963856Y-87247432D01*
X134960316Y-87249314D01*
X134905769Y-87293801D01*
X134850760Y-87337714D01*
X134845185Y-87343212D01*
X134845069Y-87343307D01*
X134844980Y-87343415D01*
X134843185Y-87345185D01*
X132909185Y-89279185D01*
X132864488Y-89333599D01*
X132819264Y-89387495D01*
X132817336Y-89391003D01*
X132814789Y-89394103D01*
X132781510Y-89456169D01*
X132747619Y-89517816D01*
X132746407Y-89521636D01*
X132744514Y-89525167D01*
X132723939Y-89592464D01*
X132702652Y-89659571D01*
X132702205Y-89663554D01*
X132701034Y-89667385D01*
X132693925Y-89737373D01*
X132686074Y-89807361D01*
X132686019Y-89815197D01*
X132686005Y-89815340D01*
X132686018Y-89815473D01*
X132686000Y-89818000D01*
X132686000Y-89940879D01*
X132621879Y-89945992D01*
X132450366Y-89999106D01*
X132389825Y-90039000D01*
X132264631Y-90039000D01*
X130078815Y-87853185D01*
X130024401Y-87808488D01*
X129970505Y-87763264D01*
X129966997Y-87761336D01*
X129963897Y-87758789D01*
X129901831Y-87725510D01*
X129840184Y-87691619D01*
X129836364Y-87690407D01*
X129832833Y-87688514D01*
X129765536Y-87667939D01*
X129698429Y-87646652D01*
X129694446Y-87646205D01*
X129690615Y-87645034D01*
X129620627Y-87637925D01*
X129550639Y-87630074D01*
X129542803Y-87630019D01*
X129542660Y-87630005D01*
X129542527Y-87630018D01*
X129540000Y-87630000D01*
X125984000Y-87630000D01*
X125913936Y-87636870D01*
X125843830Y-87643003D01*
X125839982Y-87644121D01*
X125835993Y-87644512D01*
X125768582Y-87664865D01*
X125701018Y-87684494D01*
X125697462Y-87686337D01*
X125693624Y-87687496D01*
X125631447Y-87720556D01*
X125568986Y-87752933D01*
X125565856Y-87755432D01*
X125562316Y-87757314D01*
X125507769Y-87801801D01*
X125452760Y-87845714D01*
X125447185Y-87851212D01*
X125447069Y-87851307D01*
X125446980Y-87851415D01*
X125445185Y-87853185D01*
X124812633Y-88485737D01*
X124702733Y-88506701D01*
X124532722Y-88575390D01*
X124379291Y-88675793D01*
X124248283Y-88804086D01*
X124144689Y-88955381D01*
X124072454Y-89123916D01*
X124034331Y-89303272D01*
X124031771Y-89486617D01*
X124064872Y-89666968D01*
X124132372Y-89837454D01*
X124231701Y-89991583D01*
X124359076Y-90123484D01*
X124509644Y-90228131D01*
X124677671Y-90301540D01*
X124856757Y-90340915D01*
X125040079Y-90344755D01*
X125220657Y-90312914D01*
X125391610Y-90246606D01*
X125546429Y-90148355D01*
X125679215Y-90021904D01*
X125784911Y-89872070D01*
X125859492Y-89704560D01*
X125891955Y-89561675D01*
X126299630Y-89154000D01*
X129224370Y-89154000D01*
X131410184Y-91339815D01*
X131464597Y-91384510D01*
X131518495Y-91429736D01*
X131522006Y-91431666D01*
X131525103Y-91434210D01*
X131587130Y-91467469D01*
X131648816Y-91501381D01*
X131652636Y-91502593D01*
X131656167Y-91504486D01*
X131723464Y-91525061D01*
X131790571Y-91546348D01*
X131794554Y-91546795D01*
X131798385Y-91547966D01*
X131868373Y-91555075D01*
X131938361Y-91562926D01*
X131946197Y-91562981D01*
X131946340Y-91562995D01*
X131946473Y-91562982D01*
X131949000Y-91563000D01*
X132084928Y-91563000D01*
X132084928Y-91676000D01*
X132092992Y-91777121D01*
X132094353Y-91781517D01*
X132088000Y-91813458D01*
X132088000Y-91829750D01*
X132118841Y-91860591D01*
X132134296Y-91910498D01*
X132088000Y-91910498D01*
X132088000Y-91991000D01*
X130334458Y-91991000D01*
X130312894Y-91921366D01*
X130214100Y-91771441D01*
X130126503Y-91696783D01*
X130140789Y-91687237D01*
X130229237Y-91598789D01*
X130298730Y-91494785D01*
X130346597Y-91379223D01*
X130371000Y-91256542D01*
X130371000Y-91227750D01*
X130212250Y-91069000D01*
X129476500Y-91069000D01*
X129476500Y-91154500D01*
X129095500Y-91154500D01*
X129095500Y-91069000D01*
X128359750Y-91069000D01*
X128201000Y-91227750D01*
X128201000Y-91256542D01*
X128225403Y-91379223D01*
X128273270Y-91494785D01*
X128342763Y-91598789D01*
X128427974Y-91684000D01*
X127346500Y-91684000D01*
X127364559Y-91672100D01*
X127481025Y-91535450D01*
X127554810Y-91371763D01*
X127580072Y-91194000D01*
X127580072Y-90694000D01*
X127575085Y-90631458D01*
X128201000Y-90631458D01*
X128201000Y-90660250D01*
X128359750Y-90819000D01*
X129095500Y-90819000D01*
X129095500Y-90217750D01*
X129476500Y-90217750D01*
X129476500Y-90819000D01*
X130212250Y-90819000D01*
X130371000Y-90660250D01*
X130371000Y-90631458D01*
X130346597Y-90508777D01*
X130298730Y-90393215D01*
X130229237Y-90289211D01*
X130140789Y-90200763D01*
X130036785Y-90131270D01*
X129921223Y-90083403D01*
X129798542Y-90059000D01*
X129635250Y-90059000D01*
X129476500Y-90217750D01*
X129095500Y-90217750D01*
X128936750Y-90059000D01*
X128773458Y-90059000D01*
X128650777Y-90083403D01*
X128535215Y-90131270D01*
X128431211Y-90200763D01*
X128342763Y-90289211D01*
X128273270Y-90393215D01*
X128225403Y-90508777D01*
X128201000Y-90631458D01*
X127575085Y-90631458D01*
X127572008Y-90592879D01*
X127518894Y-90421366D01*
X127420100Y-90271441D01*
X127283450Y-90154975D01*
X127119763Y-90081190D01*
X126942000Y-90055928D01*
X126042000Y-90055928D01*
X125940879Y-90063992D01*
X125769366Y-90117106D01*
X125619441Y-90215900D01*
X125515906Y-90337378D01*
X125495791Y-90353783D01*
X125440760Y-90397714D01*
X125435185Y-90403212D01*
X125435069Y-90403307D01*
X125434980Y-90403415D01*
X125433185Y-90405185D01*
X124968425Y-90869945D01*
X124933412Y-90804095D01*
X124898323Y-90736401D01*
X124895613Y-90733007D01*
X124893576Y-90729175D01*
X124845410Y-90670117D01*
X124797811Y-90610490D01*
X124791855Y-90604452D01*
X124791751Y-90604324D01*
X124791632Y-90604226D01*
X124789717Y-90602284D01*
X121153717Y-86966283D01*
X121094774Y-86917867D01*
X121036380Y-86868869D01*
X121032575Y-86866777D01*
X121029222Y-86864023D01*
X120962023Y-86827991D01*
X120895199Y-86791254D01*
X120891063Y-86789942D01*
X120887236Y-86787890D01*
X120814305Y-86765593D01*
X120741631Y-86742539D01*
X120737317Y-86742055D01*
X120733166Y-86740786D01*
X120657284Y-86733078D01*
X120581526Y-86724580D01*
X120573050Y-86724521D01*
X120572881Y-86724504D01*
X120572723Y-86724519D01*
X120570000Y-86724500D01*
X115463110Y-86724500D01*
X115432100Y-86677441D01*
X115295450Y-86560975D01*
X115131763Y-86487190D01*
X114954000Y-86461928D01*
X114275500Y-86461928D01*
X114275500Y-85239835D01*
X114489000Y-85068177D01*
X114675294Y-84846161D01*
X114814916Y-84592189D01*
X114902549Y-84315934D01*
X114934855Y-84027919D01*
X114935000Y-84007185D01*
X114935000Y-83992815D01*
X114906718Y-83704377D01*
X114822951Y-83426925D01*
X114686888Y-83171029D01*
X114503713Y-82946433D01*
X114280401Y-82761694D01*
X114275500Y-82759044D01*
X114275500Y-81009835D01*
X114489000Y-80838177D01*
X114675294Y-80616161D01*
X114719498Y-80535753D01*
X114753112Y-80598971D01*
X114936287Y-80823567D01*
X115159599Y-81008306D01*
X115414539Y-81146152D01*
X115691399Y-81231854D01*
X115979633Y-81262149D01*
X116268261Y-81235882D01*
X116546291Y-81154053D01*
X116803131Y-81019780D01*
X117029000Y-80838177D01*
X117215294Y-80616161D01*
X117259498Y-80535753D01*
X117293112Y-80598971D01*
X117476287Y-80823567D01*
X117699599Y-81008306D01*
X117954539Y-81146152D01*
X118231399Y-81231854D01*
X118519633Y-81262149D01*
X118808261Y-81235882D01*
X119086291Y-81154053D01*
X119343131Y-81019780D01*
X119569000Y-80838177D01*
X119755294Y-80616161D01*
X119799498Y-80535753D01*
X119833112Y-80598971D01*
X120016287Y-80823567D01*
X120239599Y-81008306D01*
X120494539Y-81146152D01*
X120771399Y-81231854D01*
X121059633Y-81262149D01*
X121348261Y-81235882D01*
X121626291Y-81154053D01*
X121883131Y-81019780D01*
X122109000Y-80838177D01*
X122295294Y-80616161D01*
X122339498Y-80535753D01*
X122373112Y-80598971D01*
X122556287Y-80823567D01*
X122779599Y-81008306D01*
X123034539Y-81146152D01*
X123311399Y-81231854D01*
X123599633Y-81262149D01*
X123888261Y-81235882D01*
X124166291Y-81154053D01*
X124423131Y-81019780D01*
X124649000Y-80838177D01*
X124835294Y-80616161D01*
X124879498Y-80535753D01*
X124913112Y-80598971D01*
X125096287Y-80823567D01*
X125319599Y-81008306D01*
X125574539Y-81146152D01*
X125851399Y-81231854D01*
X126139633Y-81262149D01*
X126428261Y-81235882D01*
X126706291Y-81154053D01*
X126963131Y-81019780D01*
X127189000Y-80838177D01*
X127375294Y-80616161D01*
X127419498Y-80535753D01*
X127453112Y-80598971D01*
X127636287Y-80823567D01*
X127859599Y-81008306D01*
X128114539Y-81146152D01*
X128391399Y-81231854D01*
X128679633Y-81262149D01*
X128968261Y-81235882D01*
X129246291Y-81154053D01*
X129503131Y-81019780D01*
X129729000Y-80838177D01*
X129915294Y-80616161D01*
X129959498Y-80535753D01*
X129993112Y-80598971D01*
X130176287Y-80823567D01*
X130399599Y-81008306D01*
X130654539Y-81146152D01*
X130931399Y-81231854D01*
X131219633Y-81262149D01*
X131508261Y-81235882D01*
X131786291Y-81154053D01*
X132043131Y-81019780D01*
X132269000Y-80838177D01*
X132455294Y-80616161D01*
X132499498Y-80535753D01*
X132533112Y-80598971D01*
X132716287Y-80823567D01*
X132939599Y-81008306D01*
X133194539Y-81146152D01*
X133471399Y-81231854D01*
X133759633Y-81262149D01*
X134048261Y-81235882D01*
X134326291Y-81154053D01*
X134583131Y-81019780D01*
X134809000Y-80838177D01*
X134995294Y-80616161D01*
X135039498Y-80535753D01*
X135073112Y-80598971D01*
X135256287Y-80823567D01*
X135479599Y-81008306D01*
X135734539Y-81146152D01*
X136011399Y-81231854D01*
X136299633Y-81262149D01*
X136588261Y-81235882D01*
X136866291Y-81154053D01*
X137123131Y-81019780D01*
X137349000Y-80838177D01*
X137535294Y-80616161D01*
X137579498Y-80535753D01*
X137613112Y-80598971D01*
X137796287Y-80823567D01*
X138019599Y-81008306D01*
X138274539Y-81146152D01*
X138551399Y-81231854D01*
X138839633Y-81262149D01*
X139128261Y-81235882D01*
X139406291Y-81154053D01*
X139663131Y-81019780D01*
X139889000Y-80838177D01*
X140075294Y-80616161D01*
X140119498Y-80535753D01*
X140153112Y-80598971D01*
X140336287Y-80823567D01*
X140559599Y-81008306D01*
X140814539Y-81146152D01*
X141091399Y-81231854D01*
X141379633Y-81262149D01*
X141668261Y-81235882D01*
X141946291Y-81154053D01*
X142203131Y-81019780D01*
X142429000Y-80838177D01*
X142615294Y-80616161D01*
X142659498Y-80535753D01*
X142693112Y-80598971D01*
X142876287Y-80823567D01*
X143099599Y-81008306D01*
X143354539Y-81146152D01*
X143631399Y-81231854D01*
X143919633Y-81262149D01*
X144208261Y-81235882D01*
X144486291Y-81154053D01*
X144743131Y-81019780D01*
X144969000Y-80838177D01*
X145155294Y-80616161D01*
X145199498Y-80535753D01*
X145233112Y-80598971D01*
X145416287Y-80823567D01*
X145639599Y-81008306D01*
X145894539Y-81146152D01*
X146171399Y-81231854D01*
X146459633Y-81262149D01*
X146748261Y-81235882D01*
X147026291Y-81154053D01*
X147283131Y-81019780D01*
X147509000Y-80838177D01*
X147695294Y-80616161D01*
X147739498Y-80535753D01*
X147773112Y-80598971D01*
X147956287Y-80823567D01*
X148179599Y-81008306D01*
X148434539Y-81146152D01*
X148711399Y-81231854D01*
X148999633Y-81262149D01*
X149288261Y-81235882D01*
X149566291Y-81154053D01*
X149823131Y-81019780D01*
X150049000Y-80838177D01*
X150235294Y-80616161D01*
X150279498Y-80535753D01*
X150313112Y-80598971D01*
X150496287Y-80823567D01*
X150719599Y-81008306D01*
X150974539Y-81146152D01*
X151251399Y-81231854D01*
X151539633Y-81262149D01*
X151828261Y-81235882D01*
X152106291Y-81154053D01*
X152363131Y-81019780D01*
X152589000Y-80838177D01*
X152775294Y-80616161D01*
X152819498Y-80535753D01*
X152853112Y-80598971D01*
X153036287Y-80823567D01*
X153259599Y-81008306D01*
X153514539Y-81146152D01*
X153791399Y-81231854D01*
X154079633Y-81262149D01*
X154368261Y-81235882D01*
X154646291Y-81154053D01*
X154903131Y-81019780D01*
X155129000Y-80838177D01*
X155315294Y-80616161D01*
X155359498Y-80535753D01*
X155393112Y-80598971D01*
X155576287Y-80823567D01*
X155799599Y-81008306D01*
X156054539Y-81146152D01*
X156331399Y-81231854D01*
X156619633Y-81262149D01*
X156908261Y-81235882D01*
X157186291Y-81154053D01*
X157443131Y-81019780D01*
X157669000Y-80838177D01*
X157855294Y-80616161D01*
X157994916Y-80362189D01*
X158082549Y-80085934D01*
X158114855Y-79797919D01*
X158115000Y-79777185D01*
X158115000Y-79762815D01*
X158086718Y-79474377D01*
X158002951Y-79196925D01*
X157866888Y-78941029D01*
X157683713Y-78716433D01*
X157460401Y-78531694D01*
X157457561Y-78530158D01*
X159340211Y-78530158D01*
X159387201Y-78949089D01*
X159514668Y-79350915D01*
X159717755Y-79720329D01*
X159988727Y-80043261D01*
X160317263Y-80307411D01*
X160690850Y-80502717D01*
X161095256Y-80621740D01*
X161515080Y-80659947D01*
X161934328Y-80615883D01*
X162337034Y-80491224D01*
X162707857Y-80290721D01*
X163032673Y-80022010D01*
X163299110Y-79695326D01*
X163497019Y-79323112D01*
X163618863Y-78919546D01*
X163660000Y-78500000D01*
X163659158Y-78439689D01*
X163606323Y-78021455D01*
X163473258Y-77621449D01*
X163265033Y-77254906D01*
X162989578Y-76935789D01*
X162657386Y-76676252D01*
X162281109Y-76486181D01*
X161875080Y-76372815D01*
X161454764Y-76340474D01*
X161036172Y-76390388D01*
X160635246Y-76520657D01*
X160267259Y-76726318D01*
X159946226Y-76999538D01*
X159684376Y-77329910D01*
X159491683Y-77704851D01*
X159375486Y-78110079D01*
X159340211Y-78530158D01*
X157457561Y-78530158D01*
X157403097Y-78500710D01*
X157443131Y-78479780D01*
X157669000Y-78298177D01*
X157855294Y-78076161D01*
X157994916Y-77822189D01*
X158082549Y-77545934D01*
X158114855Y-77257919D01*
X158115000Y-77237185D01*
X158115000Y-77222815D01*
X158086718Y-76934377D01*
X158002951Y-76656925D01*
X157866888Y-76401029D01*
X157683713Y-76176433D01*
X157460401Y-75991694D01*
X157205461Y-75853848D01*
X156928601Y-75768146D01*
X156640367Y-75737851D01*
X156351739Y-75764118D01*
X156073709Y-75845947D01*
X155816869Y-75980220D01*
X155591000Y-76161823D01*
X155404706Y-76383839D01*
X155360502Y-76464247D01*
X155326888Y-76401029D01*
X155143713Y-76176433D01*
X154920401Y-75991694D01*
X154665461Y-75853848D01*
X154388601Y-75768146D01*
X154100367Y-75737851D01*
X153811739Y-75764118D01*
X153533709Y-75845947D01*
X153276869Y-75980220D01*
X153051000Y-76161823D01*
X152864706Y-76383839D01*
X152820502Y-76464247D01*
X152786888Y-76401029D01*
X152603713Y-76176433D01*
X152380401Y-75991694D01*
X152125461Y-75853848D01*
X151848601Y-75768146D01*
X151560367Y-75737851D01*
X151271739Y-75764118D01*
X150993709Y-75845947D01*
X150736869Y-75980220D01*
X150511000Y-76161823D01*
X150324706Y-76383839D01*
X150280502Y-76464247D01*
X150246888Y-76401029D01*
X150063713Y-76176433D01*
X149840401Y-75991694D01*
X149585461Y-75853848D01*
X149308601Y-75768146D01*
X149020367Y-75737851D01*
X148731739Y-75764118D01*
X148453709Y-75845947D01*
X148196869Y-75980220D01*
X147971000Y-76161823D01*
X147784706Y-76383839D01*
X147740502Y-76464247D01*
X147706888Y-76401029D01*
X147523713Y-76176433D01*
X147300401Y-75991694D01*
X147045461Y-75853848D01*
X146768601Y-75768146D01*
X146480367Y-75737851D01*
X146191739Y-75764118D01*
X145913709Y-75845947D01*
X145656869Y-75980220D01*
X145431000Y-76161823D01*
X145244706Y-76383839D01*
X145200502Y-76464247D01*
X145166888Y-76401029D01*
X144983713Y-76176433D01*
X144760401Y-75991694D01*
X144505461Y-75853848D01*
X144228601Y-75768146D01*
X143940367Y-75737851D01*
X143651739Y-75764118D01*
X143373709Y-75845947D01*
X143116869Y-75980220D01*
X142891000Y-76161823D01*
X142704706Y-76383839D01*
X142660502Y-76464247D01*
X142626888Y-76401029D01*
X142443713Y-76176433D01*
X142220401Y-75991694D01*
X141965461Y-75853848D01*
X141688601Y-75768146D01*
X141400367Y-75737851D01*
X141111739Y-75764118D01*
X140833709Y-75845947D01*
X140576869Y-75980220D01*
X140351000Y-76161823D01*
X140164706Y-76383839D01*
X140120502Y-76464247D01*
X140086888Y-76401029D01*
X139903713Y-76176433D01*
X139680401Y-75991694D01*
X139425461Y-75853848D01*
X139148601Y-75768146D01*
X138860367Y-75737851D01*
X138571739Y-75764118D01*
X138293709Y-75845947D01*
X138036869Y-75980220D01*
X137811000Y-76161823D01*
X137624706Y-76383839D01*
X137580502Y-76464247D01*
X137546888Y-76401029D01*
X137363713Y-76176433D01*
X137140401Y-75991694D01*
X136885461Y-75853848D01*
X136608601Y-75768146D01*
X136320367Y-75737851D01*
X136031739Y-75764118D01*
X135753709Y-75845947D01*
X135496869Y-75980220D01*
X135271000Y-76161823D01*
X135084706Y-76383839D01*
X135040502Y-76464247D01*
X135006888Y-76401029D01*
X134823713Y-76176433D01*
X134600401Y-75991694D01*
X134345461Y-75853848D01*
X134068601Y-75768146D01*
X133780367Y-75737851D01*
X133491739Y-75764118D01*
X133213709Y-75845947D01*
X132956869Y-75980220D01*
X132731000Y-76161823D01*
X132544706Y-76383839D01*
X132500502Y-76464247D01*
X132466888Y-76401029D01*
X132283713Y-76176433D01*
X132060401Y-75991694D01*
X131805461Y-75853848D01*
X131528601Y-75768146D01*
X131240367Y-75737851D01*
X130951739Y-75764118D01*
X130673709Y-75845947D01*
X130416869Y-75980220D01*
X130191000Y-76161823D01*
X130004706Y-76383839D01*
X129960502Y-76464247D01*
X129926888Y-76401029D01*
X129743713Y-76176433D01*
X129520401Y-75991694D01*
X129265461Y-75853848D01*
X128988601Y-75768146D01*
X128700367Y-75737851D01*
X128411739Y-75764118D01*
X128133709Y-75845947D01*
X127876869Y-75980220D01*
X127651000Y-76161823D01*
X127464706Y-76383839D01*
X127420502Y-76464247D01*
X127386888Y-76401029D01*
X127203713Y-76176433D01*
X126980401Y-75991694D01*
X126725461Y-75853848D01*
X126448601Y-75768146D01*
X126160367Y-75737851D01*
X125871739Y-75764118D01*
X125593709Y-75845947D01*
X125336869Y-75980220D01*
X125111000Y-76161823D01*
X124924706Y-76383839D01*
X124880502Y-76464247D01*
X124846888Y-76401029D01*
X124663713Y-76176433D01*
X124440401Y-75991694D01*
X124185461Y-75853848D01*
X123908601Y-75768146D01*
X123620367Y-75737851D01*
X123331739Y-75764118D01*
X123053709Y-75845947D01*
X122796869Y-75980220D01*
X122571000Y-76161823D01*
X122384706Y-76383839D01*
X122340502Y-76464247D01*
X122306888Y-76401029D01*
X122123713Y-76176433D01*
X121900401Y-75991694D01*
X121645461Y-75853848D01*
X121368601Y-75768146D01*
X121080367Y-75737851D01*
X120791739Y-75764118D01*
X120513709Y-75845947D01*
X120256869Y-75980220D01*
X120031000Y-76161823D01*
X119844706Y-76383839D01*
X119800502Y-76464247D01*
X119766888Y-76401029D01*
X119583713Y-76176433D01*
X119360401Y-75991694D01*
X119105461Y-75853848D01*
X118828601Y-75768146D01*
X118540367Y-75737851D01*
X118251739Y-75764118D01*
X117973709Y-75845947D01*
X117716869Y-75980220D01*
X117491000Y-76161823D01*
X117304706Y-76383839D01*
X117260502Y-76464247D01*
X117226888Y-76401029D01*
X117043713Y-76176433D01*
X116820401Y-75991694D01*
X116565461Y-75853848D01*
X116288601Y-75768146D01*
X116000367Y-75737851D01*
X115711739Y-75764118D01*
X115433709Y-75845947D01*
X115176869Y-75980220D01*
X114951000Y-76161823D01*
X114764706Y-76383839D01*
X114720502Y-76464247D01*
X114686888Y-76401029D01*
X114503713Y-76176433D01*
X114280401Y-75991694D01*
X114025461Y-75853848D01*
X113748601Y-75768146D01*
X113460367Y-75737851D01*
X113171739Y-75764118D01*
X112893709Y-75845947D01*
X112636869Y-75980220D01*
X112411000Y-76161823D01*
X112224706Y-76383839D01*
X112178043Y-76468720D01*
X112066179Y-76298069D01*
X111862153Y-76090416D01*
X111621536Y-75926557D01*
X111353575Y-75812789D01*
X111328540Y-75805203D01*
X111100500Y-75917503D01*
X111100500Y-77039500D01*
X111120500Y-77039500D01*
X111120500Y-77420500D01*
X111100500Y-77420500D01*
X111100500Y-77440500D01*
X110719500Y-77440500D01*
X110719500Y-77420500D01*
X108560500Y-77420500D01*
X108560500Y-77440500D01*
X108179500Y-77440500D01*
X108179500Y-77420500D01*
X107056012Y-77420500D01*
X106945195Y-77648542D01*
X107054226Y-77918465D01*
X107213821Y-78161931D01*
X107358129Y-78308805D01*
X107247366Y-78343106D01*
X107097441Y-78441900D01*
X106980975Y-78578550D01*
X106907190Y-78742237D01*
X106881928Y-78920000D01*
X106881928Y-79895232D01*
X106723580Y-80053580D01*
X106664023Y-80126086D01*
X106603685Y-80197994D01*
X106601111Y-80202675D01*
X106597720Y-80206804D01*
X106553372Y-80289512D01*
X106508158Y-80371755D01*
X106506542Y-80376848D01*
X106504018Y-80381556D01*
X106476572Y-80471327D01*
X106448202Y-80560762D01*
X106447607Y-80566068D01*
X106446044Y-80571180D01*
X106436557Y-80664581D01*
X106426099Y-80757814D01*
X106426026Y-80768255D01*
X106426006Y-80768453D01*
X106426023Y-80768638D01*
X106426000Y-80772000D01*
X106426000Y-89892938D01*
X106347232Y-90076719D01*
X106300628Y-90295975D01*
X106297498Y-90520107D01*
X100710000Y-90520107D01*
X100710000Y-78530158D01*
X101340211Y-78530158D01*
X101387201Y-78949089D01*
X101514668Y-79350915D01*
X101717755Y-79720329D01*
X101988727Y-80043261D01*
X102317263Y-80307411D01*
X102690850Y-80502717D01*
X103095256Y-80621740D01*
X103515080Y-80659947D01*
X103934328Y-80615883D01*
X104337034Y-80491224D01*
X104707857Y-80290721D01*
X105032673Y-80022010D01*
X105299110Y-79695326D01*
X105497019Y-79323112D01*
X105618863Y-78919546D01*
X105660000Y-78500000D01*
X105659158Y-78439689D01*
X105606323Y-78021455D01*
X105473258Y-77621449D01*
X105265033Y-77254906D01*
X104989578Y-76935789D01*
X104830442Y-76811458D01*
X106945195Y-76811458D01*
X107056012Y-77039500D01*
X108179500Y-77039500D01*
X108179500Y-75917503D01*
X108560500Y-75917503D01*
X108560500Y-77039500D01*
X110719500Y-77039500D01*
X110719500Y-75917503D01*
X110491460Y-75805203D01*
X110466425Y-75812789D01*
X110198464Y-75926557D01*
X109957847Y-76090416D01*
X109753821Y-76298069D01*
X109640000Y-76471706D01*
X109526179Y-76298069D01*
X109322153Y-76090416D01*
X109081536Y-75926557D01*
X108813575Y-75812789D01*
X108788540Y-75805203D01*
X108560500Y-75917503D01*
X108179500Y-75917503D01*
X107951460Y-75805203D01*
X107926425Y-75812789D01*
X107658464Y-75926557D01*
X107417847Y-76090416D01*
X107213821Y-76298069D01*
X107054226Y-76541535D01*
X106945195Y-76811458D01*
X104830442Y-76811458D01*
X104657386Y-76676252D01*
X104281109Y-76486181D01*
X103875080Y-76372815D01*
X103454764Y-76340474D01*
X103036172Y-76390388D01*
X102635246Y-76520657D01*
X102267259Y-76726318D01*
X101946226Y-76999538D01*
X101684376Y-77329910D01*
X101491683Y-77704851D01*
X101375486Y-78110079D01*
X101340211Y-78530158D01*
X100710000Y-78530158D01*
X100710000Y-78034721D01*
X100756953Y-77555866D01*
X100885938Y-77128645D01*
X101095446Y-76734616D01*
X101377499Y-76388786D01*
X101721351Y-76104327D01*
X102113910Y-75892071D01*
X102540213Y-75760108D01*
X103016964Y-75710000D01*
X161965279Y-75710000D01*
X162444134Y-75756953D01*
G36*
X115633500Y-108902500D02*
X115653500Y-108902500D01*
X115653500Y-109283500D01*
X115633500Y-109283500D01*
X115633500Y-110406988D01*
X115861542Y-110517805D01*
X115887500Y-110507320D01*
X115887500Y-112684928D01*
X114998500Y-112684928D01*
X114998500Y-110507320D01*
X115024458Y-110517805D01*
X115252500Y-110406988D01*
X115252500Y-109283500D01*
X115232500Y-109283500D01*
X115232500Y-108902500D01*
X115252500Y-108902500D01*
X115252500Y-108882500D01*
X115633500Y-108882500D01*
X115633500Y-108902500D01*
X115633500Y-108902500D01*
G37*
X115633500Y-108902500D02*
X115653500Y-108902500D01*
X115653500Y-109283500D01*
X115633500Y-109283500D01*
X115633500Y-110406988D01*
X115861542Y-110517805D01*
X115887500Y-110507320D01*
X115887500Y-112684928D01*
X114998500Y-112684928D01*
X114998500Y-110507320D01*
X115024458Y-110517805D01*
X115252500Y-110406988D01*
X115252500Y-109283500D01*
X115232500Y-109283500D01*
X115232500Y-108902500D01*
X115252500Y-108902500D01*
X115252500Y-108882500D01*
X115633500Y-108882500D01*
X115633500Y-108902500D01*
G36*
X118173500Y-108902500D02*
X118193500Y-108902500D01*
X118193500Y-109283500D01*
X118173500Y-109283500D01*
X118173500Y-110406988D01*
X118401542Y-110517805D01*
X118427500Y-110507320D01*
X118427500Y-112684928D01*
X117538500Y-112684928D01*
X117538500Y-110507320D01*
X117564458Y-110517805D01*
X117792500Y-110406988D01*
X117792500Y-109283500D01*
X117772500Y-109283500D01*
X117772500Y-108902500D01*
X117792500Y-108902500D01*
X117792500Y-108882500D01*
X118173500Y-108882500D01*
X118173500Y-108902500D01*
X118173500Y-108902500D01*
G37*
X118173500Y-108902500D02*
X118193500Y-108902500D01*
X118193500Y-109283500D01*
X118173500Y-109283500D01*
X118173500Y-110406988D01*
X118401542Y-110517805D01*
X118427500Y-110507320D01*
X118427500Y-112684928D01*
X117538500Y-112684928D01*
X117538500Y-110507320D01*
X117564458Y-110517805D01*
X117792500Y-110406988D01*
X117792500Y-109283500D01*
X117772500Y-109283500D01*
X117772500Y-108902500D01*
X117792500Y-108902500D01*
X117792500Y-108882500D01*
X118173500Y-108882500D01*
X118173500Y-108902500D01*
G36*
X120713500Y-108902500D02*
X120733500Y-108902500D01*
X120733500Y-109283500D01*
X120713500Y-109283500D01*
X120713500Y-110406988D01*
X120941542Y-110517805D01*
X120967500Y-110507320D01*
X120967500Y-112684928D01*
X120078500Y-112684928D01*
X120078500Y-110507320D01*
X120104458Y-110517805D01*
X120332500Y-110406988D01*
X120332500Y-109283500D01*
X120312500Y-109283500D01*
X120312500Y-108902500D01*
X120332500Y-108902500D01*
X120332500Y-108882500D01*
X120713500Y-108882500D01*
X120713500Y-108902500D01*
X120713500Y-108902500D01*
G37*
X120713500Y-108902500D02*
X120733500Y-108902500D01*
X120733500Y-109283500D01*
X120713500Y-109283500D01*
X120713500Y-110406988D01*
X120941542Y-110517805D01*
X120967500Y-110507320D01*
X120967500Y-112684928D01*
X120078500Y-112684928D01*
X120078500Y-110507320D01*
X120104458Y-110517805D01*
X120332500Y-110406988D01*
X120332500Y-109283500D01*
X120312500Y-109283500D01*
X120312500Y-108902500D01*
X120332500Y-108902500D01*
X120332500Y-108882500D01*
X120713500Y-108882500D01*
X120713500Y-108902500D01*
G36*
X128333500Y-108902500D02*
X128353500Y-108902500D01*
X128353500Y-109283500D01*
X128333500Y-109283500D01*
X128333500Y-110406988D01*
X128561542Y-110517805D01*
X128587500Y-110507320D01*
X128587500Y-112684928D01*
X127698500Y-112684928D01*
X127698500Y-110507320D01*
X127724458Y-110517805D01*
X127952500Y-110406988D01*
X127952500Y-109283500D01*
X127932500Y-109283500D01*
X127932500Y-108902500D01*
X127952500Y-108902500D01*
X127952500Y-108882500D01*
X128333500Y-108882500D01*
X128333500Y-108902500D01*
X128333500Y-108902500D01*
G37*
X128333500Y-108902500D02*
X128353500Y-108902500D01*
X128353500Y-109283500D01*
X128333500Y-109283500D01*
X128333500Y-110406988D01*
X128561542Y-110517805D01*
X128587500Y-110507320D01*
X128587500Y-112684928D01*
X127698500Y-112684928D01*
X127698500Y-110507320D01*
X127724458Y-110517805D01*
X127952500Y-110406988D01*
X127952500Y-109283500D01*
X127932500Y-109283500D01*
X127932500Y-108902500D01*
X127952500Y-108902500D01*
X127952500Y-108882500D01*
X128333500Y-108882500D01*
X128333500Y-108902500D01*
G36*
X123253500Y-108902500D02*
X123273500Y-108902500D01*
X123273500Y-109283500D01*
X123253500Y-109283500D01*
X123253500Y-110406988D01*
X123481542Y-110517805D01*
X123507500Y-110507320D01*
X123507500Y-112684928D01*
X122618500Y-112684928D01*
X122618500Y-110507320D01*
X122644458Y-110517805D01*
X122872500Y-110406988D01*
X122872500Y-109283500D01*
X122852500Y-109283500D01*
X122852500Y-108902500D01*
X122872500Y-108902500D01*
X122872500Y-108882500D01*
X123253500Y-108882500D01*
X123253500Y-108902500D01*
X123253500Y-108902500D01*
G37*
X123253500Y-108902500D02*
X123273500Y-108902500D01*
X123273500Y-109283500D01*
X123253500Y-109283500D01*
X123253500Y-110406988D01*
X123481542Y-110517805D01*
X123507500Y-110507320D01*
X123507500Y-112684928D01*
X122618500Y-112684928D01*
X122618500Y-110507320D01*
X122644458Y-110517805D01*
X122872500Y-110406988D01*
X122872500Y-109283500D01*
X122852500Y-109283500D01*
X122852500Y-108902500D01*
X122872500Y-108902500D01*
X122872500Y-108882500D01*
X123253500Y-108882500D01*
X123253500Y-108902500D01*
G36*
X125793500Y-108902500D02*
X125813500Y-108902500D01*
X125813500Y-109283500D01*
X125793500Y-109283500D01*
X125793500Y-110406988D01*
X126021542Y-110517805D01*
X126047500Y-110507320D01*
X126047500Y-112684928D01*
X125158500Y-112684928D01*
X125158500Y-110507320D01*
X125184458Y-110517805D01*
X125412500Y-110406988D01*
X125412500Y-109283500D01*
X125392500Y-109283500D01*
X125392500Y-108902500D01*
X125412500Y-108902500D01*
X125412500Y-108882500D01*
X125793500Y-108882500D01*
X125793500Y-108902500D01*
X125793500Y-108902500D01*
G37*
X125793500Y-108902500D02*
X125813500Y-108902500D01*
X125813500Y-109283500D01*
X125793500Y-109283500D01*
X125793500Y-110406988D01*
X126021542Y-110517805D01*
X126047500Y-110507320D01*
X126047500Y-112684928D01*
X125158500Y-112684928D01*
X125158500Y-110507320D01*
X125184458Y-110517805D01*
X125412500Y-110406988D01*
X125412500Y-109283500D01*
X125392500Y-109283500D01*
X125392500Y-108902500D01*
X125412500Y-108902500D01*
X125412500Y-108882500D01*
X125793500Y-108882500D01*
X125793500Y-108902500D01*
G36*
X113093500Y-108902500D02*
X113113500Y-108902500D01*
X113113500Y-109283500D01*
X113093500Y-109283500D01*
X113093500Y-110406988D01*
X113321542Y-110517805D01*
X113347500Y-110507320D01*
X113347500Y-112684928D01*
X112204500Y-112684928D01*
X112204500Y-110402196D01*
X112214535Y-110408774D01*
X112484458Y-110517805D01*
X112712500Y-110406988D01*
X112712500Y-109283500D01*
X112692500Y-109283500D01*
X112692500Y-108902500D01*
X112712500Y-108902500D01*
X112712500Y-108882500D01*
X113093500Y-108882500D01*
X113093500Y-108902500D01*
X113093500Y-108902500D01*
G37*
X113093500Y-108902500D02*
X113113500Y-108902500D01*
X113113500Y-109283500D01*
X113093500Y-109283500D01*
X113093500Y-110406988D01*
X113321542Y-110517805D01*
X113347500Y-110507320D01*
X113347500Y-112684928D01*
X112204500Y-112684928D01*
X112204500Y-110402196D01*
X112214535Y-110408774D01*
X112484458Y-110517805D01*
X112712500Y-110406988D01*
X112712500Y-109283500D01*
X112692500Y-109283500D01*
X112692500Y-108902500D01*
X112712500Y-108902500D01*
X112712500Y-108882500D01*
X113093500Y-108882500D01*
X113093500Y-108902500D01*
G36*
X128342763Y-94329211D02*
X128273270Y-94433215D01*
X128225403Y-94548777D01*
X128201000Y-94671458D01*
X128201000Y-94700250D01*
X128359750Y-94859000D01*
X129095500Y-94859000D01*
X129095500Y-94773500D01*
X129476500Y-94773500D01*
X129476500Y-94859000D01*
X129496500Y-94859000D01*
X129496500Y-95109000D01*
X129476500Y-95109000D01*
X129476500Y-95186500D01*
X129095500Y-95186500D01*
X129095500Y-95109000D01*
X128359750Y-95109000D01*
X128282250Y-95186500D01*
X127580072Y-95186500D01*
X127580072Y-94734000D01*
X127572008Y-94632879D01*
X127518894Y-94461366D01*
X127420100Y-94311441D01*
X127340971Y-94244000D01*
X128427974Y-94244000D01*
X128342763Y-94329211D01*
X128342763Y-94329211D01*
G37*
X128342763Y-94329211D02*
X128273270Y-94433215D01*
X128225403Y-94548777D01*
X128201000Y-94671458D01*
X128201000Y-94700250D01*
X128359750Y-94859000D01*
X129095500Y-94859000D01*
X129095500Y-94773500D01*
X129476500Y-94773500D01*
X129476500Y-94859000D01*
X129496500Y-94859000D01*
X129496500Y-95109000D01*
X129476500Y-95109000D01*
X129476500Y-95186500D01*
X129095500Y-95186500D01*
X129095500Y-95109000D01*
X128359750Y-95109000D01*
X128282250Y-95186500D01*
X127580072Y-95186500D01*
X127580072Y-94734000D01*
X127572008Y-94632879D01*
X127518894Y-94461366D01*
X127420100Y-94311441D01*
X127340971Y-94244000D01*
X128427974Y-94244000D01*
X128342763Y-94329211D01*
G36*
X130345775Y-94546791D02*
X130298730Y-94433215D01*
X130229237Y-94329211D01*
X130140789Y-94240763D01*
X130128015Y-94232227D01*
X130158559Y-94212100D01*
X130202111Y-94161000D01*
X130731566Y-94161000D01*
X130345775Y-94546791D01*
X130345775Y-94546791D01*
G37*
X130345775Y-94546791D02*
X130298730Y-94433215D01*
X130229237Y-94329211D01*
X130140789Y-94240763D01*
X130128015Y-94232227D01*
X130158559Y-94212100D01*
X130202111Y-94161000D01*
X130731566Y-94161000D01*
X130345775Y-94546791D01*
G36*
X153924000Y-88961631D02*
X153924000Y-91632369D01*
X153653117Y-91903252D01*
X153649780Y-91896869D01*
X153468177Y-91671000D01*
X153422939Y-91633041D01*
X153435223Y-91630597D01*
X153550785Y-91582730D01*
X153654789Y-91513237D01*
X153743237Y-91424789D01*
X153812730Y-91320785D01*
X153860597Y-91205223D01*
X153885000Y-91082542D01*
X153885000Y-90519250D01*
X153726250Y-90360500D01*
X152590500Y-90360500D01*
X152590500Y-90380500D01*
X152209500Y-90380500D01*
X152209500Y-90360500D01*
X152189500Y-90360500D01*
X152189500Y-89979500D01*
X152209500Y-89979500D01*
X152209500Y-88843750D01*
X152590500Y-88843750D01*
X152590500Y-89979500D01*
X153726250Y-89979500D01*
X153885000Y-89820750D01*
X153885000Y-89257458D01*
X153860597Y-89134777D01*
X153812730Y-89019215D01*
X153743237Y-88915211D01*
X153654789Y-88826763D01*
X153550785Y-88757270D01*
X153435223Y-88709403D01*
X153312542Y-88685000D01*
X152749250Y-88685000D01*
X152590500Y-88843750D01*
X152209500Y-88843750D01*
X152050750Y-88685000D01*
X151487458Y-88685000D01*
X151364777Y-88709403D01*
X151249215Y-88757270D01*
X151145211Y-88826763D01*
X151126788Y-88845186D01*
X151051450Y-88780975D01*
X150887763Y-88707190D01*
X150710000Y-88681928D01*
X149010000Y-88681928D01*
X148908879Y-88689992D01*
X148737366Y-88743106D01*
X148587441Y-88841900D01*
X148470975Y-88978550D01*
X148397190Y-89142237D01*
X148371928Y-89320000D01*
X148371928Y-91020000D01*
X148379992Y-91121121D01*
X148433106Y-91292634D01*
X148531900Y-91442559D01*
X148668550Y-91559025D01*
X148832237Y-91632810D01*
X148834776Y-91633171D01*
X148806433Y-91656287D01*
X148621694Y-91879599D01*
X148584710Y-91948000D01*
X143825631Y-91948000D01*
X142139815Y-90262185D01*
X142085401Y-90217488D01*
X142031505Y-90172264D01*
X142027997Y-90170336D01*
X142024897Y-90167789D01*
X141962831Y-90134510D01*
X141901184Y-90100619D01*
X141897364Y-90099407D01*
X141893833Y-90097514D01*
X141826536Y-90076939D01*
X141759429Y-90055652D01*
X141755446Y-90055205D01*
X141751615Y-90054034D01*
X141681627Y-90046925D01*
X141611639Y-90039074D01*
X141603803Y-90039019D01*
X141603660Y-90039005D01*
X141603527Y-90039018D01*
X141601000Y-90039000D01*
X140416826Y-90039000D01*
X140414450Y-90036975D01*
X140250763Y-89963190D01*
X140073000Y-89937928D01*
X139398164Y-89937928D01*
X139375615Y-89931034D01*
X139227660Y-89916005D01*
X139079603Y-89930000D01*
X139053009Y-89937928D01*
X138623000Y-89937928D01*
X138521879Y-89945992D01*
X138350366Y-89999106D01*
X138200441Y-90097900D01*
X138083975Y-90234550D01*
X138010190Y-90398237D01*
X137994954Y-90505447D01*
X137836849Y-90504343D01*
X137656733Y-90538701D01*
X137486722Y-90607390D01*
X137333291Y-90707793D01*
X137202283Y-90836086D01*
X137098689Y-90987381D01*
X137026454Y-91155916D01*
X136988331Y-91335272D01*
X136985771Y-91518617D01*
X137018872Y-91698968D01*
X137040813Y-91754384D01*
X134811072Y-93984126D01*
X134811072Y-93826000D01*
X134803008Y-93724879D01*
X134798904Y-93711626D01*
X134811072Y-93626000D01*
X134811072Y-93176000D01*
X134803008Y-93074879D01*
X134798904Y-93061626D01*
X134811072Y-92976000D01*
X134811072Y-92526000D01*
X134803008Y-92424879D01*
X134801647Y-92420483D01*
X134808000Y-92388542D01*
X134808000Y-92373863D01*
X134946079Y-92376755D01*
X135126657Y-92344914D01*
X135297610Y-92278606D01*
X135452429Y-92180355D01*
X135585215Y-92053904D01*
X135690911Y-91904070D01*
X135765492Y-91736560D01*
X135806116Y-91557754D01*
X135809040Y-91348319D01*
X135773425Y-91168448D01*
X135703550Y-90998920D01*
X135602079Y-90846193D01*
X135472875Y-90716084D01*
X135320860Y-90613549D01*
X135151825Y-90542493D01*
X134972207Y-90505623D01*
X134805367Y-90504458D01*
X134803008Y-90474879D01*
X134749894Y-90303366D01*
X134651100Y-90153441D01*
X134514450Y-90036975D01*
X134371219Y-89972411D01*
X135697630Y-88646000D01*
X153608370Y-88646000D01*
X153924000Y-88961631D01*
X153924000Y-88961631D01*
G37*
X153924000Y-88961631D02*
X153924000Y-91632369D01*
X153653117Y-91903252D01*
X153649780Y-91896869D01*
X153468177Y-91671000D01*
X153422939Y-91633041D01*
X153435223Y-91630597D01*
X153550785Y-91582730D01*
X153654789Y-91513237D01*
X153743237Y-91424789D01*
X153812730Y-91320785D01*
X153860597Y-91205223D01*
X153885000Y-91082542D01*
X153885000Y-90519250D01*
X153726250Y-90360500D01*
X152590500Y-90360500D01*
X152590500Y-90380500D01*
X152209500Y-90380500D01*
X152209500Y-90360500D01*
X152189500Y-90360500D01*
X152189500Y-89979500D01*
X152209500Y-89979500D01*
X152209500Y-88843750D01*
X152590500Y-88843750D01*
X152590500Y-89979500D01*
X153726250Y-89979500D01*
X153885000Y-89820750D01*
X153885000Y-89257458D01*
X153860597Y-89134777D01*
X153812730Y-89019215D01*
X153743237Y-88915211D01*
X153654789Y-88826763D01*
X153550785Y-88757270D01*
X153435223Y-88709403D01*
X153312542Y-88685000D01*
X152749250Y-88685000D01*
X152590500Y-88843750D01*
X152209500Y-88843750D01*
X152050750Y-88685000D01*
X151487458Y-88685000D01*
X151364777Y-88709403D01*
X151249215Y-88757270D01*
X151145211Y-88826763D01*
X151126788Y-88845186D01*
X151051450Y-88780975D01*
X150887763Y-88707190D01*
X150710000Y-88681928D01*
X149010000Y-88681928D01*
X148908879Y-88689992D01*
X148737366Y-88743106D01*
X148587441Y-88841900D01*
X148470975Y-88978550D01*
X148397190Y-89142237D01*
X148371928Y-89320000D01*
X148371928Y-91020000D01*
X148379992Y-91121121D01*
X148433106Y-91292634D01*
X148531900Y-91442559D01*
X148668550Y-91559025D01*
X148832237Y-91632810D01*
X148834776Y-91633171D01*
X148806433Y-91656287D01*
X148621694Y-91879599D01*
X148584710Y-91948000D01*
X143825631Y-91948000D01*
X142139815Y-90262185D01*
X142085401Y-90217488D01*
X142031505Y-90172264D01*
X142027997Y-90170336D01*
X142024897Y-90167789D01*
X141962831Y-90134510D01*
X141901184Y-90100619D01*
X141897364Y-90099407D01*
X141893833Y-90097514D01*
X141826536Y-90076939D01*
X141759429Y-90055652D01*
X141755446Y-90055205D01*
X141751615Y-90054034D01*
X141681627Y-90046925D01*
X141611639Y-90039074D01*
X141603803Y-90039019D01*
X141603660Y-90039005D01*
X141603527Y-90039018D01*
X141601000Y-90039000D01*
X140416826Y-90039000D01*
X140414450Y-90036975D01*
X140250763Y-89963190D01*
X140073000Y-89937928D01*
X139398164Y-89937928D01*
X139375615Y-89931034D01*
X139227660Y-89916005D01*
X139079603Y-89930000D01*
X139053009Y-89937928D01*
X138623000Y-89937928D01*
X138521879Y-89945992D01*
X138350366Y-89999106D01*
X138200441Y-90097900D01*
X138083975Y-90234550D01*
X138010190Y-90398237D01*
X137994954Y-90505447D01*
X137836849Y-90504343D01*
X137656733Y-90538701D01*
X137486722Y-90607390D01*
X137333291Y-90707793D01*
X137202283Y-90836086D01*
X137098689Y-90987381D01*
X137026454Y-91155916D01*
X136988331Y-91335272D01*
X136985771Y-91518617D01*
X137018872Y-91698968D01*
X137040813Y-91754384D01*
X134811072Y-93984126D01*
X134811072Y-93826000D01*
X134803008Y-93724879D01*
X134798904Y-93711626D01*
X134811072Y-93626000D01*
X134811072Y-93176000D01*
X134803008Y-93074879D01*
X134798904Y-93061626D01*
X134811072Y-92976000D01*
X134811072Y-92526000D01*
X134803008Y-92424879D01*
X134801647Y-92420483D01*
X134808000Y-92388542D01*
X134808000Y-92373863D01*
X134946079Y-92376755D01*
X135126657Y-92344914D01*
X135297610Y-92278606D01*
X135452429Y-92180355D01*
X135585215Y-92053904D01*
X135690911Y-91904070D01*
X135765492Y-91736560D01*
X135806116Y-91557754D01*
X135809040Y-91348319D01*
X135773425Y-91168448D01*
X135703550Y-90998920D01*
X135602079Y-90846193D01*
X135472875Y-90716084D01*
X135320860Y-90613549D01*
X135151825Y-90542493D01*
X134972207Y-90505623D01*
X134805367Y-90504458D01*
X134803008Y-90474879D01*
X134749894Y-90303366D01*
X134651100Y-90153441D01*
X134514450Y-90036975D01*
X134371219Y-89972411D01*
X135697630Y-88646000D01*
X153608370Y-88646000D01*
X153924000Y-88961631D01*
M02*
