M48
;DRILL file {KiCad 4.0.6} date 02/08/19 22:02:54
;FORMAT={-:-/ absolute / inch / decimal}
FMAT,2
INCH,TZ
T1C0.016
T2C0.027
T3C0.039
%
G90
G05
M72
T1
X4.79Y-3.65
X4.92Y-3.52
X4.93Y-3.66
X5.14Y-3.61
X5.14Y-3.71
X5.19Y-3.8
X5.21Y-3.49
X5.31Y-3.6
X5.37Y-3.6
X5.43Y-3.6
X5.7Y-4.13
T2
X4.23Y-3.56
X4.32Y-4.24
T3
X4.2665Y-3.0406
X4.2665Y-3.1406
X4.3665Y-3.0406
X4.3665Y-3.1406
X4.3665Y-3.3071
X4.445Y-4.095
X4.445Y-4.195
X4.445Y-4.295
X4.445Y-4.495
X4.445Y-4.595
X4.445Y-4.695
X4.45Y-3.76
X4.45Y-3.86
X4.4665Y-3.0406
X4.4665Y-3.1406
X4.4665Y-3.3071
X4.545Y-4.095
X4.545Y-4.195
X4.545Y-4.295
X4.545Y-4.495
X4.545Y-4.595
X4.545Y-4.695
X4.5665Y-3.0406
X4.5665Y-3.1406
X4.645Y-4.095
X4.645Y-4.195
X4.645Y-4.295
X4.645Y-4.495
X4.645Y-4.595
X4.645Y-4.695
X4.6665Y-3.0406
X4.6665Y-3.1406
X4.745Y-4.095
X4.745Y-4.195
X4.745Y-4.295
X4.745Y-4.495
X4.745Y-4.595
X4.745Y-4.695
X4.7665Y-3.0406
X4.7665Y-3.1406
X4.845Y-4.095
X4.845Y-4.195
X4.845Y-4.295
X4.845Y-4.495
X4.845Y-4.595
X4.845Y-4.695
X4.8665Y-3.0406
X4.8665Y-3.1406
X4.945Y-4.095
X4.945Y-4.195
X4.945Y-4.295
X4.945Y-4.495
X4.945Y-4.595
X4.945Y-4.695
X4.9665Y-3.0406
X4.9665Y-3.1406
X5.045Y-4.095
X5.045Y-4.195
X5.045Y-4.295
X5.045Y-4.495
X5.045Y-4.595
X5.045Y-4.695
X5.0665Y-3.0406
X5.0665Y-3.1406
X5.145Y-4.095
X5.145Y-4.195
X5.145Y-4.295
X5.145Y-4.495
X5.145Y-4.595
X5.145Y-4.695
X5.1665Y-3.0406
X5.1665Y-3.1406
X5.2665Y-3.0406
X5.2665Y-3.1406
X5.3665Y-3.0406
X5.3665Y-3.1406
X5.4665Y-3.0406
X5.4665Y-3.1406
X5.5665Y-3.0406
X5.5665Y-3.1406
X5.6665Y-3.0406
X5.6665Y-3.1406
X5.7665Y-3.0406
X5.7665Y-3.1406
X5.8665Y-3.0406
X5.8665Y-3.1406
X5.9Y-3.55
X5.9Y-3.65
X5.9Y-3.75
X5.9665Y-3.0406
X5.9665Y-3.1406
X6.Y-3.55
X6.Y-3.65
X6.Y-3.75
X6.Y-3.85
X6.0665Y-3.0406
X6.0665Y-3.1406
X6.1665Y-3.0406
X6.1665Y-3.1406
T0
M30
